<?xml version="1.0" encoding="UTF-8" standalone="no"?>
<!-- Created with Inkscape (http://www.inkscape.org/) -->

<svg
   xmlns:dc="http://purl.org/dc/elements/1.1/"
   xmlns:cc="http://creativecommons.org/ns#"
   xmlns:rdf="http://www.w3.org/1999/02/22-rdf-syntax-ns#"
   xmlns:svg="http://www.w3.org/2000/svg"
   xmlns="http://www.w3.org/2000/svg"
   xmlns:sodipodi="http://sodipodi.sourceforge.net/DTD/sodipodi-0.dtd"
   xmlns:inkscape="http://www.inkscape.org/namespaces/inkscape"
   width="210mm"
   height="297mm"
   viewBox="0 0 744.09448819 1052.3622047"
   id="svg5881"
   version="1.1"
   inkscape:version="0.91 r13725"
   sodipodi:docname="boba-fett.svg">
  <defs
     id="defs5883" />
  <sodipodi:namedview
     id="base"
     pagecolor="#ffffff"
     bordercolor="#666666"
     borderopacity="1.0"
     inkscape:pageopacity="0.0"
     inkscape:pageshadow="2"
     inkscape:zoom="0.35"
     inkscape:cx="-46.428571"
     inkscape:cy="520"
     inkscape:document-units="px"
     inkscape:current-layer="layer1"
     showgrid="false"
     inkscape:window-width="1920"
     inkscape:window-height="1027"
     inkscape:window-x="-8"
     inkscape:window-y="-8"
     inkscape:window-maximized="1" />
  <metadata
     id="metadata5886">
    <rdf:RDF>
      <cc:Work
         rdf:about="">
        <dc:format>image/svg+xml</dc:format>
        <dc:type
           rdf:resource="http://purl.org/dc/dcmitype/StillImage" />
        <dc:title></dc:title>
      </cc:Work>
    </rdf:RDF>
  </metadata>
  <g
     inkscape:label="Layer 1"
     inkscape:groupmode="layer"
     id="layer1">
    <path
       style="fill:#000000"
       d="m -15.90701,1331.826 c -3.9123,-1.0258 -10.808,-3.7227 -15.32359,-5.9931 -19.61629,-9.8629 -36.42818,-33.3201 -40.23297,-56.1361 -1.7651,-10.5842 -1.7985,-74.0751 -0.042,-79.027 1.1128,-3.1365 2.36429,-4.1588 9.18179,-7.5 4.3413,-2.1277 7.92399,-4.168 7.96149,-4.534 0.037,-0.366 -2.51929,-3.1734 -5.68179,-6.2387 -4.9445,-4.7925 -6.8908,-5.925 -13.89459,-8.0845 -4.4795,-1.3812 -8.30448,-2.5117 -8.49998,-2.5123 -0.1955,-5e-4 -0.2072,4.387 -0.026,9.75 0.3242,9.5982 0.285,9.7925 -2.49999,12.3996 -4.1518,3.8867 -17.39529,12.4409 -30.73368,19.8514 -12.33279,6.8518 -12.02459,6.4689 -10.10969,12.5591 0.4987,1.5857 0.039,2.3364 -2.0002,3.2654 -2.396,1.0917 -2.6162,1.6491 -2.3167,5.8637 l 0.331,4.6572 -27.69858,15.9828 c -24.06008,13.8833 -27.73818,16.3225 -27.99998,18.5688 -0.5811,4.9851 -3.3833,3.5201 -15.24349,-7.9693 -6.35689,-6.1581 -11.55789,-11.5805 -11.55789,-12.0496 0,-0.8009 6.73459,-5.4553 9.33989,-6.455 0.6532,-0.2507 2.0398,1.1266 3.0813,3.0605 2.119,3.9347 3.1133,4.2312 6.4209,1.9144 1.258,-0.8811 2.40299,-1.4436 2.54459,-1.25 0.1415,0.1936 1.47,2.47 2.9521,5.0587 l 2.6948,4.7068 15.73319,-9.0816 c 8.65319,-4.9948 16.10899,-9.4236 16.56829,-9.8418 0.8494,-0.7734 -1.5909,-6.4121 -3.2075,-7.4112 -0.4876,-0.3014 -5.7783,0.1779 -11.75709,1.065 -25.77688,3.8247 -49.25537,-3.4968 -66.24785,-20.6586 -20.24009,-20.4419 -24.34879,-52.8521 -10.1694,-80.2182 5.7747,-11.1451 13.67519,-21.0814 21.49979,-27.0399 18.27518,-13.9167 62.40025,-38.7272 68.87565,-38.7272 2.133,0 5.46489,1.5244 10.03899,4.5929 3.7656,2.5261 7.19449,4.2136 7.61979,3.75 0.4254,-0.4636 1.5147,-4.2486 2.4207,-8.4111 1.5077,-6.9271 1.5148,-8.1555 0.083,-14.5 -2.3188,-10.2766 -2.0865,-9.9301 -5.25159,-7.8345 -9.8224,6.5031 -13.65399,8.3376 -16.14709,7.7312 -4.4185,-1.0748 -18.00989,-7.881 -31.50208,-15.7752 -7.10009,-4.1543 -13.38319,-7.5533 -13.96239,-7.5533 -0.5792,0 -1.9953,1.1816 -3.1469,2.6259 -2.07219,2.5988 -2.12789,2.6082 -5.39699,0.9177 -3.2519,-1.6816 -3.345,-1.6681 -5.9985,0.8741 -1.4824,1.4203 -3.032,2.5823 -3.4436,2.5823 -0.4117,0 -12.95189,-7.05 -27.86717,-15.6667 -14.91539,-8.6166 -27.60398,-15.62415 -28.19688,-15.57235 -0.593,0.052 -2.0906,0.4043 -3.3281,0.7833 -2.0697,0.6338 -2.25,0.3727 -2.25,-3.2571 0,-3.47724 6.3412,-28.9617 7.49309,-30.11354 0.6342,-0.63424 5.579,1.56898 8.4629,3.77077 l 2.4561,1.87515 -1.9561,3.66095 c -1.9165,3.58688 -1.9178,3.68914 -0.064,5.05419 1.0405,0.76629 2.3905,1.57576 3,1.79885 0.6952,0.25445 0.074,2.29571 -1.6665,5.47749 l -2.7748,5.07189 7.27479,4.21095 c 4.0011,2.316 11.4884,6.67365 16.63829,9.68365 10.00539,5.848 9.51549,5.8437 12.62779,0.1097 1.3517,-2.4905 1.2076,-2.8594 -3.0786,-7.88075 -22.02798,-25.80654 -26.95608,-57.11077 -13.27169,-84.30559 3.847,-7.6451 17.86439,-21.93954 26.04938,-26.56423 17.94819,-10.14116 43.45037,-12.54998 63.30946,-5.97992 12.51839,4.14149 56.03046,28.16134 67.92285,37.4953 l 5.75919,4.52015 -0.341,9.91492 c -0.1876,5.4532 -0.1811,9.91447 0.014,9.91394 0.1954,-5.4e-4 4.02038,-1.13809 8.49998,-2.5279 7.02199,-2.17862 8.98909,-3.33084 14.27179,-8.35962 l 6.12729,-5.8327 -7.98059,-3.89038 c -11.36049,-5.53804 -11.09159,-4.7399 -11.58829,-34.39038 -0.2815,-16.79905 -0.7681,-24.73093 -1.5481,-25.23469 -0.6257,-0.40408 -2.3479,-0.74158 -3.8272,-0.75 -2.37068,-0.0135 -2.72638,-0.4501 -2.99998,-3.68216 -0.2703,-3.1936 -0.7621,-3.81812 -3.81039,-4.83889 l -3.5,-1.17205 -0.2619,-32.4111 c -0.2571,-31.81539 -0.3013,-32.44092 -2.4061,-34.03315 -4.5063,-3.40899 -0.7806,-5.34234 20.83457,-10.81158 11.92479,-3.01728 11.61729,-3.12045 10.97899,3.68362 -0.2966,3.1625 -0.5633,5.8625 -0.5925,6 -0.029,0.1375 -2.0781,0.25 -4.5531,0.25 -4.4762,0 -4.5,0.0185 -4.5,3.5 l 0,3.5 -5.49999,0 -5.49998,0 0,19.5 0,19.5 4.87498,0 c 4.7041,0 4.8971,-0.11398 5.5054,-3.25 0.34669,-1.7875 3.19129,-8.425 6.32129,-14.75 5.0202,-10.14455 6.7581,-12.57432 14.74469,-20.61483 7.67879,-7.73067 10.49629,-9.82222 18.55359,-13.77298 12.08139,-5.92385 21.51768,-7.97814 33.54927,-7.3037 23.60398,1.32315 44.38067,14.54375 57.42086,36.53801 4.767,8.04032 8.88789,18.69862 10.11189,26.1535 2.958,18.01566 2.9754,73.47253 0.025,81.22082 -0.7666,2.01363 -3.1822,3.79998 -9.29379,6.87281 l -8.2579,4.15201 6.4901,6.14872 c 5.3999,5.11597 7.57879,6.45862 12.97199,7.99371 3.5651,1.01474 7.26829,2.06972 8.22939,2.34439 1.6024,0.458 1.6948,-0.24064 1.1136,-8.42754 -0.422,-5.94589 -0.2517,-9.64054 0.51,-11.06387 1.4119,-2.63818 18.38439,-14.07319 33.21578,-22.37877 11.60619,-6.49949 11.72889,-6.65679 9.43949,-12.10008 -0.544,-1.29345 0.044,-2.18269 2.3009,-3.47778 2.4309,-1.39517 2.9323,-2.23981 2.5301,-4.2622 -0.2759,-1.38722 -0.5817,-3.32494 -0.6795,-4.30604 -0.1342,-1.347 6.55099,-5.67156 27.30018,-17.66008 24.64898,-14.24179 27.56028,-16.19438 28.27858,-18.96619 0.4662,-1.79952 1.4556,-3.08991 2.3691,-3.08991 0.8626,0 6.99009,5.32509 13.61669,11.83354 l 12.04829,11.83354 -5.3953,3.15018 c -5.87289,3.42903 -5.98639,3.39986 -9.52629,-2.4487 -1.0839,-1.79069 -1.2563,-1.79607 -4.1364,-0.12916 -3.3422,1.93435 -3.749,1.68973 -6.63339,-3.9894 -0.9078,-1.7875 -2.1222,-3.25 -2.6986,-3.25 -0.8588,0 -31.58978,17.38056 -32.75158,18.52334 -0.193,0.18985 0.6506,2.12725 1.8748,4.30533 2.0471,3.64232 2.4577,3.89359 5.1168,3.13097 1.5902,-0.45604 7.17149,-1.34023 12.40309,-1.96487 33.18267,-3.96195 64.17765,12.98019 76.27203,41.69101 1.20147,2.85219 2.92317,9.55794 3.82599,14.90168 1.37822,8.15764 1.45842,11.20552 0.50004,19.00401 -2.5649,20.87105 -14.30491,41.74184 -29.9182,53.18689 -14.76169,10.8209 -44.53297,28.7612 -57.62816,34.727 -11.32109,5.1576 -11.32329,5.1575 -20.09478,-0.5685 -4.2497,-2.7743 -7.9528,-4.8181 -8.2291,-4.5418 -0.2762,0.2762 -1.3193,4.0129 -2.31779,8.3036 -1.7537,7.5358 -1.7538,8.0667 -0.001,15.6013 0.99779,4.29 2.05249,8.0383 2.34369,8.3295 0.2913,0.2913 3.6014,-1.5312 7.356,-4.05 4.73419,-3.1761 7.85579,-4.5795 10.18599,-4.5795 3.7558,0 21.27569,8.4736 36.07887,17.4499 5.0341,3.0525 9.7746,5.5501 10.5344,5.5501 0.7598,0 2.23929,-1.1777 3.28789,-2.6172 1.8861,-2.5891 1.9417,-2.599 5.1928,-0.9177 3.2309,1.6707 3.3319,1.6558 5.9817,-0.8828 1.48239,-1.4203 3.04069,-2.5823 3.46279,-2.5823 0.4222,0 12.32259,6.6843 26.44528,14.8541 32.25177,18.657 30.15041,17.5732 31.48508,16.2385 1.55831,-1.5583 3.37986,-1.3501 4.07675,0.466 0.70334,1.8329 -0.31874,6.8406 -4.53421,22.2157 l -3.09114,11.2744 -4.62937,-2.6573 c -6.57227,-3.7725 -6.62027,-3.8611 -4.20827,-7.7638 l 2.17471,-3.5187 -2.79791,-1.7518 c -1.53885,-0.9635 -2.96198,-1.8646 -3.16251,-2.0024 -0.20053,-0.1378 0.82392,-2.3771 2.27655,-4.9761 1.45263,-2.599 2.2917,-5.0747 1.8646,-5.5015 -1.1765,-1.1758 -32.45327,-19.0471 -32.70767,-18.689 -0.1219,0.1716 -1.1573,1.8869 -2.30089,3.8119 l -2.0793,3.5 6.39289,7.9397 c 7.7815,9.6643 13.56613,20.5244 16.57425,31.1169 2.86321,10.0822 3.05497,26.6138 0.42273,36.4434 -6.33729,23.6655 -24.72727,41.5846 -49.44285,48.1769 -9.3122,2.4839 -27.34128,2.9531 -37.63568,0.9795 -15.14819,-2.9041 -74.75624,-35.5132 -80.25374,-43.9034 -1.2318,-1.88 -1.4121,-4.1349 -0.9034,-11.3008 0.3495,-4.9237 0.4386,-8.9522 0.198,-8.9522 -0.2407,0 -4.15739,1.1751 -8.70389,2.6113 -7.1339,2.2536 -9.08169,3.3994 -14.21739,8.3632 l -5.951,5.7518 8.2494,4.2918 c 5.83329,3.0348 8.53889,5.0519 9.23769,6.8869 1.5335,4.0265 3.0186,31.5294 2.2657,41.9573 -0.7383,10.2265 -0.3668,11.0931 4.7684,11.1224 2.37069,0.014 2.72639,0.4501 2.99999,3.6821 0.2703,3.1936 0.7621,3.8182 3.8103,4.8389 l 3.5,1.1721 0.2637,32.6331 c 0.2536,31.3943 0.339,32.6736 2.25,33.6963 3.04869,1.6316 2.3705,3.9342 -1.6541,5.6158 -4.3458,1.8158 -25.11948,7.3614 -27.60958,7.3705 -1.4729,0.01 -1.75,-0.9436 -1.75,-5.9936 l 0,-6 4.5,0 c 4.47619,0 4.49999,-0.018 4.49999,-3.5 l 0,-3.5 5.5,0 5.5,0 0,-19.5548 0,-19.5547 -4.6625,0.3048 -4.6625,0.3048 -2.2596,6.7139 c -2.93549,8.7222 -7.21639,16.6497 -13.54559,25.0843 -16.19248,21.5788 -45.50126,32.2766 -70.48304,25.7265 z m -36.80188,-38.7901 c 0.7405,-0.5016 0.1628,-3.2939 -1.8211,-8.8011 -2.82529,-7.8428 -2.98689,-8.0543 -5.83469,-7.6364 -3.693,0.542 -3.7416,2.1519 -0.3226,10.6923 2.0791,5.1934 3.04,6.5074 4.74999,6.4952 1.179,-0.01 2.6318,-0.3459 3.2284,-0.75 z m 113.67992,-7.6367 c 1.5205,-4.346 2.6455,-8.0147 2.5,-8.1526 -0.1456,-0.138 -1.5961,-0.4071 -3.2234,-0.5981 -2.8531,-0.3348 -3.064,-0.068 -5.914,7.4923 -2.46959,6.551 -2.72299,7.9902 -1.5414,8.7557 3.5073,2.2723 5.3524,0.5809 8.1788,-7.4973 z m -101.63853,-2.6028 -2.96669,-9.0047 -3.3621,0.3705 c -1.8491,0.2038 -3.6174,0.6258 -3.9294,0.9378 -0.6284,0.6284 0.9698,5.9375 3.7482,12.4512 1.6828,3.9452 2.0876,4.25 5.64479,4.25 l 3.8319,0 -2.9667,-9.0048 z m 88.83184,1.5308 c 1.4993,-4.1107 2.5502,-8.0012 2.3354,-8.6456 -0.2148,-0.6444 -1.9995,-1.2186 -3.9659,-1.276 l -3.5754,-0.1043 -2.0601,7 c -1.133,3.8499 -2.36289,7.7874 -2.73299,8.7499 -0.5715,1.4859 -0.073,1.75 3.29999,1.75 l 3.9731,0 2.7259,-7.474 z m -56.45796,-9.1537 0,-5.6278 -4.25,0.656 c -5.80409,0.8959 -14.02209,3.6579 -13.24479,4.4515 0.608,0.6208 15.19279,5.9076 16.74479,6.0697 0.4125,0.043 0.75,-2.4541 0.75,-5.5494 z m 26.58118,2.3744 c 4.07,-1.2356 7.40429,-2.5479 7.40939,-2.9162 0.013,-0.8908 -8.41569,-3.6081 -13.74059,-4.43 l -4.24999,-0.656 0,5.7348 c 0,4.8319 0.2504,5.6387 1.5906,5.1244 0.8748,-0.3357 4.92059,-1.6214 8.99059,-2.857 z m -69.43055,-19.6853 c 16.23919,-2.7739 39.45797,-5.0631 51.22866,-5.0506 11.6924,0.012 32.31118,2.0559 50.38677,4.9938 10.06609,1.6361 12.74689,1.7903 13.39409,0.7705 1.2439,-1.96 0.9883,-8.1998 -0.4102,-10.0165 -1.3942,-1.811 -13.69599,-5.3238 -36.03508,-10.2897 -8.18909,-1.8204 -15.05509,-3.4756 -15.25769,-3.6782 -0.2025,-0.2026 -0.83689,-13.4008 -1.40969,-29.3295 -0.5728,-15.9286 -1.3122,-34.0236 -1.6432,-40.2111 l -0.6016,-11.25 -8.9014,0 -8.90129,0 -0.035,4.25 c -0.019,2.3375 -0.6515,20.397 -1.4051,40.1323 -1.0011,26.217 -1.704,36.0886 -2.6096,36.6483 -0.6817,0.4213 -3.98689,1.2864 -7.34489,1.9224 -9.58949,1.8163 -38.35447,8.9755 -41.11357,10.2326 -2.2418,1.0215 -2.4919,1.7216 -2.4919,6.9749 0,3.2117 0.4052,5.8395 0.9006,5.8395 0.4953,0 6.0078,-0.8724 12.24999,-1.9387 z m 0.608,-21.7141 c 8.85189,-3.355 20.39919,-10.7101 21.55879,-13.732 0.44429,-1.158 -0.1596,-1.166 -3.8629,-0.052 -12.73809,3.8336 -24.08338,-5.7269 -27.56158,-23.2254 -1.5198,-7.6458 -2.1784,-8.8264 -4.4403,-7.9585 -1.6132,0.619 -1.697,2.1272 -1.0785,19.3957 0.3688,10.2985 0.945,21.3235 1.2803,24.5 0.706,6.6878 -0.4765,6.598 14.10419,1.0717 z m 115.26742,-3.5972 c 0.014,-4.5375 0.4533,-15.1922 0.9754,-23.6771 0.67799,-11.0168 0.63549,-15.8053 -0.1485,-16.75 -2.2187,-2.6734 -3.7109,-1.3245 -4.8977,4.4271 -2.7335,13.2482 -7.0296,20.7493 -13.83109,24.1495 -5.4635,2.7313 -9.53779,3.1813 -14.70979,1.6248 l -4.6767,-1.4075 2.8811,3.0414 c 4.9741,5.2509 11.53949,9.1586 21.88119,13.0235 5.49999,2.0554 10.56249,3.7554 11.24999,3.7777 0.9002,0.029 1.2573,-2.2678 1.2761,-8.2094 z m -234.39121,-10.9229 c 3.5009,-0.645 6.36529,-1.5239 6.36529,-1.9529 0,-0.4291 -0.5184,-1.9177 -1.1519,-3.3081 -0.83419,-1.831 -1.73029,-2.4027 -3.24999,-2.0736 -1.154,0.2498 -4.7589,0.9145 -8.0109,1.477 -3.25209,0.5626 -6.13769,1.2476 -6.41249,1.5224 -0.2748,0.2748 0.014,1.6265 0.6414,3.0039 1.3059,2.8662 2.6604,3.0188 11.81859,1.3313 z m 351.18442,-1.7389 1.015,-2.9117 -6.6672,-1.1467 c -3.66699,-0.6307 -7.59499,-1.373 -8.72889,-1.6494 -1.5307,-0.3732 -2.38,0.1961 -3.2978,2.2106 -0.68,1.4923 -0.8772,3.055 -0.4384,3.4728 1.0891,1.0367 8.9883,2.6983 13.44999,2.8291 3.1762,0.093 3.7845,-0.2724 4.6673,-2.8047 z m -356.56912,-10.1378 c 4.2625,-0.6783 7.75,-1.6355 7.75,-2.127 0,-0.746 -0.6574,-1.9611 -3.5868,-6.6294 -0.1056,-0.1684 -2.8942,0.3941 -6.197,1.25 -3.30269,0.8558 -7.17749,1.556 -8.61059,1.556 -1.4331,0 -2.6056,0.4931 -2.6056,1.0957 0,1.9522 3.2893,6.7275 4.4106,6.4031 0.5992,-0.1733 4.5769,-0.8701 8.83939,-1.5484 z m 33.97548,-1.6245 c 3.3715,-2.0996 3.66789,-2.6293 3.1188,-5.573 -0.8542,-4.5791 -8.7432,-31.781 -11.8026,-40.6966 -1.4049,-4.094 -2.21399,-7.7655 -1.79799,-8.1588 0.41589,-0.3933 15.60628,-10.0263 33.75627,-21.4067 18.14999,-11.3804 33.21298,-20.8969 33.47328,-21.1479 0.5939,-0.5725 -6.0458,-13.0982 -7.6808,-14.4896 -0.869,-0.7395 -11.01219,4.1831 -36.18187,17.5595 -19.23589,10.223 -35.38758,18.5872 -35.89258,18.5872 -0.5049,0 -3.34809,-2.8125 -6.31809,-6.25 -8.78639,-10.1696 -30.09408,-31.75 -31.34868,-31.75 -0.6378,0 -3.3352,1.3796 -5.99409,3.0659 l -4.8344,3.0659 3.5217,3.6841 c 5.28009,5.5237 20.77128,25.6812 28.09158,36.5536 10.10039,15.0013 21.21028,38.1791 30.10587,62.8079 3.0468,8.4353 2.9596,8.3984 9.7836,4.1485 z m 290.19436,0.1361 c 0.9727,-3.8754 8.81,-23.5707 14.38359,-36.1461 8.5448,-19.2794 22.32869,-40.2934 41.59947,-63.4198 5.9038,-7.085 6.3007,-7.85 4.7683,-9.1916 -3.4473,-3.018 -8.12229,-4.8012 -9.98029,-3.8069 -1.9766,1.0579 -19.04619,18.5518 -29.14508,29.8696 -3.5496,3.978 -6.7655,7.2328 -7.1464,7.2328 -0.3809,0 -16.54718,-8.3947 -35.92497,-18.655 -35.18827,-18.6317 -35.23437,-18.6523 -36.85347,-16.4962 -2.4662,3.2838 -7.5767,13.0354 -7.0692,13.4888 0.2464,0.2202 15.07299,9.5218 32.94798,20.6702 17.87498,11.1485 33.04257,20.77 33.70587,21.3811 0.932,0.8586 0.1774,4.4057 -3.32069,15.6111 -5.9406,19.0293 -9.3796,31.8875 -9.3827,35.0818 0,2.0454 0.9775,3.1208 4.7137,5.1754 2.5939,1.4265 5.019,2.4064 5.38919,2.1776 0.3701,-0.2287 0.9618,-1.5665 1.3147,-2.9728 z m 37.41928,-0.01 c 1.7078,-3.748 1.4573,-4.4517 -1.5894,-4.4648 -1.5125,-0.01 -5.225,-0.6762 -8.25,-1.4881 -3.02499,-0.812 -5.75419,-1.4816 -6.06479,-1.4882 -0.672,-0.014 -4.1616,7.0952 -3.7062,7.5506 0.637,0.637 10.39459,2.2173 14.36039,2.3257 3.4659,0.095 4.2665,-0.2765 5.25,-2.4352 z m -295.41567,-17.453 c 18.88019,-9.6512 20.54219,-10.7143 20.55859,-13.1507 l 0.018,-2.6507 -6.75,2.2779 c -14.91829,5.0342 -23.38268,4.2372 -30.83507,-2.9034 -2.3383,-2.2405 -4.5508,-5.4235 -4.9167,-7.0734 -1.2652,-5.705 -1.6282,-6.1794 -2.6776,-3.4997 -1.9903,5.0821 -2.1357,16.5591 -0.3377,26.6473 1.8768,10.5298 2.2261,11.6273 3.5502,11.1555 0.4674,-0.1666 10.09309,-5.0278 21.39048,-10.8028 z m 241.91381,1.6925 c 1.93579,-10.8376 2.13149,-20.9442 0.5288,-27.3089 l -1.1336,-4.502 -1.7927,5.2954 c -2.4771,7.3172 -7.8786,12.2182 -15.29519,13.878 -5.1091,1.1434 -6.5095,1.0474 -14.40209,-0.9874 -14.43699,-3.7218 -13.46159,-3.6509 -13.07969,-0.9508 0.281,1.9871 3.7438,4.1593 20.83698,13.0708 11.275,5.8782 20.98929,10.7157 21.58749,10.75 0.5995,0.034 1.8334,-4.1138 2.75,-9.2451 z m -314.25285,-15.8304 c -1.1376,-4.4987 -2.2617,-8.3727 -2.4979,-8.6089 -0.5503,-0.5503 -9.58639,4.7201 -9.58699,5.5918 -8e-4,1.182 13.49229,12.9559 13.82689,12.0653 0.1795,-0.4779 -0.6044,-4.5495 -1.742,-9.0482 z m 368.25071,2.9937 6.80759,-6.1441 -4.7753,-2.7889 c -2.62639,-1.5339 -5.07089,-2.6063 -5.43209,-2.383 -0.3613,0.2233 -1.3517,3.0056 -2.2009,6.1831 -2.4569,9.1927 -2.8247,11.2771 -1.9899,11.2771 0.4306,0 3.8464,-2.7649 7.5906,-6.1442 z m -206.53655,-18.8811 -0.2987,-6.1038 -10.49999,7.1754 c -5.775,3.9464 -10.9072,7.5551 -11.4048,8.0193 -0.4977,0.4642 2.2255,0.5816 6.0514,0.2608 8.06129,-0.6758 12.65409,1.0302 14.64669,5.4405 1.1343,2.5105 1.2246,2.3299 1.5054,-3.0089 0.1643,-3.1238 0.1643,-8.4263 0,-11.7833 z m 45.90906,9.9567 c 2.0472,-0.6756 6.0938,-0.9551 9.438,-0.6519 3.21979,0.292 5.85419,0.4187 5.85419,0.2816 0,-0.4212 -18.35698,-13.2133 -20.74998,-14.4596 l -2.25,-1.1719 0.017,11.7852 0.017,11.7852 2.0452,-3.1929 c 1.2152,-1.8973 3.4995,-3.6729 5.62889,-4.3757 z m -218.76361,-16.6367 c 0.59999,-0.4722 -12.1626,-13.2947 -13.23249,-13.2947 -0.4655,0 -0.6221,0.7875 -0.3482,1.75 0.274,0.9625 1.24809,5.2309 2.16449,9.4852 l 1.6664,7.7353 4.6529,-2.6632 c 2.5591,-1.4648 4.8527,-2.8205 5.0969,-3.0126 z m 396.12978,-3.8806 c 1.0528,-4.8175 1.6751,-8.9982 1.383,-9.2903 -0.2922,-0.2922 -3.50579,2.4434 -7.14139,6.079 l -6.6102,6.6102 4.8738,3.0336 c 2.6806,1.6684 5.0329,2.8745 5.2273,2.6801 0.1944,-0.1944 1.21469,-4.295 2.26749,-9.1126 z M 85.78771,1138.1686 c 2.4046,-3.8908 6.5251,-6.3648 10.61889,-6.3759 2.2545,-0.01 0.9497,-1.0712 -6.70029,-5.4699 -5.225,-3.0043 -9.8904,-5.4759 -10.36749,-5.4924 -0.8014,-0.028 -0.5541,5.188 1.04169,21.9699 l 0.6181,6.5 1.3387,-3.8575 c 0.7363,-2.1216 2.2889,-5.395 3.4504,-7.2742 z m -165.53628,-6.3791 c 0.3918,-6.0441 0.4258,-10.9892 0.076,-10.9892 -0.35008,0 -4.76877,2.3495 -9.81937,5.2211 -9.00619,5.1207 -9.12199,5.2336 -6.0172,5.8686 5.3172,1.0875 8.3491,3.8302 11.0905,10.0329 2.38139,5.3882 2.66729,5.6824 3.28339,3.3789 0.3711,-1.3877 0.9953,-7.4683 1.38698,-13.5123 z m -138.25008,-1.66 3.9662,-4.1708 -2.1992,-3.5583 -2.1991,-3.5583 -5.91399,6.7291 c -3.2527,3.701 -5.9201,6.9541 -5.9276,7.2291 -0.01,0.275 0.9017,2.0015 2.0206,3.8366 l 2.0342,3.3366 2.1264,-2.8366 c 1.1695,-1.5601 3.9111,-4.7135 6.09249,-7.0074 z m 446.46436,5.4786 c 1.57669,-2.5984 1.51239,-2.7501 -4.122,-9.7237 -3.1481,-3.8963 -5.8849,-7.0841 -6.0819,-7.0841 -0.1969,0 -1.3127,1.618 -2.4795,3.5955 l -2.12139,3.5955 5.77259,6.3278 c 3.175,3.4803 6.1457,6.238 6.6017,6.1282 0.4559,-0.1098 1.5497,-1.3875 2.4305,-2.8392 z M 18.18026,1124.865 c 4.8298,-1.6428 9.02929,-3.2346 9.33209,-3.5374 0.3028,-0.3028 -0.7148,-3.198 -2.26129,-6.4336 l -2.8118,-5.8831 -8.6165,0.1447 c -8.52839,0.1432 -8.61369,0.1203 -8.35309,-2.247 0.1448,-1.3154 2.2933,-5.2365 4.7745,-8.7135 l 4.51119,-6.3219 -2.96369,-4.7616 -2.9637,-4.7616 -0.977,2.57 c -1.5688,4.126 -3.9736,5.8803 -8.0611,5.8803 -4.21669,0 -6.74759,-2.097 -7.94799,-6.5855 l -0.7489,-2.8003 -2.6933,4.8188 c -1.4813,2.6504 -2.6933,5.2264 -2.6933,5.7243 0,0.498 2.025,3.9241 4.5,7.6134 6.6724,9.9463 6.4248,10.5364 -4.2355,10.0928 l -8.73539,-0.3635 -2.7412,5 c -1.5077,2.75 -2.7517,5.5022 -2.7646,6.116 -0.026,1.246 8.4104,4.5412 17.50459,6.8373 8.2882,2.0925 18.16799,1.2773 28.94598,-2.3886 z m -246.5888,-3.3105 c 2.8133,-3.4352 5.1151,-6.7404 5.1151,-7.345 0,-0.6046 -0.8337,-1.8537 -1.8527,-2.7759 -1.7576,-1.5906 -2.0667,-1.4445 -6.0223,2.8468 -5.43519,5.8965 -6.67669,8.6206 -5.19269,11.3934 0.6259,1.1696 1.5204,2.1265 1.9878,2.1265 0.4674,0 3.15149,-2.8106 5.96479,-6.2458 z m 464.51734,4.0813 c 1.3637,-1.9469 1.3472,-2.4504 -0.1636,-5.0081 -0.9239,-1.5639 -3.5619,-4.6908 -5.8624,-6.9484 l -4.18249,-4.1049 -1.6735,2.5541 c -1.6509,2.5196 -1.6025,2.6429 3.5823,9.113 2.89079,3.6073 5.59969,6.5588 6.01979,6.5588 0.4201,0 1.4461,-0.974 2.2799,-2.1645 z m -398.54089,-15.2837 c -4.39949,-2.9895 -6.86489,-8.6823 -6.85209,-15.822 0.012,-6.8581 3.7691,-13.4576 11.99709,-21.0752 5.116,-4.7366 5.9719,-5.9758 4.9651,-7.1889 -0.669,-0.8061 -1.5451,-1.4657 -1.9469,-1.4657 -0.8715,0 -37.93357,23.714 -39.86467,25.5071 -1.0981,1.0198 -0.015,2.3649 5.99999,7.451 8.5503,7.2298 14.34759,10.8297 21.32699,13.2431 7.04489,2.4361 8.57989,2.2082 4.37449,-0.6494 z m 331.41754,-0.1702 c 2.0786,-0.7224 6.12859,-2.8877 8.99999,-4.8117 5.9814,-4.0077 17.46749,-14.1522 16.72079,-14.7677 -1.182,-0.9742 -36.72027,-23.5919 -38.86667,-24.736 -1.9544,-1.0417 -2.6193,-1.0088 -3.8169,0.1888 -1.267,1.267 -0.6154,2.2519 5.157,7.7949 7.72199,7.415 10.04919,10.8703 11.41469,16.948 1.5457,6.8792 -0.2489,13.3629 -5.0191,18.133 -3.83239,3.8324 -3.85789,3.9048 -1.1445,3.2421 1.5265,-0.3728 4.4761,-1.2689 6.5547,-1.9914 z M -41.5273,1105.394 c 1.7785,-2.9734 3.2337,-5.82 3.2337,-6.3257 0,-0.5056 -1.1688,-2.0103 -2.5974,-3.3437 -1.4285,-1.3334 -3.44019,-4.0678 -4.47029,-6.0764 -2.7634,-5.388 -1.2283,-6.2339 9.79979,-5.4003 l 8.76789,0.6628 2.711,-4.986 2.7111,-4.986 -3.5157,0.5705 c -4.65259,0.755 -8.08239,-1.197 -9.46509,-5.3868 -0.9468,-2.8686 -0.8073,-3.884 0.9398,-6.8452 l 2.0514,-3.4769 -5.247,0 -5.247,0 -3.72829,7.5349 c -5.4258,10.9652 -7.9346,11.0402 -11.83119,0.3534 l -2.147,-5.8883 -6.866,0 -6.86599,0 0.017,3.25 c 0.03,5.549 2.8521,16.9581 5.62369,22.7326 1.7869,3.7227 5.5576,8.3636 11.59229,14.2674 4.9192,4.8125 9.474,8.75 10.1217,8.75 0.6477,0 2.6328,-2.4328 4.41129,-5.4063 z m 96.55273,-2.6522 c 6.3336,-5.9258 9.4164,-9.6972 11.64799,-14.25 3.0806,-6.285 7.5575,-24.0336 6.4956,-25.7518 -0.3194,-0.5168 -3.6153,-0.9397 -7.32419,-0.9397 l -6.7434,0 -1.7396,4.8374 c -2.1397,5.9505 -4.3136,9.1626 -6.20109,9.1626 -0.7883,0 -3.2404,-3.5965 -5.4544,-8 l -4.0224,-8 -5.56139,0 -5.5614,0 2.0726,2.6349 c 4.7837,6.0815 -0.1139,14.2986 -7.84609,13.1637 -1.6947,-0.2487 -3.0813,-0.2322 -3.0813,0.037 0,0.269 1.1754,2.4947 2.6121,4.9462 l 2.61209,4.4572 7.8846,-0.6878 c 8.43249,-0.7356 11.89119,-0.1927 11.89119,1.8664 0,0.7055 -1.4625,3.2162 -3.25,5.5796 -1.7875,2.3633 -3.8533,5.1096 -4.59069,6.1028 -1.167,1.572 -0.908,2.5205 1.99999,7.3247 1.8374,3.0354 3.837,5.5316 4.4437,5.5472 0.6066,0.016 4.9789,-3.5979 9.71609,-8.0301 z m -163.24556,-10.1482 c 4.9096,-2.8636 8.9266,-5.4954 8.9266,-5.8485 0,-0.7562 -23.33619,-11.9348 -23.85039,-11.4249 -0.1927,0.1912 1.0076,2.0649 2.6674,4.1638 4.4637,5.6448 5.8339,11.1568 3.7669,15.1539 -0.8994,1.7393 -1.3657,3.1624 -1.0361,3.1624 0.3295,0 4.6161,-2.343 9.52559,-5.2067 z m 224.96152,3.2724 c -2.6004,-4.859 -0.4302,-12.6459 5.24419,-18.8157 1.1381,-1.2375 1.7801,-2.25 1.4267,-2.25 -1.2485,0 -24.70598,11.3055 -24.70598,11.9072 0,0.6742 17.03069,10.9574 18.28509,11.0407 0.4319,0.029 0.3194,-0.8183 -0.25,-1.8822 z M -32.0044,1043.5503 c -2.8955,-3.1635 -3.6648,-6.429 -2.2942,-9.7379 1.3916,-3.3597 5.87469,-5.4882 9.87449,-4.6882 l 2.8576,0.5715 -2.6136,-4.9736 -2.6135,-4.9736 -8.99999,0.5792 c -10.83289,0.6972 -12.35869,0.034 -10.07559,-4.3812 0.8871,-1.7156 3.036,-4.7399 4.77519,-6.7208 l 3.1623,-3.6017 -2.3088,-4.2264 c -4.36639,-7.99305 -4.56199,-8.14595 -7.76549,-6.07085 -5.812,3.765 -16.91089,16.01525 -19.45519,21.47355 -2.73079,5.8585 -5.83239,17.9873 -5.83239,22.8075 0,2.8004 0.2153,2.9349 5.58389,3.489 3.0712,0.317 6.198,0.3407 6.9486,0.053 0.7506,-0.288 2.0728,-2.6219 2.9382,-5.1864 2.05839,-6.0998 4.81119,-9.6523 6.86789,-8.863 0.877,0.3365 3.4146,4.2318 5.6391,8.6561 l 4.04459,8.0442 5.6631,0 5.6632,0 -2.0594,-2.25 z m 77.21074,-5.9882 c 2.2,-4.256 4.671,-7.996 5.4912,-8.3112 1.93099,-0.7419 4.39139,2.3437 6.63099,8.3158 0.9763,2.6035 2.2482,5.0588 2.8264,5.4563 1.171,0.8048 11.64229,-0.1132 12.77059,-1.1196 1.3636,-1.2163 -3.1452,-19.5467 -6.3713,-25.9026 -2.27289,-4.478 -5.66119,-8.6458 -11.59599,-14.2636 -4.61169,-4.36525 -8.80029,-7.93685 -9.30819,-7.93685 -0.5078,0 -2.578,2.4921 -4.6004,5.538 l -3.67699,5.53805 2.15699,2.7119 c 1.1864,1.4916 3.3549,4.6682 4.8188,7.0591 3.5162,5.7427 2.4309,6.4406 -8.83159,5.6783 l -8.6895,-0.5881 -2.56049,4.3692 c -1.4083,2.4031 -2.5605,4.6244 -2.5605,4.9362 0,0.3118 1.6875,0.3409 3.74999,0.065 7.4289,-0.9952 11.9174,7.0318 7.25,12.9655 -1.1,1.3985 -2,2.8327 -2,3.1872 0,0.3544 2.3625,0.5085 5.25,0.3422 l 5.24999,-0.3022 4,-7.7382 z m -197.53603,1.2575 c 1.62349,-0.8688 0.9541,-1.8663 -5.8726,-8.75 -8.84959,-8.9235 -11.09119,-13.0066 -11.09119,-20.2026 0,-6.6071 1.8048,-10.81015 6.35919,-14.80895 l 3.6571,-3.21099 -3.2581,0.58154 c -6.30789,1.12585 -15.34999,6.12345 -24.00818,13.2693 -4.8125,3.9719 -8.73799,7.5323 -8.72319,7.912 0.029,0.7478 38.94487,25.9624 40.28887,26.1043 0.4487,0.047 1.6403,-0.3552 2.6481,-0.8946 z m 326.91204,-11.6591 c 10.79309,-6.9518 19.84888,-12.8491 20.12388,-13.105 0.6738,-0.6271 -8.10039,-8.4062 -15.49999,-13.7423 -5.33339,-3.84605 -16.23189,-8.54185 -19.71848,-8.49601 -0.7048,0.009 0.2008,0.96598 2.01239,2.12606 7.1462,4.5758 9.6366,16.20485 5.3615,25.03595 -2.0245,4.1822 -10.01059,13.2054 -14.42249,16.2956 -1.7112,1.1986 -1.8389,1.6929 -0.7697,2.9812 0.7049,0.8494 1.7333,1.5443 2.2854,1.5443 0.552,0 9.83439,-5.6879 20.62749,-12.6398 z m -285.62587,-3.0345 c 6.46249,-3.1312 11.74999,-5.9527 11.74999,-6.2699 0,-0.5807 -17.47899,-11.0558 -18.44789,-11.0558 -0.2859,0 0.1891,1.4865 1.0555,3.3034 2.1081,4.4207 0.6389,9.8803 -4.1711,15.4997 -1.9758,2.3083 -3.21979,4.2011 -2.7645,4.2063 0.4554,0 6.1155,-2.5525 12.578,-5.6837 z m 232.551,2.9243 c -5.34249,-5.7102 -7.33469,-13.5161 -4.70409,-18.4314 0.6034,-1.1275 0.7068,-1.8855 0.2299,-1.6843 -2.7977,1.1798 -18.31489,10.4664 -18.32039,10.9642 -0.01,0.6608 22.93188,11.7986 24.43048,11.8619 0.5154,0.022 -0.2208,-1.1979 -1.6359,-2.7104 z m -126.5616,-11.7052 c 4.78459,-3.3513 11.05149,-1.0023 13.16859,4.9359 0.6177,1.7325 1.062,1.4194 3.5472,-2.5 3.18719,-5.0265 3.52689,-3.6938 -3.7464,-14.6977 -4.9886,-7.54745 -4.2153,-8.59075 6.03529,-8.14255 l 8.223,0.3596 2.743,-5.00001 c 1.50869,-2.75 2.75359,-5.54137 2.76639,-6.20305 0.013,-0.66168 -4.36409,-2.6523 -9.72659,-4.42361 -12.91979,-4.26756 -23.02308,-4.43322 -34.76827,-0.57006 -4.41,1.45052 -8.8636,3.25549 -9.8969,4.01104 -1.8139,1.32632 -1.7785,1.56026 1.0246,6.7797 l 2.9033,5.40599 8.74359,-0.3635 c 10.6654,-0.4434 10.8887,0.094 4.2417,10.20635 -2.4739,3.7637 -4.498,7.2835 -4.498,7.822 0,0.5384 1.2165,3.0547 2.7033,5.5918 l 2.7033,4.6129 0.8137,-3.14 c 0.4475,-1.727 1.8061,-3.8351 3.0192,-4.6848 z m -183.64525,-17.79475 c 6.5955,-6.73751 14.80049,-15.36961 18.23349,-19.18244 l 6.24169,-6.93244 4.2153,2.13776 c 2.3185,1.17577 8.94039,4.66845 14.71539,7.76152 10.51889,5.63388 18.33489,9.7904 40.22897,21.39355 6.4509,3.4188 12.15179,5.9547 12.66849,5.6353 0.5168,-0.3194 2.7368,-3.6979 4.9334,-7.5078 l 3.9937,-6.92705 -33.16228,-20.69699 c -18.23929,-11.38335 -33.70458,-21.19975 -34.36738,-21.81421 -0.93199,-0.8641 -0.41889,-3.49608 2.2648,-11.61721 4.2791,-12.94875 10.2674,-34.50849 10.6536,-38.3561 0.2507,-2.49751 -0.3476,-3.21753 -4.7653,-5.73466 l -5.052,-2.87856 -5.82789,15.23466 c -7.1216,18.61684 -17.56999,40.66686 -24.04049,50.73466 -6.08339,9.46555 -23.13968,32.23997 -29.16007,38.93611 -2.6731,2.97305 -4.3435,5.68405 -4.0207,6.52525 0.5508,1.4353 7.21019,5.4106 9.20439,5.4944 0.5782,0.024 6.4475,-5.4683 13.04289,-12.20575 z m 396.90559,8.94255 c 1.65,-1.1247 3.1783,-2.1815 3.3962,-2.3483 0.2179,-0.1669 -1.3678,-2.2251 -3.5238,-4.57385 -5.2418,-5.7105 -21.81948,-27.4362 -28.05748,-36.77041 -10.76119,-16.10237 -22.95348,-42.4385 -31.85838,-68.81576 -0.3318,-0.98269 -1.71149,-0.62603 -5.45039,1.40893 -4.0783,2.21971 -5.0061,3.21964 -5.0061,5.3953 0,3.16776 5.3371,22.93905 10.48709,38.84963 2.0185,6.23595 3.5221,11.43327 3.3414,11.5496 -0.1807,0.11632 -15.49679,9.63917 -34.03587,21.1619 -18.53899,11.52272 -33.72648,21.37421 -33.74998,21.89221 -0.061,1.3493 7.9025,14.55815 8.7771,14.55815 0.4017,0 10.16909,-5.0042 21.70528,-11.12045 43.17387,-22.89005 48.88356,-25.87951 49.42886,-25.87951 0.3073,0 4.6857,4.6125 9.7297,10.25 5.04389,5.6375 13.23319,14.22431 18.19838,19.08166 9.8256,9.6126 10.2024,9.7341 16.61799,5.3609 z m -431.49966,-15.96973 c 0,-0.53196 -2.328,-3.83643 -5.1732,-7.34327 -4.89619,-6.03462 -5.27099,-6.28753 -6.99999,-4.72283 -2.8709,2.59811 -2.2073,4.76585 3.30559,10.79781 4.8924,5.35307 5.2198,5.53667 7,3.92557 1.0272,-0.92953 1.8676,-2.12532 1.8676,-2.65728 z m 454.68164,-0.47283 c 6.0353,-7.17558 6.49,-8.3712 4.2906,-11.28217 -1.1746,-1.55456 -2.1796,-2.09776 -2.7158,-1.46783 -10.48529,12.31908 -10.54209,12.41571 -8.83239,15.02497 0.8919,1.36124 1.9909,2.47504 2.4421,2.47504 0.4512,0 2.6182,-2.13751 4.81549,-4.75001 z m -447.11945,-8.37026 c 1.5475,-2.99262 1.5463,-2.99515 -4.15789,-9.18659 -3.1381,-3.40623 -5.9883,-6.30996 -6.3338,-6.45273 -0.3454,-0.14277 -1.4311,1.09998 -2.4127,2.76165 -1.7154,2.90393 -1.7143,3.10959 0.029,5.29729 6.1648,7.7376 9.76319,11.54073 10.49269,11.08985 0.4592,-0.28382 1.5315,-1.86308 2.3829,-3.50947 z m 444.48336,-8.50715 c 0.93629,-1.71591 0.82369,-2.64186 -0.5818,-4.78694 -0.9584,-1.46273 -2.0174,-2.53039 -2.3533,-2.37258 -0.336,0.15781 -3.2475,3.0792 -6.4702,6.49198 l -5.85929,6.20504 2.28419,3.69601 2.2843,3.69601 4.7676,-5.40105 c 2.6222,-2.97058 5.29,-6.3584 5.9285,-7.52847 z m -136.5458,3.73298 c 6.27839,-3.6506 6.69069,-4.07239 3.99999,-4.09162 -5.18549,-0.037 -9.37759,-3.47244 -12.42249,-10.18026 l -2.7705,-6.1033 -0.6069,5.38481 c -0.3338,2.96164 -0.92109,9.4012 -1.30519,14.31014 l -0.6984,8.92535 3.40169,-2.08747 c 1.871,-1.14811 6.5518,-3.91905 10.4018,-6.15765 z m -171.88968,-3.35557 c -0.37168,-5.6375 -0.93718,-11.71842 -1.25668,-13.51316 l -0.5811,-3.26317 -2.74529,5.76317 c -3.322,6.97372 -5.411,8.95864 -10.553,10.02697 l -3.92559,0.81562 8.97569,5.18587 c 4.9367,2.85223 9.37759,5.19686 9.86867,5.21029 0.5102,0.0139 0.6033,-4.36947 0.2173,-10.22559 z m -118.63399,-15.88715 c 3.3131,-3.37542 6.0174,-6.41292 6.0095,-6.75 -0.01,-0.33707 -2.2294,-1.83427 -4.9366,-3.32712 l -4.9221,-2.71426 -1.1505,5.71426 c -0.6329,3.14285 -1.5136,7.40177 -1.9572,9.46427 -0.44689,2.07733 -0.41869,3.75 0.063,3.75 0.4784,0 3.5805,-2.76172 6.8937,-6.13715 z m 403.64798,4.38715 c -0.2808,-0.9625 -1.0469,-4.675 -1.7025,-8.25 -0.6557,-3.575 -1.5515,-6.89771 -1.99079,-7.38381 -0.4475,-0.49508 -2.857,0.32241 -5.4784,1.85863 l -4.6796,2.74245 6.3345,6.39137 c 6.47879,6.53687 8.41899,7.73487 7.51679,4.64136 z m -196.21995,-22.5 c 0.331,-6.1875 1.0704,-24.28252 1.6432,-40.21115 0.5728,-15.92863 1.21099,-29.13075 1.41829,-29.33805 0.2073,-0.20731 6.5998,-1.6913 14.20559,-3.29777 7.6057,-1.60647 18.92529,-4.32757 25.15459,-6.04689 9.94769,-2.74561 11.44839,-3.44428 12.33089,-5.74109 0.8985,-2.33867 0.5825,-8.709 -0.4851,-9.77658 -0.2276,-0.22755 -5.7593,0.49121 -12.29279,1.59725 -39.16708,6.63052 -65.32776,6.51329 -105.59483,-0.47318 -4.95869,-0.86034 -9.23209,-1.34793 -9.49649,-1.08353 -0.8048,0.80484 -0.4557,10.85455 0.4062,11.69177 1.229,1.19379 17.50369,5.56419 34.89257,9.37002 8.5814,1.87816 15.82879,3.6411 16.10529,3.91765 0.4332,0.43316 3.1751,64.42245 3.2734,76.39155 l 0.035,4.25 8.90129,0 8.9014,0 0.6017,-11.25 z m -28.40808,-1.5 0,-11.75 -1.878,3.07969 c -2.6528,4.3503 -6.8208,5.79798 -14.83969,5.1543 l -6.66219,-0.53478 2.44369,1.93575 c 2.779,2.20117 20.12489,13.86504 20.61959,13.86504 0.1784,0 0.3227,-5.2875 0.3206,-11.75 z m 49.57916,4.65196 c 5.7352,-3.90392 10.62099,-7.41077 10.85719,-7.793 0.2363,-0.38223 -2.46899,-0.51041 -6.01159,-0.28483 -7.7472,0.49331 -11.63679,-0.90922 -14.37519,-5.18344 l -2.0121,-3.14069 -0.017,11.75 c -0.01,6.4625 0.2413,11.75 0.557,11.75 0.3156,0 5.2663,-3.19412 11.00149,-7.09804 z m 104.34762,-13.84442 c 0.093,-8.9996 -2.80889,-26.26478 -4.34289,-25.83887 -3.8065,1.05691 -41.76917,21.1103 -42.22827,22.30667 -0.3113,0.81106 -0.3323,2.08357 -0.047,2.82779 0.4155,1.0829 1.9773,0.86411 7.82009,-1.0955 17.76329,-5.95762 31.52788,-1.06022 35.15708,12.50879 l 1.2111,4.52809 1.1763,-3.89726 c 0.647,-2.14349 1.21099,-7.24636 1.25319,-11.33971 z m -265.92288,11.09034 c 0,-5.88081 7.1983,-13.04712 15.29559,-15.22748 4.6853,-1.26164 13.99579,0.0582 22.07678,3.12968 2.8201,1.0719 5.27,1.94914 5.444,1.94942 0.174,2.7e-4 0.174,-1.237 0,-2.7495 -0.2865,-2.48958 -2.2985,-3.76991 -21.24629,-13.52011 -11.51149,-5.92357 -21.24678,-10.42357 -21.63418,-10 -1.1944,1.30601 -3.9401,18.44232 -3.938,24.57729 0,6.44121 1.7549,14.69282 3.1208,14.69282 0.4847,0 0.8813,-1.28345 0.8813,-2.85212 z m -50.10956,-10.96598 c 3.23569,-11.99173 3.04259,-12.15538 -5.3619,-4.5435 l -7.47139,6.76684 4.72139,2.78033 c 2.5968,1.52918 5.0097,2.788 5.3619,2.79738 0.3523,0.009 1.5898,-3.50109 2.75,-7.80105 z m 373.9178,3.01162 c 0.965,-0.65185 -0.5532,-2.53428 -5.78379,-7.17159 -3.9007,-3.45827 -7.2839,-6.09612 -7.5181,-5.86189 -0.5031,0.50305 1.8945,11.1346 3.4098,15.12008 l 1.055,2.77508 3.7643,-1.98892 c 2.07029,-1.09391 4.35309,-2.38665 5.07279,-2.87276 z m -252.77301,-26.8532 c 1.7488,-8.97939 5.69419,-16.20343 10.81719,-19.80589 3.7627,-2.64598 5.1685,-3.03387 10.98129,-3.03004 3.6664,0.002 7.5662,0.40755 8.6662,0.90028 3.26819,1.46397 -4.4382,-6.15596 -9.5317,-9.42475 -4.77209,-3.0625 -23.87128,-10.41029 -24.75708,-9.52447 -0.2847,0.28472 -0.9823,11.15614 -1.5502,24.15872 -0.9971,22.83153 -0.9664,23.68934 0.8966,25.05162 2.3143,1.69225 2.6473,1.07304 4.4777,-8.32547 z m 126.4646,4.03771 c 0,-10.85794 -1.89129,-45.37803 -2.48619,-45.37803 -2.4149,0 -22.69549,8.37696 -26.25008,10.84264 -5.1945,3.60332 -11.3001,9.93219 -8.2637,8.56603 1.1,-0.49494 4.959,-0.90186 8.5756,-0.90428 5.49119,-0.004 7.25489,0.44541 10.69469,2.72322 5.48739,3.63367 8.93899,9.8304 11.53979,20.71787 2.0606,8.62565 2.2313,8.93898 4.1692,7.65225 1.2487,-0.82911 2.02069,-2.44118 2.02069,-4.2197 z m -235.2065,-8.54097 c 0.9864,-1.73267 1.4234,-3.52034 0.9711,-3.9726 -0.4522,-0.45226 -4.355,-1.37151 -8.6727,-2.04277 -7.69629,-1.19652 -7.88709,-1.17513 -9.72109,1.0897 -1.0288,1.2706 -1.8706,2.83027 -1.8706,3.46594 0,0.90487 9.1542,3.38079 16.49999,4.46274 0.55,0.081 1.807,-1.27035 2.7933,-3.00301 z m 346.70642,1.66294 c 3.025,-0.81194 6.7302,-1.4816 8.2338,-1.48813 l 2.73379,-0.0119 -1.66899,-3.5 c -1.2869,-2.69864 -2.2754,-3.5 -4.3171,-3.5 -3.5294,0 -14.27549,2.09953 -15.27489,2.98433 -0.9587,0.84881 2.3788,7.00532 3.7934,6.99748 0.55,-0.003 3.475,-0.66987 6.49999,-1.48181 z m -341.96783,-14.08392 c 0.5403,-1.42115 0.7684,-2.93005 0.507,-3.3531 -0.2615,-0.42306 -3.92869,-1.3599 -8.14939,-2.08187 -7.21849,-1.23476 -7.75619,-1.20012 -9.06059,0.58377 -2.5858,3.53625 -1.2447,4.84655 6.18299,6.04106 3.8435,0.6181 7.5617,1.18461 8.2628,1.25893 0.7011,0.0743 1.7168,-1.02763 2.25719,-2.44879 z m 337.96784,1.08392 c 4.67499,-0.8235 8.58909,-1.49788 8.69789,-1.49863 0.1089,-7.5e-4 -0.2726,-1.35137 -0.8478,-3.00137 -0.81,-2.32372 -1.6437,-2.99648 -3.698,-2.98438 -2.8936,0.017 -13.94369,2.44261 -14.73569,3.23459 -0.368,0.36805 1.501,5.75596 1.9941,5.74842 0.049,-7.5e-4 3.9145,-0.67513 8.5895,-1.49863 z M -8.57152,824.18911 c -0.3135,-0.31343 -10.21149,2.75621 -16.72209,5.18594 -2.2389,0.83552 0.5277,2.14085 9.2352,4.35744 l 7.26479,1.84933 0.3033,-5.50412 c 0.1668,-3.02727 0.1302,-5.67713 -0.081,-5.88859 z m 31.58348,7.4507 c 3.56249,-1.43255 2.79969,-2.07133 -5.8056,-4.86203 -3.85,-1.24855 -7.56249,-2.47739 -8.24999,-2.73075 -0.9126,-0.33631 -1.25,1.16397 -1.25,5.55763 l 0,6.01831 6.24999,-1.42749 c 3.4375,-0.78511 7.5125,-1.93517 9.0556,-2.55567 z m -63.66196,-9.8878 2.9811,-9.04833 -4.0415,0.29833 c -4.00879,0.29592 -4.06359,0.35493 -6.77279,7.29833 -3.7659,9.65176 -3.6834,10.5 1.0209,10.5 l 3.8313,0 2.98099,-9.04833 z m 91.35634,7.4557 c 0,-0.87595 -1.1834,-4.92595 -2.6297,-9 l -2.6297,-7.40737 -3.9436,0 c -2.68249,0 -3.82719,0.39974 -3.57949,1.25 0.2003,0.6875 1.44849,4.7375 2.77369,9 l 2.4094,7.75 3.7997,0 c 2.809,0 3.7997,-0.41522 3.7997,-1.59263 z M -54.67759,821.0804 c 1.5862,-4.24597 3.0161,-8.01727 3.1775,-8.38067 0.5473,-1.23176 -4.96929,-1.99842 -6.31909,-0.87818 -1.3133,1.08991 -5.4744,12.19011 -5.4744,14.60341 0,0.67995 1.0125,1.43129 2.25,1.66965 1.2375,0.23835 2.5272,0.49465 2.866,0.56955 0.3388,0.0749 1.9138,-3.33779 3.49999,-7.58376 z m 118.13652,6.24038 c 0.3275,-0.24932 -3.1409,-10.20763 -4.7961,-13.77044 -1.2629,-2.71845 -2.9383,-3.25163 -6.06349,-1.92971 -1.4151,0.59856 -1.236,1.65529 1.49999,8.8516 3.0615,8.05227 3.1509,8.16362 6.107,7.60636 1.65,-0.31104 3.1136,-0.65206 3.2526,-0.75781 z"
       id="path5870"
       inkscape:connector-curvature="0" />
  </g>
</svg>
