<?xml version="1.0" encoding="UTF-8" standalone="no"?>
<!-- Created with Inkscape (http://www.inkscape.org/) -->

<svg
   xmlns:dc="http://purl.org/dc/elements/1.1/"
   xmlns:cc="http://creativecommons.org/ns#"
   xmlns:rdf="http://www.w3.org/1999/02/22-rdf-syntax-ns#"
   xmlns:svg="http://www.w3.org/2000/svg"
   xmlns="http://www.w3.org/2000/svg"
   xmlns:sodipodi="http://sodipodi.sourceforge.net/DTD/sodipodi-0.dtd"
   xmlns:inkscape="http://www.inkscape.org/namespaces/inkscape"
   width="210mm"
   height="297mm"
   viewBox="0 0 744.09448819 1052.3622047"
   id="svg6457"
   version="1.1"
   inkscape:version="0.91 r13725"
   sodipodi:docname="r2d2.svg">
  <defs
     id="defs6459" />
  <sodipodi:namedview
     id="base"
     pagecolor="#ffffff"
     bordercolor="#666666"
     borderopacity="1.0"
     inkscape:pageopacity="0.0"
     inkscape:pageshadow="2"
     inkscape:zoom="0.35"
     inkscape:cx="-46.428571"
     inkscape:cy="520"
     inkscape:document-units="px"
     inkscape:current-layer="layer1"
     showgrid="false"
     inkscape:window-width="1920"
     inkscape:window-height="1027"
     inkscape:window-x="-8"
     inkscape:window-y="-8"
     inkscape:window-maximized="1" />
  <metadata
     id="metadata6462">
    <rdf:RDF>
      <cc:Work
         rdf:about="">
        <dc:format>image/svg+xml</dc:format>
        <dc:type
           rdf:resource="http://purl.org/dc/dcmitype/StillImage" />
        <dc:title></dc:title>
      </cc:Work>
    </rdf:RDF>
  </metadata>
  <g
     inkscape:label="Layer 1"
     inkscape:groupmode="layer"
     id="layer1">
    <path
       style="fill:#000000"
       d="m -11.86984,1333.8867 c -7.44266,-1.4123 -10.27246,-2.5538 -6.33086,-2.5538 1.9418,0 2.1667,-0.5346 2.1667,-5.1503 l 0,-5.1503 -9.9225,0.6503 -9.9225,0.6502 -4.6381,-5.2499 c -5.2212,-5.91 -11.8721,-18.7826 -13.5021,-26.1327 -0.5955,-2.6854 -0.8859,-5.0795 -0.6452,-5.3202 0.2406,-0.2406 3.1969,-0.9619 6.5694,-1.6028 l 6.132,-1.1654 -0.2855,-8.5144 -0.2855,-8.5145 -7.75,0.2823 -7.75,0.2823 0,-5.5323 0,-5.5323 -9.9501,0 -9.9501,0 -0.2999,-5.75 c -0.2657,-5.0937 -0.5567,-5.7864 -2.5499,-6.0695 -2.1517,-0.3056 -2.25,-0.7316 -2.25,-9.75 0,-9.3925 0.01,-9.4305 2.5,-9.4305 2,0 2.5,-0.5 2.5,-2.5 0,-2.3506 0.3151,-2.5 5.2739,-2.5 l 5.2739,0 2.3155,-16.25 c 1.2735,-8.9375 2.8864,-19.751 3.5843,-24.03 1.1367,-6.9701 1.0901,-8.1132 -0.448,-10.9812 -2.0387,-3.8012 -7.0353,-5.3339 -10.9996,-3.374 -3.4892,1.7249 -38.161,29.7261 -37.7684,30.5019 0.1763,0.3483 1.2088,2.3838 2.2945,4.5233 1.814,3.5747 1.8405,3.9742 0.3272,4.9297 -1.3154,0.8306 -1.4336,1.5074 -0.5875,3.3643 0.5825,1.2784 0.8735,2.462 0.6466,2.6301 -2.2638,1.6772 -15.0028,8.6859 -15.7875,8.6859 -0.5641,0 -1.4275,-0.7182 -1.9188,-1.5961 -0.7928,-1.4168 -1.4697,-1.304 -6.0232,1.0035 l -5.13,2.5995 -4.5265,-7.7325 c -2.4895,-4.2529 -4.5264,-8.087 -4.5264,-8.5203 0,-0.4333 -2.2948,0.3751 -5.0994,1.7963 -2.8047,1.4213 -5.2264,2.4413 -5.3815,2.2669 -0.1551,-0.1745 -1.6919,-3.1298 -3.415,-6.5673 -1.7231,-3.4375 -3.4909,-6.25 -3.9285,-6.25 -0.8033,0 -15.176,6.9066 -15.1751,7.2921 3e-4,0.1144 0.9003,2.5753 2,5.4687 1.0997,2.8934 1.9995,5.8724 1.9995,6.62 0,2.4923 -8.8867,4.1192 -22.5,4.1192 -7.15,0 -14.2367,-0.3458 -15.7482,-0.7686 -2.1702,-0.6069 -3.6143,-2.4998 -6.8662,-9 -2.265,-4.5272 -4.2862,-8.4143 -4.4916,-8.6378 -0.7113,-0.774 -8.394,3.215 -8.394,4.3583 0,0.6315 0.54,1.6881 1.2,2.3481 0.7902,0.7902 0.8299,1.2 0.1164,1.2 -0.596,0 -2.6241,-1.705 -4.5069,-3.789 -6.9869,-7.7337 -12.4149,-17.3182 -14.7781,-26.0944 -1.1311,-4.2004 -0.712,-7.0539 0.552,-3.7597 0.3468,0.9037 1.0507,1.6431 1.5641,1.6431 1.3591,0 6.8525,-4.2203 6.8525,-5.2644 0,-0.4886 -2.2226,-4.1969 -4.9391,-8.2406 -4.7225,-7.0298 -4.8929,-7.5198 -3.8859,-11.1736 2.3979,-8.7007 10.7742,-22.2574 17.8078,-28.8214 l 3.2146,-3 4.7514,5.2731 4.7513,5.273 6.9,-4.6744 c 3.7949,-2.571 7.0145,-4.7584 7.1545,-4.861 0.14,-0.1026 -1.5563,-2.9882 -3.7695,-6.4125 -2.2133,-3.4243 -3.7598,-6.6537 -3.4368,-7.1764 0.3231,-0.5227 2.3568,-1.853 4.5193,-2.9563 l 3.932,-2.0059 -2.3054,-3.7298 c -1.268,-2.0514 -3.5398,-5.8722 -5.0485,-8.4908 l -2.743,-4.7611 5.015,-3.1175 c 4.2012,-2.6116 4.8582,-3.4105 4.0487,-4.9232 -0.5315,-0.9931 -0.9664,-2.0209 -0.9664,-2.2839 0,-0.263 3.6439,-2.58 8.0976,-5.1489 8.0336,-4.6338 8.1091,-4.6542 9.5592,-2.584 1.1404,1.6282 1.8686,1.8688 3.3143,1.0951 1.5663,-0.8382 2.252,-0.3105 4.4334,3.4118 l 2.5806,4.4035 7.7575,-2.9824 c 33.2867,-12.7974 38.3163,-15.0615 39.7902,-17.9118 3.1566,-6.1042 1.1244,-10.0282 -6.9183,-13.3589 -12.5322,-5.1898 -39.4779,-15.5777 -40.408,-15.5777 -0.5301,0 -1.5169,1.3351 -2.1928,2.9668 -1.7257,4.1664 -3.6294,5.597 -5.444,4.0911 -1.1502,-0.9546 -1.6662,-0.7338 -2.6354,1.1275 -0.6629,1.273 -1.301,2.4339 -1.4181,2.5796 -0.1606,0.2 -14.4838,-7.9946 -16.3472,-9.3525 -0.1821,-0.1327 0.169,-1.1756 0.7802,-2.3175 0.9967,-1.8625 0.5912,-2.3963 -3.937,-5.1825 l -5.0482,-3.1062 3.1883,-5.6531 c 1.7535,-3.1093 3.7866,-6.5408 4.518,-7.6257 2.1168,-3.1401 1.6146,-4.2762 -3.1156,-7.04832 l -4.4453,-2.60514 3.4647,-4.53908 c 6.1643,-8.07566 6.1787,-7.74922 -0.543,-12.31386 -3.2952,-2.23773 -6.6237,-4.31128 -7.3967,-4.60788 -0.8322,-0.31935 -3.2189,1.38018 -5.8522,4.16727 -5.1873,5.49017 -5.2867,5.46771 -12.4988,-2.82122 -5.4108,-6.21872 -10.1384,-14.44372 -12.6986,-22.09278 l -1.6178,-4.8335 5.0165,-7.50027 c 2.7591,-4.12515 5.0165,-7.87996 5.0165,-8.34402 0,-0.46406 -1.4625,-2.00224 -3.25,-3.41817 l -3.25,-2.57443 -1.75,2.11273 c -2.5034,3.02234 -2.2939,0.48056 0.6228,-7.55489 3.1111,-8.57098 8.0094,-16.53725 13.4056,-21.80185 3.9191,-3.82355 4.2957,-3.99712 3.7368,-1.7222 -0.5426,2.20873 -0.1731,2.69204 2.9109,3.80724 1.9429,0.70255 3.8793,1.31316 4.3032,1.35693 0.4239,0.0438 2.5707,-3.46352 4.7707,-7.79395 4.7873,-9.42323 6.2674,-10.32055 18.3102,-11.10077 8.7808,-0.56889 24.4664,1.64486 26.6266,3.7579 0.7883,0.7711 -0.7713,7.21883 -3.0203,12.48642 -0.4114,0.96355 4.3836,3.72462 12.3357,7.10327 l 3.2523,1.38179 3.2124,-6.51436 c 1.7668,-3.5829 3.6783,-6.51268 4.2477,-6.51062 0.5695,0.002 2.5088,0.90205 4.3096,2 1.8008,1.09794 3.6359,1.99626 4.078,1.99626 0.4421,0 2.7937,-3.59278 5.2258,-7.98395 2.4321,-4.39117 4.8325,-7.99117 5.3341,-8 0.5017,-0.009 2.8812,1.13786 5.2877,2.54819 4.3631,2.55692 4.3805,2.55851 6.0879,0.55649 1.6963,-1.98901 1.7846,-1.96544 9.4623,2.5255 7.6573,4.47905 8.8153,5.88842 6.6321,8.07167 -0.8239,0.82386 -0.5909,1.44701 0.8857,2.36918 1.9854,1.23991 1.9812,1.29146 -0.4624,5.66844 -1.3563,2.42943 -2.306,4.5772 -2.1104,4.77282 0.1956,0.19562 8.865,7.13177 19.2653,15.41367 16.777,13.35972 19.3318,15.05799 22.6521,15.05799 2.8519,0 4.2356,-0.62695 5.815,-2.63486 2.6657,-3.38886 2.6191,-5.96928 -0.4731,-26.20543 -1.4002,-9.16284 -2.865,-18.90971 -3.2552,-21.65971 l -0.7094,-5 -5.2448,-0.30226 c -4.4279,-0.25517 -5.2449,-0.60567 -5.2449,-2.25 0,-1.41092 -0.689,-1.94774 -2.5,-1.94774 -2.5,0 -2.5,0 -2.5,-10 0,-10.00001 0,-10.00001 2.5,-10.00001 2.3889,0 2.5,-0.26667 2.5,-6 l 0,-6 10,0 10,0 0,-5.25741 0,-5.25742 8,0.3633 8,0.3633 0,-8.53499 0,-8.53498 -5.25,-1.09742 c -8.1448,-1.70251 -8.2415,-1.83634 -6.2663,-8.66966 2.4037,-8.31608 8.7973,-20.09363 13.7749,-25.37472 l 4.2414,-4.5 9.3359,0.5 c 5.1347,0.275 9.5222,0.3125 9.75,0.0833 0.2277,-0.22917 0.4141,-2.36667 0.4141,-4.75 0,-3.80299 -0.2754,-4.34332 -2.25,-4.41491 -1.8812,-0.0682 -1.6762,-0.35193 1.25,-1.73078 4.94326,-2.3293 28.72906,-2.29702 34.49996,0.0468 3.6798,1.49456 3.7799,1.63025 1.25,1.69507 -2.5766,0.066 -2.75,0.35049 -2.75,4.51144 0,2.44255 0.3375,4.62898 0.75,4.85874 0.4125,0.22976 4.7605,0.13648 9.6622,-0.2073 10.457,-0.7334 11.4004,-0.25946 17.4173,8.75047 5.8795,8.80416 12.1907,24.69741 10.7396,27.04529 -0.2862,0.46312 -3.2314,1.37538 -6.5448,2.02725 l -6.0243,1.18522 0.014,6.19967 c 0.024,10.83429 0.078,10.90014 8.6247,10.52393 6.4361,-0.2833 7.3818,-0.10326 7.489,1.42575 0.067,0.9625 0.2351,2.2 0.3727,2.75 0.1375,0.55 0.3062,2.125 0.375,3.5 0.1241,2.48246 0.1916,2.5 9.625,2.5 l 9.5,0 0,5.93358 c 0,5.6826 0.1128,5.94696 2.6672,6.25 l 2.6672,0.31642 -0.027,9.50001 -0.027,9.5 -2.6402,0.31642 c -1.8342,0.21983 -2.6402,0.90671 -2.6402,2.25 0,1.65264 -0.7237,1.93358 -4.981,1.93358 -5.8271,0 -5.0962,-1.67891 -8.0539,18.5 -4.6252,31.55491 -4.5993,31.17237 -2.3162,34.24218 1.5483,2.08184 3.0455,2.83208 6.1081,3.06077 3.8822,0.28991 4.8474,-0.32994 22.4,-14.38589 10.0887,-8.07886 18.717,-15.02415 19.174,-15.43397 0.4571,-0.40982 -0.1364,-2.6415 -1.3189,-4.95927 -1.9965,-3.91364 -2.0333,-4.34289 -0.5158,-6.0197 1.077,-1.19011 1.2709,-2.02996 0.5688,-2.46386 -2.4561,-1.51796 -0.6095,-3.62801 7.0325,-8.03591 8.0375,-4.63601 8.1085,-4.65518 9.5611,-2.58119 l 1.4636,2.08949 4.2767,-2.50632 c 2.3522,-1.37848 4.6872,-2.50544 5.1889,-2.50435 0.5016,10e-4 2.9371,3.59042 5.4121,7.97628 2.475,4.38587 4.8266,7.98498 5.2258,7.99802 0.3992,0.013 2.1992,-0.8746 4,-1.97254 1.8008,-1.09795 3.8373,-1.99795 4.5255,-2 0.6881,-0.002 2.6332,2.92126 4.3223,6.49626 1.6891,3.575 3.2561,6.5 3.4822,6.5 0.2261,0 3.8172,-1.68537 7.9801,-3.74526 5.4022,-2.67305 7.4264,-4.17604 7.0707,-5.25 -0.2742,-0.82761 -1.2602,-3.66982 -2.1912,-6.31603 -0.9836,-2.79554 -1.3205,-5.17505 -0.8041,-5.67955 2.078,-2.03021 17.831,-4.26094 26.3241,-3.72768 13.0469,0.8192 14.0906,1.4263 18.5327,10.78081 2.0838,4.38811 4.0684,8.13706 4.4103,8.33099 0.3419,0.19393 2.5862,-0.49388 4.9873,-1.52847 3.714,-1.60027 4.1779,-2.10738 3.1075,-3.39711 -0.692,-0.83382 -1.0285,-1.74575 -0.7477,-2.02652 1.2556,-1.25556 11.4098,11.71139 14.9247,19.05882 4.1842,8.74669 6.2537,16.54927 3.4874,13.1489 -1.4499,-1.78226 -1.6403,-1.7486 -5.1193,0.90494 -4.1622,3.1747 -4.1601,3.18821 1.9748,12.33214 4.2858,6.3878 4.4257,6.82688 3.3905,10.63841 -2.5369,9.34032 -16.6001,30.47561 -20.2782,30.47561 -0.7429,0 -3.2173,-2.025 -5.4986,-4.5 -2.2814,-2.475 -4.4338,-4.5 -4.7831,-4.5 -0.3493,0 -3.6832,2.0827 -7.4087,4.62823 l -6.7737,4.62822 2.6247,4.12178 c 1.4436,2.26697 3.4759,5.09239 4.5162,6.2787 1.8872,2.15201 1.8811,2.16307 -2.6953,4.84502 -2.5228,1.47845 -4.5869,3.08241 -4.5869,3.56431 0,0.4819 2.025,4.3013 4.5,8.4876 2.475,4.1862 4.5,7.7802 4.5,7.9866 0,0.2064 -2.0484,1.5756 -4.5519,3.0428 -4.0255,2.3591 -4.4835,2.9792 -3.9602,5.3616 0.5356,2.4386 0.09,2.963 -4.6981,5.5321 -2.9094,1.5609 -6.496,3.6755 -7.9701,4.6991 -2.6373,1.831 -2.7042,1.8269 -4.1611,-0.2532 -1.0374,-1.481 -2.089,-1.921 -3.5117,-1.4695 -1.6275,0.5166 -2.4892,-0.158 -4.3389,-3.3967 -1.2694,-2.2227 -2.6512,-4.0447 -3.0707,-4.049 -0.4194,-0 -11.0359,4.0455 -23.5922,8.9995 l -22.8297,9.0071 -1.2654,3.8342 c -1.0741,3.2547 -1.0274,4.2946 0.3095,6.8798 1.6028,3.0996 5.8778,5.0406 39.9697,18.1477 l 7.8292,3.0101 1.6708,-3.0179 c 3.3686,-6.0845 3.7775,-6.4395 5.6388,-4.8947 1.6928,1.4049 2.7094,0.7741 3.8133,-2.3662 0.1726,-0.491 2.9924,0.5916 6.2663,2.4056 10.1226,5.609 10.4233,5.8787 9.842,8.8243 -0.4617,2.3397 0.029,2.9637 4.0425,5.1419 2.5123,1.3636 4.5679,2.6167 4.5679,2.7847 0,0.1681 -2.025,3.8744 -4.5,8.2362 -2.475,4.3619 -4.4965,8.2838 -4.4923,8.7153 0,0.4316 1.8042,1.8107 4,3.0646 2.1958,1.2539 3.9796,2.6039 3.964,3 -0.015,0.3961 -1.8061,3.3962 -3.9791,6.667 l -3.9509,5.9468 7.5205,4.9667 7.5204,4.9667 1.6654,-2.4135 c 0.916,-1.3275 2.9511,-3.7144 4.5225,-5.3043 l 2.857,-2.8906 4.0118,3.8906 c 5.9413,5.762 13.3532,17.3556 15.8042,24.7208 l 2.157,6.4818 -5.0503,7.5177 c -2.7776,4.1347 -5.0502,7.9174 -5.0502,8.406 0,1.0682 5.5078,5.2644 6.9098,5.2644 0.545,0 1.4495,-0.7875 2.0101,-1.75 1.9419,-3.3341 1.2365,1.2281 -1.2484,8.0741 -3.0942,8.5244 -6.4495,14.0332 -12.5932,20.6759 -4.2435,4.5882 -4.9927,5.074 -4.5194,2.9304 0.4965,-2.2485 0.058,-2.7992 -3.506,-4.4065 -2.2403,-1.0102 -4.2414,-1.6539 -4.4469,-1.4303 -0.2054,0.2235 -2.2266,4.1106 -4.4916,8.6378 -3.2519,6.5002 -4.696,8.3931 -6.8662,9 -1.5115,0.4228 -8.5982,0.7686 -15.7482,0.7686 -13.6133,0 -22.5,-1.6269 -22.5,-4.1192 0,-0.7476 0.8998,-3.7266 1.9995,-6.62 1.0997,-2.8934 1.9997,-5.3676 2,-5.4982 0,-0.4759 -13.9789,-7.2626 -14.9601,-7.2626 -0.5559,0 -2.4204,2.8125 -4.1435,6.25 -1.7231,3.4375 -3.2843,6.4172 -3.4693,6.6215 -0.1849,0.2044 -2.3339,-0.7992 -4.7755,-2.2301 -5.0504,-2.9597 -4.637,-3.2105 -9.6511,5.8586 -4.9571,8.9662 -4.4543,8.6844 -10.115,5.6679 -4.6512,-2.4785 -5.0766,-2.5437 -5.9954,-0.9179 -0.5439,0.9625 -1.4505,1.75 -2.0145,1.75 -0.806,0 -13.7901,-7.1619 -15.8373,-8.7356 -0.2541,-0.1954 0.113,-1.2761 0.8158,-2.4015 1.0877,-1.7417 1.0076,-2.2488 -0.5379,-3.4069 -1.7382,-1.3026 -1.7134,-1.5421 0.5812,-5.6118 l 2.397,-4.251 -3.897,-3.4042 c -2.1433,-1.8723 -5.4635,-4.5933 -7.3782,-6.0466 -1.9147,-1.4533 -8.3712,-6.5876 -14.3478,-11.4095 -5.9766,-4.822 -11.7489,-9.2394 -12.8274,-9.8166 -4.7487,-2.5414 -11.8435,2.3824 -11.8435,8.2194 0,2.6847 5.4158,39.6911 6.5293,44.6143 0.4441,1.9641 1.1418,2.25 5.4898,2.25 4.6463,0 4.9809,0.168 4.9809,2.5 0,2.1363 0.4572,2.5 3.1425,2.5 l 3.1424,0 -0.6424,6.1467 c -0.3534,3.3807 -0.6425,7.6244 -0.6425,9.4305 0,2.644 -0.4383,3.346 -2.25,3.6033 -1.9932,0.2831 -2.2842,0.9758 -2.5499,6.0695 l -0.2999,5.75 -9.3251,0 -9.3251,0 -0.625,3.125 c -0.3438,1.7188 -0.625,4.2126 -0.625,5.5417 0,2.3969 -0.06,2.4113 -7.3508,1.7506 -7.1436,-0.6473 -7.3688,-0.5992 -7.9864,1.7083 -0.3495,1.3059 -0.6416,5.309 -0.6492,8.8956 l -0.014,6.5212 6.0964,1.1586 c 3.353,0.6372 6.3358,1.398 6.6284,1.6905 1.016,1.0161 -1.8628,10.1544 -5.7313,18.1931 -2.1398,4.4465 -5.9622,10.3888 -8.4943,13.205 l -4.6037,5.1204 -9.9478,-0.6061 -9.9477,-0.606 0,5.0815 c 0,4.4955 0.2594,5.1234 2.25,5.4445 3.4054,0.5494 -7.4788,2.8431 -15.75,3.3191 -3.8501,0.2216 -10.3011,-0.2236 -14.3358,-0.9892 z m 18.3176,-5.0538 c 0.2183,-1.1 0.5867,-3.2375 0.8188,-4.75 l 0.4221,-2.75 -7.3614,0 -7.3613,0 0.014,2.75 c 0.031,6.2683 0.6086,6.821 7.089,6.7841 5.1688,-0.029 6.0362,-0.306 6.3791,-2.0341 z m 11.5385,-26.5 c 2.0516,-5.775 4.0381,-11.2319 4.4146,-12.1266 0.7841,-1.8636 -0.7946,-2.4281 -9.7267,-3.4778 l -5.7082,-0.6709 0,2.8877 c 0,1.5882 0.9834,4.7496 2.1887,7.0252 2.1093,3.9826 2.1262,4.2372 0.4504,6.7947 -2.2493,3.4329 -6.0632,4.8591 -11.4269,4.273 -7.5598,-0.8259 -10.2789,-5.1846 -7.111,-11.3983 1.0459,-2.0514 1.9016,-5.0467 1.9016,-6.6561 l 0,-2.9262 -5.7082,0.6709 c -3.13956,0.369 -6.70556,0.9211 -7.92446,1.2271 l -2.2162,0.5562 3.4526,9.6606 c 1.899,5.3133 3.9495,10.91 4.5568,12.4372 l 1.10416,2.7766 14.0127,-0.2766 14.013,-0.2767 3.7301,-10.5 z m -43.16696,-20.6424 6.1467,-0.6425 0,-4.1342 0,-4.1342 -7.75,0.7055 c -4.2625,0.388 -7.8625,0.7376 -8,0.7767 -0.1375,0.039 -0.25,1.8711 -0.25,4.0711 0,4.506 -0.2662,4.4153 9.8533,3.3576 z m 60.14666,-3.3576 c 0,-2.2 -0.1125,-4.032 -0.25,-4.0711 -0.1375,-0.039 -3.7375,-0.3887 -8,-0.7767 l -7.75,-0.7055 0,4.2219 0,4.2219 4.75,0.3745 c 12.082,0.9527 11.25,1.1941 11.25,-3.265 z m -23.9537,0.65 c 0.025,-0.6325 0.1099,-4.3 0.1875,-8.15 l 0.1412,-7 -11.1875,-0.2827 -11.1875,-0.2828 0,8.4328 0,8.4327 11,0 c 7.5963,0 11.0143,-0.3558 11.0463,-1.15 z m -32.79626,-9.6413 c 2.387,-0.01 2.75,-0.4047 2.75,-3.0087 0,-3.3706 -0.049,-3.3823 -9.8533,-2.3575 -6.0186,0.6291 -6.1467,0.7049 -6.1467,3.6393 l 0,2.9968 5.25,-0.6306 c 2.8875,-0.3468 6.4875,-0.6345 8,-0.6393 z m 56.74996,-2.0087 c 0,-2.2541 -0.4607,-3 -1.8533,-3 -1.0193,0 -4.6193,-0.2891 -8,-0.6424 l -6.1467,-0.6425 0,3.0877 c 0,2.9643 0.1898,3.1026 4.75,3.4622 11.7529,0.9267 11.25,1.028 11.25,-2.265 z m -33.5,-9.4747 c 14.85,0.014 29.3625,0.3669 32.25,0.7844 l 5.25,0.7592 0,-2.9311 c 0,-2.9151 -0.048,-2.9386 -8.75,-4.2845 -5.3306,-0.8244 -17.152,-1.3533 -30.25,-1.3533 -13.098,0 -24.91936,0.5289 -30.24996,1.3533 -8.6969,1.3451 -8.75,1.3711 -8.75,4.2779 l 0,2.9245 6.75,-0.7778 c 3.7125,-0.4278 18.89996,-0.7665 33.74996,-0.7526 z m -1.5,-13.0253 c 7.975,0 20.0125,0.3337 26.75,0.7416 l 12.25,0.7416 0,-2.8493 c 0,-2.7631 -0.2493,-2.9012 -8.25,-4.5686 -16.7071,-3.4819 -49.09196,-3.0897 -64.24996,0.778 -4.2924,1.0953 -5.0447,1.6559 -5.316,3.9614 l -0.3159,2.6855 12.3159,-0.7451 c 6.7738,-0.4098 18.84096,-0.7451 26.81596,-0.7451 z m -31.74996,-16.489 c 2.5398,-0.01 2.75,-0.3167 2.75,-4.011 0,-4.4044 -0.5488,-4.6313 -8.156,-3.3734 -3.4077,0.5635 -3.6818,0.8749 -4.0356,4.5851 l -0.3796,3.9804 3.5356,-0.585 c 1.9446,-0.3218 4.7731,-0.59 6.2856,-0.5961 z m 73.74996,-2.875 c 0,-3.8389 -0.03,-3.8683 -4.6396,-4.5 -8.2277,-1.1278 -8.3604,-1.0753 -8.3604,3.3037 0,3.816 0.1176,3.9519 3.75,4.3319 9.5621,1.0002 9.25,1.106 9.25,-3.1356 z m -27,-16.636 0,-17.5 -3.5,0 -3.5,0 0,6.8635 c 0,8.3604 -1.5834,17.2535 -3.2617,18.3194 -0.6811,0.4326 -2.9154,0.7934 -4.9653,0.8018 -5.4431,0.022 -6.6362,-2.4376 -7.4236,-15.3071 l -0.6533,-10.6776 -3.3481,0 -3.34796,0 0,17.5 0,17.5 14.99996,0 15,0 0,-17.5 z m -47.74996,6.5137 c 3.7061,-0.014 3.75,-0.061 3.75,-4.0137 l 0,-4 -4.4182,0 c -6.6576,0 -7.5818,0.6368 -7.5818,5.2237 0,3.6701 0.1905,3.9585 2.25,3.4066 1.2375,-0.3316 3.9375,-0.6091 6,-0.6166 z m 74.55256,-3.2106 c 0.3435,-4.0219 -0.9837,-4.7651 -8.5526,-4.7894 l -4.25,-0.014 0,3.9478 0,3.9477 5.25,0.3576 c 7.262,0.4945 7.2138,0.5165 7.5526,-3.45 z m -74.55256,-9.7894 c 3.7061,-0.014 3.75,-0.061 3.75,-4.0137 0,-4.3866 0.023,-4.3761 -7.3604,-3.364 -4.6359,0.6354 -4.6396,0.639 -4.6396,4.6166 0,3.6401 0.1925,3.9291 2.25,3.3777 1.2375,-0.3316 3.9375,-0.6091 6,-0.6166 z m 74.74996,-3.0137 c 0,-3.6943 -0.2102,-4.0008 -2.75,-4.011 -1.5125,-0.01 -4.4375,-0.2899 -6.5,-0.6308 l -3.75,-0.6198 0,4.076 0,4.0761 4.75,0.3745 c 2.6125,0.206 5.5375,0.4557 6.5,0.5548 1.405,0.1447 1.75,-0.6082 1.75,-3.8198 z m -216.99996,-6.4865 c 0,-0.7969 -6.2521,-13.5135 -6.6439,-13.5135 -1.338,0 -6.3561,3.1957 -6.3561,4.0477 0,0.5479 1.3223,3.9125 2.9385,7.4769 l 2.9384,6.4806 3.5616,-2.1014 c 1.9588,-1.1557 3.5615,-2.2313 3.5615,-2.3903 z m 360.46806,-2.7317 3.3434,-7.2182 -2.9299,-1.7818 c -1.6115,-0.98 -3.3021,-1.7818 -3.7569,-1.7818 -0.4548,0 -2.209,3.129 -3.8981,6.9534 l -3.0712,6.9533 3.1723,1.9638 c 1.7448,1.0801 3.3128,2.0011 3.4846,2.0467 0.1718,0.046 1.8169,-3.1654 3.6558,-7.1354 z m -418.02246,4.6765 3.6899,-1.5417 -3.4684,-6.1752 c -1.9077,-3.3963 -3.8507,-6.2896 -4.3178,-6.4296 -0.4671,-0.1399 -2.3593,0.9974 -4.2049,2.5273 l -3.3555,2.7817 2.8555,5.1752 c 1.5706,2.8464 3.3631,5.1817 3.9835,5.1896 0.6203,0.01 2.7883,-0.6793 4.8177,-1.5273 z m 472.64576,-1.2083 c 0.573,-1.5125 1.9886,-3.7607 3.1458,-4.996 1.1572,-1.2354 1.9147,-2.3786 1.6834,-2.5405 -0.2313,-0.1619 -2.1377,-1.5591 -4.2363,-3.1049 -2.0986,-1.5458 -3.9573,-2.6526 -4.1304,-2.4596 -1.6032,1.7879 -6.5539,10.9031 -6.5539,12.067 0,1.3346 4.3831,3.4103 7.7748,3.6819 0.7011,0.056 1.7435,-1.1354 2.3166,-2.6479 z m -433.28306,-3.7564 c 0.3016,-0.2709 -4.6655,-12.6194 -5.3813,-13.3782 -0.9798,-1.0385 -6.1292,2.2801 -7.6414,4.9246 -4.55,7.9569 -15.0704,3.7114 -16.459,-6.642 -0.7038,-5.2465 1.8171,-8.4886 6.6812,-8.5927 3.7209,-0.08 8.9922,-2.2727 8.9922,-3.7411 0,-1.2936 -7.89,-11.0642 -8.9346,-11.0642 -0.4884,0 -4.5809,4.3174 -9.0943,9.5941 -8.9337,10.4445 -8.6697,9.3823 -4.2024,16.9059 0.9797,1.65 3.0742,5.25 4.6545,8 1.5802,2.75 3.4468,5.9439 4.148,7.0975 l 1.275,2.0974 12.8269,-2.4622 c 7.0548,-1.3542 12.9656,-2.5868 13.1352,-2.7391 z m 416.92596,-2.2436 c 2.1793,-3.7125 5.2397,-9.0597 6.8011,-11.8828 l 2.8387,-5.1327 -8.3098,-9.6597 c -4.5704,-5.3128 -8.817,-9.4941 -9.437,-9.2919 -1.2318,0.4019 -8.6141,9.7699 -8.6223,10.9415 -0.01,1.3958 5.9293,3.7756 9.4223,3.7756 9.0996,0 8.4026,14.2523 -0.9142,18.6952 -3.1436,1.4991 -3.5779,1.4924 -5.9966,-0.092 -1.4342,-0.9397 -3.0955,-2.7793 -3.6918,-4.0881 -0.9607,-2.1086 -6.3622,-5.4013 -7.2168,-4.3993 -1.1259,1.3201 -5.3667,13.432 -4.7771,13.6434 1.8225,0.6534 20.9572,4.0546 23.3052,4.1425 2.2343,0.084 3.24,-0.9301 6.5983,-6.6513 z m -390.73426,0.2492 c 0,-1.6532 -6.0095,-13.5061 -6.8281,-13.4674 -0.3695,0.017 -1.5461,0.693 -2.6146,1.5012 -1.8994,1.4366 -1.8683,1.6229 1.3998,8.3785 3.1601,6.532 3.4708,6.8507 5.6927,5.8383 1.2926,-0.5889 2.3502,-1.6017 2.3502,-2.2506 z m 343.00746,-5.3523 c 2.3763,-5.2327 2.388,-5.3845 0.5206,-6.75 -1.0507,-0.7683 -2.1778,-1.3969 -2.5046,-1.3969 -0.6616,0 -7.0235,12.56 -7.0235,13.8662 0,0.4555 1.0125,1.2818 2.25,1.8363 2.5997,1.1647 3.0015,0.7156 6.7575,-7.5556 z m -332.76616,5.6031 c 1.4695,-1.1314 1.4825,-1.6768 0.1365,-5.75 -4.598,-13.9139 -21.7249,-44.1549 -32.2372,-56.9212 -2.0023,-2.4317 -3.9459,-4.8811 -4.319,-5.4432 -0.4548,-0.685 -1.5355,-0.6313 -3.2788,0.163 l -2.6005,1.1848 4.9715,7.2952 c 8.1642,11.9802 20.6883,33.3472 27.8251,47.4714 3.6823,7.2875 6.9614,13.25 7.2869,13.25 0.3256,0 1.3225,-0.5625 2.2155,-1.25 z m 323.55576,-12.75 c 7.6338,-14.9683 20.6167,-37.0123 27.675,-46.9902 4.2059,-5.9456 4.4466,-6.596 2.8684,-7.75 -0.9475,-0.6929 -2.0674,-1.2598 -2.4885,-1.2598 -1.2594,0 -11.2022,12.8349 -17.8174,23 -6.7241,10.3325 -16.8742,30.3141 -19.971,39.3153 -1.8139,5.2721 -1.831,5.7181 -0.2541,6.6361 0.9298,0.5413 2.0082,0.8862 2.3966,0.7664 0.3883,-0.1198 3.8043,-6.2928 7.591,-13.7178 z M -38.534,1186.2512 c 2.2,-0.4571 6.1375,-0.8508 8.75,-0.8747 l 4.75,-0.044 0.1875,-11 c 0.1031,-6.05 0.2156,-12.2375 0.25,-13.75 0.055,-2.4377 -0.3349,-2.7813 -3.4375,-3.0259 -1.925,-0.1518 -6.65,0.3034 -10.5,1.0115 l -7,1.2875 -0.2782,14.3563 c -0.2602,13.4292 -0.1633,14.3083 1.5,13.6132 0.978,-0.4087 3.5782,-1.1172 5.7782,-1.5743 z m 83.77926,-26.0309 c -0.932,-0.9225 -12.4432,-2.8692 -17.0293,-2.8798 l -3.25,-0.01 0,13.8518 0,13.8518 7.783,0.6002 c 4.2807,0.3301 8.8932,1.0115 10.25,1.5142 l 2.467,0.914 0.2793,-13.5367 c 0.1537,-7.4451 -0.071,-13.8837 -0.5,-14.3079 z m -32.2793,12.4876 0,-11.125 -3.125,-0.625 c -3.982,-0.7964 -14.2596,-0.7873 -19.125,0.017 l -3.75,0.6199 0,11.1191 0,11.1192 13,0 13,0 0,-11.125 z m -156.99996,7.5442 c 0,-2.0037 -6.6956,-19.408 -10.5485,-27.4192 -4.9211,-10.2324 -11.1543,-19.8353 -19.4728,-30 -8.3938,-10.2566 -9.1071,-10.7988 -11.7608,-8.94 -2.165,1.5164 -2.1568,1.5378 4.1485,10.7297 9.5844,13.9721 17.7271,27.8747 25.745,43.9555 6.9754,13.9903 7.3411,14.5058 9.5706,13.49 1.2749,-0.5809 2.318,-1.3981 2.318,-1.816 z m 300.06696,-11.9192 c 7.323,-14.6717 15.3715,-28.3391 26.0343,-44.2097 5.8386,-8.6904 5.8469,-8.7132 3.6933,-10.2216 -2.6503,-1.8563 -2.8583,-1.701 -11.1783,8.3465 -8.5296,10.3006 -13.8307,18.3569 -19.2681,29.2824 -4.0676,8.1732 -11.3482,26.5855 -11.3482,28.6992 0,0.6713 4.1667,3.1089 4.6648,2.729 0.091,-0.069 3.4217,-6.6508 7.4022,-14.6258 z m -285.28176,6.3027 c 1.4931,-0.9335 2.8881,-1.8194 3.1,-1.9685 0.5461,-0.3845 -5.0824,-11.3342 -5.8262,-11.3342 -0.4947,0 -4.1508,2.2376 -5.9467,3.6395 -0.3872,0.3022 5.1326,11.3537 5.6729,11.3582 0.1568,9e-4 1.5068,-0.7615 3,-1.695 z m 264.57276,-3.395 c 1.4531,-2.8007 2.642,-5.4037 2.642,-5.7843 0,-0.8034 -5.9859,-4.489 -6.4489,-3.9708 -1.6046,1.7957 -5.5699,11.3412 -4.8157,11.5926 0.5395,0.1798 1.8323,0.9714 2.8728,1.7591 1.0405,0.7877 2.1654,1.4464 2.4998,1.4639 0.3344,0.018 1.7969,-2.2597 3.25,-5.0605 z m -319.77046,0.5063 c 3.5269,-1.9724 6.4125,-3.8859 6.4125,-4.2523 0,-0.3665 -2.2492,-4.4878 -4.9982,-9.1587 -2.7491,-4.6708 -5.1266,-8.8773 -5.2834,-9.3478 -0.2969,-0.8908 -13.3028,5.8634 -14.2539,7.4022 -0.2983,0.4827 0.9376,3.0344 2.7466,5.6705 1.8089,2.6361 4.1447,6.7007 5.1908,9.0325 1.046,2.3318 2.3229,4.2396 2.8375,4.2396 0.5146,0 3.8212,-1.6137 7.3481,-3.586 z m 378.97706,-0.5572 c 1.0276,-2.2788 3.5397,-6.5292 5.5825,-9.4454 l 3.7142,-5.3022 -7.1807,-3.9702 c -3.9493,-2.1836 -7.5522,-3.6141 -8.0064,-3.1788 -1.0766,1.0318 -10.7563,18.2979 -10.4266,18.5983 1.2373,1.1272 12.503,7.375 13.3505,7.404 0.604,0.021 1.9389,-1.8269 2.9665,-4.1057 z m -311.42536,-3.7692 2.3608,-1.9125 -2.7287,-5.5663 -2.7288,-5.5664 -3.4753,2.0505 -3.4752,2.0504 2.6623,5.4284 c 1.4643,2.9856 3.1937,5.4283 3.8432,5.4283 0.6495,0 2.2433,-0.8606 3.5417,-1.9124 z m 241.12186,-3.5474 c 1.9817,-4.0405 2.3608,-5.6465 1.4583,-6.1778 -0.6707,-0.3948 -2.157,-1.3155 -3.3029,-2.046 -1.9511,-1.2438 -2.2641,-0.9711 -4.9263,4.2905 l -2.8427,5.6186 2.4262,1.865 c 1.3345,1.0258 2.8951,1.8751 3.468,1.8873 0.5729,0.012 2.2467,-2.4347 3.7194,-5.4376 z m -228.26106,-5.3696 c 0,-1.1322 -1.2959,-3.9259 -4.636,-9.9943 -0.3883,-0.7056 -6.364,2.9401 -6.364,3.8827 0,0.5541 1.1408,3.2587 2.535,6.0101 l 2.535,5.0026 2.965,-1.7514 c 1.6308,-0.9633 2.965,-2.3807 2.965,-3.1497 z m 216.57326,0.056 c 1.1403,-2.5996 2.2653,-5.1512 2.5,-5.6704 0.2347,-0.5192 -1.0138,-1.7852 -2.7743,-2.8134 l -3.201,-1.8695 -2.549,5.0302 c -1.402,2.7666 -2.549,5.3909 -2.549,5.8318 0,0.7541 4.917,4.2081 6,4.2147 0.275,0 1.433,-2.1239 2.5733,-4.7234 z m -194.22786,-6.1242 c 10.6203,-6.2648 10.8328,-6.4612 10.2341,-9.4549 -0.6134,-3.0669 -6.5374,-16.6474 -7.2618,-16.6474 -1.2836,0 -23.3177,13.3396 -23.3177,14.1168 0,0.5223 1.0794,3.0798 2.3986,5.6832 1.3193,2.6035 2.9192,6.6667 3.5555,9.0294 0.6531,2.4255 1.6769,4.1598 2.3513,3.9833 0.657,-0.172 6.0751,-3.1916 12.04,-6.7104 z m 178.13866,1.6565 c 0.9429,-2.8826 2.8856,-7.2398 4.3172,-9.6826 1.4315,-2.4428 2.1744,-4.5885 1.6508,-4.7682 -0.5237,-0.1797 -5.9007,-3.2476 -11.949,-6.8174 -6.0482,-3.5698 -11.2232,-6.4904 -11.5,-6.4903 -0.8351,4e-4 -6.8025,13.271 -7.4799,16.6343 -0.6249,3.1024 -0.5157,3.2021 10.6727,9.7354 6.2173,3.6304 11.5898,6.6074 11.939,6.6154 0.3492,0.01 1.4063,-2.3439 2.3492,-5.2266 z m -224.47476,-10.297 c 12.2811,-7.093 14.6981,-8.8648 14.279,-10.4672 -1.1991,-4.5854 -2.9343,-4.5356 -12.1995,0.3495 -4.8567,2.5608 -10.1688,4.6559 -11.8046,4.6559 -3.779,0 -6.6175,-3.0773 -6.6175,-7.1741 0,-3.6111 2.0393,-5.5486 12.5833,-11.9544 3.7125,-2.2555 6.75,-4.2966 6.75,-4.5359 0,-0.2392 -0.7036,-1.7955 -1.5636,-3.4586 -1.4455,-2.7952 -1.7288,-2.9188 -3.75,-1.6357 -1.2025,0.7634 -7.9239,4.6764 -14.9364,8.6956 -7.0125,4.0192 -12.75,7.6875 -12.75,8.1517 0,0.4642 1.7346,3.5278 3.8547,6.808 2.1201,3.2802 5.3826,8.9187 7.25,12.53 1.8674,3.6113 3.5586,6.5677 3.7582,6.5697 0.1996,0 7.0155,-3.8385 15.1464,-8.5345 z m 275.40426,1.2815 c 2.1525,-3.9838 5.415,-9.6145 7.25,-12.5127 1.835,-2.8982 3.3364,-5.6556 3.3364,-6.1277 0,-0.4721 -5.7375,-4.1468 -12.75,-8.166 -7.0125,-4.0192 -13.7339,-7.9322 -14.9364,-8.6956 -2.0212,-1.2831 -2.3045,-1.1595 -3.75,1.6357 -0.86,1.6631 -1.5636,3.2015 -1.5636,3.4187 0,0.2173 3.8271,2.7338 8.5048,5.5922 11.6616,7.1262 13.6147,10.7902 8.7219,16.3621 -2.4418,2.7808 -6.5099,2.0768 -15.8902,-2.75 -4.8099,-2.475 -9.0918,-4.5 -9.5152,-4.5 -0.4235,0 -1.4507,1.3166 -2.2828,2.9257 l -1.5129,2.9256 14.7372,8.5201 c 8.1054,4.686 14.9622,8.5415 15.2372,8.5676 0.275,0.026 2.2611,-3.2118 4.4136,-7.1957 z m -349.99926,1.9733 c 1.8427,-1.3765 1.753,-1.6602 -2.3948,-7.5733 -2.3701,-3.3788 -4.3999,-6.1433 -4.5108,-6.1433 -1.1688,0 -6.5087,3.3819 -6.5087,4.1221 0,0.5366 1.8724,3.6307 4.1609,6.8759 4.3499,6.168 4.5551,6.2283 9.2534,2.7186 z m 416.61326,-5.4505 3.0736,-4.2339 -3.3006,-2.0124 c -1.8153,-1.1067 -3.5256,-2.0086 -3.8006,-2.0042 -0.6769,0.011 -8.5,11.2859 -8.5,12.2504 0,0.4214 1.35,1.6532 3,2.7376 l 3,1.9715 1.727,-2.2376 c 0.9499,-1.2306 3.1102,-4.1427 4.8006,-6.4714 z m -407.02756,-0.4814 c 0,-0.4919 -1.8078,-3.5565 -4.0173,-6.8102 -3.7992,-5.5945 -4.1536,-5.8537 -6.5259,-4.7728 -2.9253,1.3328 -3.0491,0.8036 1.9947,8.5236 3.6257,5.5496 4.141,5.9619 6.25,5.001 1.2642,-0.576 2.2985,-1.4498 2.2985,-1.9416 z m 394.88186,-3.2004 c 2.2649,-3.2537 4.1181,-6.219 4.1181,-6.5895 0,-0.3706 -1.0999,-1.1749 -2.4442,-1.7874 -2.2893,-1.0431 -2.7009,-0.7373 -6.5,4.8282 -2.2307,3.268 -4.0558,6.3281 -4.0558,6.8003 0,0.7009 4.1813,3.2194 4.6319,2.7899 0.072,-0.069 1.985,-2.7879 4.25,-6.0415 z m -228.89456,-1.6922 c 2.3996,-1.1594 6.4216,-2.4009 8.9378,-2.759 3.805,-0.5414 4.63086,-1.0453 4.90776,-2.9937 0.5641,-3.9705 -0.6958,-7.1394 -2.83846,-7.1394 -2.1458,0 -2.9018,-1.4734 -7.4396,-14.5 -1.5328,-4.4 -3.1532,-8.396 -3.601,-8.8801 -0.4646,-0.5023 -6.0614,0.062 -13.0357,1.3135 -9.9457,1.7852 -12.3767,1.9491 -13.0545,0.8801 -0.4581,-0.7224 -0.8399,-1.657 -0.8483,-2.0769 -0.016,-0.8077 -6.9725,1.8265 -8.2883,3.1385 -0.4251,0.424 -0.1029,2.3744 0.7161,4.3344 0.8189,1.96 1.8417,6.3051 2.2729,9.6558 l 0.784,6.0922 7.5,-4.4674 c 4.125,-2.4571 7.7405,-4.4726 8.0344,-4.4788 0.2939,-0.01 1.3318,1.3387 2.3065,2.9887 1.4233,2.4095 2.45,3 5.2156,3 l 3.4435,0 0,9 c 0,4.95 0.1405,9 0.3122,9 0.1717,0 2.2755,-0.9485 4.6751,-2.1079 z m 62.66746,-16.0767 c 2.622,0.2621 3.4607,-0.2023 4.9656,-2.75 0.996,-1.6859 2.0718,-3.0654 2.3908,-3.0654 0.319,0 3.9345,2.0075 8.0344,4.4612 l 7.4544,4.4611 1.1318,-7.306 c 0.6225,-4.0183 1.6767,-8.3241 2.3426,-9.5685 0.666,-1.2444 0.8317,-2.6407 0.3682,-3.103 -1.3666,-1.3631 -8.3412,-4.0403 -8.3579,-3.2082 -0.01,0.4199 -0.3902,1.3545 -0.8483,2.0769 -0.6779,1.069 -3.103,0.9061 -13.0263,-0.875 -6.7063,-1.2038 -12.4136,-1.9683 -12.6829,-1.699 -0.2693,0.2693 -2.4282,5.6131 -4.7975,11.8751 -3.1866,8.4221 -4.8052,11.4806 -6.2188,11.7511 -2.5801,0.4938 -3.3774,1.9602 -3.3956,6.245 -0.015,3.5871 0.017,3.6146 4.9555,4.1995 2.7339,0.3238 6.8964,1.4303 9.25,2.4589 l 4.2792,1.8703 0.5,-9.0697 0.5,-9.0697 3.1548,0.3154 z m -137.33686,6.198 c 2.5902,-1.6427 6.5527,-3.927 8.8055,-5.0763 3.7416,-1.9089 4.0437,-2.3517 3.4905,-5.1176 -0.8776,-4.3881 -10.4561,-19.8195 -12.3022,-19.8195 -0.8547,0 -5.5341,2.2971 -10.3988,5.1047 l -8.8447,5.1046 3.5521,4.6454 c 1.9537,2.5549 4.9758,7.6739 6.7159,11.3755 1.7401,3.7016 3.4132,6.7391 3.718,6.75 0.3048,0.011 2.6735,-1.3242 5.2637,-2.9668 z m 212.34586,-3.7832 c 1.74,-3.7016 4.773,-8.8347 6.7399,-11.4069 l 3.5761,-4.6768 -8.7399,-5.0726 c -4.807,-2.7899 -9.224,-5.0728 -9.8156,-5.0732 -1.6068,-10e-4 -4.6214,3.7385 -8.8036,10.9204 -6.2613,10.7523 -6.2361,10.8569 4.0429,16.8162 4.86,2.8176 9.0614,5.1455 9.3364,5.1731 0.275,0.027 1.9237,-2.9786 3.6638,-6.6802 z m -274.61406,-8.7558 c 1.6226,-0.8392 2.9503,-2.1217 2.9503,-2.85 0,-1.5558 -5.6701,-9.6274 -6.7563,-9.6178 -0.409,0 -1.9425,0.7973 -3.4077,1.7636 l -2.664,1.757 3.164,5.2051 c 1.7402,2.8628 3.2988,5.2192 3.4637,5.2364 0.1648,0.017 1.6273,-0.6552 3.25,-1.4943 z m 334.43746,-3.256 c 1.643,-2.5951 3.1098,-4.9563 3.2596,-5.2471 0.2784,-0.5404 -5.0547,-3.9713 -6.1731,-3.9713 -0.7284,0 -6.5737,9.0376 -6.5737,10.1639 0,0.7083 4.84,3.7449 6,3.7645 0.275,0.01 1.8443,-2.1149 3.4872,-4.71 z m -322.42076,-3.7527 c 3.3029,-1.708 3.1185,-2.7004 -1.7026,-9.163 -2.3764,-3.1855 -2.3963,-3.1911 -5.3682,-1.5 -1.6406,0.9335 -2.9858,2.0217 -2.9893,2.4181 -0.01,0.8047 6.1745,9.7792 6.7359,9.7792 0.1964,0 1.6923,-0.6904 3.3242,-1.5343 z m 310.76406,-2.8791 c 1.7432,-2.4275 3.1695,-4.8054 3.1695,-5.2844 0,-0.479 -1.3208,-1.6512 -2.9352,-2.6048 l -2.9352,-1.7339 -2.4393,3.2683 c -4.8127,6.4481 -5.0397,7.5154 -1.9544,9.1889 1.5202,0.8246 3.0253,1.5173 3.3446,1.5393 0.3192,0.022 2.0067,-1.946 3.75,-4.3734 z m -300.04526,-3.2839 c 1.4931,-0.9335 2.8605,-1.7917 3.0385,-1.9071 0.4681,-0.3032 -2.4435,-5.4958 -4.6291,-8.2554 -1.8103,-2.2858 -1.9683,-2.3085 -5.0318,-0.7244 -1.7395,0.8996 -3.1628,1.8543 -3.1628,2.1215 0,0.5921 6.3841,10.4195 6.7852,10.4448 0.1568,0.01 1.5068,-0.7459 3,-1.6794 z m 289.28696,-3.4152 3.2808,-5.1126 -2.4265,-1.8652 c -1.3346,-1.0259 -2.9421,-1.8752 -3.5723,-1.8874 -1.5957,-0.031 -8.0496,10.2459 -6.714,10.6911 0.5919,0.1973 1.9275,1.0032 2.968,1.7909 1.0405,0.7877 2.1824,1.4464 2.5375,1.4639 0.3552,0.018 2.1221,-2.2688 3.9265,-5.0807 z m -268.92436,-3.7173 c 3.4937,-2.1065 8.7142,-5.144 11.6012,-6.75 2.8869,-1.6061 5.2494,-3.2824 5.25,-3.725 0,-1.3046 -7.5614,-11.9959 -10.2511,-14.4913 l -2.4749,-2.2961 -11.3865,6.6469 c -6.2626,3.6558 -11.5355,6.788 -11.7177,6.9606 -0.1821,0.1725 1.6755,2.7772 4.1279,5.7882 2.4525,3.011 5.2861,6.8745 6.2968,8.5855 1.0108,1.7111 1.9197,3.111 2.0199,3.111 0.1002,0 3.0407,-1.7234 6.5344,-3.8298 z m 250.26696,0.9945 c 0.8064,-1.5594 3.5653,-5.4121 6.1308,-8.5615 2.5655,-3.1495 4.5048,-5.8783 4.3095,-6.064 -0.1953,-0.1857 -5.4746,-3.3261 -11.7318,-6.9788 -11.0559,-6.4538 -11.4328,-6.5906 -13.3686,-4.8507 -2.479,2.2282 -10.7547,13.7243 -10.7547,14.9399 0,0.4926 1.6875,1.7838 3.75,2.8694 2.0625,1.0856 7.35,4.0975 11.75,6.6933 4.4,2.5957 8.1009,4.7348 8.2243,4.7536 0.1234,0.019 0.8841,-1.2418 1.6905,-2.8012 z M -69.1397,1075.9604 c 0.9775,-1.1778 0.8826,-1.6528 -0.4827,-2.4169 -1.4647,-0.8197 -0.5086,-2.3724 6.9232,-11.2442 l 8.6225,-10.2931 -5.2671,-6.0866 c -10.5757,-12.2213 -11.7675,-14.0807 -10.0961,-15.7521 1.3312,-1.3312 1.0571,-1.8042 -2.4567,-4.2393 l -3.9551,-2.7409 -5.3412,5.3792 c -2.9376,2.9585 -6.4292,6.0592 -7.759,6.8903 -2.4088,1.5054 -2.3879,1.5275 5.5,5.8253 4.3548,2.3728 8.0742,4.4488 8.2653,4.6133 0.1911,0.1646 -0.4228,1.6032 -1.3643,3.197 -1.5809,2.6762 -1.5895,3.1343 -0.1125,5.9904 l 1.5992,3.0926 -8.0548,4.646 -8.0549,4.6461 4.6311,3.0675 c 2.5471,1.6871 6.0172,4.7923 7.7112,6.9003 l 3.0801,3.8328 2.6976,-1.9209 c 1.4836,-1.0564 3.245,-2.5805 3.9142,-3.3868 z m 148.21076,1.5249 c 1.4327,-2.0745 4.7267,-5.1771 7.3199,-6.8948 l 4.7149,-3.123 -8.0549,-4.6461 -8.0548,-4.646 1.5992,-3.0926 c 1.477,-2.8561 1.4684,-3.3142 -0.1125,-5.9904 -0.9415,-1.5938 -1.5554,-3.0324 -1.3643,-3.197 0.1911,-0.1645 3.9105,-2.2405 8.2653,-4.6133 7.8879,-4.2978 7.9087,-4.3199 5.5,-5.8253 -1.3298,-0.8311 -4.7966,-3.9061 -7.7039,-6.8334 -5.6478,-5.6865 -6.6194,-5.8149 -10.6132,-1.4018 -1.444,1.5956 -1.6137,2.3909 -0.7358,3.4487 0.9038,1.0891 -0.6009,3.458 -7.2391,11.3966 l -8.3801,10.0217 8.4708,10.1569 c 7.2733,8.7211 8.2865,10.3788 7.1676,11.727 -1.1127,1.3407 -0.7975,1.9893 2.1564,4.4385 1.9026,1.5775 3.6844,2.8633 3.9594,2.8572 0.275,-0.01 1.6723,-1.7084 3.1051,-3.7829 z m -58.0622,-13.1557 7.103,-12.0035 -7.1479,-12.4966 -7.1479,-12.4965 -13.8501,0 -13.8501,0 -7.09656,12.4067 -7.0965,12.4068 5.6696,9.8433 c 3.1183,5.4138 6.2884,10.8557 7.0447,12.0932 1.31996,2.1601 1.93246,2.25 15.32186,2.25 l 13.9468,0 7.1031,-12.0035 z M -112.534,1033.6381 c 3.7003,-4.5573 8.4899,-11.5794 8.4957,-12.4554 0,-0.6382 -22.1985,-13.8497 -23.2751,-13.8497 -0.302,0 -1.8772,2.1375 -3.5005,4.75 -1.6233,2.6125 -4.5487,6.3759 -6.5009,8.363 l -3.5494,3.613 11.6651,6.6043 c 6.4158,3.6323 12.1151,6.6189 12.6651,6.6369 0.55,0.018 2.35,-1.6299 4,-3.6621 z m 241.86826,-3.0063 11.529,-6.7012 -4.2306,-4.5488 c -2.3267,-2.5019 -5.2653,-6.2363 -6.5301,-8.2988 -1.2649,-2.0625 -2.4743,-3.75 -2.6877,-3.75 -0.2135,0 -1.8643,0.8466 -3.6685,1.8813 -1.8042,1.0347 -6.9929,3.9864 -11.5304,6.5595 -4.5375,2.573 -8.2481,4.989 -8.2457,5.3687 0.014,2.2649 11.1435,16.1905 12.9396,16.1905 0.4924,0 6.0834,-3.0156 12.4244,-6.7012 z M -138.034,1006.1827 c 0,-0.682 -5.1691,-3.8497 -6.2819,-3.8497 -0.6116,0 -6.9727,10.0837 -6.577,10.4258 0.1974,0.1707 1.7057,1.002 3.3518,1.8474 l 2.9928,1.5372 3.2572,-4.5812 c 1.7914,-2.5197 3.2571,-4.9405 3.2571,-5.3795 z m 287.91236,7.2744 c 1.16,-0.7744 0.8287,-1.8525 -1.8543,-6.0335 -1.7966,-2.7998 -3.467,-5.0906 -3.712,-5.0906 -1.1074,0 -6.3435,3.1275 -6.3213,3.7757 0.014,0.3984 1.6,2.8715 3.5254,5.4959 3.622,4.9371 3.7118,4.957 8.3622,1.8525 z m -301.88796,-9.1621 c 1.7781,-2.7709 3.0625,-5.18656 2.8542,-5.36808 -0.2082,-0.18151 -1.7189,-1.01832 -3.3569,-1.85956 l -2.9784,-1.52953 -3.4156,5.07187 -3.4155,5.0718 2.2547,1.8257 c 3.3899,2.7451 4.5251,2.2925 8.0575,-3.2122 z m 311.97576,3.3788 2.8088,-1.6592 -3.5226,-5.3054 c -3.5056,-5.27986 -3.5362,-5.29841 -6.3411,-3.84793 -1.5502,0.80163 -3.0437,1.82197 -3.319,2.26743 -0.638,1.0323 5.2833,10.2043 6.5877,10.2043 0.5376,0 2.2414,-0.7466 3.7862,-1.6592 z M -98.7207,1005.083 c 4.1536,-5.58953 9.8549,-16.63801 9.51,-18.42923 -0.1815,-0.94222 -4.3785,-4.05086 -9.3266,-6.90809 l -8.9967,-5.19496 -1.8201,4.61206 c -1.001,2.53664 -3.8702,7.69595 -6.376,11.46515 -2.58,3.88086 -4.176,7.22381 -3.6799,7.70788 1.1539,1.12595 16.6736,9.92679 17.5751,9.96649 0.3845,0.017 1.7859,-1.4318 3.1142,-3.2193 z m 210.59246,-2.0893 9.1311,-5.33926 -3.1588,-3.91072 c -1.7374,-2.1509 -4.795,-7.35491 -6.7946,-11.56447 l -3.6358,-7.65374 -9.2238,5.44042 c -5.5868,3.2952 -9.2239,6.0781 -9.2239,7.05764 0,3.23889 10.9717,21.30943 12.9383,21.30943 0.46,0 4.9454,-2.4027 9.9675,-5.3393 z M -21.4041,990.03392 c 2.8245,-7.53773 4.0225,-9.66455 5.1911,-9.21613 2.04536,0.78492 3.14516,-1.20859 3.16366,-5.73479 0.014,-3.32225 -0.2656,-3.75 -2.44716,-3.75 -2.6592,0 -13.246,-3.63946 -15.2875,-5.25545 -0.9819,-0.77726 -1.25,1.07402 -1.25,8.63301 l 0,9.62244 -3.5147,0 c -2.8148,0 -3.8697,0.58371 -5.2973,2.93123 l -1.7826,2.93123 -6.9527,-4.047 c -3.824,-2.22585 -7.4599,-4.24682 -8.0798,-4.49105 -0.7264,-0.28619 -1.3709,1.83276 -1.8129,5.9601 -0.3772,3.5223 -1.3325,7.65066 -2.1229,9.17414 -2.0272,3.90735 -1.9249,4.12905 2.7713,6.00805 3.951,1.5809 4.2842,1.5801 5.4494,-0.013 1.165,-1.5934 1.9935,-1.5798 13.5416,0.2219 l 12.3006,1.919 1.2289,-2.5471 c 0.676,-1.401 2.8814,-6.95674 4.901,-12.34624 z m 61.12046,12.85468 c 11.684,-1.9648 14.2496,-1.9748 14.2496,-0.056 0,1.8597 0.064,1.8583 4.9798,-0.1086 4.526,-1.811 4.5505,-1.872 2.6178,-6.51931 -0.7714,-1.85466 -1.7266,-5.98658 -2.1228,-9.18202 -0.8224,-6.63405 -0.366,-6.60072 -10.0259,-0.73212 -3.7034,2.24991 -6.8057,3.96728 -6.8939,3.81638 -3.0053,-5.14205 -3.7804,-5.77436 -7.0781,-5.77436 l -3.4769,0 0,-9.3591 0,-9.3591 -4.75,2.32682 c -2.6125,1.27976 -6.8875,2.62433 -9.5,2.98794 -4.2954,0.59782 -4.7487,0.91198 -4.7364,3.28227 0.025,4.89353 1.1268,7.31773 3.0909,6.8041 1.8572,-0.48568 2.3518,0.55306 9.3345,19.6038 1.3091,3.5717 2.1741,4.6645 3.4077,4.3055 0.9093,-0.2646 5.816,-1.1811 10.9037,-2.0367 z m -203.08226,-5.25231 2.6919,-4.59334 -2.2908,-1.85498 c -3.3093,-2.67972 -4.2046,-2.30575 -7.7725,3.2464 l -3.2033,4.98483 3.1326,1.9051 c 1.723,1.0478 3.4966,1.6801 3.9415,1.4052 0.4448,-0.2749 2.0201,-2.5669 3.5006,-5.09321 z m 337.15286,2.16521 c 0.6659,-0.57499 -6.3716,-10.43336 -7.4602,-10.45053 -0.6266,-0.01 -2.1752,0.82092 -3.4414,1.84622 l -2.3022,1.86419 3.282,5.11462 3.2821,5.1146 3.1593,-1.606 c 1.7377,-0.8833 3.3038,-1.73067 3.4804,-1.8831 z m -299.74466,-7.65264 c 0.7672,-1.85236 0.9225,-3.3163 0.3713,-3.50014 -3.0024,-1.00126 -16.5434,-10.53229 -17.8957,-12.59618 -1.8243,-2.78415 -0.8055,-7.04441 2.2374,-9.35624 2.7664,-2.10177 4.6731,-1.63352 14.8081,3.6367 5.2885,2.75 9.781,5 9.9833,5 0.5314,0 3.629,-6.1394 3.243,-6.42756 -1.8639,-1.3916 -28.8924,-16.57244 -29.5062,-16.57244 -0.4515,0 -1.9452,2.12841 -3.3192,4.72981 -1.3741,2.60139 -4.6358,8.25658 -7.2483,12.56708 -2.6125,4.3105 -4.7373,8.14459 -4.7217,8.52019 0.034,0.82778 28.0031,16.9869 29.6004,17.10176 0.6207,0.0446 1.7222,-1.3517 2.4476,-3.10298 z m 262.23216,-0.99601 c 3.9365,-2.29908 8.065,-4.67837 9.1744,-5.28731 1.1094,-0.60894 4.5822,-2.58319 7.7173,-4.38723 l 5.7003,-3.28008 -4.4068,-6.87505 c -2.4237,-3.78128 -5.7828,-9.60096 -7.4646,-12.93262 -1.6819,-3.33166 -3.4797,-6.05756 -3.9952,-6.05756 -0.5155,0 -6.4715,3.19732 -13.2356,7.10516 -17.7556,10.25804 -16.9875,9.69203 -15.8487,11.67898 2.6841,4.68309 2.471,4.67338 10.1903,0.46444 13.4298,-7.32257 17.2469,-7.55752 19.8706,-1.22311 1.1364,2.74333 1.0535,3.41244 -0.7165,5.78822 -1.1007,1.47747 -4.8797,4.57376 -8.3977,6.88064 -11.2536,7.37943 -10.5769,6.61799 -8.584,9.65958 0.9536,1.45535 1.9824,2.64609 2.2863,2.64609 0.3038,0 3.7733,-1.88107 7.7099,-4.18015 z M -175.9366,983.583 c 13.0654,-15.38344 22.2632,-31.31568 28.9402,-50.12948 3.2151,-9.05939 3.2648,-9.42626 1.4544,-10.75 -1.0308,-0.75379 -2.1883,-1.37052 -2.5721,-1.37052 -0.3838,0 -2.3536,3.4875 -4.3772,7.75 -6.2487,13.16155 -16.4324,31.12332 -25.8039,45.51221 -7.4238,11.39827 -8.7513,14.01777 -7.7287,15.25 0.6791,0.81828 1.7456,1.48779 2.37,1.48779 0.6243,0 4.0972,-3.4875 7.7173,-7.75 z m 362.15466,6.5 c 1.4626,-1.11864 1.032,-2.14323 -4.0982,-9.75 -9.5654,-14.18299 -17.5317,-27.80269 -25.6116,-43.78675 -4.2296,-8.36729 -7.9115,-15.21325 -8.182,-15.21325 -0.2705,0 -1.3838,0.47741 -2.4741,1.0609 -2.2759,1.21801 -2.2871,1.15669 2.6994,14.70757 4.4558,12.10871 9.9837,22.91172 16.5814,32.40489 6.5779,9.46462 16.9653,21.78092 18.3919,21.80716 0.5823,0.0107 1.7943,-0.54302 2.6932,-1.23052 z m -368.82846,-19.75 c 8.5466,-11.98821 16.5062,-26.03559 22.1634,-39.11484 5.4332,-12.5615 5.65,-13.60576 3.1833,-15.33353 -2.018,-1.41344 -2.3146,-1.01192 -9.0442,12.2435 -7.6772,15.12184 -17.4725,31.92114 -26.644,45.69533 -5.9246,8.89779 -5.9636,9.00316 -3.7842,10.22252 1.9796,1.10757 2.5344,0.85592 5.4904,-2.49046 1.8086,-2.04739 5.6945,-7.09752 8.6353,-11.22252 z m 379.84306,13.59573 c 1.6367,-1.24197 1.296,-2.03097 -4.6285,-10.7182 -7.9222,-11.61647 -20.1592,-32.81357 -27.3508,-47.37753 -2.9874,-6.05 -5.9617,-10.85765 -6.6096,-10.68367 -3.577,0.96065 -3.6239,2.62905 -0.3006,10.68367 5.1119,12.38925 12.8008,27.0673 19.6439,37.5 6.3237,9.64064 15.8538,22.02622 16.9035,21.9682 0.3165,-0.0175 1.3704,-0.6351 2.3421,-1.37247 z M -75.2731,971.01825 c 1.6934,-3.47311 3.3725,-7.87965 3.7314,-9.79231 0.583,-3.10792 0.3524,-3.63143 -2.17,-4.9251 -1.5523,-0.79615 -6.8173,-3.81461 -11.7001,-6.70769 -4.8827,-2.89308 -9.0095,-5.26015 -9.1705,-5.26015 -0.161,0 -0.603,1.4625 -0.9822,3.25 -0.3792,1.7875 -2.1639,6.26924 -3.9659,9.95942 l -3.2764,6.70941 2.3512,1.54059 c 1.2932,0.84732 2.5532,1.54058 2.8,1.54058 0.2468,0 4.2001,2.23464 8.7851,4.96586 4.5851,2.73123 8.8274,4.98123 9.4275,5 0.6,0.0188 2.4765,-2.8075 4.1699,-6.28061 z M 88.65876,972.333 c 4.6723,-2.75 8.6937,-5 8.9364,-5 0.2426,0 1.5356,-0.71708 2.8732,-1.59351 l 2.432,-1.59351 -2.8681,-5.68172 c -1.5775,-3.12495 -3.3839,-7.59701 -4.0142,-9.93791 l -1.1461,-4.25619 -6.203,3.56347 c -3.4117,1.95991 -8.8083,5.01155 -11.9926,6.78142 -5.602,3.11367 -5.7699,3.32708 -5.1826,6.5857 0.7359,4.08267 6.5511,16.13225 7.7856,16.13225 0.4863,0 4.707,-2.25 9.3794,-5 z m -284.98586,-3.28049 4.2069,-6.20877 -2.5672,-1.34509 c -2.907,-1.52313 -2.7876,-1.61327 -7.7248,5.83435 -3.3441,5.04447 -3.505,5.60353 -1.9428,6.75 2.7604,2.02583 3.6056,1.49623 8.0279,-5.03049 z m 400.63036,5.0231 c 1.5806,-1.15578 1.3918,-1.7618 -2.3368,-7.5 -2.231,-3.43343 -4.4078,-6.24261 -4.8373,-6.24261 -0.4295,0 -1.6277,0.61914 -2.6625,1.37586 -1.8012,1.31701 -1.7131,1.6374 2.0588,7.49125 4.1279,6.40626 4.966,6.93159 7.7778,4.8755 z m -409.11916,-9.67097 c 2.0801,-2.97727 3.7819,-5.68935 3.7819,-6.02683 0,-0.99016 -5.9301,-4.20606 -6.7834,-3.67866 -0.4286,0.2649 -2.5458,3.0464 -4.7047,6.18112 l -3.9254,5.69948 2.3694,1.91863 c 3.381,2.73774 4.9848,2.02889 9.2622,-4.09374 z m 419.02796,4.10432 2.7462,-1.81087 -4.5944,-6.18255 c -2.5268,-3.40039 -4.8182,-6.18254 -5.0918,-6.18254 -0.9579,0 -6.3061,3.4372 -6.3061,4.05282 0,1.41739 8.2052,11.94666 9.305,11.94059 0.6573,-0.004 2.4308,-0.82148 3.9411,-1.81745 z m -397.45956,-22.2766 c 2.8639,-5.00535 4.9638,-9.49439 4.6663,-9.97564 -0.6589,-1.0662 -13.4638,-8.30155 -13.7842,-7.78869 -0.1253,0.20073 -1.0376,2.14222 -2.0272,4.31442 -0.9896,2.17219 -3.395,6.35347 -5.3453,9.29173 -1.9503,2.93825 -3.2605,5.62773 -2.9116,5.97662 1.2056,1.20568 12.119,7.22175 13.1552,7.25192 0.5718,0.0167 3.3829,-4.06501 6.2468,-9.07036 z m 77.4777,3.63452 2.6808,-5.46613 -3.5082,-1.66478 c -1.9296,-0.91563 -3.6137,-1.49338 -3.7425,-1.28388 -0.9825,1.59808 -4.6943,10.10189 -4.6943,10.75485 0,0.86411 3.767,2.94308 5.5417,3.05838 0.5729,0.0372 2.248,-2.39208 3.7225,-5.39844 z m 218.76666,3.95012 2.9317,-1.51601 -2.6896,-5.48399 c -1.4793,-3.0162 -3.1584,-5.47399 -3.7313,-5.46176 -0.5729,0.0122 -2.1493,0.8734 -3.5031,1.91372 l -2.4613,1.89148 2.3823,5.08628 c 1.3103,2.79745 2.7777,5.08628 3.261,5.08628 0.4833,0 2.198,-0.6822 3.8103,-1.516 z m 83.5566,-2.07007 c 3.5269,-1.97233 6.4095,-3.88483 6.4059,-4.25 0,-0.36516 -0.9271,-2.01393 -2.0521,-3.66393 -1.125,-1.65 -3.4254,-5.7 -5.1119,-9 -1.6865,-3.3 -3.1842,-6.13361 -3.3282,-6.29691 -0.3539,-0.40151 -13.3782,6.78882 -13.9381,7.69486 -0.571,0.92392 9.6639,19.04694 10.7744,19.07836 0.4606,0.013 3.7232,-1.59004 7.25,-3.56238 z m -407.26286,-4.39599 4.6455,-5.98207 -2.7351,-1.38017 c -1.5042,-0.7591 -4.702,-1.63166 -7.1061,-1.93902 -5.6,-0.71597 -6.6289,-1.83247 -6.6289,-7.19335 0,-10.85458 11.5951,-16.56101 16.5583,-8.14901 1.613,2.73368 6.6993,6.45948 7.3898,5.41312 1.4682,-2.22452 5.4212,-13.18995 5.0004,-13.87073 -0.3116,-0.50419 -1.6023,-0.91671 -2.8683,-0.91671 -1.2659,0 -6.9013,-0.93809 -12.523,-2.08465 -5.6217,-1.14655 -10.334,-1.93405 -10.4719,-1.75 -0.1379,0.18406 -3.3,5.62942 -7.027,12.1008 -7.3017,12.67824 -7.1809,11.74979 -2.2406,17.22087 0.9997,1.10714 4.1497,4.82016 7,8.25115 2.8503,3.431 5.4476,6.2435 5.7718,6.25 0.3243,0.007 2.68,-2.6801 5.2351,-5.97023 z M 224.06796,944.583 c 4.1257,-4.8125 7.8531,-9.33034 8.2832,-10.03964 0.7758,-1.27973 -12.0042,-25.21036 -13.4635,-25.21036 -0.3859,0 -5.0756,0.9 -10.4217,2 -5.3461,1.1 -10.7691,2 -12.0511,2 -1.282,0 -2.5428,0.34291 -2.8018,0.76203 -0.6489,1.04994 4.7381,13.53304 6.0253,13.96209 0.9613,0.32046 4.3201,-2.6842 8.5776,-7.67338 2.5495,-2.98758 6.2359,-2.54876 10.3632,1.23361 2.8221,2.58627 3.6859,4.2335 4.0638,7.75 0.6431,5.98368 -0.9022,7.80562 -7.5061,8.84955 -2.9289,0.46299 -6.0226,1.53921 -6.875,2.39161 -1.3997,1.39974 -1.1273,2.09081 2.814,7.13715 2.4001,3.07304 4.6173,5.58734 4.9273,5.58734 0.3099,0 3.9391,-3.9375 8.0648,-8.75 z m -341.61886,-0.21676 c 1.3843,-2.73171 2.5141,-5.31921 2.5106,-5.75 -0.01,-0.75091 -6.1286,-4.64345 -6.393,-4.06446 -0.071,0.15467 -1.3117,2.78082 -2.7579,5.8359 l -2.6295,5.55467 2.6434,1.6039 c 1.4538,0.88214 2.9732,1.64504 3.3764,1.69532 0.4033,0.0503 1.8658,-2.14361 3.25,-4.87533 z m 241.54436,3.29835 c 1.3599,-0.91762 2.6286,-1.78623 2.8194,-1.93023 0.1908,-0.14401 -0.9342,-2.65573 -2.5,-5.5816 -1.5658,-2.92587 -2.8984,-5.44631 -2.9615,-5.60098 -0.2398,-0.58866 -6.3731,3.3192 -6.3791,4.06446 -0.012,1.41825 5.0106,10.71676 5.788,10.71676 0.4184,0 1.8733,-0.75078 3.2332,-1.66841 z m -83.2775,-2.47002 5.25,-1.00337 0,-14.03609 c 0,-12.96073 -0.1341,-13.98386 -1.75,-13.3544 -0.9625,0.37493 -5.6875,1.17054 -10.5,1.76802 l -8.75,1.08632 0,13.69218 0,13.69218 5.25,-0.42073 c 2.8875,-0.23141 7.6125,-0.87226 10.5,-1.42411 z M -25.0253,938.083 c 0,-4.5375 0.2824,-10.52738 0.6169,-13.31085 l 0.6082,-5.06084 -8.8669,-1.1149 c -4.8768,-0.61319 -9.8794,-1.42579 -11.1169,-1.80578 l -2.25,-0.69089 0,14.05778 0,14.05778 4.25,0.95176 c 2.3375,0.52346 7.0625,0.99995 10.5,1.05885 l 6.25,0.10709 0.01,-8.25 z m 37.77166,-6.25 0.2804,-11 -13.0304,0 -13.0304,0 0,10.58333 c 0,5.82084 0.3131,10.89648 0.6959,11.27921 0.3827,0.38273 6.1202,0.57023 12.75,0.41667 l 12.0541,-0.27921 0.2804,-11 z m -141.29726,5.53324 c 1.3843,-2.73171 2.5169,-5.19516 2.5169,-5.47432 0,-0.52393 -5.4864,-3.55892 -6.4335,-3.55892 -0.293,0 -1.7178,2.33843 -3.1661,5.19651 l -2.6333,5.19652 2.2273,1.80348 c 3.4308,2.77812 4.7632,2.2153 7.4887,-3.16327 z m 263.96986,3.80624 c 1.4008,-0.63828 2.547,-1.55324 2.547,-2.03324 0,-1.24307 -4.9262,-10.80624 -5.5665,-10.80624 -1.0293,0 -6.4335,3.05795 -6.4335,3.64035 0,1.26759 5.364,10.35965 6.1119,10.35965 0.4367,0 1.9402,-0.52223 3.341,-1.16052 z M -168.4751,914.7563 c -1.0677,-0.78281 -2.2627,-1.4233 -2.6558,-1.4233 -0.705,0 -6.9031,12.53374 -6.9031,13.95946 0,0.4042 1.0125,1.20069 2.25,1.76998 2.0918,0.96229 2.4961,0.54572 5.75,-5.92388 3.4121,-6.78427 3.4513,-6.99469 1.5589,-8.38226 z m 345.36256,13.6464 c 1.1833,-0.74894 0.913,-2.03723 -1.6131,-7.68905 -1.669,-3.73415 -3.4519,-6.92847 -3.9619,-7.09849 -0.5101,-0.17001 -1.7696,0.30674 -2.799,1.05945 -1.804,1.3191 -1.7592,1.60879 1.2379,8.01348 3.0517,6.52129 4.2921,7.51462 7.1361,5.71461 z M -178.1714,918.17782 c 1.7382,-3.93536 3.0427,-7.22155 2.8989,-7.30266 -0.1438,-0.0811 -1.4832,-0.91128 -2.9763,-1.84482 -1.4932,-0.93354 -3.1091,-1.69734 -3.591,-1.69734 -0.9321,0 -6.8022,13.78446 -6.1054,14.33707 1.7305,1.37248 5.4729,3.66293 5.9848,3.66293 0.3457,0 2.0508,-3.21983 3.789,-7.15518 z m 363.70796,5.11156 3.3066,-2.04361 -2.9984,-6.68283 c -1.6491,-3.67555 -3.1938,-6.87823 -3.4326,-7.11707 -0.584,-0.58399 -7.5282,3.19472 -7.2026,3.91929 0.141,0.31376 1.594,3.58488 3.2289,7.26916 1.6349,3.68427 3.1568,6.69868 3.382,6.69868 0.2252,0 1.8974,-0.91963 3.7161,-2.04362 z m 56.8201,-8.51076 c -1.3149,-1.72392 -2.3976,-3.54193 -2.406,-4.04001 -0.05,-2.97858 -1.7008,-3.50302 -5.8276,-1.8518 -2.2864,0.91484 -4.1571,2.08242 -4.1571,2.59461 0,1.37298 3.997,9.08294 5.7336,11.05973 1.3993,1.59282 1.7554,1.49425 5.2742,-1.46 l 3.7736,-3.16814 -2.3907,-3.13439 z M -233.0548,918.583 c 3.8513,-6.13302 3.7769,-7.519 -0.5131,-9.56479 -4.6728,-2.22831 -5.09,-2.15803 -6.3202,1.06479 -0.5773,1.5125 -1.8234,3.94277 -2.7691,5.40061 -1.6873,2.60103 -1.6648,2.69864 1.2019,5.2184 1.6067,1.41228 3.483,2.58201 4.1695,2.59939 0.6865,0.0174 2.5904,-2.1059 4.231,-4.7184 z m 225.28006,-15.5 c 0.3006,-5.6375 1.0244,-11.47493 1.6083,-12.97207 1.81,-4.64067 9.8568,-5.02996 12.232,-0.59176 0.6366,1.18941 1.3883,7.03409 1.6705,12.98819 l 0.5131,10.82564 3.3584,0 3.3584,0 0.125,-16 c 0.069,-8.8 0.1812,-16.73016 0.25,-17.62259 0.1099,-1.42622 -1.7206,-1.63801 -15.1253,-1.75 l -15.25016,-0.12741 2e-4,17.75 3e-4,17.75 3.35636,0 3.3564,0 0.5465,-10.25 z m -21.25926,2.25 0,-4 -6.2764,0 -6.2765,0 0.3815,4 0.3815,4 5.8949,0 5.895,0 0,-4 z m 70.81036,-0.25 0.3103,-3.75 -6.5603,0 -6.5604,0 0,4.04772 0,4.04771 6.25,-0.29771 6.25,-0.29772 0.3104,-3.75 z M -29.034,892.96892 c 0,-3.244 -0.1656,-3.38677 -4.6396,-4 -7.9695,-1.09234 -7.9573,-1.09778 -7.5318,3.36408 l 0.3815,4 5.8949,0 5.895,0 0,-3.36408 z M 41.77636,892.083 c 0.3472,-4.19573 0.1815,-4.25889 -8.1708,-3.11408 -4.4886,0.61523 -4.6396,0.74695 -4.6396,4.04772 l 0,3.41179 6.25,-0.29771 6.25,-0.29772 0.3104,-3.75 z m -70.81036,-12.75 0,-4 -6.2764,0 -6.2765,0 0.3815,4 0.3815,4 5.8949,0 5.895,0 0,-4 z m 70.81036,-0.25 0.3103,-3.75 -6.5603,0 -6.5604,0 0,4.04772 0,4.04771 6.25,-0.29771 6.25,-0.29772 0.3104,-3.75 z m -21.5948,-12.30192 c 15.9067,-2.18761 18.4601,-2.9713 19.0073,-5.83383 l 0.4532,-2.37066 -30.0881,0.46015 c -16.5484,0.25308 -34.25046,0.0672 -39.33796,-0.41301 l -9.25,-0.87316 0,2.72382 c 0,3.31384 0.6061,3.5379 15.9523,5.89693 14.63776,2.25011 28.89936,2.38519 43.26326,0.40976 z m 8.2844,-14.5382 c 9.5011,-1.29547 10.2061,-1.59209 10.7677,-4.53016 l 0.4886,-2.55558 -10.6282,0.76479 c -13.3936,0.96378 -45.56376,0.94642 -58.37806,-0.0315 l -9.75,-0.74408 0,2.52594 c 0,1.54306 0.6809,2.72605 1.75,3.04023 2.6641,0.78292 16.9998,2.59499 23.74996,3.00205 8.6783,0.52332 33.8329,-0.35809 42,-1.47168 z M -19.034,838.46383 c 0,-2.53861 -0.432,-2.94056 -3.75,-3.48899 -2.0625,-0.34091 -5.6924,-0.62479 -8.0664,-0.63084 -4.1211,-0.0105 -4.3021,0.11346 -4,2.73899 0.3009,2.61553 0.6342,2.77823 6.8164,3.3274 3.575,0.31757 7.0625,0.65507 7.75,0.75 0.7497,0.10351 1.25,-0.97585 1.25,-2.69656 z m 52.74996,1.32209 c 0.6875,-0.21459 1.25,-1.52928 1.25,-2.92154 0,-2.36235 -0.3256,-2.53139 -4.875,-2.53139 -8.6966,0 -11.125,0.87528 -11.125,4.00985 l 0,2.75984 6.75,-0.4633 c 3.7125,-0.25481 7.3125,-0.63887 8,-0.85346 z m -22.5714,-5.45293 c 0.098,-3.3 0.2107,-6.9779 0.25,-8.1731 0.069,-2.10189 -0.2973,-2.17563 -11.1787,-2.25 l -11.2502,-0.0769 2e-4,8.25 1e-4,8.25 11,0 11,0 0.1786,-6 z m -30.17856,-6.92804 0,-3.92805 -5.75,-0.63547 c -3.1625,-0.3495 -6.65,-0.71938 -7.75,-0.82195 -1.6978,-0.15831 -2,0.41801 -2,3.81351 0,3.98521 0.017,4.00222 4.5,4.59981 2.475,0.32989 5.9625,0.66739 7.75,0.75 3.1406,0.14513 3.25,0.0179 3.25,-3.77785 z m 51.24996,2.93673 c 2.593,-0.008 2.75,-0.26664 2.75,-4.52774 0,-4.15797 -0.1798,-4.48178 -2.25,-4.05259 -1.2375,0.25656 -4.8375,0.74751 -8,1.09101 l -5.75,0.62454 0,4.06734 0,4.06733 5.25,-0.6306 c 2.8875,-0.34683 6.4875,-0.63451 8,-0.63929 z m -39.25,-15.87658 c 0,-1.51242 -0.6607,-3.62336 -1.4682,-4.69098 -1.9302,-2.5519 -1.9291,-7.90097 0,-9.83201 1.9804,-1.98037 7.779,-3.57392 10.6921,-2.93836 7.6195,1.66241 9.9109,5.53586 6.8024,11.4995 -2.0453,3.92413 -2.6633,8.34516 -1.2782,9.14457 0.7851,0.45314 14.2845,-1.01599 14.8888,-1.62035 0.3061,-0.30611 -2.2018,-7.73232 -7.2421,-21.44448 l -1.5622,-4.25 -13.7833,0 -13.7833,0 -2.20656,6.25 c -1.2137,3.4375 -3.2922,9.14425 -4.619,12.68167 -1.3268,3.53742 -2.236,6.60805 -2.0204,6.82363 0.5759,0.57591 13.94836,1.92215 14.82806,1.49276 0.4125,-0.20135 0.75,-1.60353 0.75,-3.11595 z m 14.1524,-31.61789 c 0.2672,-0.26718 0.2297,-2.40468 -0.083,-4.75 l -0.5691,-4.26422 -5.9072,-0.3046 c -6.7122,-0.34609 -7.5541,0.32663 -7.5775,6.0546 l -0.015,3.75 6.8333,0 c 3.7584,0 7.052,-0.2186 7.3191,-0.48578 z"
       id="path6446"
       inkscape:connector-curvature="0" />
  </g>
</svg>
