<?xml version="1.0" encoding="UTF-8" standalone="no"?>
<!-- Created with Inkscape (http://www.inkscape.org/) -->

<svg
   xmlns:dc="http://purl.org/dc/elements/1.1/"
   xmlns:cc="http://creativecommons.org/ns#"
   xmlns:rdf="http://www.w3.org/1999/02/22-rdf-syntax-ns#"
   xmlns:svg="http://www.w3.org/2000/svg"
   xmlns="http://www.w3.org/2000/svg"
   xmlns:sodipodi="http://sodipodi.sourceforge.net/DTD/sodipodi-0.dtd"
   xmlns:inkscape="http://www.inkscape.org/namespaces/inkscape"
   width="210mm"
   height="297mm"
   viewBox="0 0 744.09448819 1052.3622047"
   id="svg7033"
   version="1.1"
   inkscape:version="0.91 r13725"
   sodipodi:docname="scout-trooper.svg">
  <defs
     id="defs7035" />
  <sodipodi:namedview
     id="base"
     pagecolor="#ffffff"
     bordercolor="#666666"
     borderopacity="1.0"
     inkscape:pageopacity="0.0"
     inkscape:pageshadow="2"
     inkscape:zoom="0.35"
     inkscape:cx="-46.428571"
     inkscape:cy="520"
     inkscape:document-units="px"
     inkscape:current-layer="layer1"
     showgrid="false"
     inkscape:window-width="1920"
     inkscape:window-height="1027"
     inkscape:window-x="-8"
     inkscape:window-y="-8"
     inkscape:window-maximized="1" />
  <metadata
     id="metadata7038">
    <rdf:RDF>
      <cc:Work
         rdf:about="">
        <dc:format>image/svg+xml</dc:format>
        <dc:type
           rdf:resource="http://purl.org/dc/dcmitype/StillImage" />
        <dc:title></dc:title>
      </cc:Work>
    </rdf:RDF>
  </metadata>
  <g
     inkscape:label="Layer 1"
     inkscape:groupmode="layer"
     id="layer1">
    <path
       style="fill:#000000"
       d="m -21.041274,1337.4065 c -12.4657,-1.1918 -21.3628,-6.2758 -31.4759,-17.9856 -1.1875,-1.375 -3.3275,-3.3104 -4.7557,-4.301 -5.2981,-3.6747 -8.7633,-15.0492 -10.5152,-34.5165 -0.5644,-6.2715 -1.5445,-11.2577 -2.4992,-12.7149 -0.864,-1.3185 -1.5708,-2.921 -1.5708,-3.5612 0,-0.6402 -1.5496,-2.8792 -3.4436,-4.9756 -5.7523,-6.3672 -8.8868,-21.4806 -6.638,-32.0065 1.6714,-7.8233 4.9787,-12.2573 11.4128,-15.3011 6.1698,-2.9188 7.2339,-4.8012 10.1041,-17.8747 1.0853,-4.9432 2.3131,-8.0786 3.3891,-8.6545 0.928,-0.4967 5.5097,-1.8141 10.1814,-2.9277 8.0398,-1.9164 22.7589,-7.0897 25.9722,-9.1284 1.0239,-0.6496 1.5937,-3.2269 1.8543,-8.3874 0.3321,-6.5773 0.159,-7.5132 -1.4781,-7.9928 -1.0198,-0.2987 -9.5042,-2.1602 -18.8542,-4.1365 -9.35,-1.9763 -17.4615,-4.1999 -18.0255,-4.9413 -0.564,-0.7415 -5.113,-5.7877 -10.1089,-11.214 -4.9959,-5.4262 -10.2222,-11.2034 -11.6141,-12.8382 l -2.5307,-2.9723 -6.3604,4.3949 c -3.4982,2.4172 -6.4618,4.4562 -6.5857,4.531 -0.757,0.457 3.2716,22.1555 5.282,28.4494 3.6083,11.2964 3.5753,11.416 -5.5503,20.1224 l -7.993696,7.6265 0.1412,7.4246 c 0.168,8.8393 -1.0718,11.7219 -7.6489,17.7845 -7.5995,7.0049 -21.5935,12.0124 -29.8404,10.6778 -8.9046,-1.4411 -13.1727,-0.6589 -23.8673,4.3737 -18.0806,8.5083 -29.662,10.9436 -36.0926,7.5894 -1.5375,-0.8019 -5.5875,-1.961 -9,-2.5757 -16.29554,-2.9355 -25.97464,-12.5515 -42.28274,-42.0072 -7.9129,-14.2921 -9.6728,-19.7217 -9.7071,-29.9467 -0.021,-6.3892 0.5071,-9.8658 2.1278,-14 1.186,-3.025 2.1565,-6.782 2.1568,-8.3489 10e-4,-7.11 8.2582,-16.6502 24.0685,-27.8091 9.2721,-6.5443 12.24704,-10.0941 15.37124,-18.342 2.4635,-6.5035 11.6274,-15.4229 20.1628,-19.6248 8.9983,-4.4299 15.3363,-4.4558 22.357,-0.091 6.2464,3.8829 9.0536,3.9851 19.3291,0.7034 4.2835,-1.3679 8.584,-2.4872 9.5568,-2.4872 0.9728,0 4.6673,2.9857 8.2102,6.6348 6.7553,6.958 14.148,13.43 19.7995,17.3334 l 3.3546,2.317 6.8954,-3.3358 c 3.7925,-1.8347 6.8936,-3.3613 6.8913,-3.3926 0,-0.031 -2.682,-8.3688 -5.9551,-18.528 l -5.9512,-18.4711 5.9552,-17.9383 c 3.2754,-9.8661 5.9552,-18.0046 5.9552,-18.0857 0,-0.081 -3.1029,-1.6484 -6.8954,-3.4831 l -6.8954,-3.3358 -3.3546,2.3062 c -5.5674,3.8275 -15.0618,12.1512 -20.1592,17.6737 -2.6425,2.8628 -5.6545,5.4749 -6.6934,5.8047 -1.0388,0.3297 -5.7496,-0.5782 -10.4684,-2.0175 -11.0501,-3.3705 -13.6215,-3.386 -18.3482,-0.1104 -4.9467,3.4281 -9.7565,4.7889 -14.1781,4.0113 -11.1007,-1.9523 -25.9869,-13.5159 -29.5981,-22.9918 -3.1467,-8.257 -6.32154,-12.0122 -15.79634,-18.68465 -15.4702,-10.8946 -23.6122,-20.3275 -23.6134,-27.3574 -3e-4,-1.5669 -0.9657,-5.3239 -2.1455,-8.3489 -2.8146,-7.2171 -3.0169,-19.27647 -0.4528,-27 4.0625,-12.23706 20.6839,-39.76858 28.7895,-47.68636 6.347,-6.20001 13.01954,-9.69248 21.77914,-11.39953 3.5585,-0.69345 7.6085,-1.85504 9,-2.5813 6.1642,-3.21704 18.0184,-0.65362 35.9076,7.76477 l 10.3774,4.88347 12.1226,-0.23366 c 11.4428,-0.22056 12.515,-0.0683 19.121,2.71524 4.8693,2.05178 8.7197,4.63559 12.6565,8.49314 6.4769,6.34655 7.9858,10.28048 7.1287,18.58506 l -0.5673,5.49678 8.141896,7.76785 c 9.1386,8.71882 9.3515,9.36551 6.1482,18.67598 -1.887,5.48457 -4.3114,17.20805 -5.3806,26.01856 -0.4815,3.9679 -0.4343,4.0339 5.8973,8.2252 l 6.3827,4.2251 5.3606,-5.7251 c 7.0338,-7.5121 20.0778,-21.66631 20.2203,-21.94118 0.1015,-0.19583 36.405,-8.28402 37.1825,-8.28402 0.1819,0 0.3308,-3.11786 0.3308,-6.92857 0,-4.82119 -0.4556,-7.38419 -1.4979,-8.42653 -2.0063,-2.00625 -16.307,-7.45795 -24.4481,-9.32002 -14.0107,-3.20464 -13.2129,-2.49134 -16.1345,-14.42595 -1.4193,-5.79777 -2.9078,-11.07097 -3.3078,-11.71822 -0.4,-0.64725 -3.1985,-2.34587 -6.2188,-3.77471 -6.7502,-3.19334 -10.027,-7.78592 -11.6034,-16.26241 -1.9277,-10.36553 1.4629,-25.97836 6.872,-31.64359 4.0653,-4.2579 6.4308,-10.83857 7.3688,-20.5 1.2444,-12.81702 1.8701,-16.39279 4.1881,-23.93769 1.8024,-5.8663 2.8645,-7.31687 11.9671,-16.34341 16.193,-16.05767 23.8459,-18.37393 57.7733006,-17.4858 15.7237994,0.4116 19.5227994,0.82301 25.0009994,2.70744 8.3149,2.8602 10.6169,4.50977 21.7902,15.61454 11.5581,11.48723 13.0262,15.19787 15.2107,38.44492 1.0291,10.9511 3.1808,17.05059 7.5597,21.42944 5.8461,5.84619 9.1096,24.45162 6.103,34.79401 -2.0736,7.13297 -5.4531,11.16421 -11.199,13.35857 -5.4445,2.07927 -6.0708,3.14226 -9.3555,15.87895 -2.909,11.27957 -2.1945,10.67265 -16.4024,13.93288 -5.7056,1.30923 -23.0645,7.67081 -24.2984,8.90472 -0.2008,0.20085 -0.6548,3.79121 -1.0087,7.97859 -0.6292,7.44285 -0.59,7.62555 1.7485,8.15571 1.3157,0.29827 9.6737,2.10917 18.5735,4.02422 l 16.1814,3.4819 4.8186,5.24408 c 2.6502,2.88424 7.7002,8.41043 11.2222,12.28053 3.522,3.87 7.1849,7.8743 8.1399,8.8985 1.6833,1.8053 1.9228,1.7306 7.8464,-2.4468 5.2904,-3.731 6.1101,-4.7346 6.1101,-7.4812 0,-4.9232 -2.7252,-19.33735 -4.8086,-25.4341 -3.878,-11.34795 -4.2126,-10.10279 5.3999,-20.09494 l 8.654304,-8.99602 -0.6586,-4.96472 c -0.9918,-7.47697 0.7105,-12.14205 6.5161,-17.85682 3.4218,-3.36824 7.5031,-6.02336 12.7178,-8.27372 7.4704,-3.22373 8.0129,-3.30711 19.9633,-3.06844 l 12.2843,0.24533 7.0666,-3.55869 c 18.1608,-9.14563 31.3155,-12.25327 38.6283,-9.12544 2.0551,0.87904 6.2116,2.07877 9.2366,2.66607 7.7077,1.49646 15.0828,5.14708 20.6177,10.20571 5.9762,5.46192 16.6117,21.68624 24.6206,37.55866 6.1485,12.18529 6.1937,12.33729 6.5477,22.01651 0.2901,7.93316 -0.029,10.84543 -1.7148,15.65306 -1.1392,3.2486 -2.0811,7.07355 -2.0932,8.49995 -0.061,7.2136 -8.9588,17.4812 -24.6434,28.4375 -4.4909,3.1371 -9.093,7.15555 -10.2269,8.92985 -1.1339,1.7744 -2.4952,3.9011 -3.0251,4.7261 -0.53,0.825 -1.2046,2.6606 -1.4992,4.0792 -1.3306,6.4054 -14.7795,18.4614 -24.0581,21.5662 -7.8267,2.619 -12.7793,2.0993 -19.4942,-2.0454 l -5.797,-3.578 -7.367,1.9724 c -4.0519,1.0849 -9.2715,2.5207 -11.5992,3.1908 l -4.232,1.2184 -9.268,-9.0287 c -5.0973,-4.9658 -11.8787,-10.9782 -15.0696,-13.361 l -5.8017,-4.3322 -6.1983,2.8661 c -3.4091,1.5764 -6.5863,3.1835 -7.0606,3.5714 -0.4742,0.388 1.6633,8.2827 4.75,17.5439 3.0868,9.2612 5.6123,17.8303 5.6123,19.0424 0,1.2121 -2.5116,9.9275 -5.5814,19.3677 -3.0698,9.4402 -5.2073,17.4675 -4.75,17.8384 0.4573,0.371 3.5935,1.9513 6.9693,3.5117 l 6.1379,2.8373 7.8621,-6.0369 c 4.3242,-3.3203 11,-9.229 14.8353,-13.1303 3.8352,-3.9014 7.7588,-7.0934 8.7191,-7.0934 0.9602,0 5.1923,1.125 9.4045,2.5 10.0536,3.2818 13.5625,3.2066 18.7397,-0.4019 5.8083,-4.0484 10.0103,-4.5437 17.8928,-2.109 10.279,3.1749 23.8533,14.9059 25.378,21.9317 1.3289,6.1237 5.3931,10.7831 16.8927,19.3662 15.7723,11.7723 22.5,19.8351 22.5,26.9655 0,1.2743 0.925,4.9486 2.0555,8.1652 2.3282,6.6241 2.7455,17.8298 0.9224,24.7691 -1.4759,5.6181 -11.5233,24.6395 -19.4132,36.7525 -9.9393,15.2592 -18.0155,21.2963 -32.5813,24.3551 -3.5659,0.7489 -7.4663,1.889 -8.6677,2.5336 -5.6484,3.0308 -20.8789,-0.5638 -37.237,-8.7884 l -8.0154,-4.0301 -12.2817,0.245 c -11.4353,0.2282 -12.7195,0.057 -18.6369,-2.4774 -7.7174,-3.3061 -14.7834,-8.5543 -18.1447,-13.477 -2.2022,-3.2252 -2.4776,-4.6027 -2.3119,-11.5643 l 0.188,-7.9029 -7.503904,-7.1664 c -4.1272,-3.9416 -7.9255,-7.9268 -8.4409,-8.856 -0.6508,-1.1735 -0.1571,-4.1581 1.6167,-9.773 2.73,-8.6422 5.4484,-22.4818 5.4506,-27.7502 0.001,-2.8139 -0.7563,-3.7273 -6.1012,-7.357 l -6.1027,-4.1442 -8.1332,8.8569 c -4.4733,4.8714 -10.3896,11.2386 -13.1474,14.1495 l -5.0141,5.2925 -16,3.455 c -8.8,1.9002 -17.0125,3.6897 -18.25,3.9765 -1.899,0.4402 -2.2483,1.1816 -2.239,4.7526 0.01,2.327 0.2858,5.8931 0.6217,7.9247 0.5923,3.582 0.8816,3.8021 9.5596,7.2755 4.9219,1.9699 12.7811,4.4752 17.4649,5.5674 4.6838,1.0921 9.3384,2.4258 10.3436,2.9637 1.2629,0.6759 2.4953,3.8226 3.989,10.1847 2.881,12.2717 3.9695,14.1457 9.4262,16.2297 5.6229,2.1474 9.0819,6.1552 11.0593,12.8141 3.4301,11.5504 0.3468,28.949 -6.3099,35.6058 -4.1347,4.1346 -6.2761,10.5113 -7.2756,21.6653 -1.1107,12.3953 -3.0952,22.0382 -5.5131,26.7896 -0.8986,1.7657 -5.7954,7.3706 -10.8818,12.4552 -11.6419,11.6377 -17.7265,14.7703 -31.5087,16.2216 -10.6327994,1.1197 -29.5674994,1.1285 -41.1694,0.019 z m 48.1832,-16.0528 c 9.9378,-1.4825 20.1144,-3.8932 23.7824,-5.6338 5.7946,-2.7497 6.6274,-5.7143 6.9661,-24.799 0.2693,-15.1759 0.093,-17.4292 -1.6425,-21 l -1.9441,-4 -0.081,16.3072 c -0.084,17.0226 -1.1313,24.0234 -3.9772,26.5989 -4.8105,4.3534 -28.9847,7.5453 -53.6036994,7.0777 -24.0336006,-0.4566 -42.4245006,-3.4083 -46.4755006,-7.4593 -2.9812,-2.9811 -4.2349,-11.9135 -3.8644,-27.5319 0.2499,-10.5335 0.042,-14.0774 -0.7855,-13.3897 -2.6157,2.1735 -3.6213,9.9265 -3.202,24.6869 0.6105,21.4907 2.072,23.4012 20.8274,27.2252 5.775,1.1774 15,2.5156 20.5,2.9737 11.3099006,0.9421 33.7599,0.3971 43.5,-1.0559 z m -30.9999994,-15.9328 c 0,-6.4444 -0.2917,-8 -1.5,-8 -1.2083,0 -1.5,1.5556 -1.5,8 0,6.4444 0.2917,8 1.5,8 1.2083,0 1.5,-1.5556 1.5,-8 z m 11,0 c 0,-6.4444 -0.2917,-8 -1.5,-8 -1.2083,0 -1.5,1.5556 -1.5,8 0,6.4444 0.2917,8 1.5,8 1.2083,0 1.5,-1.5556 1.5,-8 z m 16.7896994,-23.0087 c 10.9154,-2.6071 20.5651,-7.077 22.869,-10.5932 2.2264,-3.3979 2.418,-10.8665 0.453,-17.6581 -1.6412,-5.6723 -7.8569,-13.1069 -12.2335,-14.6326 -3.6279,-1.2647 -3.6965,-1.2022 -14.1071,12.8683 -6.4798,8.7578 -14.1417994,15.4703 -18.6721994,16.3583 -6.4823,1.2706 -16.6941006,-6.8967 -26.1566006,-20.9196 -5.9389,-8.801 -7.5143,-9.8664 -11.5226,-7.7923 -6.8775,3.5587 -10.5879,9.2762 -12.3593,19.0451 -1.4273,7.8711 0.071,12.8383 4.8387,16.047 4.5768,3.08 20.0599,7.9425 29.1843,9.1655 10.1196006,1.3564 27.8354,0.4691 37.7063,-1.8884 z M 9.9432266,1255.7899 c 2.9124994,-3.2903 2.2699994,-3.9744 -1.7704,-1.885 -4.0566,2.0978 -11.899,2.1527 -15.8473,0.111 -4.6518006,-2.4056 -4.9223006,-1.9524 -1.1548,1.9347 1.8816,1.9413 4.7824,3.9029 6.4462,4.359 3.791,1.0392 9.1425,-0.923 12.3263,-4.5197 z m -79.9149006,-9.2751 c 1.8581,-8.6636 3.4564,-22.7582 2.7805,-24.5195 -0.447,-1.165 -1.5319,-1.6075 -3.4112,-1.3914 -4.704,0.5411 -6.4007,5.425 -6.0506,17.4164 0.294,10.0694 1.3715,13.4006 4.3345,13.4006 0.7407,0 1.7449,-2.0993 2.3468,-4.9061 z m 145.4715,2.6561 c 3.1944,-5.1193 2.5618,-22.9712 -0.9516,-26.8535 -0.9439,-1.0431 -2.763,-1.8965 -4.0422,-1.8965 -3.4144,0 -3.8044,3.2467 -1.8852,15.6922 2.1861,14.1758 2.4898,15.3078 4.1065,15.3078 0.7527,0 2.0003,-1.0125 2.7725,-2.25 z m -67.5931994,-11.1715 3.7352994,-3.4215 0.3437,-10.0785 0.3437,-10.0785 -12.09369942,0 -12.09370058,0 0,8.5497 c 0,9.3651 1.2128,12.8993 5.6149006,16.362 4.2208,3.3201 9.6256,2.8109 14.1498,-1.3332 z M -183.32237,1225.9305 c 13.1907,-6.8999 21.754,-12.8465 23.9174,-16.609 l 1.9531,-3.3967 -2.4531,1.6065 c -16.7333,10.9589 -28.7691,16.8896 -34.2759,16.8896 -4.0261,0 -4.804,-0.4559 -9.812,-5.75 -15.4038,-16.284 -32.13344,-43.8764 -39.76174,-65.5797 -3.4789,-9.8976 -3.862,-14.583 -1.4889,-18.2049 1.9436,-2.9662 11.4761,-9.3877 24.38544,-16.4269 l 9.5,-5.1802 -5,0.4041 c -4.0444,0.3268 -7.34544,1.8098 -17.27244,7.7598 -13.7292,8.2291 -18.9142,12.7906 -19.7791,17.4005 -1.3356,7.1193 10.8246,36.7119 23.0433,56.0773 6.5878,10.441 18.47554,25.3716 24.95934,31.3482 6.302,5.8089 10.4537,5.7453 22.0846,-0.3386 z m 385.4881,2.9781 c 4.3775,-2.2637 17.1985,-17.4363 26.1426,-30.9376 12.935,-19.5258 24.9725,-46.8376 25.2298,-57.2441 0.1355,-5.4778 -3.5318,-9.347 -16.4039,-17.3072 -12.0158,-7.4306 -17.5747,-9.9508 -21.9923,-9.9704 -3.1775,-0.014 -2.5307,0.5154 7.0199,5.7462 18.5015,10.133 24.9801,15.5799 24.9801,21.002 0,13.7711 -24.319,58.7488 -41.6188,76.9734 -6.6412,6.9963 -7.0465,7.25 -11.5841,7.25 -5.1558,0 -12.5868,-3.4675 -27.6155,-12.8862 -4.4999,-2.8201 -8.1816,-4.8294 -8.1816,-4.465 0,2.0583 5.88,7.775 11.276,10.9627 20.5348,12.1311 26.4939,14.1102 32.7478,10.8762 z m -325.0546,-15.7111 c 7.2023,-3.7145 14.0308,-9.8973 14.0308,-12.7041 0,-1.0613 -0.7038,-2.6334 -1.564,-3.4936 -2.0594,-2.0594 -4.4362,-0.8406 -14.9964,7.6901 -9.1322,7.377 -10.8645,9.2345 -9.9667,10.6872 1.197,1.9367 6.2103,1.0623 12.4963,-2.1796 z m 258.7617,1.5497 c 0.4082,-1.2447 -16.1618,-15.4635 -20.8392,-17.8823 -2.4311,-1.2572 -2.9519,-1.2409 -4.3277,0.1349 -2.5458,2.5457 -1.8124,5.4945 2.3519,9.4558 7.6042,7.2337 21.5051,12.2857 22.815,8.2916 z m -123.730904,-22.3263 0,-20 -11.99999942,0 -12.00000058,0 0,20 0,20 12.00000058,0 11.99999942,0 0,-20 z m -172.798896,9.2238 c 11.0535,-5.1482 20.0222,-21.1567 15.1224,-26.9926 -1.8499,-2.2032 -2.6378,-2.3708 -17.8067,-3.7879 -8.7609,-0.8185 -18.1444,-3.7047 -21.8952,-6.7346 -5.6548,-4.5679 -4.3773,-16.7398 3.5509,-33.832 4.8327,-10.4188 4.7338,-12.6783 -0.6725,-15.3632 -9.183,-4.5604 -25.7379,-0.9452 -30.5393,6.6692 -1.7633,2.7963 -2.0047,4.3382 -1.5373,9.8173 2.1284,24.9514 20.6172,55.9229 41.1614,68.9516 5.4963,3.4857 7.4424,3.6819 12.6163,1.2722 z m 334.3775,-1.4323 c 6.748,-4.3993 18.1792,-15.9761 23.3599,-23.6574 9.4348,-13.9891 16.1004,-31.1765 17.5037,-45.1341 0.5493,-5.4642 0.3406,-6.9996 -1.3098,-9.6351 -4.7767,-7.6277 -21.5768,-11.3927 -30.6324,-6.8649 -5.3327,2.6664 -5.4984,5.2025 -0.9856,15.084 4.8386,10.5951 7.8382,21.7507 7.1759,26.6881 -0.6108,4.554 -3.727,8.2801 -8.6903,10.3913 -4.6712,1.9869 -17.0492,4.3366 -22.8446,4.3366 -5.5751,0 -11.2061,1.4771 -12.3198,3.2317 -2.6795,4.2216 0.9593,14.6584 7.3327,21.0319 8.4094,8.4094 13.7304,9.5347 21.4103,4.5279 z m -388.9247,-14.3404 c 6.0494,-3.383 7.3277,-4.7264 5.5455,-5.8279 -1.2945,-0.8 -13.19944,6.3564 -13.19944,7.9347 0,2.0263 0.51834,1.8836 7.65394,-2.1068 z m 438.3461,2.2825 c 0,-1.2031 -9.0784,-7.2332 -11.9133,-7.913 -0.7352,-0.1763 -1.5297,0.2022 -1.7656,0.8411 -0.2359,0.639 2.4078,2.7695 5.875,4.7346 6.953,3.9408 7.8039,4.1956 7.8039,2.3373 z m -439.75,-14.1426 c 1.842,-1.1284 2.4055,-3.591 0.8217,-3.591 -1.3737,0 -13.07174,7.1148 -13.07174,7.9502 0,2.5546 2.2997,1.7362 12.25004,-4.3592 z m 445.1017,4.9348 c 0.7563,-1.971 -12.0029,-9.2747 -13.5317,-7.7458 -1.0823,1.0823 -0.6037,1.4674 8.18,6.5812 5.3351,3.1061 4.6628,2.9598 5.3517,1.1646 z m -397.8517,-17.3864 c -5.7008,-3.5213 -9.426,-9.8845 -9.5761,-16.3573 l -0.076,-3.2821 -1.3478,3.5 c -2.943,7.6421 -1.1876,13.3282 4.9796,16.1297 2.2112,1.0045 5.1454,1.8346 6.5204,1.8446 2.4833,0.018 2.48,0.01 -0.5,-1.8349 z m 343.8642,0.4818 c 6.744,-2.8178 9.2312,-9.2412 6.2423,-16.1212 l -1.3032,-3 -0.7699,4.5 c -1.0915,6.3799 -3.0023,9.6027 -7.7193,13.0197 -3.4138,2.473 -3.7427,2.9803 -1.932,2.9803 1.2002,0 3.6671,-0.6205 5.4821,-1.3788 z m -317.6617,-12.7188 c 4.2886,-2.2536 7.9674,-4.261 8.1751,-4.4609 0.2914,-0.2804 -10.1419,-19.6522 -11.4718,-21.2999 -0.1591,-0.1971 -3.578,1.6163 -7.5975,4.0297 -5.976,3.5881 -7.7408,5.2548 -9.6809,9.1427 -2.2007,4.41 -2.2706,5.0228 -0.9645,8.4544 1.6326,4.2895 6.8705,8.2316 10.9375,8.2316 1.5425,0 6.3135,-1.8439 10.6021,-4.0976 z m 301.6989,2.7032 c 4.4288,-1.8504 6.5994,-5.1675 6.5949,-10.0781 -0.01,-6.0701 -2.8503,-9.7392 -11.097,-14.313 l -7.2852,-4.0405 -5.807,9.9932 c -3.1939,5.4962 -5.8042,10.2946 -5.8008,10.663 0,0.3684 1.466,1.5156 3.25,2.5494 12.3843,7.1762 14.2928,7.6713 20.1451,5.226 z m -166.5245034,-6.2348 c 0.6589,-1.4461 1.0164,-2.8108 0.7946,-3.0327 -0.2219,-0.2219 -4.2908006,-1.1528 -9.0420006,-2.0687 -6.8848,-1.3273 -8.5458,-1.9805 -8.1815,-3.2174 2.0495,-6.9596 2.5082,-6.4465 -7.6435,-8.5498 l -9.3045,-1.9278 -7.7571,-7.4675 -7.7571,-7.4675 -2.8373,2.7184 -2.8374,2.7183 -5.7401,-6.538 c -3.1571,-3.596 -6.1003,-6.5381 -6.5405,-6.5381 -0.4403,0 -1.5369,1.1239 -2.4369,2.4975 -1.6319,2.4907 -1.5981,2.5408 12.3328,18.25 l 13.9693,15.7525 18.3021,3.6438 c 22.8502006,4.5493 23.1584006,4.5646 24.6791006,1.227 z m 40.7937994,-1.1882 18.1706,-3.6826 13.5794,-15.2523 c 7.4686,-8.3887 13.5793,-15.8764 13.5793,-16.6392 0,-0.7628 -0.7875,-2.3325 -1.75,-3.4883 -1.7394,-2.0885 -1.7861,-2.0586 -7.6945,4.9256 l -5.9445,7.0268 -2.9229,-2.9229 -2.9228,-2.9229 -7.6327,7.715 -7.6326,7.7149 -9.2526,1.8757 c -7.3178,1.4834 -9.167,2.1989 -8.843,3.4216 1.801,6.7962 1.8144,6.7554 -2.44,7.4357 -2.2059,0.3527 -6.2433,1.1202 -8.9721,1.7054 l -4.9613994,1.064 1.5102,2.9205 c 1.0084,1.95 2.2493994,2.898 3.7345994,2.853 1.2234,-0.037 10.4011,-1.7246 20.395,-3.75 z m -146.945696,-12.0847 c 15.314396,-8.9313 16.057896,-9.5072 14.846596,-11.5 -0.7014,-1.1539 -3.409696,-5.8104 -6.018496,-10.3479 -2.6087,-4.5375 -4.9673,-8.25 -5.2412,-8.25 -1.3152,0 -33.3119,19.4377 -33.3119,20.2367 0,1.9781 11.3683,19.8347 12.4514,19.5578 0.6335,-0.162 8.4067,-4.5255 17.2736,-9.6966 z m 252.6193,0.2748 c 3.1107,-5.295 5.6557,-9.9265 5.6557,-10.2922 0,-0.3657 -3.0375,-2.4263 -6.75,-4.579 -3.7125,-2.1528 -11.117,-6.5213 -16.4545,-9.7078 -5.3374,-3.1865 -9.9325,-5.7937 -10.2113,-5.7937 -0.4474,0 -8.2913,12.8365 -11.412904,18.6771 -1.0923,2.0437 -0.6011,2.4989 8.022404,7.4337 5.0522,2.8912 12.363,7.1892 16.2461,9.5511 3.8831,2.3619 7.5527,4.3042 8.1545,4.3162 0.6019,0.012 3.6394,-4.3104 6.75,-9.6054 z M 7.4751266,1120.2829 c 3.3136994,-0.6655 5.6667994,-1.665 5.6667994,-2.4069 0,-0.6979 -1.3668,-8.569 -3.0372,-17.4914 -1.6704994,-8.9224 -2.9079994,-16.3116 -2.7499994,-16.4205 0.1579,-0.1089 1.8622,-0.8023 3.7871994,-1.5408 1.925,-0.7385 5.5853,-2.8412 8.134,-4.6726 2.5487,-1.8314 4.9424,-3.3298 5.3194,-3.3298 0.377,0 6.579,5.1157 13.7822,11.3683 l 13.0968,11.3683 4.5838,-5.2677 c 2.7668,-3.1796 5.4587,-7.7132 6.791,-11.4372 l 2.2072,-6.1695 -3.2227,-1.3466 c -1.7726,-0.7406 -8.3908,-3.1419 -14.7073,-5.3361 -6.3164,-2.1943 -12.2356,-4.2916 -13.1537,-4.6606 -1.4203,-0.5709 -1.644,-2.1684 -1.5,-10.7138 l 0.1693,-10.0428 16,-5.7727 c 10.8898,-3.9289 15.9112,-6.2065 15.7218,-7.1311 -1.077,-5.2602 -5.0128,-13.0973 -8.5919,-17.1085 l -4.2382,-4.7501 -13.1771,11.5001 c -7.2473,6.325 -13.4375,11.5 -13.7558,11.5 -0.3183,0 -2.6443,-1.5772 -5.1689,-3.5048 -2.5246,-1.9277 -6.3226,-4.0239 -8.44,-4.6583 -2.1174994,-0.6344 -3.8488994,-1.4197 -3.8476994,-1.7452 0.001,-0.3254 1.4963,-8.3276 3.3221994,-17.7827 l 3.32,-17.19085 -6.6719994,-1.1924 c -5,-0.8935 -8.2487,-0.9146 -12.9638,-0.084 -3.4606,0.6096 -6.5002006,1.3166 -6.7547006,1.5711 -0.2546,0.2546 0.9381,8.0284 2.6503006,17.27505 1.7122,9.2467 3.1092,17.0784 3.1044,17.4039 -0.01,0.3254 -1.7908,1.1257 -3.9691006,1.7783 -2.1782,0.6526 -6.0071,2.7488 -8.5086,4.6583 -2.5015,1.9094 -4.8818,3.455 -5.2895,3.4346 -0.4078,-0.02 -6.5914,-5.1911 -13.7414,-11.4903 l -13,-11.4532 -4.5,5.1649 c -3.6261,4.1618 -8.8923,14.6594 -8.9834,17.9074 -0.01,0.3254 1.854,1.1521 4.1404,1.8371 2.2863,0.685 9.6232,3.2471 16.3043,5.6936 l 12.1474,4.4481 0,9.8862 0,9.8862 -16.0543,5.7417 c -8.8299,3.1579 -16.2046,5.856 -16.3883,5.9957 -0.1836,0.1398 0.6896,3.1039 1.9404,6.5869 1.4347,3.9948 3.9518,8.1991 6.8181,11.388 l 4.5437,5.0552 12.8157,-11.0552 c 7.0486,-6.0804 13.2435,-11.2053 13.7664,-11.3888 0.523,-0.1834 2.6634,1.0228 4.7565,2.6806 2.0931,1.6578 5.8053,3.7935 8.2493,4.7462 2.4441006,0.9526 4.6075006,1.86 4.8076006,2.0165 0.2001,0.1565 -1.0996,7.9711 -2.8882,17.3659 -1.7886006,9.3947 -3.0269006,17.3064 -2.7519006,17.5814 0.6442,0.6442 8.5068006,2.1912 11.85950058,2.3334 1.4208,0.06 5.13330002,-0.4026 8.25000002,-1.0285 z m -91.2771006,-28.862 c 1.7746,0 1.7115,-0.5118 -1.0121,-8.2082 -1.5975,-4.5146 -2.7058,-8.53 -2.4628,-8.9231 0.2429,-0.3932 1.7866,-1.0102 3.4303,-1.3712 1.6437,-0.361 2.9942,-1.1832 3.0012,-1.827 0.01,-0.6437 -1.1801,-5.0791 -2.6379,-9.8562 l -2.6506,-8.6857 2.6379,-8.4607 c 3.3307,-10.6827 3.3111,-11.3611 -0.3506,-12.1654 -1.6437,-0.361 -3.2004,-0.9991 -3.4592,-1.418 -0.2589,-0.4188 0.85,-4.3019 2.4643,-8.629 3.0886,-8.2792 2.9081,-9.2359 -1.7088,-9.0555 -2.4084,0.094 -2.9693,1.2666 -9.4972,19.8529 l -6.937696,19.7528 5.176696,14.7472 c 8.6498,24.641 8.9939,25.4444 10.63,24.8166 0.8162,-0.3132 2.3356,-0.5695 3.3765,-0.5695 z m 172.9439,0.7018 c 0,-0.1639 3.1292,-9.1639 6.9538,-20 l 6.953804,-19.7018 -6.953804,-19.7018 c -3.8246,-10.8361 -6.9538,-19.8718 -6.9538,-20.0795 0,-0.3557 -6.221,0.7743 -6.7434,1.2248 -0.1338,0.1155 1.0919,3.8686 2.7239,8.3404 1.632,4.4717 2.6415,8.3218 2.2434,8.5557 -0.3982,0.2338 -2.2041,0.7428 -4.0133,1.1309 -2.4439,0.5243 -3.1604,1.1329 -2.7873,2.3676 0.2761,0.9141 1.6642,5.3768 3.0846,9.9173 l 2.5825,8.2554 -3.0452,9.5066 c -1.6748,5.2286 -3.0452,9.6904 -3.0452,9.9151 0,0.2247 1.4625,0.7223 3.25,1.1056 1.7875,0.3834 3.5703,0.8851 3.9618,1.1149 0.3915,0.2298 -0.621,4.0326 -2.25,8.4506 -1.629,4.4181 -2.9618,8.1958 -2.9618,8.3951 0,0.1992 1.0125,0.5572 2.25,0.7956 3.2123,0.6187 4.75,0.7506 4.75,0.4075 z m -286.102996,-5.1176 c 13.1511,-5.1864 16.103,-6.9411 16.103,-9.5721 0,-2.0917 -2.7343,-4.0121 -5.7125,-4.0121 -2.9529,0 -15.4899,6.422 -19.0375,9.7519 -2.0504,1.9246 -3.25,4.0098 -3.25,5.6493 0,1.4293 0.1575,2.5988 0.35,2.5988 0.1924,0 5.3886,-1.9871 11.547,-4.4158 z m 406.103,1.258 c 0,-2.9123 -5.0257,-7.2164 -13.2026,-11.3072 -7.3338,-3.6689 -11.541,-4.3914 -13.5974,-2.335 -1.5721,1.5721 -1.5407,5.4304 0.05,6.1568 7.6729,3.5035 25.4202,10.3058 26,9.9654 0.4125,-0.2421 0.75,-1.3581 0.75,-2.48 z m -391.9343,-57.8774 c 2.673,-1.4305 2.4211,-4.5997 -0.5187,-6.5259 -2.0172,-1.3218 -24.0239,-10.4389 -25.197,-10.4389 -0.1925,0 -0.35,1.1695 -0.35,2.5988 0,3.5482 4.899,7.9304 13.4718,12.0505 7.4342,3.5729 9.5259,3.9575 12.5939,2.3155 z m 378.7317,-2.4998 c 8.7549,-4.3799 13.2026,-8.3774 13.2026,-11.8662 0,-1.4293 -0.2133,-2.5988 -0.474,-2.5988 -0.7356,0 -15.3675,5.8521 -21.776,8.7094 -4.4381,1.9788 -5.75,3.0573 -5.75,4.7272 0,5.5676 5.0259,5.9169 14.7974,1.0284 z m -300.2967,-35.38135 c 3.1823,-5.454 5.744496,-10.2182 5.693796,-10.5872 -0.051,-0.3691 -7.619496,-5.0858 -16.819696,-10.4817 l -16.7277,-9.81078 -5.8235,9.84988 c -3.203,5.4174 -5.8236,10.2322 -5.8236,10.6997 0,0.7505 31.567,19.98435 33.1074,20.17235 0.334,0.041 3.211,-4.38825 6.3933,-9.84225 z m 232.3047,-0.084 c 8.8921,-5.225 16.1736,-9.7812 16.1811,-10.1248 0.031,-1.4458 -11.2847,-19.8752 -12.2038,-19.8752 -0.9425,0 -31.442,17.4456 -32.999604,18.8756 -0.8701,0.7989 11.020504,21.38165 12.095704,20.93775 0.4175,-0.1723 8.0345,-4.58835 16.9266,-9.81335 z m -49.805404,3.4465 c 0,-0.7326 -6.0935,-8.2574 -13.5412,-16.7217 l -13.5411,-15.38969 -19.2089,-3.6987 c -10.5648,-2.03429 -19.7597,-3.68469 -20.4331,-3.66756 -0.6734,0.0171 -1.9063994,1.35017 -2.7400994,2.96231 l -1.5158,2.93116 5.2400994,1.03202 c 2.8821,0.56761 6.9622,1.33016 9.067,1.69455 4.0405,0.69952 4.0763,0.82551 2.1192,7.46891 -0.3677,1.2484 1.3802,1.919 8.7975,3.3757 l 9.2564,1.8178 7.6326,7.7609 7.6327,7.761 2.9649,-2.9649 2.965,-2.965 5.9024,6.9866 c 5.8131,6.88085 5.9289,6.95605 7.6524,4.9676 0.9625,-1.1105 1.75,-2.6184 1.75,-3.351 z m -146.9187,-1.4465 c 2.8703,-3.3 5.6847,-6 6.2542,-6 0.5696,0 2.0769,0.9782 3.3496,2.1739 l 2.314,2.1738 7.7504,-7.5062 7.7505,-7.5062 9.3076,-1.8702 c 10.1634,-2.0422 9.6995,-1.525 7.6404,-8.5171 -0.3643,-1.2369 1.2967,-1.89012 8.1815,-3.21736 4.7512,-0.91594 8.8201006,-1.84688 9.0420006,-2.06877 0.9031,-0.90311 -2.1067,-5.66199 -3.5820006,-5.66361 -0.8742,-9.6e-4 -10.2925,1.66777 -20.9295,3.70828 l -19.34,3.71002 -13.9502,15.76554 -13.9502,15.7655 1.6552,2.5262 c 0.9104,1.3894 2.0226,2.52625 2.4715,2.52625 0.449,0 3.1647,-2.70005 6.035,-6.00005 z m -113.204196,-4.81 c 2.2601,-1.1691 3.7489,-2.7303 3.958,-4.1504 0.1842,-1.252 -1.34,-5.9355 -3.3874,-10.4079 -6.9506,-15.18382 -8.9603,-25.80587 -5.975,-31.57895 2.7304,-5.2799 14.3397,-9.07883 32.3252,-10.57782 7.2046,-0.60045 8.5012,-1.00184 9.8408,-3.04629 3.1465,-4.80206 -1.7825,-17.26089 -8.9984,-22.74543 -4.7148,-3.58351 -9.2272,-5.68321 -12.2136,-5.68321 -5.845,0 -22.5156,14.87781 -31.5077,28.11932 -8.7166,12.83573 -16.9252,35.28421 -16.9153,46.25888 0.01,7.7134 5.3729,12.834 16.4963,15.7424 4.3805,1.1454 12.2167,0.2216 16.3771,-1.9306 z m 382.1914,1.2147 c 11.6863,-3.4326 15.5612,-8.0498 14.4653,-17.2367 -2.698,-22.61897 -14.9471,-46.28999 -32.0755,-61.98509 -12.6986,-11.63601 -18.1906,-12.60073 -27.683,-4.86278 -5.8327,4.75471 -9.7751,11.49837 -10.5043,17.96833 -0.7239,6.42202 0.5508,7.19774 14.0822,8.56957 32.3826,3.28301 36.4287,10.48846 23.2006,41.31637 -5.1073,11.9025 -4.9108,13.1315 2.5616,16.0212 5.5731,2.1553 9.1668,2.2024 15.9531,0.2091 z m -422.2973,-5.1691 c -12.30954,-6.5806 -21.09984,-12.6477 -23.45154,-16.1862 -2.2693,-3.4145 -1.8861,-7.27956 1.7463,-17.61366 7.7875,-22.15492 27.00414,-53.50969 41.26034,-67.3221 3.7736,-3.65613 5.1638,-4.38015 8.3505,-4.34902 5.5491,0.0542 16.6392,5.56522 33.702,16.74752 l 2.8788,1.88666 -1.6301,-3.15226 c -1.8765,-3.62883 -6.001,-6.59791 -20.5063,-14.76188 -8.0736,-4.54409 -11.5534,-5.93888 -15.6677,-6.28008 -5.1742,-0.42908 -5.4019,-0.33301 -10.4881,4.42454 -17.06004,15.95763 -36.99454,48.66192 -44.88194,73.63284 -3.5728,11.31106 -3.6174,11.8106 -1.461,16.35494 2.9316,6.1779 29.89124,22.3971 37.18134,22.3687 3.4533,-0.014 2.991,-0.3914 -7.0326,-5.75 z m 445.7288,3.4162 c 8.023,-3.7366 22.7324,-13.2094 26.1231,-16.8232 4.4418,-4.7341 4.7385,-7.357 1.9289,-17.05229 -6.6334,-22.89048 -22.247,-50.21172 -40.3267,-70.56504 -12.2398,-13.77913 -15.1993,-13.62553 -41.9493,2.17722 -5.4928,3.24489 -12.2599,9.96095 -11.1525,11.06836 0.2213,0.22132 4.1991,-2.02496 8.8395,-4.99174 21.0498,-13.45796 28.366,-15.43112 34.6739,-9.35147 18.5342,17.86367 45.3631,65.83393 45.3631,81.10973 0,5.41093 -5.7274,10.24563 -24.5129,20.69223 -9.8965,5.5035 -10.6091,6.0835 -7.4641,6.0746 1.9123,0 5.727,-1.0576 8.477,-2.3384 z m -364.0019,-18.5588 c 3.026,-5.12093 5.4977,-9.59931 5.4926,-9.95191 -0.01,-0.3526 -3.0425,-2.41794 -6.75,-4.58965 -5.4995,-3.22151 -7.7225,-3.95803 -12.0727,-4 -4.7814,-0.0461 -5.6313,0.28343 -8.229,3.19085 -4.1917,4.69123 -4.5696,7.41993 -1.7966,12.97061 1.9132,3.8295 3.6771,5.4996 9.3576,8.8594 3.85,2.2772 7.3366,3.8459 7.7481,3.486 0.4114,-0.3599 3.2239,-4.8443 6.25,-9.9653 z m 301.7519,0.8344 c 3.1595,-3.2437 3.75,-4.5297 3.75,-8.16617 0,-7.45056 -5.7504,-12.46042 -13.1614,-11.4664 -3.868,0.5188 -16.8386,7.41211 -16.8386,8.94898 0,0.45554 2.5875,5.26559 5.75,10.68889 l 5.75,9.8607 5.5,-3.008 c 3.025,-1.6544 7.1875,-4.7405 9.25,-6.858 z m -337.9498,-20.52444 c 1.6088,-3.09334 4.9263,-6.42545 8.1998,-8.23598 1.9458,-1.0762 1.9396,-1.10699 -0.2298,-1.13657 -1.2263,-0.0167 -4.0561,0.70037 -6.2884,1.59354 -6.3825,2.55377 -8.4989,8.53361 -5.7318,16.19498 l 1.25,3.46092 0.6452,-4.48697 c 0.3549,-2.46783 1.3246,-5.7933 2.155,-7.38992 z m 358.6547,1.9819 c 0.08,-5.50424 -6.6728,-11.38486 -13.0728,-11.38486 -1.8107,0 -1.4818,0.50732 1.932,2.98028 4.72,3.41919 6.8333,6.97279 7.8289,13.16475 l 0.7003,4.35497 1.2832,-3 c 0.7058,-1.65 1.3036,-4.40181 1.3284,-6.11514 z m -396.9549,-19.69744 c 0,-1.28737 -11.03934,-8.10948 -12.66994,-7.8298 -2.1147,0.36271 -0.3655,2.45004 4.6699,5.57267 5.99024,3.71476 8.00004,4.28181 8.00004,2.25713 z m 437.5875,-2.27349 c 6.153,-3.44095 7.3707,-4.70367 5.5946,-5.80137 -1.2158,-0.75141 -14.3137,7.36557 -13.6412,8.45368 0.8314,1.34521 0.9945,1.29146 8.0466,-2.65231 z m -210.587504,-18.41393 0,-20 -11.99999942,0 -12.00000058,0 0,20 0,20 12.00000058,0 11.99999942,0 0,-20 z m -220.999996,10.98992 c 0,-0.8406 -11.942,-7.98992 -13.3461,-7.98992 -0.3596,0 -0.65394,0.59225 -0.65394,1.31612 0,0.72386 2.77204,2.95594 6.15994,4.96017 5.7569,3.4056 7.8401,3.86094 7.8401,1.71363 z m 428.75,-3.56615 c 3.0226,-1.72523 4.4389,-4.42377 2.3216,-4.42377 -1.3736,0 -13.0716,7.11477 -13.0716,7.95021 0,1.81067 1.5588,1.87294 4.4034,0.17591 1.7031,-1.01605 4.5591,-2.68211 6.3466,-3.70235 z m -329.9613,-17.74073 c -1.6514,-3.46295 -9.6853,-9.48843 -16.3819,-12.28642 -4.2855,-1.7906 -8.9068,-1.50245 -8.9068,0.55536 0,1.61385 11.5329,11.72995 18.462,16.19396 4.4508,2.86744 4.4669,2.86965 6.4471,0.88938 1.8785,-1.8785 1.8989,-2.16618 0.3796,-5.35228 z m 236.7113,-2.89723 c 4.95,-4.04949 9,-8.02041 9,-8.82426 0,-4.61962 -14.8216,0.6194 -22.5493,7.97052 -4.1967,3.99228 -4.9377,6.93811 -2.3867,9.48908 2.0877,2.08772 4.2815,0.89895 15.936,-8.63534 z M 12.141926,881.32484 c 0,-6.62484 -0.4443,-9.84784 -1.6355,-11.86446 -3.5096994,-5.94135 -11.7488994,-7.88513 -16.7495994,-3.95153 -4.4021006,3.46266 -5.6149006,6.99688 -5.6149006,16.36204 l 0,8.54966 12.00000058,0 11.99999942,0 0,-9.09571 z m -79.2936,1.41838 c 0.5826,-1.51824 -2.3092,-25.07392 -3.4464,-28.07267 -0.8451,-2.22882 -3.1694,-1.32593 -4.8241,1.87406 -2.2713,4.39206 -1.7092,21.29322 0.8372,25.17383 2.0347,3.10098 6.4054,3.70353 7.4333,1.02478 z m 141.6999,-0.21917 c 3.5733,-3.9484 4.2038,-21.66361 0.9557,-26.8535 -1.1531,-1.8425 -4.362,-3.2303 -4.362,-1.88649 0,0.19993 -0.4354,2.65951 -0.9676,5.46574 -1.7623,9.29232 -3.069,21.91178 -2.439,23.55361 0.8441,2.19957 4.7131,2.04092 6.8129,-0.27936 z m -98.7629,-25.3535 c 6.8793,-9.81714 14.6454006,-17.7101 19.8604006,-20.18478 3.1645,-1.50164 4.39959998,-1.61113 7.5448,-0.6688 5.3682,1.60833 12.5508994,8.49451 20.3781994,19.53689 6.0608,8.55011 7.1086,9.56669 9.8611,9.56669 4.1054,0 11.7274,-7.76995 13.5327,-13.79539 5.0879,-16.98219 0.5873,-23.01972 -21.5497,-28.90836 -13.3162,-3.54221 -35.2379994,-3.78445 -48.3677,-0.53447 -9.2484,2.28923 -19.2353,6.3238 -22.1234,8.93753 -6.3565,5.75254 -3.1297,23.39623 5.6961,31.14537 6.0974,5.3536 8.3842,4.58549 15.1675,-5.09468 z m 16.6144006,-6.38333 c 4.0516,-2.09513 11.5797,-2.09306 15.7841,0.004 4.6616994,2.32559 4.8698994,1.22507 0.5406,-2.858 -3.1144,-2.93726 -4.4571,-3.513 -8.19240002,-3.513 -3.83449998,0 -5.06429998,0.56327 -8.67879998,3.975 -4.5545006,4.29897 -4.4052006,4.95232 0.5465,2.39167 z M -53.358074,820.67095 c 0,-26.07794 -0.051,-26.01015 22.5,-29.96372 11.9325,-2.09198 48.606,-2.33784 60.3759,-0.40476 11.0488,1.81463 18.7783,3.94803 20.7416,5.72486 2.8319,2.56278 3.8791,9.58726 3.9635,26.58644 l 0.081,16.30718 1.9441,-4 c 1.7318,-3.56322 1.9141,-5.85632 1.669,-21 -0.3971,-24.54012 -1.0078,-25.24517 -25.698,-29.66602 -8.9471,-1.60198 -15.8933,-2.08269 -30.5769994,-2.11605 -19.5562006,-0.0444 -30.6140006,1.04132 -43.2823006,4.24988 -14.0985,3.5708 -15.3642,5.67578 -16.0104,26.62595 -0.3258,10.56221 -0.087,16.26652 0.7939,19 1.0239,3.17589 2.7238,6.40624 3.3711,6.40624 0.07,0 0.1276,-7.9875 0.1276,-17.75 z m 49.5000006,-21.25 c 0,-6.44444 -0.2917,-8 -1.5,-8 -1.2083,0 -1.5,1.55556 -1.5,8 0,6.44444 0.2917,8 1.5,8 1.2083,0 1.5,-1.55556 1.5,-8 z m 11,0 c 0,-6.44444 -0.2917,-8 -1.5,-8 -1.2083,0 -1.5,1.55556 -1.5,8 0,6.44444 0.2917,8 1.5,8 1.2083,0 1.5,-1.55556 1.5,-8 z"
       id="path7022"
       inkscape:connector-curvature="0" />
  </g>
</svg>
