<?xml version="1.0" encoding="UTF-8" standalone="no"?>
<!-- Created with Inkscape (http://www.inkscape.org/) -->

<svg
   xmlns:dc="http://purl.org/dc/elements/1.1/"
   xmlns:cc="http://creativecommons.org/ns#"
   xmlns:rdf="http://www.w3.org/1999/02/22-rdf-syntax-ns#"
   xmlns:svg="http://www.w3.org/2000/svg"
   xmlns="http://www.w3.org/2000/svg"
   xmlns:sodipodi="http://sodipodi.sourceforge.net/DTD/sodipodi-0.dtd"
   xmlns:inkscape="http://www.inkscape.org/namespaces/inkscape"
   width="210mm"
   height="297mm"
   viewBox="0 0 744.09448819 1052.3622047"
   id="svg7609"
   version="1.1"
   inkscape:version="0.91 r13725"
   sodipodi:docname="stormtrooper.svg">
  <defs
     id="defs7611" />
  <sodipodi:namedview
     id="base"
     pagecolor="#ffffff"
     bordercolor="#666666"
     borderopacity="1.0"
     inkscape:pageopacity="0.0"
     inkscape:pageshadow="2"
     inkscape:zoom="0.35"
     inkscape:cx="-46.428571"
     inkscape:cy="520"
     inkscape:document-units="px"
     inkscape:current-layer="layer1"
     showgrid="false"
     inkscape:window-width="1920"
     inkscape:window-height="1027"
     inkscape:window-x="-8"
     inkscape:window-y="-8"
     inkscape:window-maximized="1" />
  <metadata
     id="metadata7614">
    <rdf:RDF>
      <cc:Work
         rdf:about="">
        <dc:format>image/svg+xml</dc:format>
        <dc:type
           rdf:resource="http://purl.org/dc/dcmitype/StillImage" />
        <dc:title></dc:title>
      </cc:Work>
    </rdf:RDF>
  </metadata>
  <g
     inkscape:label="Layer 1"
     inkscape:groupmode="layer"
     id="layer1">
    <path
       style="fill:#000000"
       d="m -17.92122,1332.5777 c -13.444832,-3.0439 -26.018365,-8.3405 -32.518551,-13.6985 -2.757739,-2.2732 -4.033348,-4.4786 -5.571517,-9.6327 -1.967479,-6.5926 -5.022887,-27.0781 -5.022887,-33.6768 0,-1.8643 -0.4168,-3.6473 -0.926219,-3.9621 -0.50942,-0.3149 -2.759419,-3.3177 -4.999998,-6.673 -4.958737,-7.4258 -5.315706,-12.3602 -1.628969,-22.5171 l 2.444809,-6.7353 -3.524838,-3.9016 c -4.897437,-5.4209 -9.364774,-12.6979 -9.364774,-15.2547 0,-3.7254 5.808806,-13.9524 11.000093,-19.3668 2.872258,-2.9957 5.003887,-6.1472 5.009277,-7.406 0.0289,-6.7529 12.418753,-20.4553 23.386157,-25.8636 l 6.604446,-3.2568 0,-4.2854 0,-4.2853 -8.999995,0 c -7.628016,0 -9.301005,-0.3011 -10.974554,-1.9746 -1.086009,-1.086 -3.129768,-2.2645 -4.541687,-2.6189 -1.871999,-0.4698 -3.782508,-2.7514 -7.055526,-8.4259 l -4.488407,-7.7815 -3.731158,2.0437 -3.731158,2.0438 0.0113,10.1067 c 0.0139,12.5189 -2.822968,21.4901 -9.017825,28.5172 -2.609678,2.9603 -4.690907,6.7193 -5.863046,10.5895 -2.118819,6.9958 -4.722417,11.7172 -8.961063,16.25 -2.65892,2.8434 -3.67137,3.248 -8.09296,3.2343 -2.7796,-0.01 -7.73722,-0.6468 -11.01693,-1.4182 -5.77428,-1.3582 -6.01088,-1.334 -7.472,0.7656 -3.40463,4.8924 -9.36621,10.5834 -12.78704,12.2067 -2.96366,1.4063 -5.20043,1.6088 -11.99817,1.0863 l -8.35542,-0.6422 -12.23848,5.4158 c -18.88023,8.3549 -27.35331,10.279 -33.95877,7.7115 -8.9524,-3.4797 -25.50421,-17.7352 -33.3371,-28.712 -9.30668,-13.0422 -15.23798,-30.5435 -16.11468,-47.5492 -0.4952,-9.6074 -0.3319,-11.1 1.6665,-15.228 2.3977,-4.9531 10.65373,-12.4422 25.10189,-22.77 6.1671,-4.4084 8.65774,-6.8497 9.50625,-9.3178 2.2971,-6.6818 6.47229,-12.5034 10.40695,-14.5108 2.12877,-1.086 6.9946,-2.4905 10.81294,-3.1211 l 6.94244,-1.1465 1.76326,-5.6272 c 2.53159,-8.0793 5.16474,-12.8453 8.19306,-14.8296 3.30222,-2.1637 17.81644,-2.2533 23.8315,-0.1471 3.39261,1.1879 4.60739,1.1939 8,0.039 8.1231,-2.7641 23.00096,0.5397 33.33791,7.403 l 5.41619,3.5962 3.87293,-1.7465 c 4.40669,-1.9871 4.6017,-2.5992 2.00352,-6.2883 -7.99222,-11.3481 -7.99222,-21.9607 0,-33.3088 2.59818,-3.6891 2.40317,-4.3012 -2.00352,-6.2883 l -3.87293,-1.7465 -5.41619,3.5962 c -10.45111,6.9391 -25.20204,10.2221 -33.33791,7.4198 -3.41274,-1.1756 -4.58726,-1.1708 -8,0.033 -6.21039,2.1899 -20.4307,2.0704 -23.89756,-0.2007 -2.80822,-1.8397 -7.72529,-11.2043 -9.00952,-17.1588 -0.61834,-2.8669 -1.01987,-3.0725 -9.05398,-4.6349 -10.56475,-2.0546 -13.92584,-4.3898 -17.65069,-12.2633 -1.58765,-3.356 -2.88699,-6.5721 -2.88742,-7.14695 -4.9e-4,-0.57489 -3.26334,-3.31571 -7.25084,-6.09075 -11.21762,-7.80675 -22.16138,-16.9048 -25.35308,-21.07705 -2.8556,-3.733 -2.8954,-3.96544 -2.7951,-16.28705 0.1141,-14.00109 2.5182,-24.25305 8.79389,-37.49999 6.28497,-13.2666 20.86696,-29.26248 33.88493,-37.17049 11.00106,-6.68279 18.34581,-5.73514 43.49007,5.61126 9.96874,4.49841 10.60548,4.65045 15.6484,3.73638 9.1429,-1.65721 14.01225,-0.28333 20.02167,5.64912 2.88249,2.84555 5.87953,6.13222 6.6601,7.30371 1.37094,2.05751 1.64001,2.08374 7.90914,0.77084 3.56946,-0.74753 8.57505,-1.36852 11.12355,-1.37998 4.1162,-0.0185 5.02076,0.40767 8.100408,3.81646 3.813677,4.2213 8.140835,12.71383 9.254344,18.16269 0.39338,1.925 2.164139,5.075 3.935008,7 7.411626,8.05668 10.048344,15.82301 10.051644,29.60668 l 0.002,10.10667 3.778488,2.06969 3.778498,2.06969 2.119218,-4.15401 c 4.115038,-8.0653 7.021226,-11.69872 9.357635,-11.69872 1.234829,0 2.917008,-1.0125 3.738188,-2.25 1.345029,-2.02695 2.447578,-2.28435 11.121963,-2.59653 l 9.628925,-0.34653 0,-4.2516 c 0,-4.0453 -0.20621,-4.34126 -4.249998,-6.09972 -7.005256,-3.04626 -15.624911,-9.51458 -19.164279,-14.38115 -4.249527,-5.84303 -6.585706,-10.44252 -6.585706,-12.96599 0,-1.09497 -2.249948,-4.33751 -4.999897,-7.20565 -5.038847,-5.25542 -11.000093,-15.61284 -11.000093,-19.1122 0,-2.82821 2.433018,-7.00549 7.921565,-13.60065 l 4.927727,-5.92127 -2.424649,-6.67984 c -3.999247,-11.01782 -3.241438,-16.25304 3.644708,-25.17877 2.637229,-3.41833 3.930638,-6.11702 3.930638,-8.20124 0,-6.34778 3.093748,-26.92926 5.016377,-33.37196 2.388439,-8.00361 5.009937,-10.53639 16.50176,-15.94327 21.307058,-10.02492 42.8640051,-11.77506 65.224162,-5.29534 15.972081,4.62853 26.287035,10.9533 29.422083,18.04058 1.977329,4.47009 5.822707,27.5746 5.830937,35.03454 0.004,3.25655 0.804909,5.22185 3.647438,8.94577 5.903446,7.73395 7.515465,12.27314 6.416506,18.06792 -0.51288,2.70439 -1.835939,7.20912 -2.940138,10.01049 l -2.007629,5.09341 2.043499,1.84935 c 4.661847,4.21891 10.844923,13.61889 10.844923,16.48726 0,4.09149 -4.981037,13.51871 -10.256834,19.41229 -2.514728,2.80921 -5.160547,7.12831 -6.101396,9.96011 -3.030418,9.12096 -12.327373,18.75281 -23.266937,24.10504 -5.348497,2.61678 -5.374797,2.65233 -5.372907,7.2623 l 0.002,4.63265 9.056585,0 c 8.112415,0 9.232935,0.22662 10.748094,2.17372 0.930319,1.19555 2.816498,2.32055 4.191497,2.5 1.943939,0.25371 3.468978,2.04308 6.856436,8.04488 l 4.356448,7.7186 3.966348,-2.2186 3.966347,-2.2186 -0.609819,-5.63836 c -1.28167,-11.85018 3.499978,-28.05181 9.950584,-33.71552 2.111779,-1.85416 3.596978,-4.42002 4.396607,-7.59563 1.571869,-6.24243 5.328317,-13.5826 9.218754,-18.01356 2.73289,-3.11259 3.6629,-3.53251 7.75186,-3.50016 2.55553,0.0202 7.62604,0.61381 11.26782,1.3191 l 6.62142,1.28236 4.74132,-5.92522 c 6.59553,-8.24238 11.10276,-10.14785 21.90181,-9.25919 7.96808,0.6557 8.2681,0.59634 16.68177,-3.30048 30.32426,-14.04478 37.6936,-13.42921 57.14953,4.77377 14.16297,13.25089 21.27308,24.52138 26.35563,41.77727 2.74966,9.33542 4.27399,25.96733 3.00157,32.74995 -0.97442,5.19409 -6.64547,10.99348 -22.09635,22.59642 -12.10632,9.09132 -13.15294,10.14349 -14.88711,14.96605 -1.02593,2.853 -3.49111,6.8892 -5.47818,8.9693 -3.11251,3.2583 -4.72084,4.0164 -11.61288,5.4742 -4.39999,0.9306 -8.44999,1.8333 -8.99999,2.0059 -0.55,0.1727 -2.24456,3.8509 -3.76568,8.1739 -3.82119,10.8596 -5.01846,12.1622 -12.44886,13.544 -5.13497,0.955 -7.63447,0.8634 -14.78559,-0.5417 -6.93128,-1.3619 -9.42267,-1.47 -12.80291,-0.5554 -8.45537,2.2876 -22.83707,-1.1383 -32.44651,-7.7294 -4.83696,-3.3176 -5.48279,-3.504 -8.21683,-2.3715 -5.18004,2.1456 -5.28523,3.1003 -1.09276,9.9176 3.54271,5.7608 3.86692,6.8877 3.86731,13.4421 3.9e-4,6.5604 -0.33699,7.7307 -4.06509,14.1004 -2.23604,3.8205 -3.65546,7.0855 -3.15428,7.2556 0.50119,0.1702 2.26125,1.1312 3.91125,2.1357 l 3,1.8263 5.49999,-3.7027 c 10.84846,-7.3032 25.3001,-10.6343 33.57776,-7.7397 3.26532,1.1419 4.75964,1.1907 7.5,0.2452 9.70584,-3.349 23.89627,-2.4078 27.14678,1.8006 0.94853,1.228 3.03027,5.8189 4.62611,10.2019 3.19245,8.7681 1.9747,7.8934 14.6493,10.523 7.3341,1.5216 12.26025,6.1085 15.11287,14.072 1.73734,4.8501 2.7602,5.9168 12.88712,13.4403 14.43027,10.7206 20.86418,16.6359 23.008,21.1537 2.60991,5.5 1.61406,23.7235 -1.9543,35.7629 -4.93985,16.6668 -11.76577,27.7695 -24.68037,40.1439 -12.25479,11.7421 -20.87559,16.7438 -28.59814,16.5921 -5.1122,-0.1005 -16.76542,-4.0002 -28.27516,-9.4622 -8.28157,-3.9301 -8.78456,-4.0358 -19.5743,-4.1143 -10.55985,-0.077 -11.24705,-0.2122 -14.79319,-2.9144 -2.04539,-1.5586 -5.32153,-4.9805 -7.28031,-7.6042 l -3.5614,-4.7704 -6.14538,1.3191 c -3.37997,0.7255 -8.46126,1.3349 -11.29179,1.3542 -4.65965,0.032 -5.44012,-0.2994 -8.25186,-3.5018 -3.890437,-4.4309 -7.646885,-11.7711 -9.218754,-18.0135 -0.799629,-3.1756 -2.284828,-5.7415 -4.396607,-7.5957 -6.450996,-5.664 -11.232764,-21.8671 -9.949944,-33.7155 l 0.610459,-5.6383 -4.014267,-2.1346 -4.014268,-2.1345 -4.309168,7.5749 c -3.288278,5.7804 -5.019887,7.8052 -7.309155,8.5468 -1.649999,0.5345 -3.525948,1.6863 -4.168788,2.5596 -0.880579,1.1962 -3.408048,1.6739 -10.249994,1.9373 l -9.081295,0.3495 0,4.3836 c 0,4.2863 0.11659,4.4423 5.249997,7.0237 12.205283,6.1377 21.101328,15.4336 23.719827,24.7859 0.750159,2.6794 2.935738,6.2672 5.485806,9.0056 5.240657,5.6275 10.544344,15.3766 10.544344,19.3821 0,2.981 -6.205396,12.5196 -10.770184,16.5554 l -2.075928,1.8354 2.481708,6.5932 c 4.219948,11.2114 3.303978,17.1727 -4.138977,26.9371 -2.884479,3.7842 -3.271888,5.1234 -3.903898,13.4955 -0.86483,11.4562 -3.925048,27.6117 -5.984807,31.5948 -3.256888,6.2981 -13.142052,11.9906 -29.108753,16.7626 -11.243573,3.3604 -32.8859506,4.339 -43.386124,1.9618 z m 51.38699,-46.0254 c 6.049996,-0.9838 11.330603,-2.2841 11.734683,-2.8895 0.40408,-0.6055 0.741579,-2.2802 0.749999,-3.7217 0.0152,-2.6107 -0.003,-2.6168 -4.734687,-1.5546 -6.531126,1.4663 -75.129296,1.4272 -81.749162,-0.047 -2.749568,-0.6121 -5.141087,-0.971 -5.314487,-0.7976 -0.17339,0.1734 -0.0235,1.8706 0.33314,3.7715 l 0.6484,3.4563 11.666073,1.6347 c 6.416336,0.8991 12.791072,1.8288 14.166071,2.0661 6.274417,1.0826 42.092716,-0.2264 52.49997,-1.9187 z m -47.123193,-16.5225 c 1.868859,-1.7509 -0.725969,-6.3847 -7.163765,-12.7932 -7.787606,-7.752 -13.914392,-11.0174 -17.98541,-9.5857 -3.626738,1.2754 -8.386425,8.6407 -8.978495,13.8935 l -0.482349,4.2793 4.866627,1.5664 c 4.581937,1.4748 13.118792,3.2041 19.866618,4.0245 3.641378,0.4427 8.680275,-0.2638 9.876774,-1.3848 z m 43.384025,0.546 c 2.893448,-0.3221 8.235535,-1.5044 11.871293,-2.6274 l 6.610466,-2.0417 -0.51119,-4.5353 c -0.611679,-5.4268 -5.159207,-12.3842 -8.970804,-13.7247 -3.865608,-1.3594 -9.552525,1.542 -16.713091,8.527 -9.054894,8.8328 -11.117553,14.1742 -5.858646,15.1713 2.284549,0.4332 3.275898,0.377 13.571972,-0.7692 z M 9.1802537,1238.9525 c 2.2741393,-1.1601 6.4470063,-4.4226 9.2730553,-7.25 5.171097,-5.1734 11.231663,-14.2547 10.200984,-15.2854 -0.30495,-0.3049 -3.303978,1.6703 -6.664487,4.3894 -9.238474,7.4752 -13.455292,9.2555 -21.92338699,9.2555 -8.53950501,0 -12.38552201,-1.6633 -22.35061701,-9.6657 -3.712497,-2.9813 -6.745776,-5.0637 -6.740616,-4.6274 0.0248,2.1 6.720496,12.1164 10.851194,16.233 8.8808045,8.8503 18.72632873,11.3521 27.3538737,6.9506 z m -63.9644327,-21.8217 c 2.955029,-4.1783 3.446828,-6.0688 1.578739,-6.0688 -0.644189,0 -1.949168,-0.704 -2.899948,-1.5645 -1.590669,-1.4395 -1.936289,-1.2923 -4.328737,1.8444 -3.017899,3.9567 -3.336198,7.1919 -0.85005,8.6399 2.786319,1.6229 3.583088,1.2735 6.499996,-2.851 z m 116.763242,2.1215 c 2.107069,-1.7062 2.147849,-1.978 0.71316,-4.7524 -0.83694,-1.6185 -2.355279,-3.6915 -3.374088,-4.6067 -1.737839,-1.5611 -2.031989,-1.52 -4.757008,0.6633 l -2.904628,2.3272 3.238658,4.0891 c 3.685278,4.6531 4.019728,4.7607 7.083906,2.2795 z M 6.922075,1204.3187 c 4.650428,-5.612 9.043705,-15.0167 9.043705,-19.3598 0,-5.8581 -2.285869,-6.8969 -15.17544141,-6.8969 -11.82386259,0 -15.55508059,1.0781 -16.47965959,4.762 -1.61075,6.4177 8.3461243,24.4056 14.6551106,26.4755 2.1589188,0.7084 4.4093875,-0.7004 7.9562854,-4.9808 z m -51.706259,-0.1879 c 1.512499,-2.1386 2.747148,-4.2665 2.743678,-4.7286 -0.003,-0.4621 -1.342319,-1.6004 -2.975198,-2.5295 -2.909189,-1.6553 -3.010029,-1.6369 -5.015407,0.9125 -3.097319,3.9376 -3.651488,7.3294 -1.4594,8.9323 2.765349,2.0221 3.702518,1.6606 6.706327,-2.5867 z m 96.527433,2.3745 c 2.854668,-1.9995 2.817618,-2.3217 -0.849089,-7.3835 -2.853929,-3.9397 -3.196129,-4.1275 -4.828738,-2.65 -0.966429,0.8746 -2.284208,1.5902 -2.928398,1.5902 -1.958469,0 -1.327139,2.0153 1.912769,6.1061 3.496268,4.4144 3.650798,4.4683 6.693456,2.3372 z m -225.405199,-0.7262 c 1.63245,-1.1937 1.5348,-1.5586 -1.40471,-5.25 -11.15049,-14.0025 -35.13945,-55.5801 -40.75776,-70.6412 l -1.87259,-5.0199 -2.84431,2.4465 -2.8443,2.4466 4.72382,12.0789 c 8.68485,22.2073 16.88059,36.2869 32.87252,56.472 6.94469,8.7656 8.79417,9.9044 12.12733,7.4671 z m 360.79168,-8.9671 c 4.4986,-5.6375 10.39802,-13.625 13.10983,-17.75 5.80292,-8.827 15.17294,-27.8808 19.81333,-40.2902 l 3.28702,-8.7901 -2.66695,-2.667 -2.66695,-2.6669 -1.14696,3.2901 c -4.70156,13.487 -28.67131,55.5702 -40.65784,71.3823 -4.35739,5.7481 -4.36102,5.7599 -2.05032,6.6866 1.27314,0.5106 2.87387,0.9569 3.55719,0.9918 0.68331,0.035 4.92305,-4.5491 9.42165,-10.1866 z m -342.78906,0.6032 c 2.9509,-2.7362 6.56473,-9.5917 6.60325,-12.5265 0.0395,-3.0114 -4.78739,-7.4762 -10.40767,-9.627 -13.67353,-5.2325 -23.63373,-5.2061 -22.00742,0.058 1.92531,6.2324 17.90995,24.7419 21.36687,24.7419 0.87484,0 2.87508,-1.191 4.44497,-2.6467 z m 321.98289,-1.6632 c 5.29881,-5.1499 14.19889,-16.7182 15.13763,-19.6759 0.92394,-2.9111 -1.12623,-5.0141 -4.88804,-5.0141 -4.84834,0 -17.2419,3.7441 -21.69162,6.5531 -4.86845,3.0733 -6.15304,6.0039 -4.79217,10.9325 1.21112,4.3863 7.37339,11.5144 9.95432,11.5144 1.01489,0 3.84083,-1.9395 6.27988,-4.31 z m -274.37803,-9.6502 c 1.11117,-2.1781 2.01747,-4.3156 2.014,-4.75 -0.007,-0.8362 -6.05169,-4.5652 -6.56627,-4.0506 -0.16595,0.166 -1.18987,2.3737 -2.27539,4.9061 -1.82191,4.2504 -1.84871,4.7294 -0.34856,6.2295 2.68567,2.6857 4.99882,1.933 7.17622,-2.335 z m 223.43718,2.4003 c 1.41312,-1.4131 1.4113,-1.9069 -0.0194,-5.25 -0.86858,-2.0296 -1.80724,-4.2415 -2.08592,-4.9154 -0.38391,-0.9284 -1.27058,-0.837 -3.65918,0.3772 -1.73387,0.8813 -3.31651,1.7467 -3.51697,1.923 -0.20046,0.1764 0.62718,2.3692 1.8392,4.8729 2.34876,4.8519 4.6553,5.7793 7.44225,2.9923 z m -140.416906,-1.4401 c 2.735418,-2.7355 2.708218,-9.0491 -0.0497,-11.5451 -2.846118,-2.5757 -8.435475,-2.4142 -11.172473,0.3228 -2.737009,2.737 -2.898489,8.3264 -0.32279,11.1725 2.495918,2.758 8.809585,2.7852 11.545003,0.05 z m 61.927384,-0.6349 c 2.872048,-3.6512 2.599978,-6.9916 -0.8505,-10.4421 -3.171388,-3.1714 -5.015987,-3.5581 -8.392655,-1.7597 -3.177038,1.6921 -4.616377,3.9419 -4.652457,7.2722 -0.0761,7.0288 9.556374,10.446 13.895612,4.9296 z m -138.228018,-16.3283 2.359747,-4.4631 -3.623897,-1.8592 c -1.99315,-1.0225 -3.70728,-1.7141 -3.80919,-1.5368 -1.31923,2.2947 -3.62598,8.2152 -3.62598,9.3065 0,1.6693 2.89505,3.5811 4.91979,3.2488 0.78088,-0.1282 2.48167,-2.2415 3.77953,-4.6962 z m 210.03203,3.4387 2.17648,-1.5245 -2.01682,-4.705 c -1.10925,-2.5878 -2.14049,-4.8287 -2.29164,-4.9799 -0.57963,-0.5796 -6.599489,2.9294 -6.599489,3.8469 0,2.0165 4.095719,8.887 5.297819,8.887 0.69144,0 2.23658,-0.6861 3.43365,-1.5245 z M 6.965785,1166.562 c 0,-3.5362 3.749228,-5.5 10.499994,-5.5 l 6.499996,0 0,-5.1549 c 0,-4.6678 -0.358179,-5.4945 -3.791307,-8.75 -2.085229,-1.9773 -6.472727,-4.9113 -9.749995,-6.52 -8.3769252,-4.1119 -13.0810524,-3.9417 -22.094237,0.7991 -9.798944,5.1541 -11.544373,7.2097 -11.721503,13.8042 l -0.14293,5.3216 6.499996,0.5 c 7.3606857,0.5662 8.7455249,1.2004 10.0369241,4.5971 0.8357895,2.1983 1.4690592,2.4029 7.43831569,2.4029 5.13310701,0 6.52474621,-0.32 6.52474621,-1.5 z m -134.646525,-7.1868 c 0.3777,-0.3777 -3.01261,-2.1791 -7.53403,-4.0031 -4.52143,-1.824 -9.88276,-4.4681 -11.91408,-5.8758 -3.68339,-2.5526 -9.00205,-11.178 -10.30296,-16.7085 -0.59236,-2.5183 0.73065,-17.3408 1.9838,-22.2258 1.06768,-4.162 -4.56906,4.0027 -7.24889,10.5 -2.10879,5.1127 -2.69766,8.2225 -2.7591,14.5711 -0.0694,7.1728 0.22346,8.527 2.63143,12.1674 3.02678,4.5759 12.01218,9.6445 19.79044,11.1635 5.59434,1.0925 14.43529,1.3293 15.35339,0.4112 z m 277.001,-2.1697 c 11.30883,-3.9901 16.57947,-10.5571 16.62347,-20.712 0.0344,-7.9319 -5.21833,-22.8963 -9.19551,-26.1971 -1.16413,-0.9661 -1.1695,0.1867 -0.0353,7.5628 1.82158,11.846 1.12388,17.0071 -3.27894,24.2549 -3.9983,6.5819 -7.96301,9.4053 -19.5232,13.9031 -3.8235,1.4876 -6.61279,3.0564 -6.19845,3.4863 1.31212,1.3613 15.51868,-0.1496 21.60789,-2.298 z m -239.604418,-8.737 c 2.803978,-3.1381 2.862448,-6.3582 0.17742,-9.7717 -4.388297,-5.5788 -13.947522,-2.2781 -13.912102,4.8037 0.0179,3.5677 0.59038,4.5597 3.98469,6.9041 3.125766,2.1589 6.730644,1.4431 9.749992,-1.9361 z m 190.178369,2.1304 c 3.162819,-1.6355 4.071519,-3.3359 4.071519,-7.6187 0,-4.1354 -3.1556,-6.9182 -7.845007,-6.9182 -8.678335,0 -10.908363,11.7431 -2.846688,14.9904 3.044358,1.2262 3.422018,1.2004 6.620176,-0.4535 z m -289.375881,-7.3167 c 2.33755,-5.5945 4.54669,-18.175 3.84673,-21.9061 -1.21963,-6.5011 -10.58239,-9.3536 -19.06645,-5.8087 -3.52726,1.4738 -3.59038,1.5979 -3.00046,5.9019 1.19433,8.7135 6.88995,22.8148 10.79061,26.7155 1.97312,1.9731 2.10533,1.9806 4.04105,0.2288 1.10066,-0.9961 2.62549,-3.3052 3.38852,-5.1314 z m 386.67836,5.0298 c 4.1998,-4.7695 10.76898,-22.3428 10.76898,-28.8084 0,-3.0166 -0.37085,-3.4506 -3.75,-4.3891 -8.14369,-2.2616 -16.36497,-0.4164 -17.76245,3.9867 -2.1836,6.8799 1.43799,23.906 6.20559,29.1742 2.01311,2.2244 2.60711,2.2292 4.53788,0.037 z m -238.014447,-15.9079 -0.41983,-8.1579 -6.898296,3.5045 c -6.396666,3.2497 -8.643264,4.7863 -5.648296,3.8632 0.687499,-0.2118 3.072398,-0.6386 5.299777,-0.9484 l 4.049777,-0.5632 1.863719,5.483 c 1.02504,3.0157 1.933299,5.3691 2.018349,5.2298 0.0851,-0.1392 -0.0343,-3.9242 -0.2652,-8.411 z m 83.783521,2.6579 c 0.74426,-2.2552 1.673849,-4.2985 2.065749,-4.5407 0.3919,-0.2422 2.787428,-0.053 5.323397,0.421 2.535968,0.4738 4.610847,0.701 4.610847,0.5049 0,-0.5395 -11.803123,-6.3852 -12.892472,-6.3852 -0.52223,0 -1.09756,3.3335 -1.27852,7.4078 -0.180949,4.0744 -0.071,7.2469 0.2444,7.0502 0.31536,-0.1968 1.18234,-2.2029 1.926599,-4.458 z m -149.169394,-2.7138 c 4.18784,-3.1125 3.90333,-6.3074 -1.38634,-15.5676 -6.02112,-10.5407 -8.03696,-12.7186 -11.77209,-12.7186 -2.18964,0 -3.95009,1.0515 -6.642,3.9674 -5.10528,5.53 -10.03007,15.435 -10.03007,20.173 0,2.1228 0.1125,3.8663 0.25,3.8746 0.1375,0.01 2.05,0.6927 4.25,1.521 5.90735,2.224 21.70529,1.4445 25.3305,-1.2498 z m 236.16934,1.7046 c 5.27604,-1.5044 6.31824,-2.5027 6.22,-5.9579 -0.12213,-4.2956 -5.16357,-14.6055 -9.67365,-19.7829 -4.13079,-4.742 -7.76707,-5.5364 -11.44384,-2.5 -2.55244,2.1079 -11.01593,16.7247 -11.74686,20.2873 -0.69609,3.3929 2.25026,6.9012 6.66843,7.9404 4.98711,1.173 15.8832,1.1801 19.97592,0.013 z m -202.264618,-14.1282 c 0.695119,-1.3295 1.241699,-6.0961 1.249999,-10.9008 0.02,-11.5778 -2.137189,-15.8488 -10.967684,-21.7147 -9.286374,-6.1687 -12.637072,-6.992 -17.779339,-4.3686 -2.256388,1.1511 -4.357178,2.505 -4.668418,3.0086 -0.31125,0.5036 0.5528,2.8725 1.9201,5.2642 2.895448,5.0649 3.198957,9.43 0.83713,12.0398 -1.57068,1.7356 -1.5308,2.1073 0.65218,6.0787 3.504896,6.3765 3.893646,6.7056 7.151284,6.0541 3.521688,-0.7044 6.973616,2.0493 10.022244,7.9949 l 1.958099,3.8188 4.194578,-2.4562 c 2.307008,-1.3509 4.750437,-3.5194 5.429827,-4.8188 z m 158.841337,-0.2571 c 2.735588,-3.6504 3.521038,-4.0973 7.084896,-4.0314 3.835587,0.071 4.131267,-0.1534 6.865805,-5.2086 2.70086,-4.9928 2.76477,-5.3852 1.1651,-7.1528 -2.364539,-2.6128 -2.112369,-6.1252 0.83817,-11.6744 2.89596,-5.4465 2.56754,-6.2884 -3.524919,-9.0357 -3.875597,-1.7477 -4.143827,-1.7457 -8.255745,0.061 -6.894016,3.0284 -14.080901,8.1717 -16.59073,11.8733 -1.786919,2.6353 -2.469389,5.3289 -2.884438,11.3844 -0.83094,12.1231 -0.0408,14.7351 5.531296,18.2833 4.256168,2.7102 4.787128,2.8312 5.693877,1.2979 0.55,-0.9301 2.384509,-3.5386 4.076688,-5.7967 z m -207.891019,-23.7798 c 3.88014,-3.6452 2.99005,-9.9079 -1.75707,-12.3627 -4.06512,-2.1021 -5.70984,-1.8355 -9.00539,1.4601 -3.45048,3.4504 -3.72255,6.7908 -0.8505,10.442 2.68353,3.4116 8.23731,3.6318 11.61296,0.4606 z m 133.357332,-25.9853 c 1.35137,0.1872 8.082036,1.6026 14.957032,3.1452 6.874996,1.5427 12.612112,2.7024 12.749162,2.5771 0.13704,-0.1252 -4.250457,-5.2185 -9.749994,-11.3184 -5.499547,-6.0999 -9.999164,-11.4102 -9.999164,-11.8007 0,-0.3905 4.194627,-5.2626 9.321394,-10.8268 5.126767,-5.5642 9.616385,-10.6195 9.976924,-11.234 0.58569,-0.9981 -15.050401,1.8674 -25.204465,4.6192 -1.873389,0.5076 -3.702338,0.74 -4.0643378,0.5162 -0.3620098,-0.2237 -2.6173285,-6.7312 -5.0118371,-14.4612 -2.3944986,-7.7299 -4.61554726,-13.7986 -4.93565708,-13.486 -0.32009981,0.3125 -2.65386842,6.7244 -5.18613702,14.2486 -3.1687981,9.4156 -5.039287,13.6117 -5.999996,13.4599 -0.76773,-0.1212 -7.572106,-1.5296 -15.120841,-3.1297 l -13.724982,-2.9093 3.224988,3.7431 c 1.773739,2.0587 6.442386,7.3017 10.374764,11.6511 l 7.149786,7.9079 -10.340424,11.4547 c -5.687227,6.3001 -10.251274,11.5439 -10.142334,11.6528 0.108949,0.109 5.857656,-1.0767 12.774902,-2.6347 6.917246,-1.5581 13.652102,-2.9864 14.966341,-3.1741 2.2391487,-0.3198 2.6545285,0.4679 6.6000762,12.5164 2.3157986,7.0718 4.52164735,13.5968 4.90187713,14.5 0.44715974,1.0622 2.33978857,-3.479 5.35861687,-12.8577 4.4435374,-13.8049 4.7850572,-14.4837 7.1243058,-14.1596 z m 120.884388,25.5247 c 5.1939,-6.6029 -1.21895,-15.5581 -8.87141,-12.3883 -5.00387,2.0727 -6.43225,8.0038 -2.98342,12.3883 1.59866,2.0324 2.95404,2.6349 5.92742,2.6349 2.97337,0 4.32875,-0.6025 5.92741,-2.6349 z m -280.29093,-9.2725 c 0.10032,-3.826 0.022,-3.9151 -3.75758,-4.2756 -5.78636,-0.5518 -8.07674,0.6151 -7.69588,3.9209 0.32496,2.8205 2.5126,3.8466 8.83407,4.1438 2.26387,0.1064 2.52723,-0.2746 2.61939,-3.7891 z m 301.72393,3.2715 c 4.43644,-0.6081 4.63957,-0.7781 4.63957,-3.8835 0,-3.6465 -1.7502,-4.4109 -8,-3.494 -3.28662,0.4821 -3.5,0.7421 -3.5,4.2641 0,4.0611 -0.0125,4.0554 6.86043,3.1134 z m -318.19146,-5.3368 0.37885,-3.9726 -4.26153,-0.6391 c -5.91456,-0.8869 -7.2861,-0.1353 -7.2861,3.9926 0,3.7333 -0.63982,3.4238 9.14496,4.4237 1.22465,0.1251 1.74177,-0.847 2.02382,-3.8046 z m 336.43697,2.9727 c 1.68227,0 2.5363,-0.7186 2.98667,-2.513 1.14624,-4.567 -2.78937,-6.6129 -9.34262,-4.8567 -1.85883,0.4981 -2.25,1.2998 -2.25,4.6113 0,3.9561 0.0408,4.0002 3.125,3.3834 1.71875,-0.3438 4.18518,-0.625 5.48095,-0.625 z m -259.33547,-31.8155 c 2.073679,-1.3624 3.648678,-2.5943 3.499998,-2.7375 -0.31453,-0.3029 -10.560174,-7.1998 -12.177053,-8.197 -0.6013,-0.3709 0.36923,1.1734 2.156729,3.4318 1.787499,2.2583 3.249998,4.4265 3.249998,4.8182 0,0.3917 -1.462499,2.5769 -3.249998,4.8561 l -3.249998,4.1439 2.999998,-1.9191 c 1.649999,-1.0555 4.696647,-3.0339 6.770326,-4.3964 z m 180.547655,2.7125 c -1.27495,-1.7067 -2.739209,-3.6895 -3.253899,-4.4064 -0.654129,-0.911 0.0231,-2.3955 2.249999,-4.9318 1.752189,-1.9956 3.185808,-3.8406 3.185808,-4.1 0,-0.2594 -2.886558,1.4437 -6.414576,3.7848 -3.528018,2.341 -6.309596,4.3623 -6.181286,4.4918 0.399329,0.4029 12.077813,8.1047 12.413952,8.1869 0.17496,0.043 -0.725039,-1.3187 -1.999998,-3.0253 z M -165.5131,1025.4916 c 1.68347,-0.4524 1.95829,-1.2009 1.64544,-4.4815 l -0.37559,-3.9383 -4.14543,0.5785 c -2.27999,0.3181 -4.70793,0.7518 -5.39543,0.9637 -1.30036,0.4007 -1.74896,5.6157 -0.58333,6.7813 0.79854,0.7986 6.02932,0.8554 8.85434,0.096 z m 340.46801,-0.9166 c 0.70782,-0.8529 0.96514,-2.5587 0.6034,-4 -0.50978,-2.0311 -1.25029,-2.5156 -3.86167,-2.5267 -1.77702,-0.01 -4.24345,-0.285 -5.48095,-0.6166 -2.06177,-0.5525 -2.25,-0.2647 -2.25,3.4403 0,4.3474 0.65997,4.8527 6.62756,5.074 1.72015,0.064 3.6829,-0.5532 4.36166,-1.371 z m -325.3413,-1.0926 c 2.61495,-0.5229 2.89772,-0.9682 2.89772,-4.5625 l 0,-3.9831 -5.02272,0.6769 c -6.1961,0.8351 -6.52273,1.0257 -6.52273,3.8073 0,4.1371 2.46979,5.297 8.64773,4.0614 z m 63.1689,-2.4867 c 8.456285,-4.2256 14.675462,-10.4363 15.509781,-15.4884 1.06484,-6.4481 0.73521,-17.77095 -0.591199,-20.30793 -0.67939,-1.29945 -3.122819,-3.46791 -5.429827,-4.81881 l -4.194578,-2.45618 -2.027519,3.97429 c -2.697128,5.28681 -6.705846,8.35287 -10.416913,7.96735 -2.604339,-0.27055 -3.255589,0.27835 -5.915455,4.98575 -2.77507,4.91128 -2.87309,5.41773 -1.36994,7.07873 2.310317,2.5529 1.983058,6.9525 -0.89111,11.9801 -1.3673,2.3918 -2.23272,4.7585 -1.92315,5.2594 0.81258,1.3148 7.650966,4.7958 9.523525,4.8478 0.874649,0.024 4.351527,-1.3356 7.726385,-3.0221 z m 187.65647,0.867 c 2.48971,-1.2096 4.52675,-2.5136 4.52675,-2.8979 0,-0.3843 -1.11958,-2.6571 -2.48795,-5.0507 -2.905589,-5.0826 -3.156379,-8.4872 -0.86607,-11.7571 1.56481,-2.23403 1.50523,-2.6101 -1.20798,-7.62584 -2.714418,-5.01795 -3.016028,-5.24962 -6.168596,-4.73803 -3.928377,0.63749 -6.037766,-0.9538 -9.820384,-7.40835 l -2.568839,-4.3834 -3.997017,2.24645 c -2.198359,1.23555 -4.533898,2.8928 -5.190087,3.68278 -1.719929,2.07063 -1.570609,20.73639 0.19946,24.93259 1.970369,4.671 16.84476,15.0001 21.830717,15.1597 0.67279,0.022 3.260288,-0.9506 5.749996,-2.1602 z m 56.94493,1.5923 c 1.60663,-0.6165 2.25747,-5.8744 0.83179,-6.7197 -0.4125,-0.2445 -3,-0.7481 -5.75,-1.119 l -5,-0.6743 0,3.81 c 0,3.2289 0.38131,3.9063 2.5,4.4417 3.52245,0.89 5.59002,0.9628 7.41821,0.2613 z m -278.16805,-3.5068 c 4.06575,-4.897 0.42767,-12.8862 -5.86803,-12.8862 -3.95573,0 -8.38196,3.6476 -8.38196,6.9075 0,3.1074 2.01359,6.7809 4.36408,7.9616 2.976,1.495 7.80208,0.527 9.88591,-1.9829 z m 251.67833,1.6508 c 7.03246,-3.6366 4.37315,-14.537 -3.5465,-14.537 -8.68127,0 -11.47695,10.6911 -3.88197,14.8453 2.69723,1.4752 4.09135,1.4174 7.42847,-0.3083 z m -245.65024,-22.3694 c 0.97794,-0.84063 4.0459,-5.49135 6.81767,-10.33495 5.69856,-9.95806 5.99047,-12.95563 1.5809,-16.23375 -2.45594,-1.82578 -4.21838,-2.0989 -13.54397,-2.0989 -12.79103,0 -16.14721,1.41096 -16.11072,6.77305 0.0423,6.20937 7.69015,19.365 13.20859,22.72095 3.16835,1.9268 5.07197,1.7313 8.04753,-0.8264 z m 240.28209,-1.56921 c 4.54513,-4.74358 10.19066,-15.32122 10.65387,-19.96145 0.45042,-4.51216 -3.46622,-6.82513 -12.54368,-7.40769 -13.9525,-0.89542 -21.7257,2.74807 -20.2253,9.48011 0.97544,4.37664 10.82109,19.61305 13.57383,21.00584 3.60657,1.8248 3.91374,1.7127 8.54128,-3.11681 z m -281.67593,-7.09918 c -0.52287,-2.74956 -1.02778,-8.37421 -1.12203,-12.49921 -0.14899,-6.52119 0.19602,-8.17353 2.64362,-12.66084 4.14419,-7.59774 8.05248,-10.82025 18.35405,-15.13353 5.0834,-2.12843 8.94199,-4.17041 8.57466,-4.53775 -1.10126,-1.10126 -8.39746,-0.72577 -15.61493,0.80361 -8.97227,1.90123 -16.35447,6.01974 -19.6118,10.94139 -4.84917,7.32683 -3.04551,23.01632 3.90318,33.95259 1.70028,2.676 3.25624,4.70065 3.45767,4.49921 0.20144,-0.20144 -0.0615,-2.6159 -0.58442,-5.36547 z m 316.84411,-1.9364 c 7.77319,-15.29801 6.75199,-29.9076 -2.51938,-36.04311 -8.02989,-5.31393 -22.12256,-8.76218 -28.87939,-7.06632 -2.52433,0.63357 -1.93822,1.04781 6.27795,4.4371 11.75861,4.85059 14.53317,6.92552 18.38347,13.74786 3.9043,6.91805 4.59113,12.97051 2.73357,24.08878 -1.5891,9.51141 -0.51809,9.73496 4.00378,0.83569 z m -350.10706,0.52644 c 3.81004,-2.32327 4.8191,-6.49428 3.39181,-14.02031 -3.49601,-18.43441 -8.23799,-23.67375 -13.41219,-14.81894 -3.16953,5.42413 -8.60087,21.60215 -8.60087,25.61891 0,2.60884 0.49171,3.21588 3.25,4.01231 5.53306,1.59761 11.99879,1.26448 15.37125,-0.79197 z m 393.62851,0.85817 c 3.39422,-0.94262 3.75,-1.36413 3.75,-4.4428 0,-4.43636 -4.27156,-17.65766 -7.75546,-24.00462 -4.86095,-8.85569 -8.73243,-6.8897 -12.40809,6.30099 -1.97889,7.10153 -2.54338,14.39628 -1.39422,18.01695 1.44299,4.54646 9.54287,6.42476 17.80777,4.12948 z M -40.610657,965.21936 c -0.15151,-0.18845 -1.096289,1.96947 -2.099499,4.79539 l -1.824029,5.13803 -3.999997,-0.61844 c -2.199999,-0.34014 -4.899997,-0.82226 -5.999997,-1.07138 -1.099999,-0.24911 1.374999,1.31129 5.499997,3.46755 l 7.499996,3.92049 0.599499,-7.6445 c 0.32973,-4.20448 0.47554,-7.79869 0.32403,-7.98714 z m 94.576415,9.12478 c 0.275,-0.26446 -1.685149,-0.32362 -4.355888,-0.13148 l -4.855877,0.34934 -1.838239,-4.5 -1.838239,-4.5 -0.0559,7.7644 -0.0559,7.76439 6.249997,-3.13291 c 3.437498,-1.72311 6.474996,-3.34929 6.749996,-3.61374 z m -261.639188,-16.0426 c 9.55599,-18.98951 27.31592,-47.92094 33.45315,-54.49612 2.7959,-2.99541 2.35937,-4.18903 -1.918,-5.24445 -2.34739,-0.57922 -3.29695,0.22726 -9.63048,8.17923 -15.61647,19.60707 -23.8902,33.93324 -33.32795,57.70822 l -4.32149,10.88643 2.84967,2.45117 2.84966,2.45118 2.18946,-5.3376 c 1.2042,-2.93568 4.73938,-10.4048 7.85598,-16.59806 z m 428.60944,19.29202 2.31898,-2.46844 -3.27367,-8.78156 c -4.99096,-13.38819 -14.1841,-31.82141 -20.58821,-41.28156 -7.19259,-10.62488 -20.15986,-26.99999 -21.38101,-26.99999 -0.50391,0 -2.10625,0.45245 -3.56075,1.00545 l -2.64453,1.00545 2.14279,2.74455 c 12.8955,16.51694 39.87645,63.75545 42.5486,74.49454 0.84164,3.38245 1.48625,3.42335 4.4378,0.28156 z M -90.284158,966.46859 c 2.649659,-2.9654 2.868208,-6.07896 0.64909,-9.2472 -4.559438,-6.50951 -14.335472,-3.54944 -14.335472,4.34061 0,7.72333 8.459665,10.75613 13.686382,4.90659 z m 190.178369,2.1304 c 4.027499,-2.08271 5.400159,-7.18588 3.092629,-11.49755 -1.31876,-2.46412 -6.504847,-4.18622 -9.349615,-3.10464 -6.864606,2.60992 -7.099376,12.34225 -0.36319,15.0556 3.044358,1.22628 3.422018,1.20042 6.620176,-0.45341 z m -88.969738,-4.37892 c 3.002268,-1.46194 7.191246,-4.30108 9.308825,-6.3092 3.572267,-3.38762 3.827847,-4.00107 3.541307,-8.5 l -0.308829,-4.84887 -6.831506,-0.5 c -6.8554967,-0.50176 -9.668485,-2.15756 -9.668485,-5.69113 0,-0.94476 -1.815099,-1.30887 -6.52474621,-1.30887 -5.96925649,0 -6.60252619,0.20457 -7.43831569,2.40286 -1.2913992,3.39665 -2.6762384,4.03093 -10.0369241,4.59714 l -6.499996,0.5 0.0407,5.21275 c 0.0493,6.32138 1.914919,8.65245 10.651124,13.30881 10.7246033,5.71615 14.0367213,5.87454 23.766856,1.13651 z M -102.89424,941.48965 c 2.53702,-1.31194 2.935348,-1.99166 2.40515,-4.10416 -0.79869,-3.18223 -3.47103,-7.32349 -4.72581,-7.32349 -1.77877,0 -4.81925,2.066 -4.81925,3.27468 0,1.28383 3.29541,9.71526 3.79966,9.72157 0.16481,0.002 1.66793,-0.70381 3.34025,-1.5686 z m 211.17476,-1.96158 c 2.20498,-4.62389 2.13013,-7.15759 -0.24905,-8.43089 -2.97817,-1.59386 -3.53522,-1.32384 -5.8816,2.85097 -2.809109,4.99815 -2.753359,5.74117 0.56586,7.54188 3.72262,2.01955 3.65473,2.04349 5.56479,-1.96196 z m -269.68785,-8.89491 c 6.871,-2.48447 12.37321,-6.98428 12.37321,-10.11905 0,-4.97312 -7.52233,-15.4521 -11.09228,-15.4521 -2.38345,0 -15.82861,14.57844 -19.24389,20.86596 -2.38807,4.39642 -2.62958,5.47035 -1.52854,6.79702 1.7725,2.13573 10.34385,1.21584 19.4915,-2.09183 z m 341.79122,2.82185 c 0.86999,-0.33384 1.58179,-1.40756 1.58179,-2.38605 0,-4.66434 -17.97842,-26.00695 -21.90753,-26.00695 -2.61727,0 -8.75916,7.13338 -9.9947,11.60816 -1.96594,7.12002 2.07228,11.27044 14.56014,14.96473 7.94758,2.35114 12.88926,2.92184 15.7603,1.82011 z M -24.784196,928.9482 c 2.377668,-2.86376 2.250869,-8.38532 -0.25,-10.88619 -2.500869,-2.50087 -8.022435,-2.62767 -10.886194,-0.25 -1.159279,0.9625 -2.386778,3.19447 -2.727778,4.95993 -0.52228,2.70404 -0.12244,3.70748 2.537058,6.36698 2.659499,2.6595 3.662938,3.05934 6.366977,2.53706 1.765469,-0.341 3.997437,-1.5685 4.959937,-2.72778 z m 60.826884,0.19072 c 3.450478,-3.45047 3.722548,-6.79084 0.8505,-10.44205 -1.555779,-1.97786 -2.973468,-2.63486 -5.685547,-2.63486 -8.807865,0 -11.482563,10.61142 -3.741868,14.84526 3.262788,1.78461 5.481387,1.32719 8.576915,-1.76835 z M -108.78415,926.1194 c 3.28793,-1.64807 3.32512,-2.00975 0.72968,-7.09723 -2.1579,-4.22983 -4.24564,-4.93442 -7.06385,-2.38398 -1.65259,1.49558 -1.63629,1.82975 0.31878,6.53415 1.13324,2.72689 2.33156,4.81567 2.66292,4.64173 0.33136,-0.17393 1.83997,-0.93654 3.35247,-1.69467 z m 223.5506,-2.58415 c 2.62085,-5.39449 2.58036,-4.9493 0.62784,-6.90181 -2.82265,-2.82265 -5.10195,-1.87756 -7.52037,3.11823 -1.35114,2.79106 -1.84951,4.82989 -1.23102,5.03605 0.57157,0.19053 1.89052,0.99087 2.93102,1.77854 2.68116,2.02969 2.75472,1.98675 5.19253,-3.03101 z M 13.743271,925.5053 c 3.190878,-2.23498 2.917669,-7.73271 -0.748909,-15.07018 -4.1597881,-8.32447 -9.529625,-14.37311 -12.76010308,-14.37311 -5.22310702,0 -14.99413092,14.38657 -16.03341992,23.60713 -0.71782,6.36839 1.466819,7.39286 15.76495007,7.39286 8.83969483,0 12.07724293,-0.36581 13.77748193,-1.5567 z m -55.798657,-19.94329 c -0.005,-0.55 -1.464359,-2.65657 -3.243678,-4.68126 -2.720239,-3.09538 -3.593208,-3.53818 -5.485117,-2.78223 -2.988468,1.19411 -2.889798,4.43588 0.26072,8.56643 2.505048,3.28429 2.517468,3.28789 5.493677,1.5944 1.640629,-0.93354 2.979108,-2.14734 2.974398,-2.69734 z m 93.258295,0.36062 c 2.859019,-4.40928 2.565459,-6.95218 -0.959369,-8.3103 -1.298029,-0.50013 -2.650808,0.34517 -5.012897,3.13235 -3.950508,4.66146 -3.999268,5.37196 -0.51309,7.4759 3.737298,2.2555 3.471848,2.34956 6.485356,-2.29795 z M -52.0405,892.6564 c 0.005,-0.71477 -2.521129,-4.51069 -5.661147,-8.50683 -0.17824,-0.22684 -1.450979,0.10101 -2.828298,0.72856 -3.235398,1.47415 -3.233138,4.53945 0.006,8.78682 2.505048,3.28429 2.517468,3.28789 5.493677,1.5944 1.640629,-0.93354 2.985798,-2.10486 2.989278,-2.60295 z m 112.701414,1.14878 c 3.505928,-5.17972 3.674178,-6.37107 1.149509,-8.13942 -3.182258,-2.22894 -3.451998,-2.1285 -6.838396,2.54629 -3.329788,4.59664 -3.678728,5.84996 -1.628709,5.84996 0.75765,0 1.937749,0.675 2.622439,1.5 1.739469,2.09593 2.205388,1.92159 4.695157,-1.75683 z m -72.568628,-16.21895 c 3.5570079,-2.03338 5.7344566,-2.50238 11.6633432,-2.51217 8.530385,-0.0141 12.3505928,1.59043 22.0050078,9.24236 3.462178,2.74406 6.477696,4.80636 6.701156,4.5829 1.052779,-1.05278 -4.574828,-9.82652 -9.645945,-15.03856 -12.4975627,-12.84485 -24.5114556,-13.04211 -36.946908,-0.60665 -4.425997,4.426 -10.869404,13.97481 -10.893754,16.144 -0.005,0.45986 2.860039,-1.44716 6.367107,-4.23782 3.507068,-2.79066 8.344565,-6.19899 10.749993,-7.57406 z m -19.392068,-21.20248 c 4.682097,-2.2218 14.395671,-11.29122 16.7243,-15.61524 1.020509,-1.89495 1.573889,-4.17913 1.229759,-5.07594 -1.194309,-3.11232 -18.339359,-1.76347 -31.438461,2.47335 -2.743679,0.88743 -3.249999,1.53519 -3.249999,4.15792 0,4.05174 3.497628,11.19784 6.722176,13.73428 3.105779,2.443 5.393407,2.51741 10.012225,0.32563 z m 73.321847,-1.08074 c 3.134118,-2.80033 7.191646,-12.43129 6.260076,-14.85892 -1.035099,-2.69742 -16.85261,-6.38208 -27.396974,-6.38208 -7.655045,0 -8.708065,0.79541 -7.000136,5.28762 1.338669,3.52096 12.036063,14.11474 16.78168,16.61913 5.174387,2.73065 7.721236,2.58134 11.355354,-0.66575 z m -74.493257,-29.22324 c 19.270559,-1.87365 69.01684,-0.87281 76.623956,1.54159 1.459799,0.46332 1.810018,0.0265 1.797688,-2.24196 -0.008,-1.54957 -0.345919,-3.32531 -0.749999,-3.9461 -1.549139,-2.37997 -24.034976,-4.85117 -44.23466451,-4.86141 -18.96750849,-0.01 -45.99997249,2.63939 -45.99997249,4.5077 0,0.40283 -0.29154,2.19011 -0.64786,3.97174 -0.57848,2.89239 -0.43786,3.17266 1.312989,2.61696 1.07848,-0.34229 6.432517,-1.05712 11.897863,-1.58852 z"
       id="path7598"
       inkscape:connector-curvature="0" />
  </g>
</svg>
