<?xml version="1.0" encoding="UTF-8" standalone="no"?>
<!-- Created with Inkscape (http://www.inkscape.org/) -->

<svg
   xmlns:dc="http://purl.org/dc/elements/1.1/"
   xmlns:cc="http://creativecommons.org/ns#"
   xmlns:rdf="http://www.w3.org/1999/02/22-rdf-syntax-ns#"
   xmlns:svg="http://www.w3.org/2000/svg"
   xmlns="http://www.w3.org/2000/svg"
   xmlns:sodipodi="http://sodipodi.sourceforge.net/DTD/sodipodi-0.dtd"
   xmlns:inkscape="http://www.inkscape.org/namespaces/inkscape"
   width="210mm"
   height="297mm"
   viewBox="0 0 744.09448819 1052.3622047"
   id="svg8185"
   version="1.1"
   inkscape:version="0.91 r13725"
   sodipodi:docname="tie-interceptor.svg">
  <defs
     id="defs8187" />
  <sodipodi:namedview
     id="base"
     pagecolor="#ffffff"
     bordercolor="#666666"
     borderopacity="1.0"
     inkscape:pageopacity="0.0"
     inkscape:pageshadow="2"
     inkscape:zoom="0.35"
     inkscape:cx="-46.428571"
     inkscape:cy="520"
     inkscape:document-units="px"
     inkscape:current-layer="layer1"
     showgrid="false"
     inkscape:window-width="1920"
     inkscape:window-height="1027"
     inkscape:window-x="-8"
     inkscape:window-y="-8"
     inkscape:window-maximized="1" />
  <metadata
     id="metadata8190">
    <rdf:RDF>
      <cc:Work
         rdf:about="">
        <dc:format>image/svg+xml</dc:format>
        <dc:type
           rdf:resource="http://purl.org/dc/dcmitype/StillImage" />
        <dc:title></dc:title>
      </cc:Work>
    </rdf:RDF>
  </metadata>
  <g
     inkscape:label="Layer 1"
     inkscape:groupmode="layer"
     id="layer1">
    <path
       style="fill:#000000"
       d="m -99.369115,1328.3398 c -9.625005,-1.0331 -29.687095,-3.2322 -44.582425,-4.887 -14.89533,-1.6547 -27.38283,-3.0086 -27.75,-3.0086 -0.36717,0 -0.66758,0.6592 -0.66758,1.4648 0,2.284 -3.61521,3.8115 -6,2.5352 -2.98295,-1.5964 -2.53407,-5.4835 0.91702,-7.9409 2.43929,-1.7369 11.07852,-3.2302 52.75,-9.1179 l 49.832985,-7.0408 8.26413,-8.1922 c 4.54527,-4.5057 8.06661,-8.7069 7.8252,-9.336 -1.02696,-2.6762 -17.04786,-22.3722 -18.19777,-22.3722 -0.69375,0 -2.43326,0.4456 -3.86558,0.9901 -2.34569,0.8919 -3.89652,0.088 -15.62122,-8.0943 -10.280425,-7.1746 -13.515455,-8.9593 -15.387955,-8.4894 -1.67893,0.4214 -4.17756,-0.4811 -8.56058,-3.092 -5.8147,-3.4638 -6.74287,-3.6987 -15.32293,-3.8778 -12.70236,-0.265 -26.06803,-5.3173 -34.70181,-13.1174 -8.69795,-7.8581 -15.06346,-23.5543 -15.13459,-37.3192 -0.0412,-7.9669 -0.26973,-8.8689 -3.64406,-14.382 -2.3357,-3.8162 -3.61383,-7.1528 -3.63912,-9.5 -0.0312,-2.8967 -1.71571,-5.9857 -8.44925,-15.4942 -8.30635,-11.7296 -8.39757,-11.9238 -7.38311,-15.7245 l 1.02716,-3.8483 -11.54763,-9.0622 -11.54763,-9.0622 -8.6125,8.5726 -8.61252,8.5726 -6.82943,48.7141 c -3.75619,26.7928 -7.51409,50.2172 -8.35088,52.0543 -1.69661,3.7248 -4.80686,5.3957 -7.45794,4.0065 -2.41577,-1.2659 -2.19546,-5.4213 0.38318,-7.2274 l 2.13318,-1.4942 -3.65223,-33.3125 c -8.24902,-75.2407 -8.39373,-80.8126 -2.09875,-80.8126 1.34476,0 5.41482,1.2196 9.04458,2.7102 l 6.59957,2.7103 8.92023,-9.0656 c 6.18626,-6.2871 8.92405,-9.7996 8.93266,-11.4603 0.008,-1.5718 2.1092,-4.5421 6.11482,-8.6446 5.08275,-5.2057 6.66155,-6.25 9.4486,-6.25 2.8558,0 4.52427,-1.1845 11.38517,-8.0823 4.42145,-4.4453 8.02912,-8.6078 8.01704,-9.25 -0.0121,-0.6423 -0.89315,-3.0871 -1.95793,-5.433 -1.91661,-4.2225 -1.91639,-4.3109 0.022,-8.8329 1.07686,-2.5122 1.95793,-5.1034 1.95793,-5.7582 0,-0.6548 -3.49746,-4.6675 -7.77212,-8.9171 -6.72842,-6.6889 -8.24304,-7.7265 -11.27889,-7.7265 -2.97583,0 -4.44867,-0.9504 -9.72788,-6.2769 -4.08542,-4.1221 -6.22111,-7.0843 -6.22111,-8.6288 0,-2.5516 -16.28394,-20.0943 -18.65246,-20.0943 -0.70979,0 -3.83435,1.125 -6.94347,2.5 -3.10912,1.375 -6.70611,2.5 -7.99333,2.5 -6.26646,0 -6.0581,-6.5278 2.73884,-85.80417 l 3.14078,-28.30415 -2.14518,-1.50255 c -2.75046,-1.92649 -2.79303,-5.97206 -0.0781,-7.42503 2.82674,-1.51283 6.43338,0.92478 7.7685,5.25047 0.55773,1.80698 4.03589,24.88542 7.72924,51.28542 l 6.71518,48.00001 8.61002,8.7399 8.61001,8.7399 11.5,-8.9638 c 8.12059,-6.3298 11.40578,-9.4858 11.17936,-10.74 -0.17636,-0.9768 -0.52831,-2.901 -0.78212,-4.276 -0.35651,-1.9314 1.58448,-5.4302 8.5343,-15.3837 7.29759,-10.4515 8.81126,-13.2284 8.01837,-14.7099 -0.76023,-1.4205 -0.11481,-3.2356 2.90477,-8.169 3.65629,-5.97365 3.88216,-6.8075 3.88216,-14.33152 0,-14.15458 6.36205,-29.71312 15.51508,-37.94248 9.14988,-8.22652 24.59481,-13.76827 37.23219,-13.35916 5.63757,0.18251 6.85432,-0.16503 12.42468,-3.54885 4.50807,-2.7385 6.83706,-3.58502 8.62718,-3.13573 1.97866,0.49661 4.95882,-1.13972 15.435265,-8.47509 l 12.98317,-9.09053 3.59679,1.30062 c 3.31417,1.19842 3.72847,1.13185 5.2728,-0.84724 0.9218,-1.18132 5.01986,-6.4867 9.10679,-11.78972 l 7.43078,-9.64186 -8.45307,-8.45308 -8.45307,-8.45307 -49.477715,-7.0473 c -34.77357,-4.95294 -50.36927,-7.56336 -52.47771,-8.78375 -3.76746,-2.18067 -4.59519,-6.48216 -1.55993,-8.10658 2.49828,-1.33704 6.05993,0.20925 6.05993,2.63092 0,1.2785 0.73965,1.47636 3.75,1.00315 21.86467,-3.43701 98.300965,-10.54143 105.140045,-9.77231 7.26242,0.81674 7.78371,2.43822 3.96427,12.33077 l -2.93842,7.61067 8.79206,8.55447 c 5.87081,5.71217 9.56839,8.56374 11.1286,8.58237 1.47639,0.0176 4.681443,2.27957 8.706183,6.14433 5.30916,5.09811 6.47574,6.82401 7.00696,10.36642 0.54274,3.61927 1.80886,5.41465 8.53154,12.0979 l 7.89421,7.84791 5.2622798,-2.57945 5.26226996,-2.57946 5.04207004,2.47013 5.0420602,2.47013 8.20794,-8.06577 c 6.95753,-6.83703 8.21026,-8.56686 8.22324,-11.35501 0.0184,-3.96288 -0.0616,-3.84749 7.66142,-11.03924 3.87669,-3.60999 7.04758,-5.75 8.51988,-5.75 1.61832,0 5.05117,-2.71867 11.07692,-8.77248 l 8.73184,-8.77248 -2.97563,-6.97752 c -3.39933,-7.97105 -3.63259,-9.73231 -1.52106,-11.48473 3.13683,-2.60333 26.35221,-0.97023 92.446932,6.50326 11.80059,1.33432 21.47559,2.33107 21.5,2.215 0.32916,-1.56533 2.60315,-4.27895 3.78019,-4.511 2.00392,-0.39507 4.76419,2.43582 4.76419,4.88608 0,2.48555 -5.21519,5.68539 -10.46743,6.42239 -2.21791,0.31122 -24.48584,3.46186 -49.48428,7.00141 l -45.451712,6.43556 -8.29828,8.25518 c -4.56406,4.54034 -8.29829,8.5594 -8.29829,8.93123 0,0.64709 13.8819,18.90434 16.52209,21.72958 1.02357,1.09532 1.9652,1.1328 4.81661,0.19175 3.5063,-1.15718 3.684,-1.07224 16.56476,7.91712 10.580802,7.38426 13.485812,8.97005 15.504192,8.46347 1.83486,-0.46052 4.07172,0.35676 8.56185,3.12822 5.52469,3.41003 6.65707,3.73287 12.43704,3.54575 11.8041,-0.38214 27.15618,4.78597 36.08863,12.14885 9.3848,7.73574 16.49753,24.55244 16.51432,39.04498 0.009,7.83929 0.18461,8.4744 4.00741,14.50029 3.2331,5.0963 3.80026,6.6712 2.96476,8.2323 -0.86661,1.6193 0.43835,4.0321 8.09586,14.9686 9.2609,13.2265 9.47504,13.7877 7.36218,19.2937 -0.39372,1.026 3.06795,4.2786 11.24574,10.5665 l 11.81455,9.0842 8.40309,-8.3838 8.40308,-8.3839 6.82626,-48.33974 c 3.75444,-26.58687 7.06376,-49.33091 7.35405,-50.54231 0.29029,-1.21139 1.59671,-3.44522 2.90316,-4.96405 2.15412,-2.50432 2.62524,-2.64766 5.05846,-1.53901 2.11456,0.96346 2.61624,1.80344 2.36751,3.96405 -0.19435,1.68825 -1.17739,3.11966 -2.55868,3.7257 -1.32896,0.58308 -2.05534,1.60189 -1.7824,2.5 0.25337,0.83372 2.25998,18.16585 4.45914,38.51585 7.15293,66.19001 7.35393,73.66541 1.99771,74.29641 -1.3838,0.163 -5.64697,-1.061 -9.47369,-2.7199 l -6.95769,-3.0163 -8.70657,9.2199 c -6.10475,6.4647 -8.71954,9.9756 -8.75,11.7488 -0.0299,1.7435 -1.99277,4.4609 -6.32034,8.75 -5.29131,5.2443 -6.8257,6.2211 -9.77207,6.2211 -3.05162,0 -4.55051,1.0608 -11.81118,8.3594 l -8.316,8.3594 2.60493,5.1406 2.60492,5.1406 -2.62557,5.1813 -2.62557,5.1813 8.4696,8.3187 c 7.28016,7.1504 8.94961,8.3187 11.88761,8.3187 2.86692,0 4.42106,1.012 9.63913,6.2769 4.23142,4.2694 6.2257,7.0679 6.23547,8.75 0.0102,1.7549 2.55112,5.049 8.75,11.3434 l 8.73564,8.8703 4.5,-1.7479 c 7.25297,-2.8173 11.58356,-3.8665 13.27691,-3.2167 3.91216,1.5012 3.26472,14.2424 -4.11464,80.974 -2.67296,24.1716 -3.40224,33.75 -2.56966,33.75 3.90465,0 4.17527,7.3044 0.30808,8.3157 -2.4986,0.6534 -6.52727,-2.8913 -7.36428,-6.4796 -0.29971,-1.2848 -3.61396,-24.0788 -7.36501,-50.6533 l -6.82009,-48.3172 -8.49463,-8.4947 -8.49464,-8.4946 -11.74925,9.1629 c -8.15708,6.3614 -11.57421,9.6189 -11.17675,10.6547 2.05897,5.3656 1.81711,5.9933 -7.39555,19.194 -7.46803,10.7009 -8.94805,13.4163 -8.13769,14.9305 0.77812,1.4539 0.14437,3.2264 -2.95559,8.2662 -3.67839,5.9802 -3.94613,6.9269 -3.94665,13.9553 -10e-4,17.9649 -8.60103,35.2049 -21.36822,42.8373 -9.94086,5.9428 -17.97848,8.3595 -28.75972,8.6474 -9.15325,0.2444 -9.90604,0.4353 -15.28534,3.8764 -4.14263,2.65 -6.31264,3.4551 -8.10245,3.0058 -1.9656,-0.4933 -5.00188,1.1625 -15.498642,8.4522 -11.59972,8.0556 -13.33617,8.9584 -15.58527,8.1033 -1.39211,-0.5292 -3.15521,-0.9623 -3.918,-0.9623 -1.25885,0 -18.48291,21.3237 -18.48291,22.8822 0,0.3641 3.7125,4.3425 8.25,8.8409 l 8.25,8.179 49.123462,6.9579 c 46.51297,6.588 53.9879,8.0841 55.90726,11.1897 1.00855,1.6319 -0.32169,5.6561 -2.09454,6.3364 -2.04686,0.7855 -5.43619,-1.0359 -5.43619,-2.9213 0,-1.7988 0.14703,-1.799 -14.52986,0.013 -29.9838,3.7019 -80.515982,8.5222 -89.339362,8.5222 -13.47892,0 -14.02789,-0.7465 -9.1929,-12.5 l 2.87956,-7 -8.53948,-8.6511 c -5.88023,-5.9572 -9.51016,-8.8453 -11.6566,-9.2746 -1.9741,-0.3948 -5.40975,-2.8957 -9.36924,-6.82 -5.28728,-5.2403 -6.2566,-6.7411 -6.28123,-9.7254 -0.0252,-3.0509 -1.09021,-4.597 -7.86237,-11.4142 l -7.83324,-7.8852 -4.6702902,1.7836 c -2.56866,0.981 -4.89866,2.1531 -5.17777,2.6047 -0.27912004,0.4516 -2.96994,-0.3866 -5.97962,-1.8627 l -5.4721398,-2.6838 -7.98772,7.9409 c -6.82321,6.7832 -7.98773,8.4307 -7.98773,11.3009 0,2.7496 -1.10141,4.507 -6.06299,9.674 -4.07006,4.2385 -7.11056,6.5209 -9.249993,6.9434 -2.10229,0.4152 -6.2376,3.4619 -12.14991,8.9515 l -8.96289,8.3221 2.62032,6.398 c 5.46167,13.3355 4.99918,13.9418 -10.51596,13.7849 -6.14821,-0.062 -19.05357,-0.9583 -28.67857,-1.9914 z m 29.43989,-8.1456 c -0.38219,-1.2375 -1.58184,-4.6445 -2.6659,-7.5712 -1.96568,-5.3069 -1.98088,-5.3197 -5.6225,-4.7446 -2.00832,0.3172 -17.78474,2.3701 -35.058725,4.5619 -17.27397,2.1918 -31.55479,4.1326 -31.73515,4.313 -0.405,0.405 61.929365,5.3468 69.959775,5.5464 5.59834,0.1391 5.79122,0.06 5.1225,-2.1055 z m 178.774005,-0.42 c 20.19266,-1.5045 36.5707,-2.8787 36.39566,-3.0537 -0.78054,-0.7806 -70.177092,-9.0912 -70.736642,-8.4712 -0.34489,0.3822 -1.42294,3.1699 -2.39566,6.1949 -0.97271,3.025 -1.97617,6.0625 -2.22991,6.75 -0.60024,1.6264 -3.18486,1.7206 38.966552,-1.42 z m -151.394345,-35.1583 c 0.20769,-1.4115 -0.20922,-2.1717 -1.19098,-2.1717 -1.9446,0 -2.96722,1.6751 -2.21666,3.6311 0.81433,2.1221 3.01962,1.1776 3.40764,-1.4594 z m 89.004353,0.4924 c 0.41214,-2.1251 -2.73714,-3.4225 -3.86763,-1.5933 -0.97361,1.5753 0.78203,4.1829 2.44381,3.6297 0.60495,-0.2015 1.24567,-1.1178 1.42382,-2.0364 z m -79.32391,-10.1641 c 0,-1.0849 -0.73088,-2.1133 -1.62417,-2.2854 -1.73314,-0.3338 -3.27881,2.3244 -2.28584,3.931 1.01898,1.6488 3.91001,0.432 3.91001,-1.6456 z m 70.05931,1.4041 c 1.05677,-1.7099 -2.27751,-4.5859 -3.68495,-3.1784 -0.62696,0.6269 -0.8693,1.8451 -0.53853,2.7071 0.69209,1.8035 3.22538,2.0862 4.22348,0.4713 z m -91.722773,-12.5559 c -6.834,-6.834 -11.04243,-10.339 -11.82982,-9.8523 -0.82356,0.509 2.30817,4.2967 9.60205,11.6132 7.25631,7.2789 11.15571,10.5264 11.82983,9.8523 0.67413,-0.6741 -2.49094,-4.5021 -9.60206,-11.6132 z m 121.124873,-9.7868 c -1.3781,-1.3781 -22.51813,19.7288 -21.46555,21.4319 0.50898,0.8236 4.29668,-2.3082 11.61324,-9.602 7.27887,-7.2564 10.52643,-11.1558 9.85231,-11.8299 z m -80.83571,-50.7368 c 3.18405,-23.2785 5.8083398,-42.7804 5.8317398,-43.3375 0.0234,-0.5571 -6.3021198,-4.32 -14.0567398,-8.362 -12.54999,-6.5414 -14.52436,-7.281 -17.9676,-6.7304 -3.122223,0.4993 -5.119973,10e-4 -10.358043,-2.5816 -6.27972,-3.0967 -6.55396,-3.1421 -8.47453,-1.4041 -1.09163,0.988 -2.57333,1.5859 -3.29266,1.3288 -0.71932,-0.2572 -2.11515,-0.052 -3.10183,0.4561 -1.33814,0.6889 -3.08619,0.1284 -6.87954,-2.2056 -6.06941,-3.7346 -8.37512,-2.8799 -5.4751,2.0294 1.69966,2.8773 1.69804,3.0251 -0.0402,3.6673 -0.99616,0.368 -2.10328,1.105 -2.46028,1.6378 -0.35699,0.5328 -1.44473,0.6633 -2.41721,0.2901 -1.34764,-0.5171 -1.49055,-0.9561 -0.60093,-1.8457 1.89573,-1.8957 1.33965,-3.0273 -1.17724,-2.3956 -2.56911,0.6448 -6.95157,-3.0102 -6.60652,-5.51 0.44113,-3.1958 -0.01,-4.3009 -1.24902,-3.0616 -0.66,0.66 -1.785,1.2 -2.5,1.2 -1.79671,0 -1.64006,-2.9323 0.19426,-3.6362 0.82184,-0.3153 1.24528,-0.9762 0.94098,-1.4686 -1.44168,-2.3327 0.94897,-2.8209 4.14401,-0.8462 3.0204,1.8667 3.49244,1.9278 4.03202,0.5216 0.3547,-0.9243 -0.66621,-3.5562 -2.4331,-6.2725 -2.26225,-3.4777 -2.80549,-5.126 -2.11479,-6.4165 0.5112,-0.9552 0.69019,-2.3602 0.39777,-3.1223 -0.29243,-0.762 0.36395,-2.196 1.4586,-3.1867 1.97754,-1.7896 1.96775,-1.8459 -1.52768,-8.7869 -3.04006,-6.0368 -3.37739,-7.3891 -2.48312,-9.9544 0.93368,-2.6783 0.305,-4.4258 -6.43136,-17.8761 -7.213285,-14.4025 -7.559565,-14.8909 -10.221905,-14.4182 -1.51563,0.2692 -21.20569,2.9791 -43.75569,6.0221 l -41,5.5328 -8.37466,8.3358 -8.37466,8.3359 9.74594,11.7067 c 9.62811,11.5652 9.78776,11.6989 13.20571,11.0577 3.11577,-0.5845 4.66974,0.1372 15.62872,7.2589 15.45887,10.0459 14.32055,9.4699 16.45662,8.3267 1.44559,-0.7736 3.12084,-0.08 7.99149,3.3098 5.67437,3.9489 6.55365,4.251 11.10073,3.8141 12.95808,-1.2451 29.38486,4.9556 39.000425,14.7216 10.09459,10.2525 15.1197,22.6633 15.1197,37.3421 0,7.6201 0.13683,8.076 4.13461,13.7752 3.42014,4.8758 3.91939,6.1536 2.88914,7.395 -1.03685,1.2493 0.25435,3.8062 7.70864,15.2646 8.41112,12.9293 8.89856,13.9668 8.03797,17.1078 -0.50388,1.8391 -0.77085,3.4506 -0.59326,3.5812 0.1776,0.1306 5.45863,4.3994 11.73563,9.4864 l 11.412713,9.2489 8.50553,-8.5056 8.50553,-8.5055 5.78919,-42.3246 z m 63.88003,49.0815 c 6.10413,-5.0558 10.91174,-9.6904 10.68357,-10.2992 -1.75359,-4.6789 -1.48374,-5.3715 7.22279,-18.5363 7.54021,-11.4013 8.73325,-13.7549 7.89972,-15.5843 -0.80945,-1.7765 -0.26467,-3.1785 3.10319,-7.9863 3.95377,-5.6442 4.08579,-6.0913 4.10945,-13.9158 0.0303,-10.0296 1.20491,-15.2679 5.28639,-23.5757 8.39251,-17.0828 28.189132,-28.6521 47.666822,-27.857 6.37881,0.2605 6.88702,0.1026 12.50642,-3.8838 4.70615,-3.3386 6.22668,-3.9577 7.73614,-3.1498 1.53974,0.824 4.26063,-0.5437 15.07925,-7.58 12.00366,-7.807 13.53022,-8.5317 16.83686,-7.993 3.62154,0.5901 3.67342,0.5468 12.75,-10.6227 5.01251,-6.1683 9.11366,-11.7223 9.11366,-12.3421 0,-0.6199 -3.4875,-4.5842 -7.75,-8.8096 l -7.75,-7.6826 -40.5,-5.4735 c -22.275,-3.0105 -41.99554,-5.6177 -43.82342,-5.794 l -3.32341,-0.3204 -7.430962,14.5 c -6.8412,13.3492 -7.35361,14.7691 -6.45614,17.8903 0.86146,2.9961 0.55813,4.1355 -2.608,9.7971 -3.2113,5.7424 -3.42943,6.5833 -2.10343,8.1097 0.81367,0.9366 1.75724,3.5383 2.09682,5.7816 0.51669,3.4134 0.14117,4.8298 -2.30171,8.6818 -2.29443,3.618 -2.64804,4.828 -1.65239,5.6543 0.90366,0.75 1.81648,0.6354 3.18469,-0.3999 2.52861,-1.9133 5.80899,-1.9763 5.08809,-0.098 -0.29911,0.7794 0.10274,1.6653 0.89301,1.9686 0.79027,0.3032 1.43686,1.0296 1.43686,1.6141 0,1.7265 -3.12564,2.4118 -4.08561,0.8957 -0.48607,-0.7676 -0.92816,-0.9457 -0.98241,-0.3957 -0.46085,4.6717 -0.83696,5.7161 -2.51623,6.9868 -1.05366,0.7973 -2.92825,1.4639 -4.16575,1.4814 -2.48482,0.035 -2.86469,1.0171 -1.08278,2.799 0.88962,0.8896 0.72551,1.3367 -0.69003,1.8799 -1.1149,0.4279 -2.01446,0.2411 -2.25055,-0.4672 -0.21632,-0.6489 -1.25581,-1.1799 -2.30997,-1.1799 -2.34959,0 -2.37097,-0.4223 -0.20686,-4.0859 1.28983,-2.1835 1.42698,-3.1773 0.55833,-4.0459 -0.86865,-0.8687 -2.37955,-0.3635 -6.15113,2.0567 -3.77112,2.42 -5.44408,2.9794 -6.80833,2.2768 -0.99477,-0.5123 -2.39722,-0.7211 -3.11654,-0.4639 -0.71933,0.2571 -2.20103,-0.3408 -3.29266,-1.3288 -1.92057,-1.738 -2.19481,-1.6926 -8.47453,1.4041 -5.18131,2.555 -7.25271,3.0782 -10.27405,2.5951 -3.30549,-0.5286 -5.5789,0.2938 -17.96761,6.5 -10.16536,5.0924 -14.1772302,7.599 -14.1619002,8.8485 0.0118,0.9588 2.6230302,20.7851 5.8028202,44.0584 l 5.78143,42.315 7.94718,7.9145 c 4.37095,4.3529 8.48883,7.7207 9.15084,7.4841 0.66201,-0.2367 6.19794,-4.5669 12.30207,-9.6226 z m -54.0057302,-13.7445 c 0,-5.4111 -0.31157,-20.1486 -0.69237,-32.75 l -0.69238,-22.9116 -3.25627,28 c -4.0841398,35.1187 -4.0660598,34.0525 -0.60898,35.928 5.02092,2.7239 5.25,2.3632 5.25,-8.2664 z m 13.53212,8.3894 c 1.9073302,-0.7969 3.4869102,-1.8094 3.5101702,-2.25 0.0233,-0.4405 -1.43924,-14.301 -3.2500002,-30.801 l -3.29229,-30 -0.61441,12 c -0.79464,15.52 -1.04362,52.5 -0.35347,52.5 0.29266,0 2.09266,-0.652 4,-1.449 z M -136.36912,1210.1451 c 0,-6.2266 -0.0382,-6.3129 -3.321,-7.5 -4.80651,-1.7381 -5.07744,-1.641 -9.09078,3.2568 l -3.65271,4.4576 3.28225,1.7104 c 2.99707,1.5619 10.21335,4.1452 12.03224,4.3074 0.4125,0.037 0.75,-2.7677 0.75,-6.2322 z m 283.74168,2.6352 5.24169,-2.4751 -3.70345,-4.4305 c -4.09149,-4.8947 -4.22304,-4.9421 -8.95893,-3.2296 -3.2842,1.1876 -3.321,1.2709 -3.321,7.5191 l 0,6.3181 2.75,-0.6135 c 1.5125,-0.3374 5.10876,-1.7272 7.99169,-3.0885 z m -268.49168,-0.996 c 2.6125,-1.3056 4.75,-2.7249 4.75,-3.154 0,-0.4291 -1.76534,-2.504 -3.92298,-4.6109 -4.09012,-3.9939 -6.39758,-4.3006 -10.29744,-1.3686 -1.41755,1.0657 -1.61327,2.3029 -1.11172,7.0278 0.59159,5.573 0.6822,5.7167 3.22043,5.1069 1.43644,-0.3451 4.74921,-1.6956 7.36171,-3.0012 z m 252.89999,-1.3401 c 0.0825,-2.75 0.195,-5.5438 0.25,-6.2084 0.055,-0.6647 -1.6098,-1.8592 -3.69956,-2.6546 l -3.79955,-1.4461 -3.95045,3.8575 c -2.17274,2.1216 -3.95044,4.207 -3.95044,4.6342 0,1.2811 10.66949,6.3211 14.25,6.7315 0.4125,0.047 0.8175,-2.1641 0.9,-4.9141 z m -284.4264,-9.9034 4.22359,-3.8215 -1.62528,-4.1375 -1.62528,-4.1376 -5.97915,0 -5.97915,0 0.58125,3.5819 c 0.63023,3.8836 4.4476,12.4436 5.51964,12.3771 0.36343,-0.023 2.56141,-1.7607 4.88438,-3.8624 z m 46.3001,-5.9781 c 1.12565,-2.9598 1.91832,-5.5096 1.76148,-5.6662 -0.15685,-0.1565 -2.92416,-0.4068 -6.1496,-0.556 -5.31777,-0.2461 -5.99029,-0.044 -7.21457,2.1661 -2.16298,3.9052 -1.66438,6.104 2.30607,10.1702 l 3.72706,3.8168 1.76146,-2.2747 c 0.9688,-1.2511 2.68244,-4.6964 3.8081,-7.6562 z m 267.33974,4.0065 c 1.45011,-3.2313 2.63656,-6.8313 2.63656,-8 0,-1.9262 -0.55119,-2.125 -5.89142,-2.125 l -5.89142,0 -1.66884,4.1708 -1.66883,4.1709 4.31025,3.7865 c 2.37064,2.0826 4.58631,3.8057 4.9237,3.8292 0.33739,0.024 1.79989,-2.6012 3.25,-5.8324 z m -44.91183,0.9246 3.8575,-3.9505 -1.44612,-3.7995 c -0.79536,-2.0898 -1.76491,-3.6871 -2.15455,-3.5496 -0.38964,0.1375 -3.18344,0.25 -6.20844,0.25 -3.73375,0 -5.49975,0.4014 -5.49921,1.25 0.001,1.9303 5.80691,13.75 6.7538,13.75 0.46173,0 2.57539,-1.7777 4.69702,-3.9504 z m -246.21319,-2.9375 c 3.65508,-1.5667 4.69629,-2.6526 6.12127,-6.3838 1.60163,-4.1938 1.60657,-4.7722 0.0736,-8.6035 -2.07173,-5.1778 -7.05577,-7.1537 -13.31461,-5.2785 -4.30321,1.2893 -5.18886,2.1547 -7.07751,6.9162 -1.0385,2.6181 -1.05127,4.1296 -0.0647,7.6534 1.0165,3.6306 1.86103,4.6507 4.87648,5.8904 4.7785,1.9645 4.32777,1.9738 9.38547,-0.1942 z m 270.67997,-0.4703 c 1.4545,-0.6867 3.03022,-2.8322 3.95348,-5.3831 1.4511,-4.0092 1.4166,-4.4852 -0.63035,-8.6985 -1.78715,-3.6785 -2.8874,-4.6734 -6.298,-5.6953 -3.40142,-1.019 -4.85209,-0.9839 -8.19961,0.1985 -3.35878,1.1864 -4.30663,2.1332 -5.44274,5.4366 -1.20635,3.5076 -1.17201,4.5343 0.27898,8.3409 1.32181,3.4676 2.48602,4.7087 5.78726,6.1695 4.13812,1.831 6.03188,1.7649 10.55098,-0.3686 z m 126.58746,-30.7355 c 1.36685,-17.8234 2.76898,-34.982 3.11586,-38.13 l 0.63068,-5.7238 -7.6262,2.5641 c -4.1944,1.4103 -7.64621,3.0859 -7.67068,3.7237 -0.0757,1.9741 8.50775,70.5298 8.79471,70.2428 0.14875,-0.1487 1.38878,-14.8533 2.75563,-32.6768 z m -522.561,-36.5659 c 0.0462,-1.8109 -1.15626,-2.567 -7.44485,-4.6813 l -7.5,-2.5217 0.009,2.1813 c 0.005,1.1997 0.4437,7.3563 0.97556,13.6813 1.77953,21.1629 1.96124,23.4366 2.99685,37.5 1.92342,26.1195 1.95565,26.0685 6.62824,-10.5 2.35428,-18.425 4.30532,-34.4718 4.33565,-35.6596 z m 106.36446,51.9096 1.52321,-3.75 -4.12747,-4.2531 c -3.43459,-3.539 -4.35077,-4.0297 -5.4576,-2.9229 -1.75002,1.75 -6.24895,12.8646 -5.61954,13.883 0.26958,0.4361 3.11545,0.793 6.32416,0.793 5.80409,0 5.84185,-0.019 7.35724,-3.75 z m 311.31689,2.2817 c 0.66382,-1.7298 -1.984,-9.06 -4.44424,-12.3033 l -1.72315,-2.2716 -4.25579,4.3363 -4.25579,4.3364 1.53981,3.6852 c 1.51075,3.6158 1.6439,3.6853 7.05776,3.6853 3.9294,0 5.68018,-0.4227 6.0814,-1.4683 z m -267.09861,-2.2817 c -1.26695,-5.055 -4.76035,-12.25 -5.94778,-12.25 -0.64565,0 -2.88617,1.7535 -4.97893,3.8967 -3.72293,3.8126 -3.77692,3.9745 -2.50206,7.5 l 1.30297,3.6033 6.40752,0 6.40752,0 -0.68924,-2.75 z m 223.09365,-0.8859 1.51919,-3.6359 -3.77316,-3.8641 c -2.07524,-2.1253 -4.26717,-3.8641 -4.87095,-3.8641 -1.30893,0 -4.9363,7.1738 -5.94149,11.7504 l -0.71374,3.2496 6.13048,0 c 6.1047,0 6.13687,-0.015 7.64967,-3.6359 z m -257.15516,-9.0493 c 2.75167,-1.3122 3.53393,-2.2806 3.53393,-4.375 0,-5.1989 -1.20445,-8.9401 -2.875,-8.93 -2.2248,0.013 -11.70779,4.5061 -12.61727,5.9777 -0.70675,1.1435 5.98245,9.0125 7.66129,9.0125 0.41972,0 2.35339,-0.7583 4.29705,-1.6852 z m 21.60219,-8.9795 c -2.53244,-1.7738 -9.7372,-4.3353 -12.19399,-4.3353 -1.61929,0 -1.87427,0.7978 -1.87427,5.8643 0,5.8376 0.0171,5.8713 3.75,7.3957 l 3.75,1.5313 4.28274,-4.5285 c 4.15075,-4.389 4.22119,-4.5717 2.28552,-5.9275 z m 22.491055,6.7607 c -1.00603,-1.6278 -3.53361,-1.3265 -4.23641,0.5049 -0.85252,2.2217 1.81066,3.6931 3.54542,1.9589 0.75258,-0.7523 1.06353,-1.861 0.69099,-2.4638 z m 193.999993,0 c -1.00603,-1.6278 -3.53361,-1.3265 -4.23641,0.5049 -0.85252,2.2217 1.81066,3.6931 3.54542,1.9589 0.75258,-0.7523 1.06353,-1.861 0.69099,-2.4638 z m 32.430512,-5.346 c 0.01,-5.4169 -0.12986,-5.75 -2.40692,-5.75 -1.32941,0 -4.36691,0.873 -6.75,1.94 -7.83287,3.507 -7.82204,3.4765 -2.98382,8.4062 l 4.34163,4.4238 3.89447,-1.635 c 3.88271,-1.63 3.8945,-1.6524 3.90464,-7.385 z m 15.88174,4.8809 4.28798,-4.3692 -3.32977,-1.9757 c -5.03648,-2.9883 -9.61892,-4.5809 -11.31182,-3.9313 -1.10399,0.4237 -1.51796,2.0902 -1.51796,6.1111 0,5.279 0.14663,5.5926 3.25,6.9498 1.7875,0.7817 3.49381,1.458 3.79179,1.5028 0.29799,0.045 2.47139,-1.8845 4.82978,-4.2875 z m -262.87156,-18.6309 c 0,-1.3333 -0.66667,-2 -2,-2 -1.33333,0 -2,0.6667 -2,2 0,1.3333 0.66667,2 2,2 1.33333,0 2,-0.6667 2,-2 z m 234.99999,0 c 0,-1.3333 -0.66667,-2 -2,-2 -1.33333,0 -2,0.6667 -2,2 0,1.3333 0.66667,2 2,2 1.33333,0 2,-0.6667 2,-2 z m -123.7597822,-7.9777 c 1.76387,-2.0498 5.26484,-2.624 7.46652,-1.2247 0.6637,0.4218 1.80981,2.2013 2.54692,3.9543 l 1.34019,3.1874 10.2778602,-15.632 c 5.65282,-8.5976 11.19871,-18.0932 12.32419,-21.1013 3.85296,-10.298 18.68944,-24.9764 28.97317,-28.6646 3.9368,-1.4119 32.57222,-19.1434 35.71963,-22.1181 0.21378,-0.202 -0.77519,-0.8099 -2.1977,-1.3507 -1.42252,-0.5408 -3.35005,-2.1488 -4.28341,-3.5733 -1.43852,-2.1955 -1.50081,-2.9566 -0.40892,-4.9968 0.70845,-1.3238 2.65766,-2.8843 4.33159,-3.4678 1.81799,-0.6337 2.66625,-1.4142 2.10662,-1.9382 -3.01912,-2.8268 -31.86974,-21.0965 -33.31463,-21.0965 -2.62502,0 -13.05808,-6.5756 -17.9466,-11.311 -6.18673,-5.9931 -11.08699,-12.9472 -13.36726,-18.9698 -1.08684,-2.8706 -6.51194,-12.1104 -12.05578,-20.5329 l -10.0797102,-15.3136 -1.28788,3.0629 c -1.54388,3.6718 -5.74581004,5.9412 -8.21267,4.4354 -0.91979,-0.5614 -2.43479,-2.5143 -3.36666,-4.3398 l -1.69433,-3.319 -10.3644798,15.8939 c -5.70046,8.7416 -11.16357,18.0336 -12.14024,20.6488 -4.37205,11.7068 -18.154803,25.2229 -29.927083,29.3481 -5.29235,1.8545 -34.81935,21.3617 -34.0988,22.5276 0.29551,0.4782 1.11599,0.8694 1.82329,0.8694 1.46833,0 4.00674,2.6932 4.88809,5.1862 0.77521,2.1927 -2.86312,6.8138 -5.3647,6.8138 -1.06008,0 -1.92742,0.3998 -1.92742,0.8885 0,1.3981 29.96402,20.5233 35.25487,22.5022 10.11556,3.7835 22.831373,15.6438 28.171963,26.2767 1.41524,2.8177 2.57316,5.5976 2.57316,6.1775 0,0.58 4.81942,8.3803 10.70982,17.3341 8.7046198,13.2314 10.8109698,15.8662 11.2499998,14.0725 0.2971,-1.2138 1.32328,-3.117 2.28039,-4.2292 z m -17.3066798,-1.7723 c -14.28977,-16.3691 -35.512343,-38.2962 -48.217133,-49.8178 -8.36901,-7.5897 -16.4492,-14.9215 -17.95596,-16.2929 -1.50676,-1.3714 -3.03414,-2.1989 -3.39417,-1.8389 -1.9033,1.9033 67.654473,71.6567 71.487323,71.6884 0.79146,0.01 -0.006,-1.5461 -1.92006,-3.7388 z m 53.44889,-6.6756 c 23.8575,-22.3727 58.3693,-57.5694 59.45091,-60.6309 0.9467,-2.6796 -3.04036,0.489 -19.40194,15.4191 -18.10575,16.5216 -22.60413,21.0369 -38.9334,39.0795 -4.94889,5.4682 -9.67299,10.6626 -10.49799,11.5433 -3.55892,3.7989 -4.28378,5.0146 -2.99002,5.0146 0.69017,0 6.25777,-4.6915 12.37244,-10.4256 z m -84.882413,-4.4111 c 2.97166,-0.8078 2.97894,-0.8268 0.76981,-2.014 -1.75526,-0.9433 -3.49817,-0.9055 -8.18438,0.1771 l -5.95419,1.3755 -4.66115,-4.7323 -4.66115,-4.7323 1.16504,-5.612 c 1.11788,-5.3848 0.73532,-9.6253 -0.86835,-9.6253 -0.41778,0 -1.32061,3.6648 -2.00629,8.1439 l -1.2467,8.144 5.32368,5.4426 5.32368,5.4426 6,-0.5972 c 3.3,-0.3285 7.35,-0.9642 9,-1.4126 z m 126.279143,-3.4397 5.21084,-5.2764 -1.19861,-8.2236 c -0.65923,-4.523 -1.53462,-8.2236 -1.9453,-8.2236 -2.05375,0 -2.47038,3.6049 -1.06255,9.1937 l 1.499,5.9507 -4.70689,4.7788 -4.70688,4.7788 -5.95419,-1.3756 c -4.67144,-1.0792 -6.43408,-1.1188 -8.18172,-0.1834 -2.44915,1.3107 -2.16139,1.4948 4.32537,2.7669 9.65811,1.8939 11.06387,1.542 16.72093,-4.1863 z m -274.390728,-6.5431 c 0.27855,-0.4507 -4.36338,-5.6742 -10.31538,-11.6077 -7.24942,-7.2269 -11.06971,-10.3872 -11.57272,-9.5733 -0.48029,0.7771 2.9816,4.9601 9.60653,11.6077 5.69658,5.716 10.6764,10.3928 11.06627,10.3928 0.38986,0 0.93675,-0.3688 1.2153,-0.8195 z m 414.50472,-9.5733 c 6.62493,-6.6476 10.08682,-10.8306 9.60653,-11.6077 -0.50301,-0.8139 -4.3233,2.3464 -11.57272,9.5733 -9.53444,9.5049 -11.67437,12.4272 -9.10008,12.4272 0.38987,0 5.36969,-4.6768 11.06627,-10.3928 z m -444.07359,-12.4355 c 0.20769,-1.4115 -0.20922,-2.1717 -1.19098,-2.1717 -1.9446,0 -2.96722,1.6751 -2.21666,3.631 0.81433,2.1221 3.01962,1.1777 3.40764,-1.4593 z m 465.00435,0.4924 c 0.41214,-2.1251 -2.73714,-3.4226 -3.86763,-1.5934 -0.97361,1.5754 0.78203,4.1829 2.44381,3.6297 0.60495,-0.2014 1.24567,-1.1177 1.42382,-2.0363 z m -455.01206,-9.9256 c 0.2235,-1.1605 -0.29906,-1.7385 -1.57185,-1.7385 -2.44821,0 -3.24357,0.8271 -2.54526,2.6468 0.74244,1.9348 3.69503,1.2834 4.11711,-0.9083 z m 445.18815,0.2615 c 0,-1.3333 -0.66667,-2 -2,-2 -1.33333,0 -2,0.6667 -2,2 0,1.3333 0.66667,2 2,2 1.33333,0 2,-0.6667 2,-2 z m -383.61506,-25.9961 c 14.23671,-1.6172 26.05195,-3.1075 26.25608,-3.3116 0.20413,-0.2041 -13.89586,-0.6541 -31.33332,-1 -17.43745,-0.3459 -31.85902,-0.4743 -32.04792,-0.2854 -0.1889,0.1889 0.40687,2.2187 1.32395,4.5107 1.64782,4.1183 1.71586,4.1606 5.79184,3.597 2.26844,-0.3136 15.77266,-1.8934 30.00937,-3.5107 z m 353.6645,-0.1008 c 1.14954,-2.2533 1.92296,-4.264 1.71871,-4.4683 -0.20426,-0.2043 -14.74815,-0.086 -32.31976,0.2629 -17.57162,0.3489 -31.30307,0.8497 -30.51435,1.113 1.05833,0.3532 48.03822,6.0979 57.79564,7.0671 0.67632,0.067 2.17021,-1.7214 3.31976,-3.9747 z m -333.04943,-14.6101 c 2.33851,-0.4041 -5.79188,-1.6976 -24.5,-3.8976 -15.4,-1.811 -28.51364,-3.3158 -29.14142,-3.3441 -0.90548,-0.041 -4.35858,6.6198 -4.35858,8.407 0,0.6217 53.9294,-0.4618 58,-1.1653 z m 334.82834,0.957 c -0.18608,-0.4125 -0.98898,-2.4375 -1.78423,-4.5 -0.79524,-2.0625 -1.918,-3.7269 -2.49501,-3.6987 -3.93753,0.1928 -56.94777,6.7949 -56.54911,7.0428 0.275,0.1711 10.85,0.574 23.5,0.8954 12.65,0.3214 26.3,0.6802 30.33333,0.7974 4.03334,0.1172 7.18109,-0.1244 6.99502,-0.5369 z m -295.362695,-18.1814 c 6.74755,-13.4726 7.37705,-15.2214 6.44331,-17.9 -0.89427,-2.5653 -0.55694,-3.9175 2.48312,-9.9543 3.49543,-6.941 3.50522,-6.9973 1.52768,-8.7869 -1.09465,-0.9907 -1.75103,-2.4247 -1.4586,-3.1868 0.29242,-0.762 0.11659,-2.1611 -0.39074,-3.1091 -0.67732,-1.2655 -0.14493,-2.9727 2.00358,-6.4246 1.60931,-2.5855 2.92601,-5.1258 2.92601,-5.6449 0,-1.8537 -2.03298,-2.1523 -4.22075,-0.6199 -2.78619,1.9515 -5.17323,2.027 -4.44938,0.1406 0.29911,-0.7794 -0.10274,-1.6653 -0.89301,-1.9686 -0.79027,-0.3032 -1.43686,-1.2405 -1.43686,-2.0827 0,-1.7646 2.5502,-2.0682 3.56598,-0.4247 0.94908,1.5357 2.53983,-1.1188 1.9019,-3.1737 -0.58482,-1.8837 3.93462,-6.4203 5.45809,-5.4788 0.59072,0.3651 1.57207,0.356 2.18079,-0.02 0.78765,-0.4868 0.75071,-0.904 -0.12811,-1.4472 -0.67919,-0.4197 -0.92567,-1.2635 -0.54775,-1.875 0.85502,-1.3835 3.5691,-1.4685 3.5691,-0.1118 0,0.55 0.9,1 2,1 2.43722,0 2.46583,0.4028 0.29019,4.0859 -2.78694,4.7179 -0.49264,5.6326 5.1509,2.0536 3.78841,-2.4026 5.43327,-2.879 8.38586,-2.4289 2.02018,0.308 4.48401,1.2651 5.47518,2.1268 1.65654,1.4403 2.28951,1.299 7.83471,-1.7495 5.05944,-2.7815 6.67809,-3.2132 10.03414,-2.6766 3.588913,0.5739 5.462113,-0.098 18.165283,-6.5168 7.79005,-3.9362 14.3046198,-7.2762 14.4768298,-7.4221 0.27112,-0.2297 -6.1269698,-48.66697 -10.2733398,-77.77516 l -1.39638,-9.80275 -7.75662,-7.94725 c -4.26614,-4.37099 -8.15711,-7.94725 -8.6466,-7.94725 -0.48949,0 -5.918763,4.11002 -12.065063,9.13337 l -11.17509,9.13337 0,4.61663 c 0,4.12951 -0.87348,5.91053 -8.27833,16.87944 -7.02436,10.4053 -8.11709,12.56408 -7.2139,14.25171 0.88017,1.64461 0.36575,3.01776 -2.97167,7.93232 -3.86672,5.69399 -4.0361,6.27264 -4.0361,13.78819 0,29.14048 -21.649325,51.22088 -50.722255,51.73208 -8.89847,0.1565 -9.41249,0.2933 -14.64069,3.894 -4.06187,2.7976 -6.03607,3.5768 -7.88545,3.1127 -1.97079,-0.4947 -5.10089,1.1173 -15.5612,8.0138 -12.35106,8.143 -13.28555,8.5801 -16.46638,7.7019 l -3.3722,-0.9312 -9.78077,12.0089 -9.78078,12.0088 8.35486,8.285 8.35486,8.2849 43.5,5.9624 c 23.925,3.2793 43.60968,6.014 43.74374,6.077 0.13406,0.063 3.60891,-6.6044 7.721905,-14.8167 z m 300.495695,-5.577 8.46135,-8.4286 -2.39955,-3.2815 c -1.31975,-1.8048 -5.527,-7.0416 -9.34943,-11.6372 -6.78075,-8.1524 -7.03779,-8.3417 -10.5618,-7.7793 -3.27394,0.5225 -4.81989,-0.2204 -16.52133,-7.9388 -10.43954,-6.8859 -13.41222,-8.4047 -15.53744,-7.9379 -2.01407,0.4424 -3.97398,-0.3656 -8.38929,-3.4586 -5.4129,-3.7917 -6.07578,-4 -10.96256,-3.4455 -11.85843,1.3456 -28.77664,-4.8385 -38.071412,-13.9162 -10.54489,-10.2986 -14.66553,-19.713 -15.39083,-35.16335 -0.50985,-10.86066 -0.56475,-11.06422 -4.48255,-16.61966 -3.2519,-4.61118 -3.77801,-5.97629 -2.92067,-7.57824 0.87922,-1.64284 -0.38044,-4.09963 -7.91227,-15.43175 -8.63992,-12.9993 -8.91776,-13.59322 -7.82515,-16.72747 0.62306,-1.7873 0.9683,-3.36314 0.76721,-3.50188 -0.20109,-0.13874 -5.38256,-4.39077 -11.51437,-9.44896 -6.13182,-5.05818 -11.5645,-9.1967 -12.07262,-9.1967 -0.50813,0 -4.51173,3.7125 -8.89689,8.25 l -7.97302,8.25 -5.83943,43.2816 c -3.21169,23.80487 -5.6661502,43.41761 -5.4543602,43.58391 0.21179,0.1664 6.6200002,3.5587 14.2404702,7.5385 12.49011,6.5231 14.24222,7.1708 17.78088,6.573 3.26659,-0.5519 4.9988,-0.1067 10.32014,2.6522 6.18085,3.2047 6.46076,3.2557 8.37116,1.5268 1.08707,-0.9838 2.58308,-1.6879 3.32446,-1.5646 0.74138,0.1232 2.1259,-0.1164 3.07673,-0.5325 1.16278,-0.5089 3.41508,0.281 6.87953,2.4127 5.98171,3.6806 7.95967,2.9943 5.43593,-1.8861 -1.6414,-3.1741 -1.28723,-5.6627 0.63667,-4.4737 0.57349,0.3544 1.39698,0.071 1.82998,-0.6294 0.44387,-0.7182 1.53471,-0.987 2.50082,-0.6163 1.34184,0.5149 1.46166,0.9611 0.55237,2.0567 -1.33285,1.606 -0.006,2.8757 2.14369,2.051 1.78525,-0.6851 6.21296,3.9874 5.51127,5.816 -0.29369,0.7653 -0.13251,2.0257 0.35818,2.8009 0.6314,0.9974 0.89664,1.0439 0.90748,0.1593 0.0192,-1.5698 2.65526,-1.6416 3.60907,-0.098 0.39148,0.6334 0.041,1.6459 -0.77876,2.25 -0.8198,0.6041 -1.30104,1.6608 -1.06944,2.3483 0.61382,1.822 -2.77957,1.5292 -4.94045,-0.4264 -1.44946,-1.3117 -2.11561,-1.4131 -3.06264,-0.4661 -0.94702,0.947 -0.62342,2.2543 1.48777,6.01 2.15043,3.8255 2.57637,5.5945 2.09861,8.7161 -0.32968,2.154 -1.25379,4.6713 -2.05358,5.594 -1.2928,1.4914 -1.05919,2.3838 2.10535,8.0425 3.18524,5.6958 3.45231,6.7286 2.54,9.8225 -0.95114,3.2255 -0.51626,4.433 6.48534,18.0069 l 7.504832,14.5495 43.2946,-5.8394 43.2946,-5.8395 8.46135,-8.4285 z m -276.785525,-3.9916 c 22.28482,-20.339 25.36094,-23.4633 52.182343,-53 4.85902,-5.3509 4.78948,-7.9515 -0.0922,-3.4462 -27.076223,24.9892 -68.265953,66.7523 -68.265953,69.2163 0,1.7384 2.06864,0.1053 16.17581,-12.7701 z m 166.657513,12.5463 c -0.56677,-1.6215 -23.50465,-25.8263 -38.28411,-40.3987 -19.98161,-19.7017 -33.30578,-31.8505 -33.89183,-30.9023 -1.00039,1.6187 32.70894,37.3473 51.52239,54.6087 17.60054,16.1486 21.59069,19.3734 20.65355,16.6923 z m -311.833328,-15.0463 c 0,-1.3131 -0.66667,-2 -1.94098,-2 -2.19765,0 -3.48232,1.506 -2.55902,3 1.15259,1.8649 4.5,1.121 4.5,-1 z m 444.99999,0 c 0,-1.3333 -0.66667,-2 -2,-2 -1.33333,0 -2,0.6667 -2,2 0,1.3333 0.66667,2 2,2 1.33333,0 2,-0.6667 2,-2 z m -454.99999,-8.941 c 0,-1.0675 -0.48921,-2.2433 -1.08713,-2.6129 -1.52909,-0.945 -3.29874,1.1059 -2.57704,2.9867 0.8572,2.2338 3.66417,1.9475 3.66417,-0.3738 z m 464.49999,-0.5727 c 0,-2.7981 -2.92896,-2.488 -3.33121,0.3526 -0.25684,1.8139 0.0799,2.2598 1.5,1.9864 1.04197,-0.2007 1.83121,-1.2088 1.83121,-2.339 z m -435.53858,-21.9249 c -1.3781,-1.3781 -22.51813,19.7288 -21.46555,21.4319 0.50898,0.8235 4.29668,-2.3082 11.61324,-9.6021 7.27887,-7.2563 10.52644,-11.1557 9.85231,-11.8298 z m 425.03858,20.6707 c 0,-0.4223 -4.67675,-5.4287 -10.39278,-11.1253 -6.64477,-6.6221 -10.83077,-10.0867 -11.60726,-9.6068 -0.81403,0.5031 2.1947,4.1714 9.12492,11.1253 9.2288,9.2603 12.87512,11.981 12.87512,9.6068 z m -297.497865,-7.2388 c 0.3503,-1.1037 0.11263,-4.5321 -0.52814,-7.6187 l -1.16504,-5.6119 4.69722,-4.769 4.69722,-4.7689 5.9592,1.3902 c 4.39344,1.0249 6.49119,1.1055 7.98396,0.3066 1.11361,-0.596 1.82068,-1.2877 1.57125,-1.5372 -0.24943,-0.2494 -4.09391,-1.0327 -8.5433,-1.7407 l -8.08978,-1.2873 -5.61638,5.6756 -5.61637,5.6756 1.24704,8.1462 c 1.249,8.159 2.2112,9.8949 3.40312,6.1395 z m 151.289563,-6.2191 1.19892,-8.2257 -5.53766,-5.5961 -5.53766,-5.596 -8.08978,1.2873 c -4.44939,0.708 -8.29387,1.4913 -8.5433,1.7407 -0.24943,0.2495 0.41154,0.9165 1.46881,1.4823 1.36399,0.73 3.63978,0.6234 7.83564,-0.3669 l 5.91334,-1.3958 4.89621,4.8561 4.89622,4.8561 -1.48117,5.88 c -1.08657,4.3135 -1.19349,6.3361 -0.40133,7.5919 0.59391,0.9415 1.32802,1.7119 1.63134,1.7119 0.30333,0 1.09102,-3.7016 1.75042,-8.2258 z m -332.923708,-15.343 c 0.2024,-0.1836 -1.58376,-16.0821 -3.96926,-35.3299 -2.38549,-19.24789 -4.52946,-34.80391 -4.76439,-34.56898 -0.23492,0.23492 -1.44742,13.37375 -2.69442,29.19738 -1.24701,15.8237 -2.59407,32.7208 -2.99347,37.5492 l -0.72619,8.779 7.38987,-2.6464 c 4.06443,-1.4555 7.55547,-2.7967 7.75786,-2.9803 z m 523.10386,-32.9748 c -1.62179,-20.87604 -3.00232,-38.18141 -3.06783,-38.45641 -0.22261,-0.93441 -8.77045,65.48221 -8.83742,68.66671 -0.0642,3.0538 0.19175,3.2538 7.1834,5.613 3.9875,1.3456 7.34463,2.376 7.46028,2.2898 0.11566,-0.086 -1.11663,-17.2371 -2.73843,-38.1131 z m -382.97184,10.5436 c 0,-1.3333 -0.66667,-2 -2,-2 -1.33333,0 -2,0.6667 -2,2 0,1.3333 0.66667,2 2,2 1.33333,0 2,-0.6667 2,-2 z m 234.99999,0 c 0,-2.1211 -3.34741,-2.8649 -4.5,-1 -0.9233,1.4939 0.36137,3 2.55902,3 1.27431,0 1.94098,-0.687 1.94098,-2 z m -255.46533,-12.3826 c 0.95264,-6.3527 0.4084,-7.6689 -3.87641,-9.3749 l -3.84174,-1.5296 -4.15826,4.182 -4.15825,4.182 2.5,1.9379 c 2.41761,1.874 9.25699,4.7447 11.68873,4.9062 0.65874,0.044 1.48174,-1.875 1.84593,-4.3036 z m 14.0928,1.9756 c 2.82011,-1.3131 5.3881,-2.8092 5.70664,-3.3246 0.31855,-0.5154 -1.31381,-2.774 -3.62746,-5.019 l -4.20664,-4.0819 -3.75,1.5232 c -3.73679,1.5178 -3.75,1.544 -3.75,7.4162 0,5.4476 0.1701,5.8923 2.25,5.8833 1.2375,0 4.55736,-1.0841 7.37746,-2.3972 z m 253.37253,-3.4861 c 0,-5.8722 -0.0132,-5.8984 -3.75,-7.4162 l -3.75,-1.5232 -4.25,4.1244 c -2.3375,2.2685 -4.25,4.401 -4.25,4.739 0,1.3284 10.37227,5.7716 13.75,5.8901 2.08773,0.073 2.25,-0.346 2.25,-5.8141 z m 11.07186,4.3642 c 2.43548,-0.8409 5.55314,-2.3986 6.92814,-3.4615 l 2.5,-1.9327 -4.15825,-4.182 -4.15826,-4.182 -3.84174,1.5268 c -3.61789,1.4378 -3.8598,1.803 -4.15156,6.2665 -0.32835,5.0232 0.19923,7.4938 1.60029,7.4938 0.46928,0 2.8459,-0.688 5.28138,-1.5289 z m -237.512535,-9.5671 c 1.05677,-1.7099 -2.27751,-4.5858 -3.68495,-3.1784 -0.62696,0.627 -0.8693,1.8452 -0.53853,2.7072 0.69209,1.8035 3.22538,2.0862 4.22348,0.4712 z m 194.228293,-1.0397 c 0.36522,-1.8964 -2.68819,-3.3637 -4.08761,-1.9643 -1.44505,1.445 0.0387,4.297 2.03549,3.9124 0.95785,-0.1845 1.8813,-1.0611 2.05212,-1.9481 z M -148.98881,924.11551 c -1.71996,-3.60679 -1.85294,-3.67132 -7.56552,-3.67132 -5.36999,0 -5.81311,0.17211 -5.79283,2.25 0.0232,2.37453 3.2649,10.18581 5.18963,12.50491 0.92742,1.1175 1.94668,0.5605 5.52826,-3.0211 l 4.39119,-4.39116 -1.75073,-3.67133 z m 40.17994,9.87709 c 1.50761,-2.3009 4.74213,-11.62904 4.19154,-12.08809 -0.13848,-0.11546 -2.76077,-0.51383 -5.8273,-0.88528 l -5.57551,-0.67535 -1.86253,4.13037 -1.86254,4.13036 3.93805,3.87069 c 2.16592,2.1289 4.26517,3.8928 4.66499,3.9198 0.39982,0.027 1.44981,-1.0541 2.3333,-2.4025 z m 224.55854,-1.4318 4.29011,-3.88341 -1.90095,-4.21555 c -1.81961,-4.03518 -2.05301,-4.1904 -5.45446,-3.62761 -1.95442,0.32337 -4.60175,0.5929 -5.88296,0.59895 -2.10659,0.01 -2.26116,0.32191 -1.61571,3.26067 0.86268,3.92774 4.56335,11.75035 5.55878,11.75035 0.3933,0 2.64563,-1.7475 5.00519,-3.8834 z m 44.98051,-3.94952 c 3.23494,-7.37451 2.83842,-8.16709 -4.08589,-8.16709 -5.95391,0 -5.99498,0.0201 -7.52638,3.68527 l -1.53981,3.68526 4.26623,4.34698 c 4.84497,4.9366 5.23043,4.7826 8.88585,-3.55042 z m -289.42725,-0.36547 c 2.51757,-0.91036 3.69897,-2.20624 4.91559,-5.39194 1.50989,-3.95359 1.48893,-4.44816 -0.36637,-8.64236 -1.58882,-3.5918 -2.7983,-4.78104 -6.27867,-6.17361 -3.98511,-1.59452 -4.62533,-1.60469 -8.47477,-0.13457 -3.4516,1.31818 -4.39226,2.28184 -5.49812,5.63263 -1.88183,5.702 0.29559,11.71364 5.11072,14.1102 4.12808,2.0546 6.23773,2.17404 10.59162,0.59965 z m 267.52614,-0.23997 c 5.0783,-2.12185 7.51563,-7.94045 5.83723,-13.93512 -1.09815,-3.92218 -1.75147,-4.62827 -5.66543,-6.12303 -4.32417,-1.65141 -4.52954,-1.63665 -9.08814,0.65345 -3.70475,1.86116 -4.93263,3.14377 -5.97016,6.23626 -3.41959,10.19256 4.73806,17.4087 14.8865,13.16844 z M -4.4471922,871.44419 c 0.0951,-7.975 0.15159,-14.84665 0.1255,-15.27032 -0.0985,-1.59918 -8.0481998,3.3651 -8.0720298,5.04064 -0.0135,0.95133 1.44897,15.00468 3.2499998,31.22968 l 3.2746,29.5 0.62451,-18 c 0.34347,-9.9 0.70232,-24.525 0.79742,-32.5 z m 17.0063002,-9.22432 c 0.0538,-2.04329 -0.66577,-3.10571 -2.8785702,-4.25 -1.62269,-0.83912 -3.42269,-1.52568 -4,-1.52568 -1.23647,0 -1.40128,22.12832 -0.35444,47.59029 l 0.69523,16.90971 3.233,-28 c 1.7781602,-15.4 3.2653102,-29.22594 3.3047802,-30.72432 z m -162.574648,50.00612 1.65695,-4.21819 -4.25526,-3.73917 c -2.3404,-2.05654 -4.61753,-3.75835 -5.0603,-3.7818 -1.18729,-0.0629 -5.69497,10.61145 -5.69497,13.48587 0,2.34692 0.29477,2.47149 5.84831,2.47149 l 5.84831,0 1.65696,-4.2182 z m 45.11738,1.9682 c -1.53495,-5.20269 -5.45246,-12.75 -6.61803,-12.75 -1.91775,0 -7.85293,6.15903 -7.85293,8.14911 0,0.96623 0.52223,2.90296 1.16052,4.30384 1.06782,2.34361 1.67224,2.54705 7.56738,2.54705 6.17419,0 6.38277,-0.0817 5.74306,-2.25 z m 223.65766,-1.785 c 1.18978,-3.97112 1.14827,-4.09711 -2.62236,-7.95858 -2.10721,-2.15797 -4.2529,-3.66301 -4.76821,-3.34453 -1.16083,0.71743 -6.73619,12.37591 -6.73727,14.08811 -5.5e-4,0.87108 1.95743,1.25 6.45907,1.25 l 6.45986,0 1.20891,-4.035 z m 44.54334,2.44744 c 0.65199,-1.69904 -3.82061,-13.63059 -5.29146,-14.11605 -0.48428,-0.15984 -2.83491,1.39559 -5.22361,3.4565 l -4.3431,3.74711 1.70168,4.25 1.70168,4.25 5.4228,0 c 4.03072,0 5.5792,-0.40754 6.03201,-1.58756 z m -283.12491,-14.46569 3.95295,-4.05324 -2.372,-1.79308 c -2.44802,-1.85055 -11.97318,-5.62097 -12.55152,-4.96838 -0.17934,0.20237 -0.64076,2.96315 -1.02538,6.13507 l -0.69929,5.76712 3.32409,1.44374 c 4.71026,2.04578 4.97791,1.97348 9.37115,-2.53123 z m 248.66763,2.60801 3.45894,-1.44523 -0.46088,-5.80477 c -0.25348,-3.19262 -0.60089,-5.96311 -0.77203,-6.15664 -0.61584,-0.69645 -9.99516,2.93801 -12.44072,4.82074 l -2.5,1.92465 3.95295,4.05324 c 2.17412,2.22929 4.25666,4.05325 4.62787,4.05325 0.37121,0 2.23145,-0.65036 4.13387,-1.44524 z m -268.53568,-0.75565 c 3.28872,-1.18921 3.321,-1.26289 3.321,-7.57945 l 0,-6.37857 -3.25,0.70267 c -1.7875,0.38646 -5.39878,1.78551 -8.02507,3.109 l -4.77507,2.40634 3.73683,4.47045 c 4.1267,4.93685 4.25375,4.98305 8.99231,3.26956 z m 288.69824,-3.39037 3.87724,-4.40288 -5.37724,-2.44015 c -2.95749,-1.34208 -6.61475,-2.74218 -8.12725,-3.11133 l -2.75,-0.6712 0,6.41537 c 0,6.06848 0.14869,6.47412 2.75,7.50203 4.41138,1.74315 5.53025,1.36058 9.62725,-3.29184 z M -54.475965,841.05141 c 6.62493,-6.64756 10.08682,-10.83062 9.60653,-11.60774 -0.50301,-0.81388 -4.3233,2.34639 -11.57272,9.57333 -9.53444,9.50488 -11.67437,12.42719 -9.10008,12.42719 0.38987,0 5.36969,-4.67675 11.06627,-10.39278 z m 121.495263,9.57332 c 0.27855,-0.4507 -4.36338,-5.67418 -10.31538,-11.60773 -7.24942,-7.22694 -11.06971,-10.38721 -11.57272,-9.57333 -0.48029,0.77712 2.9816,4.96018 9.60653,11.60774 5.69658,5.71603 10.6764,10.39278 11.06627,10.39278 0.38986,0 0.93675,-0.36875 1.2153,-0.81946 z m -99.38842,-20.81891 c 0,-1.88313 -2.84399,-2.91764 -4.22484,-1.53679 -0.7872,0.7872 -0.74818,1.50275 0.14033,2.57334 1.42853,1.72126 4.08451,1.04724 4.08451,-1.03655 z m 69.55931,-1.26567 c -1.00603,-1.62779 -3.53361,-1.32652 -4.23641,0.50496 -0.85252,2.22164 1.81066,3.69307 3.54542,1.95888 0.75258,-0.75233 1.06353,-1.86106 0.69099,-2.46384 z m -79.559303,-8.03694 c 0,-1.06754 -0.48921,-2.24333 -1.08713,-2.61287 -1.52909,-0.94503 -3.29874,1.1059 -2.57704,2.98663 0.8572,2.23382 3.66417,1.94749 3.66417,-0.37376 z m 88.664163,0.37376 c 0.33077,-0.86197 0.11071,-2.0579 -0.48901,-2.65762 -1.44384,-1.44384 -4.27127,0.81081 -3.50873,2.79795 0.73152,1.90632 3.24624,1.81805 3.99774,-0.14033 z M -71.984975,790.38698 c 1.43872,-3.88147 2.61586,-7.50186 2.61586,-8.04531 0,-0.56078 -1.40552,-0.75058 -3.25,-0.43887 -3.55202,0.60028 -66.466275,5.54139 -70.557455,5.54139 -7.33277,0 1.97933,1.54068 32.9469,5.45105 18.898305,2.38634 34.645915,4.38609 34.994695,4.44388 0.34878,0.0578 1.81128,-3.07068 3.25,-6.95214 z m 184.514595,2.0838 c 17.81932,-2.19492 32.63182,-4.22383 32.91667,-4.50868 0.28485,-0.28485 -1.24459,-0.54481 -3.39875,-0.57769 -2.15417,-0.0329 -19.21667,-1.31259 -37.91667,-2.84381 -18.699992,-1.53123 -34.158742,-2.65807 -34.352782,-2.50411 -0.34091,0.27052 3.64608,13.07613 4.58187,14.71625 0.25372,0.4447 1.65598,0.5611 3.11612,0.25867 1.46014,-0.30243 17.23424,-2.34571 35.053542,-4.54063 z"
       id="path8174"
       inkscape:connector-curvature="0" />
  </g>
</svg>
