<?xml version="1.0" encoding="UTF-8" standalone="no"?>
<!-- Created with Inkscape (http://www.inkscape.org/) -->

<svg
   xmlns:dc="http://purl.org/dc/elements/1.1/"
   xmlns:cc="http://creativecommons.org/ns#"
   xmlns:rdf="http://www.w3.org/1999/02/22-rdf-syntax-ns#"
   xmlns:svg="http://www.w3.org/2000/svg"
   xmlns="http://www.w3.org/2000/svg"
   xmlns:sodipodi="http://sodipodi.sourceforge.net/DTD/sodipodi-0.dtd"
   xmlns:inkscape="http://www.inkscape.org/namespaces/inkscape"
   width="210mm"
   height="297mm"
   viewBox="0 0 744.09448819 1052.3622047"
   id="svg8761"
   version="1.1"
   inkscape:version="0.91 r13725"
   sodipodi:docname="yoda.svg">
  <defs
     id="defs8763" />
  <sodipodi:namedview
     id="base"
     pagecolor="#ffffff"
     bordercolor="#666666"
     borderopacity="1.0"
     inkscape:pageopacity="0.0"
     inkscape:pageshadow="2"
     inkscape:zoom="0.35"
     inkscape:cx="-46.428571"
     inkscape:cy="520"
     inkscape:document-units="px"
     inkscape:current-layer="layer1"
     showgrid="false"
     inkscape:window-width="1920"
     inkscape:window-height="1027"
     inkscape:window-x="-8"
     inkscape:window-y="-8"
     inkscape:window-maximized="1" />
  <metadata
     id="metadata8766">
    <rdf:RDF>
      <cc:Work
         rdf:about="">
        <dc:format>image/svg+xml</dc:format>
        <dc:type
           rdf:resource="http://purl.org/dc/dcmitype/StillImage" />
        <dc:title></dc:title>
      </cc:Work>
    </rdf:RDF>
  </metadata>
  <g
     inkscape:label="Layer 1"
     inkscape:groupmode="layer"
     id="layer1">
    <path
       style="fill:#000000"
       d="m -11.703524,1307.2457 c -2.3499,-1.1632 -5.4999,-3.5798 -7,-5.3703 -2.1065,-2.5142 -3.808,-3.4124 -7.4727,-3.9449 -5.6303,-0.8181 -9.5369,-3.8145 -13.2632,-10.1729 l -2.6777,-4.5692 -2.157,1.9619 c -2.458,2.2358 -6.0195,4.2118 -7.5912,4.2118 -0.5861,0 -1.0726,-1.9125 -1.081,-4.25 -0.023,-6.4416 -1.0832,-7.3008 -4.5452,-3.6844 -9.5331,9.9583 -34.1704,16.5556 -52.699096,14.1116 -8.3065,-1.0956 -16.9703,-3.3503 -19.7404,-5.1372 -1.3333,-0.8601 -1.3333,-1.1228 0,-2.3644 0.825,-0.7682 3.9611,-2.1758 6.9691,-3.1281 11.3463,-3.5921 20.3214,-11.6219 33.040196,-29.5606 3.7959,-5.3538 8.254,-10.8721 9.9067,-12.2628 4.6781,-3.9363 11.0848,-5.9699 17.5555,-5.5723 5.6044,0.3443 5.6616,0.32 5.0651,-2.1518 -0.3318,-1.375 -0.8718,-7.7086 -1.2,-14.0748 -0.8089,-15.6915 0.047,-17.5142 10.3259,-21.996 4.1452,-1.8074 11.6544,-5.9301 16.6871,-9.1616 l 9.1504,-5.8755 0.5,4.8039 0.5,4.804 1.1981,-6.8639 c 1.4101,-8.0782 3.318,-10.6361 7.933,-10.6361 l 3.3210998,0 0.2739,-37.0004 c 0.179,-24.1863 -0.072,-36.9979 -0.7261,-36.9931 -1.5193998,0.011 -5.4637998,6.2787 -6.6461998,10.5608 -1.1993,4.3437 -0.496,10.2901 1.7251,14.5853 1.4338,2.7727 1.36,3.2718 -1.2786,8.645 -2.4049,4.8973 -2.7986,6.9025 -2.7883,14.2024 0.01,6.8875 0.4404,9.3063 2.2703,12.75 1.2421,2.3375 1.972,4.25 1.622,4.25 -1.3421,0 -10.1317,-7.0914 -15.0957,-12.1792 -6.6346,-6.7999 -11.8877,-15.581 -13.4217,-22.4355 -0.6628,-2.9619 -1.2461,-5.3804 -1.296,-5.3745 -0.05,0.01 -2.2999,0.681 -4.9998,1.5 -10.733,3.256 -28.907,1.0112 -40.4392,-4.9949 l -4.6519,-2.4228 3.5,-0.088 c 8.7392,-0.2201 20.2395,-7.04 25.1256,-14.9 2.853,-4.5896 3.3067,-4.892 8.0196,-5.3449 3.3469,-0.3216 6.3748,-1.4484 9.1751,-3.4144 4.2241,-2.9656 9.0995,-10.2274 8.5034,-12.6657 -0.2101,-0.8597 -11.4647,5.1907 -32.0833,17.2479 -23.9434,14.0014 -31.609996,18.9413 -31.151496,20.0722 0.3345,0.825 0.8347,3.0879 1.1116,5.0286 0.4535,3.1782 0.065,3.9231 -3.9142,7.5 -2.4297,2.1843 -5.288,4.5388 -6.352,5.2323 -1.0638,0.6935 -0.04,0.356 2.2759,-0.75 2.3155,-1.106 4.4687,-2.0109 4.7848,-2.0109 0.3161,0 0.4847,5.0625 0.3746,11.25 -0.1101,6.1875 0.1418,14.9141 0.5597,19.3924 l 0.7598,8.1425 -3.6748,4.0675 c -3.5334,3.9111 -13.2009,9.2752 -21.7643,12.0761 -4.0362,1.3202 -4.5403,2.1707 -2.3596,3.9805 0.7647,0.6347 2.387,3.4706 3.6051,6.302 3.5232,8.19 2.5977,14.5279 -4.4189,30.2611 -9.3627,20.9938 -10.7444,28.9959 -7.9905,46.2779 0.9968,6.2555 -1.4312,5.6175 -9.5144,-2.5 -15.6322,-15.6989 -25.0986,-42.4887 -21.1031,-59.722 0.5065,-2.1845 0.7109,-4.1819 0.4542,-4.4386 -0.2567,-0.2566 -2.4956,0.5191 -4.9754,1.7239 -5.3574,2.6028 -6.038,1.8611 -5.1636,-5.6277 l 0.5471,-4.6857 -6.1957,-0.1106 c -7.2751,-0.13 -11.4436,-2.0029 -15.3475,-6.8955 -1.8305,-2.2942 -3.6461,-3.5014 -5.2877,-3.5158 -12.8354,-0.1129 -24.8275,-19.8818 -19.6205,-32.344 1.1831,-2.8316 1.1722,-3.7882 -0.077,-6.7179 -2.3116,-5.4218 -1.9578,-11.2004 1.0396,-16.9777 1.4618,-2.8177 2.6579,-5.2855 2.6579,-5.484 0,-0.1985 -1.9669,-1.231 -4.371,-2.2944 -4.7486,-2.1005 -6.7924,-4.2723 -4.6824,-4.9756 0.7153,-0.2385 2.6776,-1.6639 4.3606,-3.1677 l 3.06,-2.7341 -5.0386,-1.6735 c -18.0295,-5.9885 -37.1261,-28.8277 -41.8473,-50.0487 -2.2932,-10.3074 -1.2853,-11.247 5.7025,-5.3162 10.5262,8.9338 19.5817,11.9873 42.3318,14.274 7.9681,0.8009 15.982,2.0806 17.8087,2.8438 5.0278,2.1008 10.7874,7.6364 12.8893,12.3879 1.034,2.3375 2.1238,4.25 2.4218,4.25 0.2981,0 2.7392,-1.9222 5.4249,-4.2715 7.3066,-6.3917 15.3362,-10.9061 20.4165,-11.4788 4.1908,-0.4723 5.0918,-0.093 14.2485,6.0044 5.3761,3.5798 12.908,7.9808 16.7376,9.78 6.4161,3.0144 6.8087,3.3736 5,4.575 -5.5242,3.6693 -5.455,4.1547 0.2672,1.874 8.1379,-3.2435 9.5255,-3.1434 12.9229,0.9323 l 2.847,3.4154 31.813296,-18.5672 c 21.617,-12.6164 31.3924,-18.8342 30.5,-19.4001 -0.7223,-0.4581 -3.5633,-0.8292 -6.3133,-0.8248 -6.2563,0.01 -13.9505,3.9933 -17.2747,8.943 -2.1586,3.2142 -2.7757,3.5032 -8.0318,3.7615 -9.7858,0.481 -19.039696,6.0482 -25.399296,15.2805 -1.6919,2.4561 -1.7016,2.4355 -1.1857,-2.5237 1.6404,-15.7688 6.2812,-28.1704 13.453396,-35.9513 l 4.1928,-4.5487 -4.1928,-4.5487 c -7.202796,-7.8141 -12.027696,-20.7639 -13.394896,-35.9513 -0.4405,-4.8933 -0.4161,-4.9466 1.1453,-2.5 5.5444,8.6878 16.642196,15.0793 26.312596,15.1542 4.355,0.034 4.9368,0.3407 7.2382,3.8184 3.2293,4.8797 11.3328,9.0331 17.5832,9.0121 2.5045,-0.01 5.1446,-0.39 5.8668,-0.848 0.8921,-0.5657 -8.8874,-6.7825 -30.5,-19.3887 l -31.813096,-18.55587 -3.1349,3.40397 c -1.7242,1.8721 -3.8706,3.4039 -4.7698,3.4039 -0.8993,0 -4.4386,-1.1174 -7.8652,-2.4831 -5.4273,-2.1632 -5.8438,-1.4588 -0.8397,1.4199 2.1945,1.2625 0.4576,2.8855 -6.4302,6.0086 -3.5162,1.5943 -10.4698,5.691 -15.4526,9.1038 -8.4852,5.8116 -9.3433,6.1731 -13.5321,5.7009 -5.0789,-0.5724 -13.1094,-5.0877 -20.4152,-11.4786 -2.6857,-2.3493 -5.1268,-4.2715 -5.4249,-4.2715 -0.298,0 -1.3878,1.9125 -2.4218,4.25 -2.1078,4.7649 -7.8646,10.2884 -12.9279,12.404 -1.8478,0.7721 -8.1805,1.8406 -14.0727,2.3745 -25.5299,2.3132 -35.0788,5.3423 -45.8503,14.5447 -6.8587,5.8595 -7.7278,5.7551 -6.8491,-0.8232 2.9199,-21.8601 23.4123,-47.91457 42.7331,-54.33187 l 5.1205,-1.7008 -3.06,-2.7341 c -1.683,-1.5038 -3.6781,-2.9862 -4.4336,-3.2944 -1.9178,-0.7823 2.6071,-4.6349 6.3145,-5.3764 1.5466,-0.3093 2.8119,-0.7988 2.8119,-1.0877 0,-0.2889 -1.1957,-2.9693 -2.6572,-5.9564 -2.9801,-6.0913 -3.35,-11.90773 -1.1018,-17.32724 1.1851,-2.85684 1.2086,-3.95038 0.1383,-6.44105 -3.0337,-7.05999 -0.4979,-17.48895 6.1742,-25.3923 3.0455,-3.60763 9.4637,-7.04941 13.2133,-7.08574 1.351,-0.0131 3.9771,-1.79783 6.5,-4.41749 4.5211,-4.6945 9.2187,-6.58924 16.3604,-6.59889 l 4.1271,-0.006 -0.502,-4.45354 c -0.8148,-7.22909 -0.1225,-7.94326 5.1951,-5.35975 2.4798,1.20478 4.7187,1.9805 4.9754,1.72382 0.2567,-0.25667 0.052,-2.25405 -0.4542,-4.43861 -2.8459,-12.27478 1.4281,-30.74934 10.8553,-46.92204 4.0151,-6.88822 16.1119,-19.54988 18.6777,-19.54988 1.4345,0 1.6153,0.68159 1.1272,4.25 -1.8914,13.83083 -1.86,17.39848 0.2256,25.64601 1.1524,4.55706 4.6641,13.98221 7.8039,20.94478 8.0334,17.81438 8.3442,26.26655 1.2971,35.27026 l -2.8263,3.61105 4.1854,1.22368 c 7.9904,2.33608 18.3695,7.96209 21.9017,11.87173 l 3.5076,3.88255 -0.4875,19.39997 c -0.2681,10.66998 -0.6142,19.54568 -0.769,19.72378 -0.1548,0.178 -1.6783,-0.3987 -3.3857,-1.2816 -2.4898,-1.2875 -2.0098,-0.5452 2.4249,3.7501 l 5.5291,5.3554 -1.5697,4.4261 c -1.2727,3.5885 -1.3234,4.5714 -0.2678,5.1932 0.716,0.4218 15.181796,8.8338 32.146096,18.69327 28.0054,16.2764 30.7831,17.6784 30.1805,15.233 -1.9511,-7.9178 -9.2388,-14.1711 -17.4327,-14.9585 -4.6886,-0.4505 -5.2258,-0.7873 -7.5321,-4.72277 -4.7557,-8.115 -13.548,-13.8072 -23.5507,-15.2467 l -5.4669,-0.7867 5.9985,-2.692 c 3.2992,-1.4806 8.6718,-3.3883 11.939,-4.2393 7.3978,-1.9269 22.6339,-1.9533 27.9819,-0.048 2.179,0.7761 4.0251,1.3188 4.1025,1.2061 0.077,-0.1127 0.6775,-2.3976 1.3335,-5.0775 1.8886,-7.7148 5.874,-14.56271 12.4808,-21.44493 5.6463,-5.88164 14.5219,-13.18258 16.0258,-13.18258 0.35,0 -0.3799,1.9125 -1.622,4.25 -1.8299,3.44373 -2.2606,5.86254 -2.2703,12.75 -0.01,7.29991 0.3834,9.30511 2.7883,14.20241 2.6386,5.3733 2.7124,5.8724 1.2786,8.6451 -2.2211,4.2951 -2.9244,10.2416 -1.7251,14.5852 1.0904,3.9492 5.0875,10.54857 6.3961998,10.56047 0.4125,0 0.75,-16.64317 0.75,-36.99317 l 0,-37.00001 -2.8891998,0 c -4.9761,0 -7.0823,-2.68905 -8.1765,-10.43942 -1.1758,-8.32761 -1.9343,-9.59313 -1.9343,-3.22725 0,5.81379 -0.9505,5.90117 -8.1456,0.74884 -5.4251,-3.88484 -13.9075,-8.48391 -21.0825,-11.43068 -2.072,-0.85097 -4.6568,-3.00161 -5.8187,-4.84131 -1.9115,-3.02663 -2.0451,-4.33811 -1.5602,-15.31018 0.2917,-6.6 0.8041,-13.125 1.1387,-14.5 0.6015,-2.47226 0.5453,-2.49614 -5.0602,-2.15174 -6.4707,0.39755 -12.8774,-1.63601 -17.5555,-5.57238 -1.6527,-1.39069 -6.0764,-6.85919 -9.8304,-12.15221 -12.710696,-17.92163 -21.101396,-25.57309 -32.365296,-29.51386 -10.6408,-3.72273 -11.0476,-4.59536 -3.4647,-7.43247 21.0244,-7.86626 52.974496,-3.22411 67.039296,9.7404 4.9759,4.58657 5.7051,4.20317 5.7051,-2.99953 0,-2.15501 0.4796,-3.91821 1.0657,-3.91821 1.546,0 5.1186,1.96329 7.4881,4.11496 2.0312,1.84448 2.0918,1.80796 5.5,-3.31434 4.3409,-6.52405 7.4562,-8.79799 13.0328,-9.51288 3.3723,-0.43231 5.0618,-1.33745 7.1622,-3.83697 4.3195,-5.14039 10.1339998,-7.45077 18.75119986,-7.45077 8.70277994,0 14.68647014,2.41132 18.54852014,7.47472 1.97559,2.59014 3.40628,3.3728 6.88147,3.7645 5.61014,0.63234 9.52109,3.45108 13.59334,9.79714 3.24292,5.05364 3.24854,5.05693 5.36149,3.13626 2.42215,-2.20173 5.98805,-4.17262 7.54944,-4.17262 0.58616,0 1.06574,1.7632 1.06574,3.91821 0,7.15905 0.7354,7.58041 5.52492,3.16558 14.5684,-13.42868 47.481144,-18.08226 67.811034,-9.58789 6.27571,2.62216 5.60263,4.26289 -2.66717,6.50163 -10.7507,2.91035 -21.86615,12.81998 -34.162314,30.45631 -3.61212,5.18084 -7.88599,10.52916 -9.49749,11.88515 -4.59965,3.87035 -11.04478,5.9049 -17.45249,5.50927 l -5.64042,-0.34826 0.79196,5.5 c 0.43558,3.025 0.79197,9.8556 0.79197,15.17911 0,12.06673 -1.01982,13.67417 -11.57458,18.24381 -4.16602,1.80366 -11.0082,5.59637 -15.20484,8.42823 -4.19664,2.83187 -8.10058,5.14885 -8.67542,5.14885 -0.93474,0 -1.44251,-2.21514 -1.3156,-5.73924 0.0246,-0.68158 -0.35456,-0.99252 -0.84246,-0.69098 -0.48791,0.30154 -0.8871,2.11115 -0.8871,4.02136 0,1.9102 -0.64535,5.01763 -1.4341,6.90539 -1.36936,3.27733 -2.37669,3.8678 -8.0659,4.728 -1.9535502,0.29537 -2.0060902,1.17146 -2.2623602,37.72488 l -0.26235,37.42247 2.4560102,-2.3073 c 5.6517,-5.30947 7.43234,-15.51607 4.12962,-23.67087 -1.58614,-3.9163 -1.57238,-4.2632 0.29752,-7.5 4.30818,-7.4573 4.97449,-19.53724 1.53327,-27.79725 -0.77988,-1.87195 -1.21868,-3.60282 -0.97511,-3.84639 0.83437,-0.83438 9.08202,5.51121 14.18203,10.91139 6.74533,7.14233 9.94619,12.37815 12.5752,20.56995 1.19476,3.7227 2.24922,6.8859 2.34324,7.0293 0.094,0.1434 2.09772,-0.4191 4.45267,-1.25 5.59487,-1.974 19.87857,-1.9583 27.57016,0.03 3.27806,0.8475 8.6601,2.8358 11.9601,4.4184 l 6,2.8776 -3.73927,0.082 c -8.93829,0.1949 -20.46516,7.3083 -25.35014,15.6439 -2.43613,4.15687 -2.87212,4.43757 -6.8926,4.43757 -5.50607,0 -13.06778,4.8922 -16.22973,10.5 -4.87101,8.639 -3.61807,8.1633 29.46174,-11.1864 17.4625,-10.21437 31.868414,-18.66957 32.013134,-18.78907 0.14472,-0.1196 -0.42629,-1.8674 -1.2689,-3.884 -1.3462,-3.2219 -1.35623,-4.0066 -0.0827,-6.4693 0.79712,-1.5415 3.28062,-4.0718 5.51889,-5.6229 4.78397,-3.3153 5.27334,-4.2221 1.11925,-2.0739 -1.62269,0.8391 -3.1346,1.5256 -3.35981,1.5256 -0.22521,0 -0.64509,-8.66248 -0.93307,-19.24998 -0.43355,-15.93913 -0.26702,-19.69176 0.9682,-21.81849 2.10917,-3.63146 9.44163,-8.34909 18.77502,-12.07967 4.4,-1.75869 8.13807,-3.29539 8.30682,-3.41488 0.16875,-0.1195 -1.18125,-2.33007 -3,-4.91239 -3.14603,-4.46683 -3.30352,-5.11643 -3.23892,-13.35984 0.0643,-8.20384 0.31724,-9.18312 4.75562,-18.41042 9.54,-19.83349 12.38737,-33.61098 9.33715,-45.17942 -2.4758,-9.38983 -0.51757,-10.03863 7.68158,-2.54507 15.92364,14.55331 26.6276,43.37627 22.59861,60.85216 -0.55563,2.41008 -0.75976,4.63246 -0.45361,4.9386 0.30615,0.30615 2.58555,-0.42909 5.06535,-1.63387 5.36155,-2.60484 6.04245,-1.85875 5.15351,5.64694 l -0.55724,4.705 3.74322,-0.35697 c 6.43015,-0.61321 12.19289,1.58227 16.84109,6.41609 2.52578,2.62665 5.14746,4.41109 6.5,4.42419 3.74961,0.0363 10.16777,3.47811 13.21336,7.08574 6.70282,7.9398 9.17837,18.06758 6.17391,25.25826 -1.17272,2.80673 -1.17272,3.79359 0,6.58269 2.13128,5.06881 1.71108,11.46363 -1.12045,17.05133 -3.14135,6.1992 -3.12318,6.6254 0.31188,7.3124 3.5839,0.7168 8.22541,4.5943 6.40117,5.3475 -0.70782,0.2923 -2.62153,1.6544 -4.25268,3.0269 -3.08826,2.5986 -3.11253,4.3132 -0.0611,4.3132 3.27706,0 13.53983,5.8536 19.36058,11.0428 11.79614,10.51607 21.48622,26.42737 24.29327,39.89007 2.04017,9.7847 1.05839,10.5986 -5.75916,4.7741 -10.3978,-8.8831 -19.32679,-11.8882 -42.53656,-14.316 -8.06505,-0.8436 -16.06753,-2.1204 -17.7833,-2.8373 -4.8668,-2.0335 -10.62107,-7.6317 -12.71879,-12.3739 -1.71112,-3.8682 -2.09628,-4.1821 -3.68101,-3 -0.97346,0.7261 -4.65092,3.5142 -8.17213,6.1957 -3.5212,2.6815 -8.352,5.719 -10.7351,6.75 -7.0965,3.0701 -9.78772,2.5314 -18.69366,-3.742 -4.38539,-3.0892 -11.18919,-7.1065 -15.11955,-8.9274 -7.6038,-3.5229 -9.49476,-5.2246 -7.24428,-6.5193 4.86366,-2.7979 4.5551,-3.5167 -0.6096,-1.42 -7.88922,3.2027 -9.15111,3.1123 -12.86513,-0.9218 l -3.13486,-3.40497 -31.824684,18.54987 c -21.80003,12.7067 -31.40741,18.8144 -30.5,19.3897 0.72858,0.462 3.51378,0.8468 6.18935,0.8552 6.1788,0.02 13.5774,-3.8506 17.11188,-8.9508 2.31009,-3.3335 3.02087,-3.7049 7.29153,-3.8101 9.25697,-0.2279 20.077734,-6.0115 24.910584,-13.3144 1.43771,-2.1725 2.71165,-3.8284 2.83098,-3.6797 0.11933,0.1487 -0.16983,3.767 -0.64257,8.0407 -1.46894,13.2795 -6.16017,24.6208 -13.582724,32.8366 l -3.48529,3.8578 4.13566,4.6984 c 7.345734,8.3452 11.842624,20.4099 13.357454,35.8368 0.48201,4.9088 0.46102,4.9552 -1.1506,2.5413 -3.42576,-5.1309 -6.49919,-8.1666 -10.849524,-10.716 -5.08516,-2.9801 -14.68255,-5.5164 -17.85827,-4.7193 -1.5542,0.3901 -2.59208,-0.2159 -3.91814,-2.2877 -2.55532,-3.9923 -4.64431,-5.8331 -9.33516,-8.2262 -4.19083,-2.138 -12.48382,-2.8204 -14.98636,-1.2332 -0.88243,0.5597 9.00773,6.842 30.5,19.3738 l 31.805884,18.5456 2.8228,-3.3891 c 3.35937,-4.0334 5.13815,-4.1596 13.1772,-0.935 3.3,1.3237 5.15915,1.8755 4.13144,1.2262 -6.66659,-4.2114 -6.80276,-3.8932 4.05228,-9.4691 5.49067,-2.8204 12.82792,-7.2222 16.30501,-9.7819 5.87205,-4.3228 6.66333,-4.6212 11.11813,-4.1931 5.43198,0.5219 13.17492,4.7932 20.83284,11.4922 2.68565,2.3493 5.12684,4.2715 5.42486,4.2715 0.29802,0 1.38785,-1.9125 2.42185,-4.25 2.10187,-4.7515 7.86151,-10.2871 12.88934,-12.3879 1.82666,-0.7632 9.84055,-2.0429 17.80865,-2.8438 22.75006,-2.2867 31.80559,-5.3402 42.33176,-14.274 6.9414,-5.8914 7.99263,-4.9772 5.76918,5.0167 -3.02319,13.5887 -12.63551,29.2748 -24.32547,39.6963 -5.82075,5.1891 -16.08352,11.0427 -19.36058,11.0427 -3.05145,0 -3.02718,1.7146 0.0611,4.3132 1.63115,1.3725 3.54486,2.7346 4.25268,3.0269 1.82424,0.7533 -2.81727,4.6308 -6.40117,5.3475 -3.438,0.6876 -3.45992,1.1867 -0.31188,7.1003 2.83706,5.3294 3.29015,12.1033 1.15,17.1932 -1.14457,2.7221 -1.13045,3.8428 0.0928,7.3648 2.1177,6.0974 1.16381,12.5042 -2.87541,19.3123 -4.02427,6.7829 -9.85672,11.2624 -15.68121,12.0437 -3.18281,0.4269 -4.74276,1.3391 -6.71751,3.9281 -3.45838,4.5342 -7.27633,6.3339 -14.95838,7.0513 l -6.43335,0.6007 0.58985,4.3035 c 0.96436,7.0357 0.20495,7.812 -5.11417,5.2278 -2.4798,-1.2048 -4.7201,-1.9791 -4.97844,-1.7208 -0.25835,0.2584 0.0434,3.4652 0.6705,7.1263 2.22118,12.9672 -2.83528,31.2058 -12.87575,46.4427 -5.7308,8.6967 -14.688,17.6163 -17.20404,17.1317 -1.8394,-0.3542 -1.82383,0.4052 -0.18782,-9.159 2.26211,-13.2244 0.42736,-20.6843 -12.33037,-50.1342 -4.22751,-9.7587 -3.39364,-19.4983 2.27311,-26.5498 l 2.95113,-3.6723 -4.18546,-1.2493 c -8.18172,-2.4422 -18.41928,-7.9916 -21.94745,-11.8968 l -3.52527,-3.9021 0.52442,-19.3648 c 0.28843,-10.6507 0.64874,-19.5106 0.8007,-19.6886 0.15195,-0.1781 1.7806,0.4062 3.61921,1.2984 l 3.34293,1.6222 -2.5,-1.9565 c -8.30232,-6.4976 -9.23975,-8.2094 -7.38082,-13.4782 0.7712,-2.1858 1.28487,-4.085 1.1415,-4.2204 -0.14338,-0.1355 -13.326404,-7.8665 -29.295624,-17.1801 -15.96921,-9.3135 -30.25671,-17.7343 -31.75,-18.7127 -2.61889,-1.716 -2.71448,-1.7129 -2.69861,0.086 0.0292,3.3116 4.38907,9.7035 8.67172,12.7134 2.79495,1.9644 5.81939,3.09 9.16666,3.4117 4.71283,0.4528 5.16655,0.7552 8.0196,5.3448 4.86951,7.8334 16.27829,14.617 25.12557,14.9395 3.45767,0.126 3.42636,0.162 -2.58936,2.9726 -12.57359,5.8745 -28.36541,7.7067 -38.95505,4.5197 -2.67425,-0.8049 -4.91789,-1.3674 -4.98587,-1.25 -0.068,0.1173 -1.11887,3.3132 -2.33532,7.1021 -1.21646,3.7888 -3.79938,9.2807 -5.73985,12.2041 -4.86477,7.3291 -19.44198,20.693 -20.93888,19.1961 -0.26506,-0.2651 0.28571,-2.2385 1.22392,-4.3855 1.14605,-2.6225 1.70574,-6.5605 1.70553,-12.0001 -2.7e-4,-6.7657 -0.44394,-9.0033 -2.69908,-13.6127 -2.62795,-5.3713 -2.65621,-5.6179 -1.07701,-9.3974 3.23607,-7.745 1.62526,-17.8786 -3.64452,-22.9273 l -2.9892502,-2.8639 0.26237,37.4322 0.26237,37.4322 3.8179102,0.6204 c 5.14089,0.8353 6.6192,2.5864 7.34305,8.6982 0.57156,4.826 2.33904,6.455 2.33904,2.1559 0,-2.779 1.97893,-2.4076 6.97415,1.309 2.40249,1.7875 9.35364,5.7334 15.44701,8.7686 14.39143,7.1688 14.9437,8.0851 14.15299,23.4814 -0.3107,6.05 -0.82731,12.35 -1.14801,14 l -0.58308,3 5.9515,-0.3324 c 11.28253,-0.6302 17.67316,3.7242 28.06325,19.1217 10.501104,15.5619 22.667554,26.1228 33.205934,28.8237 8.68234,2.2252 8.56319,4.2815 -0.42316,7.3034 -20.70704,6.9633 -51.483614,2.0654 -64.935514,-10.3342 -4.97589,-4.5865 -5.70511,-4.2031 -5.70511,2.9996 0,2.155 -0.47958,3.9182 -1.06574,3.9182 -1.57269,0 -5.13371,-1.9765 -7.59542,-4.2158 l -2.16115,-1.9659 -3.61527,5.6516 c -3.78796,5.9215 -9.26059,9.4628 -14.69373,9.5082 -1.80178,0.015 -3.44829,1.093 -5.22281,3.4195 -3.96835,5.2028 -9.8754202,7.6026 -18.71160014,7.6016 -5.55419006,-6e-4 -8.51478006,-0.5356 -11.70677986,-2.1156 z m -81.8504,-24.3936 c 7.4519,-1.941 19.4139,-7.4735 27.3978,-12.6718 5.2927,-3.446 6.1686,-4.4169 5.5957,-6.2019 -1.5542,-4.8415 -2.3243,-9.3918 -2.3467,-13.8663 -0.026,-5.2161 -0.4246,-5.4451 -5.664,-3.2559 -6.9503,2.904 -12.8216,8.1652 -16.9001,15.1438 -2.1779,3.7265 -6.7902,10.2825 -10.2496,14.5688 -3.4594,4.2863 -5.691396,7.7933 -4.960096,7.7933 0.731296,0 3.938496,-0.6795 7.126996,-1.51 z m 189.08279,-6.5397 c -3.57438,-4.4273 -7.86222,-10.4654 -9.52853,-13.4179 -3.73183,-6.6125 -10.50684,-12.9928 -16.54457,-15.5809 -2.50393,-1.0733 -4.90067,-1.9515 -5.3261,-1.9515 -0.42542,0 -1.05889,3.0707 -1.4077,6.8239 -0.34881,3.7531 -1.15899,8.3292 -1.80038,10.1691 -1.08586,3.1149 -0.97423,3.4983 1.62106,5.5677 7.57617,6.041 30.92456,16.1741 37.755714,16.3857 1.22148,0.038 -0.17927,-2.3105 -4.769494,-7.9961 z m -107.67069,-14.4817 c -0.1591,-0.1521 -4.1142,1.0206 -8.7892,2.6061 -4.675,1.5855 -9.6025,2.8923 -10.95,2.904 -1.9223,0.017 -2.1883,0.283 -1.2351,1.2362 0.7684,0.7684 4.1362,1.1785 9.1627,1.1158 l 7.9478,-0.099 1.7873,5.6342 1.7873,5.6343 0.2892,-9.3774 c 0.1591,-5.1576 0.1591,-9.5019 0,-9.654 z m 26.68812,12.9642 1.7511,-5.5672 5.13579,0.1525 c 8.82418,0.2619 11.63579,0.016 11.63579,-1.0181 0,-0.55 -0.72112,-1 -1.6025,-1 -0.88137,0 -5.63197,-1.35 -10.55689,-3 -4.92492,-1.65 -9.0413,-3.001 -9.14751,-3.0022 -0.1062,-10e-4 -0.0497,4.2737 0.12552,9.5 0.17524,5.2262 0.45114,9.5022 0.61311,9.5022 0.16197,0 1.08249,-2.5052 2.04559,-5.5672 z m -153.868016,-44.9328 c 3.7289,-6.7088 3.8907,-7.3812 3.8907,-16.1667 0,-5.0416 -0.292,-9.4586 -0.6488,-9.8154 -0.3569,-0.3569 -3.3097,0.6943 -6.5618,2.336 -3.2521,1.6417 -7.5768,3.297 -9.6105,3.6785 -4.762,0.8934 -5.119,2.3461 -4.3841,17.8437 0.5336,11.2522 1.8777,18.7227 4.6994,26.1189 1.1243,2.9471 1.2032,2.8351 4.9335,-7 2.085,-5.4972 5.5417,-13.145 7.6816,-16.995 z m 293.45873,16.9638 c 1.57907,-6.001 2.13701,-11.3776 2.26376,-21.8151 l 0.16821,-13.8514 -5.5,-1.7678 c -3.025,-0.9724 -7.58864,-2.6898 -10.14142,-3.8166 l -4.64141,-2.0487 -0.60859,3.0429 c -1.76149,8.8074 0.0819,18.0781 5.20139,26.1583 1.47952,2.3352 4.26503,8.5812 6.19003,13.8801 1.925,5.2989 3.83131,9.3076 4.23624,8.9082 0.40493,-0.3994 1.67924,-4.3099 2.83179,-8.6899 z m -172.489134,4.1517 c 2.7933,-1.3007 6.0243,-3.5668 7.1798,-5.0359 1.9642998,-2.4972 2.0041998,-2.9027 0.6135,-6.2312 -3.0763,-7.3626 -3.3912,-7.6231 -10.81,-8.9416 l -3.9379,-0.6998 2.1879,2.7813 c 2.1445,2.7264 2.8771,7.9336 1.4225,10.112 -1.3996,2.0962 -5.1245,3.3997 -9.7144,3.3997 -3.5625,0 -5.1694,-0.5582 -7.0658,-2.4545 -2.8271,-2.8271 -3.0463,-4.8871 -0.9483,-8.9098 1.932,-3.7045 1.9689,-3.6323 -1.3668,-2.6757 -4.4601,1.2792 -7.0001,2.8977 -8.7583,5.5811 -1.3661,2.085 -1.4236,2.9422 -0.3679,5.4908 3.6568,8.8284 20.3035,12.8278 31.5657,7.5836 z m 56.32603,1.4118 c 4.89009,-1.4025 9.78074,-5.0347 11.78459,-8.7523 1.67956,-3.1159 1.6684,-3.3188 -0.32976,-6 -1.13746,-1.5262 -4.21132,-3.5741 -6.83079,-4.5507 -4.56217,-1.701 -4.73233,-1.701 -4.04168,0 3.92747,9.6727 1.47064,13.2757 -9.05239,13.2757 -7.88283,0 -11.22476,-7.1835 -6.27146,-13.4806 l 2.16344,-2.7504 -4.41344,0.7316 c -6.28673,1.0422 -7.21637,1.7411 -9.87937,7.4267 l -2.3781902,5.0775 2.4220602,2.6299 c 5.67874,6.1662 17.66086,9.0214 26.82699,6.3926 z m -49.82503,-31.0841 c 1.9327998,-1.3763 5.1480998,-2.2463 9.7176098,-2.6294 6.85646,-0.5748 7.3963,-0.4363 17.5841402,4.5124 0.48491,0.2355 -0.34849,-1.8319 -1.852,-4.5944 -3.03951,-5.5846 -4.5625502,-6.242 -14.40465014,-6.2181 -8.55720006,0.021 -9.93959986,0.6869 -12.69059986,6.1157 -2.7504,5.4278 -2.5374,5.7922 1.6455,2.8138 z m 27.7201,-18.1432 c 2.91969,-2.9197 1.05202,-3.3 -16.20603014,-3.3 -11.31026986,0 -17.20806986,0.3502 -16.84356986,1 1.8747,3.3419 2.6504,3.5 17.17203986,3.5 10.08255014,0 15.05324014,-0.3757 15.87756014,-1.2 z m -154.134496,-14.3746 c 2.25,-2.25 2.5147,-3.1984 2.0992,-7.522 -0.2614,-2.721 -0.747,-5.219 -1.0789,-5.5509 -0.332,-0.332 -1.7871,0.8029 -3.2336,2.5219 -4.2325,5.0301 -10.5388,3.7265 -13.9579,-2.8854 -3.5875,-6.9376 -1.1676,-12.0878 6.0752,-12.9292 l 4.8182,-0.5598 -3.2975,-3.75 c -2.732,-3.107 -3.9543,-3.75 -7.1287,-3.75 -6.6263,0 -8.6586,1.3392 -9.7422,6.4199 -2.6255,12.3102 5.461,25.9459 17.5447,29.5844 4.3556,1.3115 5.1748,1.1478 7.9015,-1.5789 z m 290.1136,-1.1029 c 2.6331,-1.502 5.71037,-4.5966 8,-8.045 3.54434,-5.3381 3.7209,-5.9973 3.7209,-13.8908 0,-5.168 -0.45719,-8.7439 -1.21481,-9.5015 -0.66814,-0.6681 -3.61659,-1.414 -6.55209,-1.6574 -5.16023,-0.4279 -5.4498,-0.3147 -8.72902,3.4148 l -3.39173,3.8574 4.81814,0.5598 c 7.59329,0.8822 9.85924,6.4993 5.48013,13.5848 -3.88576,6.2873 -9.2022,7.1745 -13.36282,2.2298 -1.4465,-1.719 -2.88927,-2.8663 -3.20617,-2.5494 -1.23491,1.235 -1.51258,9.4871 -0.38981,11.585 2.43079,4.5419 7.34823,4.6788 14.82728,0.4125 z m -324.7343,-4.6658 c -0.9977,-3.4889 -2.137,-8.6919 -2.5318,-11.5623 -0.6542,-4.7567 -0.8638,-5.0885 -2.3654,-3.7458 -0.9062,0.8102 -5.0226,3.3069 -9.1476,5.5482 -8.2365,4.4752 -8.2139,4.7106 0.2602,2.7165 l 5.7603,-1.3555 1.8316,4.1211 c 1.5874,3.5717 6.6756,10.6211 7.6662,10.6211 0.1873,0 -0.4758,-2.8545 -1.4735,-6.3433 z m 351.54163,-3.2438 2.543,-5.1977 5.18528,1.3805 c 8.04866,2.1429 8.72808,1.5879 2.18529,-1.7851 -3.3,-1.7012 -7.41849,-4.1744 -9.15221,-5.496 l -3.15221,-2.4028 -1.23027,7.2939 c -0.67665,4.0116 -1.84565,9.038 -2.59779,11.1698 -1.83335,5.1963 -1.76623,5.3477 1.1542,2.6041 1.38694,-1.303 3.66606,-4.708 5.06471,-7.5667 z m -367.88243,-32.4129 c 0.7128,0 1.296,-0.45 1.296,-1 0,-0.55 -0.4486,-1 -0.997,-1 -0.5483,0 -4.3733,-3.2072 -8.5,-7.1271 -8.6854,-8.2503 -10.0676,-7.1509 -3.5968,2.8607 l 3.9062,6.0437 -3.9062,3.8143 c -2.1484,2.0979 -3.9062,4.1467 -3.9062,4.5529 0,0.4063 3.2418,-1.26 7.204,-3.7029 3.9622,-2.4429 7.7872,-4.4416 8.5,-4.4416 z m 390.53188,3.729 -4.13938,-4.229 1.98576,-2.5 c 2.81197,-3.5401 5.91774,-9.6214 5.91774,-11.5873 0,-1.0708 -2.68333,0.882 -7.50301,5.4602 -4.12666,3.9199 -7.95166,7.1271 -8.5,7.1271 -2.16769,0 -0.81988,1.6626 2.25301,2.7792 1.7875,0.6495 5.5,2.7139 8.25,4.5875 2.75,1.8735 5.19693,3.2231 5.43763,2.9989 0.2407,-0.2241 -1.42509,-2.3106 -3.70175,-4.6366 z m -339.24038,-5.1772 2.4954,-4.6116 -3.3604,-6.4814 c -5.5153,-10.6374 -6.4258,-11.4588 -12.7031,-11.4588 -6.0024,0 -6.9605,1.1223 -2.5262,2.9591 6.095,2.5246 12.0988,12.619 12.0988,20.342 0,5.6233 0.6088,5.5091 3.9955,-0.7493 z m 284.29428,-11.7906 c 2.44536,-3.8227 5.03781,-6.4312 7.92248,-7.9716 l 4.28774,-2.2896 -5.99843,-0.3073 c -5.54751,-0.2842 -6.167,-0.096 -8.24084,2.5 -2.79062,3.4936 -8.26073,13.6531 -8.26073,15.3424 0,0.6904 1.2375,3.218 2.75,5.617 l 2.75,4.3618 0.57752,-5.7854 c 0.42986,-4.3061 1.50686,-7.2381 4.21226,-11.4673 z m -267.28978,6.2978 c 0,-0.5175 -0.4601,-1.2253 -1.0224,-1.5728 -0.5623,-0.3475 -2.3569,-3.2755 -3.9879,-6.5067 -1.6311,-3.2311 -4.771,-8.6681 -6.9777,-12.0821 -2.2066,-3.4141 -4.012,-7.0928 -4.012,-8.1749 0,-1.6354 -0.2531,-1.7573 -1.5,-0.7225 -0.825,0.6847 -1.5,1.8851 -1.5,2.6675 0,0.7824 3.4209,7.2523 7.602,14.3776 5.5077,9.386 8.1249,12.9549 9.5,12.9549 1.0439,0 1.898,-0.4234 1.898,-0.941 z m 253.56276,-12.059 c 4.04524,-6.875 7.37349,-13.2324 7.39611,-14.1275 0.0226,-0.8952 -0.63387,-2.1878 -1.45887,-2.8725 -1.25522,-1.0417 -1.5,-0.8896 -1.5,0.9324 0,1.1976 -1.73841,4.7402 -3.86314,7.8725 -2.12473,3.1323 -5.26466,8.4748 -6.97762,11.8723 -1.71297,3.3974 -3.57455,6.4615 -4.13686,6.809 -1.80699,1.1168 -1.09021,2.6632 1.08151,2.3334 1.5004,-0.2279 4.21364,-3.9052 9.45887,-12.8196 z m -300.56906,6.85 c 3.4536,-4.7676 3.626,-6.2606 1.3733,-11.8907 l -1.6329,-4.0812 -1.8024,4.0257 c -4.0571,9.0618 -15.2074,5.2348 -16.6093,-5.7006 -0.6329,-4.9369 1.2253,-7.1987 6.4946,-7.9055 4.1499,-0.5566 4.2062,-0.6145 2.4673,-2.536 -2.5533,-2.8214 -6.7132,-4.7617 -10.209,-4.7617 -2.3934,0 -3.3813,0.6777 -4.7377,3.25 -5.1619,9.7893 1.7706,26.5646 13.1624,31.8502 6.1307,2.8445 8.0795,2.463 11.4937,-2.2502 z m 346.78842,2.5993 c 8.79686,-3.669 15.19111,-13.6543 15.20811,-23.7489 0.013,-7.7377 -2.04124,-11.7004 -6.06557,-11.7004 -3.49571,0 -7.65565,1.9403 -10.20897,4.7617 -1.73894,1.9215 -1.68257,1.9794 2.46727,2.536 5.26939,0.7068 7.12753,2.9686 6.49464,7.9055 -1.38039,10.7679 -12.15562,14.5299 -16.78876,5.8616 l -1.8361,-3.4352 -1.52637,3.6531 c -2.09098,5.0044 -1.94693,6.3419 1.22363,11.3607 3.07381,4.8656 4.94984,5.3428 11.03212,2.8059 z m -393.26802,-32.8305 c 0.8581,-1.3096 4.2435,-4.2633 7.523,-6.5638 3.2796,-2.3005 5.9629,-4.5277 5.9629,-4.9493 0,-1.2455 -8.1537,-6.6322 -12.7702,-8.4366 -2.579,-1.008 -7.1338,-1.6714 -11.5,-1.675 -3.9764,0 -11.6921,-0.6784 -17.146,-1.5005 -5.4539,-0.822 -10.1496,-1.2611 -10.435,-0.9757 -0.7177,0.7177 6.3026,7.7934 12.4499,12.5481 4.8675,3.7649 22.1023,13.9269 23.6282,13.9317 0.3999,10e-4 1.4291,-1.0692 2.2872,-2.3789 z m 441.02786,-2.7541 c 12.73605,-7.3011 27.98153,-19.6745 26.30586,-21.3502 -0.28351,-0.2835 -4.97775,0.1571 -10.43165,0.9791 -5.45389,0.8221 -13.29117,1.5017 -17.41617,1.5103 -5.86675,0.012 -8.66261,0.5569 -12.8388,2.501 -6.03078,2.8075 -11.1612,6.2302 -11.1612,7.446 0,0.4481 2.8125,2.8814 6.25,5.4073 3.4375,2.526 6.81631,5.5037 7.50847,6.6173 0.69216,1.1135 1.61105,2.0245 2.04197,2.0245 0.43092,0 4.8146,-2.3109 9.74152,-5.1353 z m -240.299364,-16.8647 c 9.2101798,-2.5523 18.3510298,-2.5394 27.65526,0.039 4.04671,1.1214 7.43127,1.9089 7.52126,1.75 0.09,-0.1589 0.96261,-3.4008 1.93918,-7.2042 2.43429,-9.4809 5.56539,-15.2645 11.87727,-21.9393 l 5.36167,-5.6698 -5.31917,-5.7378 c -6.25468,-6.7469 -9.48002,-12.7746 -11.93502,-22.3046 -0.98232,-3.8133 -2.30478,-6.9332 -2.93881,-6.9332 -0.63403,0 -3.12186,0.6963 -5.52851,1.5474 -9.3417802,3.3036 -20.2680902,2.9525 -34.49883,-1.1084 -1.8208,-0.5196 -2.2222,-0.077 -2.82,3.1093 -1.7994,9.592 -5.7296,17.3947 -12.3788,24.5765 l -6.5859,7.1134 3.4539,3.1678 c 6.3894,5.8601 10.2151,11.6846 13.0795,19.9133 1.5662,4.4994 2.8537,8.9682 2.861,9.9307 0.016,2.15 -0.4563,2.1643 8.256,-0.25 z m -232.129096,-62.0295 c 2.9626,-0.5663 11.0118,-1.3999 17.8873,-1.8526 9.9281,-0.6536 13.4203,-1.2921 16.9693,-3.1026 5.2799,-2.6936 10.0299,-6.0823 10.0299,-7.1553 0,-0.4201 -2.023,-2.1558 -4.4955,-3.8569 -2.4726,-1.7012 -6.0326,-4.6756 -7.9112,-6.6099 l -3.4155,-3.51697 -5.3389,2.6912 c -8.9683,4.52067 -18.8702,11.32087 -25.0039,17.17137 -7.959,7.5916 -7.8789,7.982 1.2785,6.2317 z m 498.8865,0.1817 c 0,-0.4662 -2.62576,-3.3523 -5.83502,-6.4134 -6.13366,-5.8505 -16.03561,-12.6507 -25.00386,-17.17137 l -5.33888,-2.6912 -3.41558,3.51697 c -1.87858,1.9343 -5.43858,4.9087 -7.91112,6.6099 -2.47255,1.7011 -4.49554,3.4368 -4.49554,3.8569 0,1.073 4.74998,4.4617 10.02992,7.1553 3.54044,1.8062 7.06496,2.4538 16.96932,3.118 6.87542,0.461 14.52576,1.2454 17.00076,1.7429 6.06027,1.2184 8,1.2853 8,0.276 z m -435.198,-22.5498 c 1.4865,-0.7687 3.5035,-2.28247 4.4823,-3.36407 1.7389,-1.9215 1.6826,-1.9794 -2.4673,-2.536 -5.2693,-0.7068 -7.1275,-2.9686 -6.4946,-7.9055 1.38,-10.7648 12.5062,-14.6109 16.8971,-5.841 l 1.7195,3.4344 1.5305,-3.663 c 2.0954,-5.0149 1.9522,-6.3499 -1.2195,-11.3705 -3.1517,-4.9889 -5.317,-5.4416 -11.75,-2.4568 -11.4073,5.2927 -18.2564,21.9354 -13.1172,31.8735 1.3219,2.55627 2.2968,3.22657 4.6925,3.22657 1.6632,0 4.2402,-0.6289 5.7267,-1.3976 z m 374.67232,-1.55267 c 0.85801,-1.6592 1.5214,-5.4884 1.51591,-8.75 -0.017,-10.0947 -6.41125,-20.0799 -15.20811,-23.749 -6.08228,-2.5369 -7.95831,-2.0597 -11.03212,2.806 -3.17171,5.0206 -3.31489,6.3556 -1.21951,11.3705 l 1.53049,3.663 1.71951,-3.4344 c 4.3909,-8.7699 15.51711,-4.9238 16.89711,5.841 0.63342,4.941 -1.22459,7.1986 -6.50764,7.9072 l -4.25987,0.5714 2.29496,2.4717 c 2.79676,3.01207 5.28286,4.10617 9.51927,4.18947 2.59079,0.051 3.52409,-0.5163 4.75,-2.88687 z m -325.02152,-15.8954 c 2.3587,-3.6599 5.4632,-8.9849 6.8989,-11.8335 1.4356,-2.8486 3.0688,-5.4627 3.6293,-5.809 1.6732,-1.0342 1.1561,-2.5118 -0.879,-2.5118 -1.3751,0 -3.9923,3.5689 -9.5,12.955 -4.1811,7.1252 -7.602,13.5602 -7.602,14.3 0,0.7397 0.5625,1.9132 1.25,2.6077 1.0043,1.0145 1.3153,0.8384 1.5821,-0.8957 0.1826,-1.1871 2.2619,-5.1529 4.6207,-8.8127 z m 272.5472,7.2028 c 0,-0.769 -3.32954,-7.1264 -7.39898,-14.1276 -5.30321,-9.1238 -7.99409,-12.82 -9.5,-13.049 -2.1694,-0.33 -2.88461,1.2172 -1.07864,2.3333 0.56231,0.3476 2.35689,3.2756 3.98795,6.5067 1.63107,3.2311 4.771,8.6681 6.97763,12.0822 2.20662,3.4141 4.01204,7.0927 4.01204,8.1748 0,1.6354 0.25311,1.7573 1.5,0.7225 0.825,-0.6847 1.5,-1.874 1.5,-2.6429 z m -284.1876,-11.8457 c 1.0767,-1.3688 3.4698,-5.4053 5.3181,-8.9701 l 3.3604,-6.4814 -2.4954,-4.61166 c -3.3636,-6.21589 -3.9955,-6.36889 -3.9955,-0.96741 0,7.38277 -6.2702,18.14587 -11.9391,20.49397 -4.5869,1.8999 -3.7066,3.0252 2.3665,3.0252 4.5916,0 5.7289,-0.3832 7.385,-2.4886 z m 302.1876,2.0089 c 0,-0.2638 -1.81698,-1.4066 -4.03774,-2.5395 -5.88698,-3.0034 -11.13122,-11.5869 -11.88474,-19.45238 l -0.57752,-6.02841 -2.75,4.67807 c -1.5125,2.57292 -2.75,5.23562 -2.75,5.91692 0,1.5322 6.6286,13.7652 8.75378,16.155 1.14676,1.2896 3.09403,1.75 7.40121,1.75 3.21475,0 5.84501,-0.2158 5.84501,-0.4797 z m -346.997,-21.52029 c 0.5484,0 0.997,-0.45 0.997,-1 0,-0.55 -0.5832,-1 -1.296,-1 -0.7128,0 -4.5378,-1.99871 -8.5,-4.44157 -3.9622,-2.44287 -7.204,-4.10919 -7.204,-3.70295 0,0.40624 1.7907,2.48718 3.9793,4.62431 l 3.9793,3.88569 -2.3311,3.06731 c -3.1069,4.0881 -5.6275,9.0798 -5.6275,11.1447 0,1.0848 2.6491,-0.8396 7.503,-5.4504 4.1267,-3.9199 7.9517,-7.12709 8.5,-7.12709 z m 393.997,12.15509 c 0,-1.0148 -1.7578,-4.5647 -3.90621,-7.8887 l -3.90621,-6.04366 3.90621,-3.81431 c 2.14841,-2.09787 3.90621,-4.1467 3.90621,-4.55294 0,-0.40624 -3.24181,1.26008 -7.20402,3.70295 -3.9622,2.44286 -7.7872,4.44157 -8.5,4.44157 -2.13463,0 -1.47335,1.46255 1.45402,3.21589 1.5125,0.9059 5.20963,4.1529 8.21584,7.2156 3.00621,3.0627 5.59371,5.5685 5.75,5.5685 0.15629,0 0.28416,-0.8302 0.28416,-1.8449 z m -352.2976,-24.35126 c 1.8137,-1.75789 3.2976,-3.55789 3.2976,-4 0,-0.44211 -1.8,-0.80383 -4,-0.80383 -7.4836,0 -10.3104,-6.52568 -5.9106,-13.64462 3.8857,-6.28729 9.2022,-7.17443 13.3628,-2.22981 1.4465,1.71906 2.9016,2.85395 3.2336,2.52198 0.3319,-0.33196 0.8175,-2.8299 1.0789,-5.55096 0.4183,-4.35285 0.1572,-5.26558 -2.1725,-7.59532 -2.1782,-2.1782 -3.2196,-2.53186 -5.8701,-1.9936 -12.7583,2.59092 -22.5112,17.67692 -19.4303,30.05546 1.3021,5.23177 2.68,6.13564 9.6606,6.33719 2.6088,0.0753 4.2582,-0.68131 6.75,-3.09649 z m 309.69005,1.20372 c 0.63186,-0.63186 1.10755,-4.66666 1.10755,-9.39426 0,-7.89349 -0.17656,-8.55263 -3.7209,-13.89079 -3.86947,-5.82783 -9.60142,-9.96849 -15.50122,-11.19779 -2.66128,-0.55452 -3.68302,-0.21048 -5.87006,1.97656 -2.32974,2.32974 -2.59081,3.24247 -2.17256,7.59532 0.26146,2.72106 0.74699,5.219 1.07896,5.55096 0.33197,0.33197 1.78708,-0.80292 3.23358,-2.52198 4.16062,-4.94462 9.47706,-4.05748 13.36282,2.22981 4.36625,7.06474 1.42503,13.64462 -6.09918,13.64462 -2.09629,0 -3.81144,0.31608 -3.81144,0.70239 0,0.38632 1.4625,2.229 3.25,4.09486 3.09024,3.2257 3.51508,3.36605 8.64245,2.85516 2.96585,-0.29552 5.89085,-1.03571 6.5,-1.64486 z m -334.48735,-29.90639 1.0407,-3.39883 -2.4946,2.34355 c -1.3721,1.28895 -3.6498,4.70461 -5.0617,7.59035 -2.249,4.59693 -2.8347,5.14815 -4.7282,4.45039 -1.1887,-0.43802 -4.1863,-1.0893 -6.6613,-1.44729 l -4.5,-0.65088 6.1194,3.32722 c 3.3656,1.82997 7.4156,4.27283 9,5.42858 l 2.8806,2.10138 1.6822,-8.17282 c 0.9252,-4.49504 2.1505,-9.70229 2.7229,-11.57165 z m 359.26599,12.84158 c 7.77911,-4.12909 7.55979,-4.7792 -0.85638,-2.53845 l -5.18528,1.38054 -2.543,-5.1977 c -1.39865,-2.85873 -3.66078,-6.2478 -5.02695,-7.53125 l -2.48395,-2.33355 1.87845,6.88883 c 1.03315,3.78886 2.17464,9.06578 2.53665,11.72648 0.62958,4.62726 0.73851,4.76496 2.50487,3.16643 1.01567,-0.91917 5.14469,-3.42177 9.17559,-5.56133 z M 17.068206,903.81214 c 0.002,-2.92224 -2.68085,-3.45 -17.53871014,-3.45 -14.72961986,0 -15.16721986,0.0609 -16.16531986,2.25 l -1.0258,2.25 17.36451986,0 c 11.46047014,0 17.36481014,-0.35701 17.36531014,-1.05 z m -152.337926,-15.7721 c -0.4357,-5.33666 -1.3611,-8.27615 -4.2499,-13.5 -2.031,-3.67285 -5.3987,-11.17564 -7.4837,-16.67289 -3.7303,-9.83506 -3.8092,-9.94706 -4.9335,-7 -2.7609,7.237 -4.1206,14.81637 -4.6821,26.0989 -0.7605,15.28509 -0.37,16.97504 4.1172,17.81684 1.8963,0.35576 6.288,1.93943 9.7593,3.51928 l 6.3114,2.87244 0.8592,-3.15623 c 0.4725,-1.73593 0.6085,-6.22619 0.3021,-9.97834 z m 287.06054,6.947 c 4.01089,-1.01326 4.25527,-1.28947 4.89083,-5.5277 1.43364,-9.56013 -0.85942,-28.76922 -4.60687,-38.59219 -1.1243,-2.94706 -1.20324,-2.83506 -4.93349,7 -2.085,5.49725 -5.45971,13.01282 -7.49935,16.70128 -4.03217,7.29171 -5.33286,14.24066 -4.14643,22.15236 l 0.68485,4.56687 5.69431,-2.61703 c 3.13187,-1.43938 7.59414,-3.09699 9.91615,-3.68359 z M 7.9957158,891.72679 c 2.5365402,-0.50731 3.6735302,-1.61571 5.6418502,-5.5 1.3558,-2.67556 2.25824,-4.86465 2.00542,-4.86465 -0.25283,0 -2.12587,0.98307 -4.16231,2.1846 -5.4233302,3.19984 -18.6278002,3.22184 -23.0984,0.0385 -1.7171,-1.2227 -3.3976,-2.22308 -3.7345,-2.22308 -1.3806,0 4.5141,9.88061 6.1486998,10.30634 2.7782,0.7236 13.68789,0.76058 17.19924,0.0583 z M -18.171224,873.3758 c 2.7175,-0.0164 4.7741,-2.25666 7.3468,-8.00313 l 1.9220998,-4.29294 -3.8328998,-3.64615 c -4.5389,-4.31774 -9.723,-6.07144 -17.9476,-6.07144 -11.1093,0 -22.2457,8.32064 -19.4243,14.51296 1.3367,2.93373 4.7524,5.2523 8.9846,6.09873 l 3.2039,0.64079 -1.5001,-2.87624 c -2.1219,-4.06881 -1.8849,-6.09453 1.0574,-9.03684 2.3227,-2.32269 3.1526,-2.52753 8.6344,-2.13102 4.4165,0.31946 6.4358,0.94622 7.4303,2.30628 2.0405,2.79058 1.6544,7.84843 -0.8413,11.02121 l -2.2069,2.80559 2.4569,-0.65707 c 1.3513,-0.3614 3.4738,-0.66322 4.7167,-0.67073 z m 41.32907,-1.76366 c -4.89718,-6.83269 -1.82363,-13.25 6.34603,-13.25 9.37032,0 12.96826,3.70601 10.14888,10.45372 -0.87108,2.08479 -1.58378,3.94061 -1.58378,4.12405 0,0.63328 8.33145,-2.60796 9.76784,-3.80006 2.70846,-2.24782 3.37072,-5.73457 1.64431,-8.65714 -6.6297,-11.22318 -28.69718,-12.21794 -38.3588,-1.72913 l -2.4466602,2.65612 2.6736102,5.45138 c 1.81586,3.70247 3.40285,5.60728 4.94665,5.93729 9.22351,1.97168 9.13611,1.98679 6.86192,-1.18623 z m -85.93777,-19.83053 c 0.3582,-3.80571 1.1757,-8.26535 1.8169,-9.91032 1.066,-2.73532 0.9312,-3.17778 -1.5781,-5.17862 -4.5794,-3.65151 -21.4626,-12.01362 -28.7452,-14.23731 -11.324696,-3.45789 -11.570596,-3.14183 -4.4345,5.70007 3.4594,4.28631 8.0717,10.84228 10.2496,14.56883 2.5288,4.32695 5.6484,8.0151 8.6323,10.20552 5.0597,3.71412 10.8096,6.5226 12.4079,6.06045 0.55,-0.15903 1.293,-3.40291 1.6512,-7.20862 z m 133.20367,5.01308 c 6.47993,-3.23347 12.14519,-8.6319 15.14591,-14.43255 1.28033,-2.475 5.50126,-8.4375 9.37984,-13.25 5.377474,-6.67231 6.610094,-8.75 5.191064,-8.75 -3.284754,0 -15.365394,4.10143 -22.344244,7.58596 -7.07489,3.53248 -17.72734,10.054 -17.72734,10.85283 0,0.255 0.675,3.05513 1.5,6.22252 0.825,3.16739 1.5,7.68934 1.5,10.04879 0,2.46449 0.47009,4.2899 1.10477,4.2899 0.60763,0 3.42013,-1.15535 6.25,-2.56745 z m -82.35477,-22.93255 c 0,-5.225 -0.202,-9.5 -0.4489,-9.5 -0.2469,0 -1.2103,2.41536 -2.1408,5.36747 l -1.692,5.36746 -7.679,-0.0378 c -10.6422,-0.0524 -11.9085,1.18209 -3.4248,3.33877 3.787,0.96272 8.4605,2.43677 10.3855,3.27568 1.925,0.8389 3.8375,1.56198 4.25,1.60685 0.4125,0.0449 0.75,-4.19343 0.75,-9.41843 z m 32.84061,6.5 c 4.92492,-1.65 9.67552,-3 10.55689,-3 0.88138,0 1.6025,-0.45 1.6025,-1 0,-1.12166 -3.99832,-1.50389 -11.63313,-1.1121 l -5.13313,0.26342 -1.86687,-5.82566 c -1.60308,-5.00248 -1.89853,-5.40175 -2.0909,-2.82566 -0.38435,5.1468 -0.78551,16.5043 -0.58287,16.5021 0.10621,-10e-4 4.22259,-1.3521 9.14751,-3.0021 z"
       id="path8750"
       inkscape:connector-curvature="0" />
  </g>
</svg>
