999
DXF created by Inkscape
  0
SECTION
  2
HEADER
  9
$ACADVER
  1
AC1014
  9
$HANDSEED
  5
FFFF
  9
$MEASUREMENT
 70
     1
  0
ENDSEC
  0
SECTION
  2
TABLES
  0
TABLE
  2
VPORT
  5
8
330
0
100
AcDbSymbolTable
 70
     4
  0
VPORT
  5
2E
330
8
100
AcDbSymbolTableRecord
100
AcDbViewportTableRecord
  2
*ACTIVE
 70
     0
 10
0.0
 20
0.0
 11
1.0
 21
1.0
 12
210.0
 22
148.5
 13
0.0
 23
0.0
 14
10.0
 24
10.0
 15
10.0
 25
10.0
 16
0.0
 26
0.0
 36
1.0
 17
0.0
 27
0.0
 37
0.0
 40
341.0
 41
1.24
 42
50.0
 43
0.0
 44
0.0
 50
0.0
 51
0.0
 71
     0
 72
   100
 73
     1
 74
     3
 75
     0
 76
     0
 77
     0
 78
     0
  0
ENDTAB
  0
TABLE
  2
LTYPE
  5
5
330
0
100
AcDbSymbolTable
 70
     1
  0
LTYPE
  5
14
330
5
100
AcDbSymbolTableRecord
100
AcDbLinetypeTableRecord
  2
BYBLOCK
 70
     0
  3

 72
    65
 73
     0
 40
0.0
  0
LTYPE
  5
15
330
5
100
AcDbSymbolTableRecord
100
AcDbLinetypeTableRecord
  2
BYLAYER
 70
     0
  3

 72
    65
 73
     0
 40
0.0
  0
LTYPE
  5
16
330
5
100
AcDbSymbolTableRecord
100
AcDbLinetypeTableRecord
  2
CONTINUOUS
 70
     0
  3
Solid line
 72
    65
 73
     0
 40
0.0
  0
ENDTAB
  0
TABLE
  2
LAYER
  5
2
330
0
100
AcDbSymbolTable
 70
1
  0
LAYER
  5
10
330
2
100
AcDbSymbolTableRecord
100
AcDbLayerTableRecord
  2
0
 70
     0
 62
     7
  6
CONTINUOUS
  0
ENDTAB
  0
TABLE
  2
STYLE
  5
3
330
0
100
AcDbSymbolTable
 70
     1
  0
STYLE
  5
11
330
3
100
AcDbSymbolTableRecord
100
AcDbTextStyleTableRecord
  2
STANDARD
 70
     0
 40
0.0
 41
1.0
 50
0.0
 71
     0
 42
2.5
  3
txt
  4

  0
ENDTAB
  0
TABLE
  2
VIEW
  5
6
330
0
100
AcDbSymbolTable
 70
     0
  0
ENDTAB
  0
TABLE
  2
UCS
  5
7
330
0
100
AcDbSymbolTable
 70
     0
  0
ENDTAB
  0
TABLE
  2
APPID
  5
9
330
0
100
AcDbSymbolTable
 70
     2
  0
APPID
  5
12
330
9
100
AcDbSymbolTableRecord
100
AcDbRegAppTableRecord
  2
ACAD
 70
     0
  0
ENDTAB
  0
TABLE
  2
DIMSTYLE
  5
A
330
0
100
AcDbSymbolTable
 70
     1
  0
DIMSTYLE
105
27
330
A
100
AcDbSymbolTableRecord
100
AcDbDimStyleTableRecord
  2
ISO-25
 70
     0
  3

  4

  5

  6

  7

 40
1.0
 41
2.5
 42
0.625
 43
3.75
 44
1.25
 45
0.0
 46
0.0
 47
0.0
 48
0.0
140
2.5
141
2.5
142
0.0
143
0.03937007874016
144
1.0
145
0.0
146
1.0
147
0.625
 71
     0
 72
     0
 73
     0
 74
     0
 75
     0
 76
     0
 77
     1
 78
     8
170
     0
171
     3
172
     1
173
     0
174
     0
175
     0
176
     0
177
     0
178
     0
270
     2
271
     2
272
     2
273
     2
274
     3
340
11
275
     0
280
     0
281
     0
282
     0
283
     0
284
     8
285
     0
286
     0
287
     3
288
     0
  0
ENDTAB
  0
TABLE
  2
BLOCK_RECORD
  5
1
330
0
100
AcDbSymbolTable
 70
     1
  0
BLOCK_RECORD
  5
1F
330
1
100
AcDbSymbolTableRecord
100
AcDbBlockTableRecord
  2
*MODEL_SPACE
  0
BLOCK_RECORD
  5
1B
330
1
100
AcDbSymbolTableRecord
100
AcDbBlockTableRecord
  2
*PAPER_SPACE
  0
ENDTAB
  0
ENDSEC
  0
SECTION
  2
BLOCKS
  0
BLOCK
  5
20
330
1F
100
AcDbEntity
  8
0
100
AcDbBlockBegin
  2
*MODEL_SPACE
 70
     0
 10
0.0
 20
0.0
 30
0.0
  3
*MODEL_SPACE
  1

  0
ENDBLK
  5
21
330
1F
100
AcDbEntity
  8
0
100
AcDbBlockEnd
  0
BLOCK
  5
1C
330
1B
100
AcDbEntity
 67
     1
  8
0
100
AcDbBlockBegin
  2
*PAPER_SPACE
  1

  0
ENDBLK
  5
1D
330
1B
100
AcDbEntity
 67
     1
  8
0
100
AcDbBlockEnd
  0
ENDSEC
  0
SECTION
  2
ENTITIES
  0
LWPOLYLINE
  5
100
100
AcDbEntity
  8
0
 62
7
100
AcDbPolyline
 90
6
 70
0
 10
0.000000
 20
95.250000
 30
0.0
 10
1.411111
 20
96.661111
 30
0.0
 10
-3.527778
 20
95.250000
 30
0.0
 10
1.411111
 20
93.838889
 30
0.0
 10
0.000000
 20
95.250000
 30
0.0
 10
0.000000
 20
95.250000
 30
0.0
  0
LWPOLYLINE
  5
101
100
AcDbEntity
  8
0
 62
7
100
AcDbPolyline
 90
1060
 70
0
 10
43.695874
 20
-209.820171
 30
0.0
 10
43.439376
 20
-209.849494
 30
0.0
 10
43.180638
 20
-209.859372
 30
0.0
 10
42.921899
 20
-209.849494
 30
0.0
 10
42.665402
 20
-209.820171
 30
0.0
 10
41.561574
 20
-209.600602
 30
0.0
 10
40.478577
 20
-209.293121
 30
0.0
 10
39.412316
 20
-208.910456
 30
0.0
 10
38.358699
 20
-208.465476
 30
0.0
 10
37.822581
 20
-208.260357
 30
0.0
 10
37.308765
 20
-208.357272
 30
0.0
 10
36.910476
 20
-208.685186
 30
0.0
 10
36.720938
 20
-209.173149
 30
0.0
 10
36.569224
 20
-209.914349
 30
0.0
 10
37.081945
 20
-210.431719
 30
0.0
 10
37.843821
 20
-210.810122
 30
0.0
 10
38.439575
 20
-211.134424
 30
0.0
 10
38.757916
 20
-211.402253
 30
0.0
 10
38.993422
 20
-211.592188
 30
0.0
 10
39.189581
 20
-211.760506
 30
0.0
 10
39.389883
 20
-211.963395
 30
0.0
 10
39.652329
 20
-212.232381
 30
0.0
 10
39.865997
 20
-212.541781
 30
0.0
 10
40.038745
 20
-212.880448
 30
0.0
 10
40.178434
 20
-213.237233
 30
0.0
 10
40.328545
 20
-214.165011
 30
0.0
 10
40.372016
 20
-215.171726
 30
0.0
 10
40.281626
 20
-216.161507
 30
0.0
 10
40.030157
 20
-217.038456
 30
0.0
 10
39.879081
 20
-217.587209
 30
0.0
 10
39.627576
 20
-218.119565
 30
0.0
 10
39.490311
 20
-218.662984
 30
0.0
 10
39.681968
 20
-219.244870
 30
0.0
 10
39.750955
 20
-219.965072
 30
0.0
 10
39.752648
 20
-220.702237
 30
0.0
 10
39.767296
 20
-221.387416
 30
0.0
 10
39.875161
 20
-221.951719
 30
0.0
 10
40.081900
 20
-222.549805
 30
0.0
 10
40.090395
 20
-223.182773
 30
0.0
 10
39.945778
 20
-223.811874
 30
0.0
 10
39.693190
 20
-224.398247
 30
0.0
 10
39.499162
 20
-224.683800
 30
0.0
 10
39.293100
 20
-224.969126
 30
0.0
 10
39.041922
 20
-225.205346
 30
0.0
 10
38.712558
 20
-225.343494
 30
0.0
 10
38.244566
 20
-225.678153
 30
0.0
 10
37.663021
 20
-225.842830
 30
0.0
 10
37.028052
 20
-225.915813
 30
0.0
 10
36.399783
 20
-225.975362
 30
0.0
 10
36.151250
 20
-226.239888
 30
0.0
 10
35.985786
 20
-226.649308
 30
0.0
 10
35.829601
 20
-227.095812
 30
0.0
 10
35.608898
 20
-227.471591
 30
0.0
 10
35.762573
 20
-227.656475
 30
0.0
 10
35.806284
 20
-227.980607
 30
0.0
 10
35.710865
 20
-228.343432
 30
0.0
 10
35.447145
 20
-228.644309
 30
0.0
 10
35.154441
 20
-228.718844
 30
0.0
 10
34.855952
 20
-228.761572
 30
0.0
 10
34.616887
 20
-228.909316
 30
0.0
 10
34.502454
 20
-229.298895
 30
0.0
 10
34.229909
 20
-229.541211
 30
0.0
 10
33.965560
 20
-229.777742
 30
0.0
 10
33.707931
 20
-230.022513
 30
0.0
 10
33.455545
 20
-230.289636
 30
0.0
 10
32.971918
 20
-230.285121
 30
0.0
 10
32.533398
 20
-230.028835
 30
0.0
 10
32.154097
 20
-229.865710
 30
0.0
 10
31.848115
 20
-230.140623
 30
0.0
 10
31.630727
 20
-230.423579
 30
0.0
 10
31.423494
 20
-230.712264
 30
0.0
 10
31.221957
 20
-231.012859
 30
0.0
 10
31.021652
 20
-231.331516
 30
0.0
 10
30.833980
 20
-231.649891
 30
0.0
 10
30.646342
 20
-231.960476
 30
0.0
 10
30.532124
 20
-232.130910
 30
0.0
 10
30.418258
 20
-232.285653
 30
0.0
 10
30.109256
 20
-232.647800
 30
0.0
 10
29.714348
 20
-233.101783
 30
0.0
 10
29.257374
 20
-233.630357
 30
0.0
 10
28.741076
 20
-234.147868
 30
0.0
 10
28.168207
 20
-234.568633
 30
0.0
 10
27.417554
 20
-234.930414
 30
0.0
 10
26.500644
 20
-235.053660
 30
0.0
 10
25.554563
 20
-235.031929
 30
0.0
 10
24.716397
 20
-234.958551
 30
0.0
 10
23.610000
 20
-234.720412
 30
0.0
 10
22.648517
 20
-234.341331
 30
0.0
 10
21.754082
 20
-233.885260
 30
0.0
 10
20.848831
 20
-233.416235
 30
0.0
 10
20.127169
 20
-233.050024
 30
0.0
 10
19.418707
 20
-232.657791
 30
0.0
 10
18.724804
 20
-232.240356
 30
0.0
 10
18.046825
 20
-231.798481
 30
0.0
 10
17.187997
 20
-231.249022
 30
0.0
 10
16.345821
 20
-230.702443
 30
0.0
 10
15.536777
 20
-230.059343
 30
0.0
 10
14.777340
 20
-229.220240
 30
0.0
 10
14.294703
 20
-228.531053
 30
0.0
 10
13.802772
 20
-227.722628
 30
0.0
 10
13.451051
 20
-226.866930
 30
0.0
 10
13.389045
 20
-226.035955
 30
0.0
 10
13.466993
 20
-225.329468
 30
0.0
 10
13.657019
 20
-224.623602
 30
0.0
 10
13.886297
 20
-223.963540
 30
0.0
 10
14.082004
 20
-223.394552
 30
0.0
 10
14.241144
 20
-222.945875
 30
0.0
 10
14.408710
 20
-222.585760
 30
0.0
 10
14.583855
 20
-222.267978
 30
0.0
 10
14.765735
 20
-221.946272
 30
0.0
 10
14.941549
 20
-221.613448
 30
0.0
 10
15.101111
 20
-221.288610
 30
0.0
 10
15.247518
 20
-220.964788
 30
0.0
 10
15.383866
 20
-220.635068
 30
0.0
 10
15.468945
 20
-220.232619
 30
0.0
 10
15.138028
 20
-219.985703
 30
0.0
 10
14.696817
 20
-219.734074
 30
0.0
 10
14.451014
 20
-219.317542
 30
0.0
 10
14.556159
 20
-218.965413
 30
0.0
 10
14.639337
 20
-218.619888
 30
0.0
 10
14.711990
 20
-218.272699
 30
0.0
 10
14.785566
 20
-217.915518
 30
0.0
 10
15.065740
 20
-217.621640
 30
0.0
 10
15.074153
 20
-217.340744
 30
0.0
 10
14.961911
 20
-217.060865
 30
0.0
 10
14.880118
 20
-216.770091
 30
0.0
 10
15.008826
 20
-216.391264
 30
0.0
 10
15.275326
 20
-216.127217
 30
0.0
 10
15.577905
 20
-216.003011
 30
0.0
 10
15.814851
 20
-216.043651
 30
0.0
 10
16.029927
 20
-215.664627
 30
0.0
 10
16.338511
 20
-215.306148
 30
0.0
 10
16.610346
 20
-214.958140
 30
0.0
 10
16.715174
 20
-214.610611
 30
0.0
 10
16.452624
 20
-214.036741
 30
0.0
 10
16.198336
 20
-213.450339
 30
0.0
 10
16.050171
 20
-212.864390
 30
0.0
 10
16.105988
 20
-212.291761
 30
0.0
 10
16.060962
 20
-211.937431
 30
0.0
 10
16.139937
 20
-211.601812
 30
0.0
 10
16.284011
 20
-211.280700
 30
0.0
 10
16.434284
 20
-210.969888
 30
0.0
 10
16.815814
 20
-210.457965
 30
0.0
 10
17.288312
 20
-210.018178
 30
0.0
 10
17.840738
 20
-209.709032
 30
0.0
 10
18.462050
 20
-209.589031
 30
0.0
 10
19.004688
 20
-209.400309
 30
0.0
 10
19.605402
 20
-209.070392
 30
0.0
 10
20.244639
 20
-208.703249
 30
0.0
 10
20.902844
 20
-208.402908
 30
0.0
 10
21.502614
 20
-208.277940
 30
0.0
 10
21.904582
 20
-207.887344
 30
0.0
 10
22.239863
 20
-207.403361
 30
0.0
 10
22.639574
 20
-206.998147
 30
0.0
 10
23.273284
 20
-206.341895
 30
0.0
 10
24.085270
 20
-205.768730
 30
0.0
 10
24.978862
 20
-205.303007
 30
0.0
 10
25.857390
 20
-204.969110
 30
0.0
 10
26.236208
 20
-204.911706
 30
0.0
 10
26.615878
 20
-204.891950
 30
0.0
 10
26.990661
 20
-204.922289
 30
0.0
 10
27.354825
 20
-205.015084
 30
0.0
 10
27.629907
 20
-205.091425
 30
0.0
 10
27.872424
 20
-205.184333
 30
0.0
 10
28.154410
 20
-205.294738
 30
0.0
 10
28.547904
 20
-205.423601
 30
0.0
 10
29.128565
 20
-205.771496
 30
0.0
 10
29.836234
 20
-206.255281
 30
0.0
 10
30.539193
 20
-206.450156
 30
0.0
 10
31.105732
 20
-205.931347
 30
0.0
 10
31.433508
 20
-205.523253
 30
0.0
 10
31.518363
 20
-205.014350
 30
0.0
 10
31.345401
 20
-204.520885
 30
0.0
 10
30.899718
 20
-204.159160
 30
0.0
 10
29.988010
 20
-203.473304
 30
0.0
 10
29.123448
 20
-202.740768
 30
0.0
 10
28.315381
 20
-201.954328
 30
0.0
 10
27.573164
 20
-201.106786
 30
0.0
 10
27.419519
 20
-200.899324
 30
0.0
 10
27.281683
 20
-200.680122
 30
0.0
 10
27.160780
 20
-200.451184
 30
0.0
 10
27.057929
 20
-200.214371
 30
0.0
 10
26.696160
 20
-199.148644
 30
0.0
 10
26.420965
 20
-198.057008
 30
0.0
 10
26.219214
 20
-196.942258
 30
0.0
 10
26.077776
 20
-195.807302
 30
0.0
 10
25.987342
 20
-195.240458
 30
0.0
 10
25.646490
 20
-194.843964
 30
0.0
 10
25.163344
 20
-194.663004
 30
0.0
 10
24.646033
 20
-194.742816
 30
0.0
 10
23.928291
 20
-194.982028
 30
0.0
 10
23.736595
 20
-195.684733
 30
0.0
 10
23.789820
 20
-196.533742
 30
0.0
 10
23.806841
 20
-197.211837
 30
0.0
 10
23.734059
 20
-197.621454
 30
0.0
 10
23.687314
 20
-197.920384
 30
0.0
 10
23.639639
 20
-198.174412
 30
0.0
 10
23.564068
 20
-198.449325
 30
0.0
 10
23.462353
 20
-198.811106
 30
0.0
 10
23.301238
 20
-199.150845
 30
0.0
 10
23.094319
 20
-199.469784
 30
0.0
 10
22.855189
 20
-199.769137
 30
0.0
 10
22.126771
 20
-200.363018
 30
0.0
 10
21.276650
 20
-200.904038
 30
0.0
 10
20.374276
 20
-201.320654
 30
0.0
 10
19.489097
 20
-201.541324
 30
0.0
 10
18.938311
 20
-201.684862
 30
0.0
 10
18.351522
 20
-201.733235
 30
0.0
 10
17.812291
 20
-201.886058
 30
0.0
 10
17.404179
 20
-202.343004
 30
0.0
 10
16.814958
 20
-202.762838
 30
0.0
 10
16.177403
 20
-203.132888
 30
0.0
 10
15.591331
 20
-203.488149
 30
0.0
 10
15.156560
 20
-203.863730
 30
0.0
 10
14.741986
 20
-204.341786
 30
0.0
 10
14.198053
 20
-204.665636
 30
0.0
 10
13.580938
 20
-204.854951
 30
0.0
 10
12.946817
 20
-204.929401
 30
0.0
 10
12.602519
 20
-204.904001
 30
0.0
 10
12.252381
 20
-204.868216
 30
0.0
 10
11.922230
 20
-204.768789
 30
0.0
 10
11.637890
 20
-204.552635
 30
0.0
 10
11.114081
 20
-204.314665
 30
0.0
 10
10.680702
 20
-203.893364
 30
0.0
 10
10.300019
 20
-203.379945
 30
0.0
 10
9.934299
 20
-202.865623
 30
0.0
 10
9.580937
 20
-202.782650
 30
0.0
 10
9.143639
 20
-202.844090
 30
0.0
 10
8.678869
 20
-202.932058
 30
0.0
 10
8.243091
 20
-202.928672
 30
0.0
 10
8.159821
 20
-203.154195
 30
0.0
 10
7.900953
 20
-203.354122
 30
0.0
 10
7.539032
 20
-203.452899
 30
0.0
 10
7.146608
 20
-203.374950
 30
0.0
 10
6.935696
 20
-203.158739
 30
0.0
 10
6.749449
 20
-202.921616
 30
0.0
 10
6.501970
 20
-202.788435
 30
0.0
 10
6.107366
 20
-202.884137
 30
0.0
 10
5.761244
 20
-202.769244
 30
0.0
 10
5.424239
 20
-202.658585
 30
0.0
 10
5.083432
 20
-202.557860
 30
0.0
 10
4.725900
 20
-202.472854
 30
0.0
 10
4.488076
 20
-202.051722
 30
0.0
 10
4.490758
 20
-201.543807
 30
0.0
 10
4.442373
 20
-201.133738
 30
0.0
 10
4.051312
 20
-201.006202
 30
0.0
 10
3.697577
 20
-200.959410
 30
0.0
 10
3.343937
 20
-200.924301
 30
0.0
 10
2.982836
 20
-200.900030
 30
0.0
 10
2.606718
 20
-200.885919
 30
0.0
 10
2.237167
 20
-200.882532
 30
0.0
 10
1.874383
 20
-200.875477
 30
0.0
 10
1.478735
 20
-200.840538
 30
0.0
 10
1.010592
 20
-200.754008
 30
0.0
 10
0.419980
 20
-200.639003
 30
0.0
 10
-0.266271
 20
-200.507515
 30
0.0
 10
-0.972594
 20
-200.319160
 30
0.0
 10
-1.623420
 20
-200.033410
 30
0.0
 10
-2.312066
 20
-199.564216
 30
0.0
 10
-2.877256
 20
-198.831793
 30
0.0
 10
-3.331405
 20
-198.001551
 30
0.0
 10
-3.686930
 20
-197.238987
 30
0.0
 10
-4.033893
 20
-196.161745
 30
0.0
 10
-4.186332
 20
-195.139536
 30
0.0
 10
-4.238592
 20
-194.136885
 30
0.0
 10
-4.285016
 20
-193.118401
 30
0.0
 10
-4.328699
 20
-192.310314
 30
0.0
 10
-4.343259
 20
-191.500647
 30
0.0
 10
-4.328699
 20
-190.691008
 30
0.0
 10
-4.285017
 20
-189.882921
 30
0.0
 10
-4.238592
 20
-188.864409
 30
0.0
 10
-4.186333
 20
-187.861787
 30
0.0
 10
-4.033895
 20
-186.839575
 30
0.0
 10
-3.686935
 20
-185.762341
 30
0.0
 10
-3.331407
 20
-184.999777
 30
0.0
 10
-2.877258
 20
-184.169541
 30
0.0
 10
-2.312069
 20
-183.437095
 30
0.0
 10
-1.623421
 20
-182.967907
 30
0.0
 10
-0.972595
 20
-182.682165
 30
0.0
 10
-0.266273
 20
-182.493793
 30
0.0
 10
0.419977
 20
-182.362331
 30
0.0
 10
1.010588
 20
-182.247323
 30
0.0
 10
1.478733
 20
-182.160796
 30
0.0
 10
1.874381
 20
-182.125854
 30
0.0
 10
2.237163
 20
-182.118629
 30
0.0
 10
2.606713
 20
-182.115299
 30
0.0
 10
2.982833
 20
-182.101160
 30
0.0
 10
3.343934
 20
-182.076917
 30
0.0
 10
3.697573
 20
-182.041800
 30
0.0
 10
4.051307
 20
-181.995013
 30
0.0
 10
4.442369
 20
-181.867474
 30
0.0
 10
4.490755
 20
-181.457428
 30
0.0
 10
4.488074
 20
-180.949515
 30
0.0
 10
4.725899
 20
-180.528378
 30
0.0
 10
5.083429
 20
-180.443372
 30
0.0
 10
5.424236
 20
-180.342650
 30
0.0
 10
5.761240
 20
-180.231974
 30
0.0
 10
6.107360
 20
-180.117101
 30
0.0
 10
6.501967
 20
-180.212791
 30
0.0
 10
6.749446
 20
-180.079625
 30
0.0
 10
6.935693
 20
-179.842490
 30
0.0
 10
7.146602
 20
-179.626274
 30
0.0
 10
7.539029
 20
-179.548324
 30
0.0
 10
7.900952
 20
-179.647094
 30
0.0
 10
8.159821
 20
-179.847026
 30
0.0
 10
8.243089
 20
-180.072552
 30
0.0
 10
8.678866
 20
-180.069307
 30
0.0
 10
9.143636
 20
-180.157292
 30
0.0
 10
9.580934
 20
-180.218707
 30
0.0
 10
9.934298
 20
-180.135739
 30
0.0
 10
10.300017
 20
-179.621423
 30
0.0
 10
10.680699
 20
-179.108010
 30
0.0
 10
11.114077
 20
-178.686708
 30
0.0
 10
11.637884
 20
-178.448741
 30
0.0
 10
11.922224
 20
-178.232587
 30
0.0
 10
12.252376
 20
-178.133166
 30
0.0
 10
12.602515
 20
-178.097378
 30
0.0
 10
12.946815
 20
-178.072119
 30
0.0
 10
13.580934
 20
-178.146563
 30
0.0
 10
14.198049
 20
-178.335867
 30
0.0
 10
14.741982
 20
-178.659714
 30
0.0
 10
15.156555
 20
-179.137790
 30
0.0
 10
15.591327
 20
-179.513357
 30
0.0
 10
16.177401
 20
-179.868635
 30
0.0
 10
16.814956
 20
-180.238668
 30
0.0
 10
17.404173
 20
-180.658513
 30
0.0
 10
17.812287
 20
-181.115445
 30
0.0
 10
18.351519
 20
-181.268271
 30
0.0
 10
18.938307
 20
-181.316638
 30
0.0
 10
19.489091
 20
-181.460188
 30
0.0
 10
20.374272
 20
-181.680874
 30
0.0
 10
21.276648
 20
-182.097488
 30
0.0
 10
22.126769
 20
-182.638502
 30
0.0
 10
22.855187
 20
-183.232388
 30
0.0
 10
23.094315
 20
-183.531747
 30
0.0
 10
23.301234
 20
-183.850686
 30
0.0
 10
23.462349
 20
-184.190428
 30
0.0
 10
23.564067
 20
-184.552201
 30
0.0
 10
23.635514
 20
-184.828592
 30
0.0
 10
23.676316
 20
-185.085070
 30
0.0
 10
23.721687
 20
-185.384485
 30
0.0
 10
23.806839
 20
-185.789683
 30
0.0
 10
23.795867
 20
-186.466505
 30
0.0
 10
23.730731
 20
-187.321246
 30
0.0
 10
23.913446
 20
-188.027479
 30
0.0
 10
24.646027
 20
-188.258704
 30
0.0
 10
25.163341
 20
-188.338516
 30
0.0
 10
25.646487
 20
-188.157556
 30
0.0
 10
25.987340
 20
-187.761033
 30
0.0
 10
26.077774
 20
-187.194190
 30
0.0
 10
26.215880
 20
-186.061711
 30
0.0
 10
26.418001
 20
-184.946708
 30
0.0
 10
26.695047
 20
-183.853684
 30
0.0
 10
27.057927
 20
-182.787138
 30
0.0
 10
27.160778
 20
-182.550339
 30
0.0
 10
27.281681
 20
-182.321378
 30
0.0
 10
27.419515
 20
-182.102193
 30
0.0
 10
27.573162
 20
-181.894723
 30
0.0
 10
28.315378
 20
-181.047187
 30
0.0
 10
29.123442
 20
-180.260746
 30
0.0
 10
29.988008
 20
-179.528199
 30
0.0
 10
30.899715
 20
-178.842354
 30
0.0
 10
31.345398
 20
-178.480613
 30
0.0
 10
31.518358
 20
-177.987173
 30
0.0
 10
31.433502
 20
-177.478275
 30
0.0
 10
31.105729
 20
-177.070173
 30
0.0
 10
30.539190
 20
-176.551353
 30
0.0
 10
29.836231
 20
-176.746225
 30
0.0
 10
29.128562
 20
-177.230010
 30
0.0
 10
28.547901
 20
-177.577925
 30
0.0
 10
28.154410
 20
-177.706782
 30
0.0
 10
27.872422
 20
-177.817196
 30
0.0
 10
27.629904
 20
-177.910101
 30
0.0
 10
27.354818
 20
-177.986419
 30
0.0
 10
26.990658
 20
-178.079214
 30
0.0
 10
26.615875
 20
-178.109555
 30
0.0
 10
26.236206
 20
-178.089828
 30
0.0
 10
25.857388
 20
-178.032418
 30
0.0
 10
24.978860
 20
-177.698533
 30
0.0
 10
24.085268
 20
-177.232812
 30
0.0
 10
23.273282
 20
-176.659639
 30
0.0
 10
22.639572
 20
-176.003393
 30
0.0
 10
22.239861
 20
-175.598176
 30
0.0
 10
21.904580
 20
-175.114184
 30
0.0
 10
21.502612
 20
-174.723608
 30
0.0
 10
20.902842
 20
-174.598638
 30
0.0
 10
20.244637
 20
-174.298283
 30
0.0
 10
19.605400
 20
-173.931162
 30
0.0
 10
19.004686
 20
-173.601245
 30
0.0
 10
18.462048
 20
-173.412506
 30
0.0
 10
17.840736
 20
-173.292510
 30
0.0
 10
17.288310
 20
-172.983375
 30
0.0
 10
16.815812
 20
-172.543589
 30
0.0
 10
16.434282
 20
-172.031649
 30
0.0
 10
16.284009
 20
-171.720846
 30
0.0
 10
16.139935
 20
-171.399722
 30
0.0
 10
16.060960
 20
-171.064089
 30
0.0
 10
16.105986
 20
-170.709768
 30
0.0
 10
16.050169
 20
-170.137153
 30
0.0
 10
16.198334
 20
-169.551189
 30
0.0
 10
16.452622
 20
-168.964802
 30
0.0
 10
16.715172
 20
-168.390920
 30
0.0
 10
16.610344
 20
-168.043414
 30
0.0
 10
16.338509
 20
-167.695412
 30
0.0
 10
16.029925
 20
-167.336902
 30
0.0
 10
15.814849
 20
-166.957886
 30
0.0
 10
15.577903
 20
-166.998537
 30
0.0
 10
15.275324
 20
-166.874314
 30
0.0
 10
15.008824
 20
-166.610264
 30
0.0
 10
14.880116
 20
-166.231437
 30
0.0
 10
14.961909
 20
-165.940678
 30
0.0
 10
15.074151
 20
-165.660815
 30
0.0
 10
15.065738
 20
-165.379908
 30
0.0
 10
14.785564
 20
-165.086013
 30
0.0
 10
14.711988
 20
-164.728827
 30
0.0
 10
14.639334
 20
-164.381637
 30
0.0
 10
14.556157
 20
-164.036129
 30
0.0
 10
14.451011
 20
-163.683995
 30
0.0
 10
14.696815
 20
-163.267463
 30
0.0
 10
15.138026
 20
-163.015843
 30
0.0
 10
15.468942
 20
-162.768915
 30
0.0
 10
15.383864
 20
-162.366475
 30
0.0
 10
15.247516
 20
-162.036737
 30
0.0
 10
15.101108
 20
-161.712918
 30
0.0
 10
14.941545
 20
-161.388081
 30
0.0
 10
14.765732
 20
-161.055279
 30
0.0
 10
14.583852
 20
-160.733568
 30
0.0
 10
14.408707
 20
-160.415783
 30
0.0
 10
14.241142
 20
-160.055673
 30
0.0
 10
14.082002
 20
-159.606985
 30
0.0
 10
13.886295
 20
-159.037996
 30
0.0
 10
13.657017
 20
-158.377955
 30
0.0
 10
13.466991
 20
-157.672075
 30
0.0
 10
13.389043
 20
-156.965574
 30
0.0
 10
13.451049
 20
-156.134593
 30
0.0
 10
13.802770
 20
-155.278904
 30
0.0
 10
14.294701
 20
-154.470478
 30
0.0
 10
14.777338
 20
-153.781300
 30
0.0
 10
15.536775
 20
-152.942205
 30
0.0
 10
16.345819
 20
-152.299083
 30
0.0
 10
17.187994
 20
-151.752509
 30
0.0
 10
18.046822
 20
-151.203059
 30
0.0
 10
18.724801
 20
-150.761186
 30
0.0
 10
19.418704
 20
-150.343749
 30
0.0
 10
20.127168
 20
-149.951530
 30
0.0
 10
20.848829
 20
-149.585319
 30
0.0
 10
21.754082
 20
-149.116277
 30
0.0
 10
22.648516
 20
-148.660220
 30
0.0
 10
23.609998
 20
-148.281128
 30
0.0
 10
24.716395
 20
-148.042986
 30
0.0
 10
25.554561
 20
-147.969599
 30
0.0
 10
26.500642
 20
-147.947784
 30
0.0
 10
27.417552
 20
-148.071027
 30
0.0
 10
28.168205
 20
-148.432819
 30
0.0
 10
28.741074
 20
-148.853581
 30
0.0
 10
29.257371
 20
-149.371090
 30
0.0
 10
29.714345
 20
-149.899669
 30
0.0
 10
30.109253
 20
-150.353649
 30
0.0
 10
30.418258
 20
-150.715811
 30
0.0
 10
30.646342
 20
-151.040981
 30
0.0
 10
30.833980
 20
-151.351553
 30
0.0
 10
31.021649
 20
-151.669922
 30
0.0
 10
31.221957
 20
-151.988579
 30
0.0
 10
31.423494
 20
-152.289185
 30
0.0
 10
31.630727
 20
-152.577887
 30
0.0
 10
31.848112
 20
-152.860838
 30
0.0
 10
32.154094
 20
-153.135736
 30
0.0
 10
32.533395
 20
-152.972618
 30
0.0
 10
32.971915
 20
-152.716326
 30
0.0
 10
33.455542
 20
-152.711726
 30
0.0
 10
33.707928
 20
-152.978855
 30
0.0
 10
33.965557
 20
-153.223643
 30
0.0
 10
34.229906
 20
-153.460159
 30
0.0
 10
34.502451
 20
-153.702472
 30
0.0
 10
34.616884
 20
-154.092055
 30
0.0
 10
34.855949
 20
-154.239793
 30
0.0
 10
35.154438
 20
-154.282521
 30
0.0
 10
35.447142
 20
-154.357070
 30
0.0
 10
35.710862
 20
-154.657944
 30
0.0
 10
35.806281
 20
-155.020761
 30
0.0
 10
35.762571
 20
-155.344913
 30
0.0
 10
35.608895
 20
-155.529788
 30
0.0
 10
35.829598
 20
-155.905561
 30
0.0
 10
35.985783
 20
-156.352057
 30
0.0
 10
36.151247
 20
-156.761476
 30
0.0
 10
36.399780
 20
-157.026012
 30
0.0
 10
37.028049
 20
-157.085578
 30
0.0
 10
37.663018
 20
-157.158552
 30
0.0
 10
38.244563
 20
-157.323220
 30
0.0
 10
38.712555
 20
-157.657868
 30
0.0
 10
39.041919
 20
-157.796035
 30
0.0
 10
39.293094
 20
-158.032244
 30
0.0
 10
39.499159
 20
-158.317576
 30
0.0
 10
39.693187
 20
-158.603117
 30
0.0
 10
39.945776
 20
-159.189505
 30
0.0
 10
40.090392
 20
-159.818592
 30
0.0
 10
40.081897
 20
-160.451577
 30
0.0
 10
39.875158
 20
-161.049645
 30
0.0
 10
39.767293
 20
-161.613952
 30
0.0
 10
39.752645
 20
-162.299145
 30
0.0
 10
39.750952
 20
-163.036301
 30
0.0
 10
39.681968
 20
-163.756501
 30
0.0
 10
39.490311
 20
-164.338401
 30
0.0
 10
39.627576
 20
-164.881803
 30
0.0
 10
39.879081
 20
-165.414161
 30
0.0
 10
40.030157
 20
-165.962931
 30
0.0
 10
40.281626
 20
-166.839860
 30
0.0
 10
40.372016
 20
-167.829648
 30
0.0
 10
40.328545
 20
-168.836382
 30
0.0
 10
40.178434
 20
-169.764154
 30
0.0
 10
40.038745
 20
-170.120925
 30
0.0
 10
39.865997
 20
-170.459592
 30
0.0
 10
39.652329
 20
-170.768992
 30
0.0
 10
39.389883
 20
-171.037967
 30
0.0
 10
39.189581
 20
-171.240873
 30
0.0
 10
38.993422
 20
-171.409174
 30
0.0
 10
38.757919
 20
-171.599118
 30
0.0
 10
38.439575
 20
-171.866955
 30
0.0
 10
37.843824
 20
-172.191259
 30
0.0
 10
37.081945
 20
-172.569672
 30
0.0
 10
36.569224
 20
-173.087041
 30
0.0
 10
36.720938
 20
-173.828227
 30
0.0
 10
36.910476
 20
-174.316139
 30
0.0
 10
37.308765
 20
-174.644073
 30
0.0
 10
37.822581
 20
-174.741005
 30
0.0
 10
38.358699
 20
-174.535900
 30
0.0
 10
39.412316
 20
-174.090914
 30
0.0
 10
40.478577
 20
-173.708269
 30
0.0
 10
41.561574
 20
-173.400768
 30
0.0
 10
42.665402
 20
-173.181208
 30
0.0
 10
42.921899
 20
-173.151879
 30
0.0
 10
43.180638
 20
-173.142114
 30
0.0
 10
43.439376
 20
-173.151879
 30
0.0
 10
43.695874
 20
-173.181208
 30
0.0
 10
44.800969
 20
-173.400218
 30
0.0
 10
45.886079
 20
-173.706804
 30
0.0
 10
46.952764
 20
-174.089263
 30
0.0
 10
48.002577
 20
-174.535902
 30
0.0
 10
48.538694
 20
-174.741005
 30
0.0
 10
49.052511
 20
-174.644073
 30
0.0
 10
49.450800
 20
-174.316136
 30
0.0
 10
49.640338
 20
-173.828225
 30
0.0
 10
49.806380
 20
-173.078180
 30
0.0
 10
49.286135
 20
-172.566835
 30
0.0
 10
48.513331
 20
-172.195868
 30
0.0
 10
47.921697
 20
-171.866955
 30
0.0
 10
47.613361
 20
-171.590612
 30
0.0
 10
47.376746
 20
-171.401613
 30
0.0
 10
47.175031
 20
-171.238037
 30
0.0
 10
46.971393
 20
-171.037967
 30
0.0
 10
46.708949
 20
-170.768989
 30
0.0
 10
46.495281
 20
-170.459589
 30
0.0
 10
46.322530
 20
-170.120925
 30
0.0
 10
46.182842
 20
-169.764154
 30
0.0
 10
46.032730
 20
-168.836382
 30
0.0
 10
45.989260
 20
-167.829651
 30
0.0
 10
46.079650
 20
-166.839860
 30
0.0
 10
46.331118
 20
-165.962928
 30
0.0
 10
46.482192
 20
-165.414161
 30
0.0
 10
46.733700
 20
-164.881806
 30
0.0
 10
46.870964
 20
-164.338404
 30
0.0
 10
46.679310
 20
-163.756501
 30
0.0
 10
46.610321
 20
-163.036301
 30
0.0
 10
46.608627
 20
-162.299145
 30
0.0
 10
46.593980
 20
-161.613952
 30
0.0
 10
46.486115
 20
-161.049643
 30
0.0
 10
46.279376
 20
-160.451574
 30
0.0
 10
46.270881
 20
-159.818592
 30
0.0
 10
46.415497
 20
-159.189505
 30
0.0
 10
46.668086
 20
-158.603117
 30
0.0
 10
46.862114
 20
-158.317576
 30
0.0
 10
47.068178
 20
-158.032241
 30
0.0
 10
47.319356
 20
-157.796032
 30
0.0
 10
47.648721
 20
-157.657865
 30
0.0
 10
48.116710
 20
-157.323217
 30
0.0
 10
48.698254
 20
-157.158552
 30
0.0
 10
49.333226
 20
-157.085580
 30
0.0
 10
49.961498
 20
-157.026015
 30
0.0
 10
50.210031
 20
-156.761476
 30
0.0
 10
50.375493
 20
-156.352057
 30
0.0
 10
50.531680
 20
-155.905561
 30
0.0
 10
50.752381
 20
-155.529791
 30
0.0
 10
50.598702
 20
-155.344916
 30
0.0
 10
50.554992
 20
-155.020764
 30
0.0
 10
50.650417
 20
-154.657944
 30
0.0
 10
50.914136
 20
-154.357067
 30
0.0
 10
51.206837
 20
-154.282521
 30
0.0
 10
51.505327
 20
-154.239795
 30
0.0
 10
51.744392
 20
-154.092055
 30
0.0
 10
51.858824
 20
-153.702470
 30
0.0
 10
52.131369
 20
-153.460156
 30
0.0
 10
52.395718
 20
-153.223640
 30
0.0
 10
52.653351
 20
-152.978852
 30
0.0
 10
52.905733
 20
-152.711726
 30
0.0
 10
53.389361
 20
-152.716326
 30
0.0
 10
53.827880
 20
-152.972615
 30
0.0
 10
54.207181
 20
-153.135734
 30
0.0
 10
54.513167
 20
-152.860832
 30
0.0
 10
54.730551
 20
-152.577885
 30
0.0
 10
54.937784
 20
-152.289183
 30
0.0
 10
55.139322
 20
-151.988576
 30
0.0
 10
55.339629
 20
-151.669919
 30
0.0
 10
55.527298
 20
-151.351550
 30
0.0
 10
55.714934
 20
-151.040976
 30
0.0
 10
55.943017
 20
-150.715805
 30
0.0
 10
56.252025
 20
-150.353643
 30
0.0
 10
56.646933
 20
-149.899664
 30
0.0
 10
57.103905
 20
-149.371084
 30
0.0
 10
57.620202
 20
-148.853579
 30
0.0
 10
58.193071
 20
-148.432816
 30
0.0
 10
58.943725
 20
-148.071024
 30
0.0
 10
59.860637
 20
-147.947778
 30
0.0
 10
60.806717
 20
-147.969594
 30
0.0
 10
61.644883
 20
-148.042983
 30
0.0
 10
62.751279
 20
-148.281125
 30
0.0
 10
63.712762
 20
-148.660217
 30
0.0
 10
64.607194
 20
-149.116274
 30
0.0
 10
65.512448
 20
-149.585316
 30
0.0
 10
66.234110
 20
-149.951527
 30
0.0
 10
66.942572
 20
-150.343746
 30
0.0
 10
67.636477
 20
-150.761184
 30
0.0
 10
68.314454
 20
-151.203056
 30
0.0
 10
69.173282
 20
-151.752506
 30
0.0
 10
70.015456
 20
-152.299080
 30
0.0
 10
70.824502
 20
-152.942205
 30
0.0
 10
71.583937
 20
-153.781303
 30
0.0
 10
72.066576
 20
-154.470481
 30
0.0
 10
72.558506
 20
-155.278904
 30
0.0
 10
72.910226
 20
-156.134593
 30
0.0
 10
72.972233
 20
-156.965574
 30
0.0
 10
72.894275
 20
-157.672075
 30
0.0
 10
72.704249
 20
-158.377955
 30
0.0
 10
72.474974
 20
-159.037996
 30
0.0
 10
72.279270
 20
-159.606988
 30
0.0
 10
72.120133
 20
-160.055676
 30
0.0
 10
71.952570
 20
-160.415786
 30
0.0
 10
71.777423
 20
-160.733571
 30
0.0
 10
71.595542
 20
-161.055281
 30
0.0
 10
71.419728
 20
-161.388081
 30
0.0
 10
71.260166
 20
-161.712921
 30
0.0
 10
71.113760
 20
-162.036740
 30
0.0
 10
70.977410
 20
-162.366477
 30
0.0
 10
70.892331
 20
-162.768915
 30
0.0
 10
71.223248
 20
-163.015840
 30
0.0
 10
71.664460
 20
-163.267461
 30
0.0
 10
71.910265
 20
-163.683992
 30
0.0
 10
71.805117
 20
-164.036129
 30
0.0
 10
71.721940
 20
-164.381637
 30
0.0
 10
71.649285
 20
-164.728830
 30
0.0
 10
71.575710
 20
-165.086016
 30
0.0
 10
71.295537
 20
-165.379908
 30
0.0
 10
71.287126
 20
-165.660815
 30
0.0
 10
71.399369
 20
-165.940678
 30
0.0
 10
71.481160
 20
-166.231440
 30
0.0
 10
71.352455
 20
-166.610264
 30
0.0
 10
71.085956
 20
-166.874311
 30
0.0
 10
70.783377
 20
-166.998534
 30
0.0
 10
70.546431
 20
-166.957883
 30
0.0
 10
70.331355
 20
-167.336902
 30
0.0
 10
70.022768
 20
-167.695412
 30
0.0
 10
69.750934
 20
-168.043414
 30
0.0
 10
69.646106
 20
-168.390920
 30
0.0
 10
69.908654
 20
-168.964799
 30
0.0
 10
70.162942
 20
-169.551186
 30
0.0
 10
70.311109
 20
-170.137153
 30
0.0
 10
70.255291
 20
-170.709771
 30
0.0
 10
70.300317
 20
-171.064092
 30
0.0
 10
70.221342
 20
-171.399722
 30
0.0
 10
70.077268
 20
-171.720846
 30
0.0
 10
69.926996
 20
-172.031649
 30
0.0
 10
69.545465
 20
-172.543591
 30
0.0
 10
69.072966
 20
-172.983375
 30
0.0
 10
68.520539
 20
-173.292513
 30
0.0
 10
67.899226
 20
-173.412506
 30
0.0
 10
67.356589
 20
-173.601245
 30
0.0
 10
66.755876
 20
-173.931159
 30
0.0
 10
66.116640
 20
-174.298283
 30
0.0
 10
65.458433
 20
-174.598640
 30
0.0
 10
64.858666
 20
-174.723611
 30
0.0
 10
64.456697
 20
-175.114184
 30
0.0
 10
64.121417
 20
-175.598176
 30
0.0
 10
63.721705
 20
-176.003396
 30
0.0
 10
63.087995
 20
-176.659639
 30
0.0
 10
62.276008
 20
-177.232812
 30
0.0
 10
61.382416
 20
-177.698530
 30
0.0
 10
60.503887
 20
-178.032416
 30
0.0
 10
60.125068
 20
-178.089828
 30
0.0
 10
59.745400
 20
-178.109555
 30
0.0
 10
59.370618
 20
-178.079214
 30
0.0
 10
59.006458
 20
-177.986416
 30
0.0
 10
58.730586
 20
-177.914404
 30
0.0
 10
58.486754
 20
-177.828677
 30
0.0
 10
58.204504
 20
-177.719696
 30
0.0
 10
57.813377
 20
-177.577922
 30
0.0
 10
57.234647
 20
-177.224137
 30
0.0
 10
56.525995
 20
-176.753540
 30
0.0
 10
55.821577
 20
-176.568196
 30
0.0
 10
55.255549
 20
-177.070176
 30
0.0
 10
54.927777
 20
-177.478275
 30
0.0
 10
54.842918
 20
-177.987170
 30
0.0
 10
55.015881
 20
-178.480613
 30
0.0
 10
55.461566
 20
-178.842354
 30
0.0
 10
56.373742
 20
-179.532317
 30
0.0
 10
57.238254
 20
-180.264404
 30
0.0
 10
58.046056
 20
-181.048558
 30
0.0
 10
58.788114
 20
-181.894720
 30
0.0
 10
58.941761
 20
-182.102190
 30
0.0
 10
59.079598
 20
-182.321375
 30
0.0
 10
59.200500
 20
-182.550336
 30
0.0
 10
59.303350
 20
-182.787135
 30
0.0
 10
59.666231
 20
-183.853681
 30
0.0
 10
59.943278
 20
-184.946705
 30
0.0
 10
60.145397
 20
-186.061708
 30
0.0
 10
60.283505
 20
-187.194190
 30
0.0
 10
60.373937
 20
-187.761033
 30
0.0
 10
60.714791
 20
-188.157556
 30
0.0
 10
61.197939
 20
-188.338516
 30
0.0
 10
61.715252
 20
-188.258704
 30
0.0
 10
62.447833
 20
-188.027479
 30
0.0
 10
62.630547
 20
-187.321246
 30
0.0
 10
62.565413
 20
-186.466503
 30
0.0
 10
62.554434
 20
-185.789680
 30
0.0
 10
62.639586
 20
-185.384482
 30
0.0
 10
62.684956
 20
-185.085067
 30
0.0
 10
62.725760
 20
-184.828589
 30
0.0
 10
62.797207
 20
-184.552198
 30
0.0
 10
62.898926
 20
-184.190426
 30
0.0
 10
63.060041
 20
-183.850684
 30
0.0
 10
63.266958
 20
-183.531744
 30
0.0
 10
63.506088
 20
-183.232385
 30
0.0
 10
64.234503
 20
-182.638500
 30
0.0
 10
65.084624
 20
-182.097485
 30
0.0
 10
65.987001
 20
-181.680872
 30
0.0
 10
66.872183
 20
-181.460185
 30
0.0
 10
67.422965
 20
-181.316636
 30
0.0
 10
68.009753
 20
-181.268268
 30
0.0
 10
68.548987
 20
-181.115442
 30
0.0
 10
68.957100
 20
-180.658510
 30
0.0
 10
69.546318
 20
-180.238665
 30
0.0
 10
70.183872
 20
-179.868632
 30
0.0
 10
70.769946
 20
-179.513354
 30
0.0
 10
71.204717
 20
-179.137787
 30
0.0
 10
71.619291
 20
-178.659711
 30
0.0
 10
72.163223
 20
-178.335864
 30
0.0
 10
72.780339
 20
-178.146560
 30
0.0
 10
73.414458
 20
-178.072116
 30
0.0
 10
73.758758
 20
-178.097375
 30
0.0
 10
74.108897
 20
-178.133163
 30
0.0
 10
74.439049
 20
-178.232585
 30
0.0
 10
74.723388
 20
-178.448741
 30
0.0
 10
75.247195
 20
-178.686708
 30
0.0
 10
75.680576
 20
-179.108010
 30
0.0
 10
76.061257
 20
-179.621423
 30
0.0
 10
76.426977
 20
-180.135739
 30
0.0
 10
76.780339
 20
-180.218707
 30
0.0
 10
77.217637
 20
-180.157292
 30
0.0
 10
77.682409
 20
-180.069307
 30
0.0
 10
78.118185
 20
-180.072552
 30
0.0
 10
78.201452
 20
-179.847026
 30
0.0
 10
78.460321
 20
-179.647094
 30
0.0
 10
78.822245
 20
-179.548324
 30
0.0
 10
79.214672
 20
-179.626274
 30
0.0
 10
79.425580
 20
-179.842490
 30
0.0
 10
79.611827
 20
-180.079625
 30
0.0
 10
79.859307
 20
-180.212791
 30
0.0
 10
80.253913
 20
-180.117101
 30
0.0
 10
80.600034
 20
-180.231974
 30
0.0
 10
80.937038
 20
-180.342650
 30
0.0
 10
81.277844
 20
-180.443372
 30
0.0
 10
81.635374
 20
-180.528378
 30
0.0
 10
81.873200
 20
-180.949515
 30
0.0
 10
81.870378
 20
-181.457428
 30
0.0
 10
81.918765
 20
-181.867474
 30
0.0
 10
82.309826
 20
-181.995013
 30
0.0
 10
82.663561
 20
-182.041800
 30
0.0
 10
83.017199
 20
-182.076917
 30
0.0
 10
83.378300
 20
-182.101160
 30
0.0
 10
83.754420
 20
-182.115299
 30
0.0
 10
84.123970
 20
-182.118629
 30
0.0
 10
84.486753
 20
-182.125854
 30
0.0
 10
84.882403
 20
-182.160796
 30
0.0
 10
85.350548
 20
-182.247323
 30
0.0
 10
85.941157
 20
-182.362331
 30
0.0
 10
86.627408
 20
-182.493793
 30
0.0
 10
87.333729
 20
-182.682165
 30
0.0
 10
87.984556
 20
-182.967907
 30
0.0
 10
88.673203
 20
-183.437095
 30
0.0
 10
89.238393
 20
-184.169541
 30
0.0
 10
89.692542
 20
-184.999777
 30
0.0
 10
90.048069
 20
-185.762341
 30
0.0
 10
90.395030
 20
-186.839575
 30
0.0
 10
90.547467
 20
-187.861787
 30
0.0
 10
90.599726
 20
-188.864409
 30
0.0
 10
90.646151
 20
-189.882921
 30
0.0
 10
90.689834
 20
-190.691008
 30
0.0
 10
90.704396
 20
-191.500675
 30
0.0
 10
90.689834
 20
-192.310314
 30
0.0
 10
90.646151
 20
-193.118401
 30
0.0
 10
90.599726
 20
-194.136885
 30
0.0
 10
90.547467
 20
-195.139536
 30
0.0
 10
90.395027
 20
-196.161745
 30
0.0
 10
90.048066
 20
-197.238987
 30
0.0
 10
89.692539
 20
-198.001551
 30
0.0
 10
89.238390
 20
-198.831793
 30
0.0
 10
88.673201
 20
-199.564216
 30
0.0
 10
87.984556
 20
-200.033410
 30
0.0
 10
87.333729
 20
-200.319160
 30
0.0
 10
86.627408
 20
-200.507515
 30
0.0
 10
85.941154
 20
-200.639003
 30
0.0
 10
85.350542
 20
-200.754008
 30
0.0
 10
84.882400
 20
-200.840538
 30
0.0
 10
84.486750
 20
-200.875477
 30
0.0
 10
84.123967
 20
-200.882532
 30
0.0
 10
83.754417
 20
-200.885919
 30
0.0
 10
83.378300
 20
-200.900030
 30
0.0
 10
83.017196
 20
-200.924301
 30
0.0
 10
82.663558
 20
-200.959438
 30
0.0
 10
82.309823
 20
-201.006230
 30
0.0
 10
81.918762
 20
-201.133766
 30
0.0
 10
81.870375
 20
-201.543835
 30
0.0
 10
81.873197
 20
-202.051751
 30
0.0
 10
81.635374
 20
-202.472883
 30
0.0
 10
81.277844
 20
-202.557888
 30
0.0
 10
80.937035
 20
-202.658613
 30
0.0
 10
80.600031
 20
-202.769272
 30
0.0
 10
80.253911
 20
-202.884165
 30
0.0
 10
79.859305
 20
-202.788464
 30
0.0
 10
79.611827
 20
-202.921644
 30
0.0
 10
79.425577
 20
-203.158767
 30
0.0
 10
79.214667
 20
-203.374978
 30
0.0
 10
78.822242
 20
-203.452928
 30
0.0
 10
78.460323
 20
-203.354150
 30
0.0
 10
78.201455
 20
-203.154224
 30
0.0
 10
78.118185
 20
-202.928700
 30
0.0
 10
77.682406
 20
-202.932086
 30
0.0
 10
77.217637
 20
-202.844118
 30
0.0
 10
76.780339
 20
-202.782678
 30
0.0
 10
76.426977
 20
-202.865651
 30
0.0
 10
76.061257
 20
-203.379973
 30
0.0
 10
75.680573
 20
-203.893392
 30
0.0
 10
75.247195
 20
-204.314693
 30
0.0
 10
74.723385
 20
-204.552663
 30
0.0
 10
74.439046
 20
-204.768817
 30
0.0
 10
74.108894
 20
-204.868244
 30
0.0
 10
73.758755
 20
-204.904030
 30
0.0
 10
73.414458
 20
-204.929430
 30
0.0
 10
72.780339
 20
-204.854979
 30
0.0
 10
72.163223
 20
-204.665665
 30
0.0
 10
71.619288
 20
-204.341815
 30
0.0
 10
71.204715
 20
-203.863758
 30
0.0
 10
70.769943
 20
-203.488177
 30
0.0
 10
70.183872
 20
-203.132916
 30
0.0
 10
69.546318
 20
-202.762866
 30
0.0
 10
68.957097
 20
-202.343032
 30
0.0
 10
68.548984
 20
-201.886086
 30
0.0
 10
68.009753
 20
-201.733263
 30
0.0
 10
67.422962
 20
-201.684890
 30
0.0
 10
66.872177
 20
-201.541352
 30
0.0
 10
65.986999
 20
-201.320682
 30
0.0
 10
65.084624
 20
-200.904066
 30
0.0
 10
64.234503
 20
-200.363046
 30
0.0
 10
63.506088
 20
-199.769166
 30
0.0
 10
63.266955
 20
-199.469812
 30
0.0
 10
63.060035
 20
-199.150873
 30
0.0
 10
62.898923
 20
-198.811134
 30
0.0
 10
62.797207
 20
-198.449353
 30
0.0
 10
62.721637
 20
-198.174441
 30
0.0
 10
62.673961
 20
-197.920412
 30
0.0
 10
62.627216
 20
-197.621483
 30
0.0
 10
62.554434
 20
-197.211865
 30
0.0
 10
62.571452
 20
-196.533770
 30
0.0
 10
62.624676
 20
-195.684761
 30
0.0
 10
62.432980
 20
-194.982056
 30
0.0
 10
61.715238
 20
-194.742844
 30
0.0
 10
61.197927
 20
-194.663032
 30
0.0
 10
60.714780
 20
-194.843993
 30
0.0
 10
60.373929
 20
-195.240487
 30
0.0
 10
60.283496
 20
-195.807330
 30
0.0
 10
60.142058
 20
-196.942287
 30
0.0
 10
59.940306
 20
-198.057036
 30
0.0
 10
59.665111
 20
-199.148672
 30
0.0
 10
59.303341
 20
-200.214399
 30
0.0
 10
59.200491
 20
-200.451212
 30
0.0
 10
59.079587
 20
-200.680151
 30
0.0
 10
58.941750
 20
-200.899353
 30
0.0
 10
58.788105
 20
-201.106814
 30
0.0
 10
58.046047
 20
-201.952973
 30
0.0
 10
57.238245
 20
-202.737127
 30
0.0
 10
56.373734
 20
-203.469212
 30
0.0
 10
55.461558
 20
-204.159189
 30
0.0
 10
55.015872
 20
-204.520913
 30
0.0
 10
54.842910
 20
-205.014378
 30
0.0
 10
54.927768
 20
-205.523282
 30
0.0
 10
55.255541
 20
-205.931375
 30
0.0
 10
55.821569
 20
-206.433335
 30
0.0
 10
56.525987
 20
-206.248000
 30
0.0
 10
57.234638
 20
-205.777394
 30
0.0
 10
57.813369
 20
-205.423629
 30
0.0
 10
58.204498
 20
-205.281869
 30
0.0
 10
58.486746
 20
-205.172874
 30
0.0
 10
58.730577
 20
-205.087135
 30
0.0
 10
59.006449
 20
-205.015112
 30
0.0
 10
59.370609
 20
-204.922318
 30
0.0
 10
59.745392
 20
-204.891979
 30
0.0
 10
60.125060
 20
-204.911734
 30
0.0
 10
60.503878
 20
-204.969138
 30
0.0
 10
61.382408
 20
-205.303035
 30
0.0
 10
62.275999
 20
-205.768758
 30
0.0
 10
63.087987
 20
-206.341924
 30
0.0
 10
63.721697
 20
-206.998175
 30
0.0
 10
64.121408
 20
-207.403390
 30
0.0
 10
64.456688
 20
-207.887372
 30
0.0
 10
64.858657
 20
-208.277968
 30
0.0
 10
65.458425
 20
-208.402936
 30
0.0
 10
66.116632
 20
-208.703277
 30
0.0
 10
66.755868
 20
-209.070392
 30
0.0
 10
67.356581
 20
-209.400309
 30
0.0
 10
67.899218
 20
-209.589060
 30
0.0
 10
68.520530
 20
-209.709060
 30
0.0
 10
69.072958
 20
-210.018178
 30
0.0
 10
69.545457
 20
-210.457965
 30
0.0
 10
69.926987
 20
-210.969916
 30
0.0
 10
70.077259
 20
-211.280728
 30
0.0
 10
70.221334
 20
-211.601840
 30
0.0
 10
70.300308
 20
-211.937459
 30
0.0
 10
70.255282
 20
-212.291789
 30
0.0
 10
70.311100
 20
-212.864418
 30
0.0
 10
70.162934
 20
-213.450368
 30
0.0
 10
69.908646
 20
-214.036769
 30
0.0
 10
69.646097
 20
-214.610640
 30
0.0
 10
69.750926
 20
-214.958168
 30
0.0
 10
70.022760
 20
-215.306176
 30
0.0
 10
70.331347
 20
-215.664655
 30
0.0
 10
70.546423
 20
-216.043679
 30
0.0
 10
70.783368
 20
-216.003039
 30
0.0
 10
71.085947
 20
-216.127245
 30
0.0
 10
71.352447
 20
-216.391292
 30
0.0
 10
71.481151
 20
-216.770119
 30
0.0
 10
71.399363
 20
-217.060893
 30
0.0
 10
71.287121
 20
-217.340773
 30
0.0
 10
71.295531
 20
-217.621668
 30
0.0
 10
71.575701
 20
-217.915546
 30
0.0
 10
71.649277
 20
-218.272727
 30
0.0
 10
71.721932
 20
-218.619917
 30
0.0
 10
71.805109
 20
-218.965441
 30
0.0
 10
71.910256
 20
-219.317570
 30
0.0
 10
71.664452
 20
-219.734102
 30
0.0
 10
71.223240
 20
-219.985731
 30
0.0
 10
70.892323
 20
-220.232647
 30
0.0
 10
70.977402
 20
-220.635096
 30
0.0
 10
71.113752
 20
-220.964816
 30
0.0
 10
71.260157
 20
-221.288638
 30
0.0
 10
71.419720
 20
-221.613476
 30
0.0
 10
71.595533
 20
-221.946272
 30
0.0
 10
71.777414
 20
-222.267978
 30
0.0
 10
71.952558
 20
-222.585760
 30
0.0
 10
72.120122
 20
-222.945875
 30
0.0
 10
72.279262
 20
-223.394580
 30
0.0
 10
72.474966
 20
-223.963569
 30
0.0
 10
72.704243
 20
-224.623602
 30
0.0
 10
72.894269
 20
-225.329496
 30
0.0
 10
72.972224
 20
-226.035983
 30
0.0
 10
72.910217
 20
-226.866958
 30
0.0
 10
72.558498
 20
-227.722656
 30
0.0
 10
72.066568
 20
-228.531081
 30
0.0
 10
71.583928
 20
-229.220268
 30
0.0
 10
70.824494
 20
-230.059371
 30
0.0
 10
70.015447
 20
-230.702471
 30
0.0
 10
69.173273
 20
-231.249051
 30
0.0
 10
68.314446
 20
-231.798509
 30
0.0
 10
67.636466
 20
-232.240384
 30
0.0
 10
66.942564
 20
-232.657819
 30
0.0
 10
66.234098
 20
-233.050024
 30
0.0
 10
65.512439
 20
-233.416235
 30
0.0
 10
64.607186
 20
-233.885288
 30
0.0
 10
63.712753
 20
-234.341331
 30
0.0
 10
62.751270
 20
-234.720440
 30
0.0
 10
61.644871
 20
-234.958580
 30
0.0
 10
60.806708
 20
-235.031957
 30
0.0
 10
59.860626
 20
-235.053688
 30
0.0
 10
58.943717
 20
-234.930442
 30
0.0
 10
58.193062
 20
-234.568661
 30
0.0
 10
57.620194
 20
-234.147896
 30
0.0
 10
57.103899
 20
-233.630385
 30
0.0
 10
56.646925
 20
-233.101811
 30
0.0
 10
56.252017
 20
-232.647829
 30
0.0
 10
55.943012
 20
-232.285681
 30
0.0
 10
55.714923
 20
-231.960505
 30
0.0
 10
55.527287
 20
-231.649919
 30
0.0
 10
55.339621
 20
-231.331572
 30
0.0
 10
55.139311
 20
-231.012887
 30
0.0
 10
54.937776
 20
-230.712292
 30
0.0
 10
54.730543
 20
-230.423579
 30
0.0
 10
54.513158
 20
-230.140651
 30
0.0
 10
54.207173
 20
-229.865738
 30
0.0
 10
53.827872
 20
-230.028863
 30
0.0
 10
53.389352
 20
-230.285149
 30
0.0
 10
52.905725
 20
-230.289664
 30
0.0
 10
52.653342
 20
-230.022541
 30
0.0
 10
52.395710
 20
-229.777770
 30
0.0
 10
52.131361
 20
-229.541239
 30
0.0
 10
51.858816
 20
-229.298923
 30
0.0
 10
51.744383
 20
-228.909344
 30
0.0
 10
51.505318
 20
-228.761600
 30
0.0
 10
51.206829
 20
-228.718872
 30
0.0
 10
50.914128
 20
-228.644337
 30
0.0
 10
50.650408
 20
-228.343460
 30
0.0
 10
50.554983
 20
-227.980635
 30
0.0
 10
50.598694
 20
-227.656503
 30
0.0
 10
50.752372
 20
-227.471619
 30
0.0
 10
50.531672
 20
-227.095840
 30
0.0
 10
50.375484
 20
-226.649336
 30
0.0
 10
50.210023
 20
-226.239917
 30
0.0
 10
49.961490
 20
-225.975390
 30
0.0
 10
49.333218
 20
-225.915841
 30
0.0
 10
48.698246
 20
-225.842858
 30
0.0
 10
48.116702
 20
-225.678182
 30
0.0
 10
47.648712
 20
-225.343551
 30
0.0
 10
47.319348
 20
-225.205375
 30
0.0
 10
47.068170
 20
-224.969155
 30
0.0
 10
46.862105
 20
-224.683828
 30
0.0
 10
46.668078
 20
-224.398276
 30
0.0
 10
46.415489
 20
-223.811902
 30
0.0
 10
46.270872
 20
-223.182801
 30
0.0
 10
46.279367
 20
-222.549833
 30
0.0
 10
46.486106
 20
-221.951748
 30
0.0
 10
46.593974
 20
-221.387444
 30
0.0
 10
46.608622
 20
-220.702265
 30
0.0
 10
46.610315
 20
-219.965101
 30
0.0
 10
46.679299
 20
-219.244898
 30
0.0
 10
46.870953
 20
-218.663012
 30
0.0
 10
46.733689
 20
-218.119593
 30
0.0
 10
46.482181
 20
-217.587237
 30
0.0
 10
46.331107
 20
-217.038484
 30
0.0
 10
46.079639
 20
-216.161535
 30
0.0
 10
45.989248
 20
-215.171754
 30
0.0
 10
46.032719
 20
-214.165039
 30
0.0
 10
46.182830
 20
-213.237262
 30
0.0
 10
46.322519
 20
-212.880476
 30
0.0
 10
46.495270
 20
-212.541810
 30
0.0
 10
46.708938
 20
-212.232409
 30
0.0
 10
46.971382
 20
-211.963423
 30
0.0
 10
47.175019
 20
-211.763356
 30
0.0
 10
47.376735
 20
-211.599780
 30
0.0
 10
47.613350
 20
-211.410804
 30
0.0
 10
47.921686
 20
-211.134452
 30
0.0
 10
48.513320
 20
-210.805550
 30
0.0
 10
49.286123
 20
-210.434569
 30
0.0
 10
49.806369
 20
-209.923211
 30
0.0
 10
49.640326
 20
-209.173177
 30
0.0
 10
49.450789
 20
-208.685271
 30
0.0
 10
49.052500
 20
-208.357329
 30
0.0
 10
48.538683
 20
-208.260414
 30
0.0
 10
48.002565
 20
-208.465505
 30
0.0
 10
46.952752
 20
-208.912150
 30
0.0
 10
45.886068
 20
-209.294617
 30
0.0
 10
44.800957
 20
-209.601195
 30
0.0
 10
43.695863
 20
-209.820200
 30
0.0
 10
43.695874
 20
-209.820171
 30
0.0
 10
43.695874
 20
-209.820171
 30
0.0
  0
LWPOLYLINE
  5
102
100
AcDbEntity
  8
0
 62
7
100
AcDbPolyline
 90
22
 70
0
 10
68.205364
 20
-219.127832
 30
0.0
 10
68.569301
 20
-219.490572
 30
0.0
 10
69.014032
 20
-219.919522
 30
0.0
 10
69.261603
 20
-220.349459
 30
0.0
 10
69.034059
 20
-220.715276
 30
0.0
 10
67.936398
 20
-221.506570
 30
0.0
 10
66.795436
 20
-222.248532
 30
0.0
 10
65.652334
 20
-222.985951
 30
0.0
 10
64.548244
 20
-223.763727
 30
0.0
 10
64.232852
 20
-224.075075
 30
0.0
 10
63.868224
 20
-224.314399
 30
0.0
 10
63.489422
 20
-224.406573
 30
0.0
 10
63.131497
 20
-224.276553
 30
0.0
 10
63.730460
 20
-222.747106
 30
0.0
 10
64.483290
 20
-221.062917
 30
0.0
 10
65.402711
 20
-219.475727
 30
0.0
 10
66.501439
 20
-218.237449
 30
0.0
 10
66.930479
 20
-218.303489
 30
0.0
 10
67.401491
 20
-218.536887
 30
0.0
 10
67.848457
 20
-218.843183
 30
0.0
 10
68.205364
 20
-219.127832
 30
0.0
 10
68.205364
 20
-219.127832
 30
0.0
  0
LWPOLYLINE
  5
103
100
AcDbEntity
  8
0
 62
7
100
AcDbPolyline
 90
31
 70
0
 10
66.676453
 20
-214.416160
 30
0.0
 10
66.802722
 20
-214.813106
 30
0.0
 10
67.075233
 20
-215.029401
 30
0.0
 10
67.411309
 20
-215.211519
 30
0.0
 10
67.728270
 20
-215.505933
 30
0.0
 10
67.900592
 20
-215.798090
 30
0.0
 10
68.015271
 20
-216.119484
 30
0.0
 10
68.109617
 20
-216.446467
 30
0.0
 10
68.220946
 20
-216.755416
 30
0.0
 10
68.381200
 20
-217.076020
 30
0.0
 10
68.554312
 20
-217.392137
 30
0.0
 10
68.720377
 20
-217.709750
 30
0.0
 10
68.859781
 20
-218.034785
 30
0.0
 10
68.769902
 20
-218.143751
 30
0.0
 10
68.482662
 20
-217.914530
 30
0.0
 10
68.138703
 20
-217.492919
 30
0.0
 10
67.878669
 20
-217.024740
 30
0.0
 10
67.457492
 20
-216.757335
 30
0.0
 10
66.798052
 20
-216.676309
 30
0.0
 10
66.292908
 20
-216.534972
 30
0.0
 10
66.334626
 20
-216.086605
 30
0.0
 10
66.674986
 20
-215.797751
 30
0.0
 10
66.778166
 20
-215.394625
 30
0.0
 10
66.724812
 20
-214.954922
 30
0.0
 10
66.595574
 20
-214.556255
 30
0.0
 10
66.548892
 20
-214.437976
 30
0.0
 10
66.560830
 20
-214.322124
 30
0.0
 10
66.610365
 20
-214.288314
 30
0.0
 10
66.676439
 20
-214.416160
 30
0.0
 10
66.676453
 20
-214.416160
 30
0.0
 10
66.676453
 20
-214.416160
 30
0.0
  0
LWPOLYLINE
  5
104
100
AcDbEntity
  8
0
 62
7
100
AcDbPolyline
 90
35
 70
0
 10
61.081161
 20
-207.123312
 30
0.0
 10
61.293485
 20
-207.414058
 30
0.0
 10
61.470348
 20
-207.719478
 30
0.0
 10
61.602501
 20
-208.046828
 30
0.0
 10
61.680708
 20
-208.403359
 30
0.0
 10
61.507661
 20
-208.974605
 30
0.0
 10
61.215631
 20
-209.483932
 30
0.0
 10
60.816055
 20
-209.886973
 30
0.0
 10
60.320372
 20
-210.139449
 30
0.0
 10
59.904432
 20
-210.159205
 30
0.0
 10
59.488462
 20
-210.122488
 30
0.0
 10
59.073133
 20
-210.080719
 30
0.0
 10
58.659118
 20
-210.085234
 30
0.0
 10
58.358526
 20
-210.159656
 30
0.0
 10
58.063412
 20
-210.275876
 30
0.0
 10
57.768764
 20
-210.372085
 30
0.0
 10
57.469560
 20
-210.386478
 30
0.0
 10
56.971300
 20
-210.251181
 30
0.0
 10
56.479609
 20
-210.014792
 30
0.0
 10
56.074784
 20
-209.710726
 30
0.0
 10
55.837125
 20
-209.372285
 30
0.0
 10
55.913717
 20
-208.712364
 30
0.0
 10
56.261011
 20
-208.091645
 30
0.0
 10
56.750924
 20
-207.554971
 30
0.0
 10
57.255368
 20
-207.147216
 30
0.0
 10
57.554777
 20
-206.997244
 30
0.0
 10
57.845407
 20
-206.827600
 30
0.0
 10
58.148494
 20
-206.682284
 30
0.0
 10
58.485267
 20
-206.605293
 30
0.0
 10
59.134838
 20
-206.487861
 30
0.0
 10
59.871031
 20
-206.527908
 30
0.0
 10
60.563317
 20
-206.736216
 30
0.0
 10
61.081161
 20
-207.123453
 30
0.0
 10
61.081161
 20
-207.123312
 30
0.0
 10
61.081161
 20
-207.123312
 30
0.0
  0
LWPOLYLINE
  5
105
100
AcDbEntity
  8
0
 62
7
100
AcDbPolyline
 90
23
 70
0
 10
54.594057
 20
-226.986310
 30
0.0
 10
54.726242
 20
-227.482880
 30
0.0
 10
54.875340
 20
-228.082489
 30
0.0
 10
55.123898
 20
-228.511862
 30
0.0
 10
55.554474
 20
-228.497751
 30
0.0
 10
56.788589
 20
-227.942789
 30
0.0
 10
58.001617
 20
-227.325654
 30
0.0
 10
59.211811
 20
-226.704426
 30
0.0
 10
60.437429
 20
-226.137131
 30
0.0
 10
60.864764
 20
-226.019670
 30
0.0
 10
61.254327
 20
-225.823554
 30
0.0
 10
61.523564
 20
-225.541614
 30
0.0
 10
61.589928
 20
-225.166626
 30
0.0
 10
59.965915
 20
-224.920612
 30
0.0
 10
58.130925
 20
-224.730479
 30
0.0
 10
56.296693
 20
-224.733302
 30
0.0
 10
54.674937
 20
-225.065675
 30
0.0
 10
54.517603
 20
-225.470240
 30
0.0
 10
54.484236
 20
-225.994835
 30
0.0
 10
54.525999
 20
-226.535065
 30
0.0
 10
54.594057
 20
-226.986479
 30
0.0
 10
54.594057
 20
-226.986310
 30
0.0
 10
54.594057
 20
-226.986310
 30
0.0
  0
LWPOLYLINE
  5
106
100
AcDbEntity
  8
0
 62
7
100
AcDbPolyline
 90
31
 70
0
 10
51.278096
 20
-223.306414
 30
0.0
 10
51.558723
 20
-223.614234
 30
0.0
 10
51.609775
 20
-223.958376
 30
0.0
 10
51.599445
 20
-224.340476
 30
0.0
 10
51.695957
 20
-224.762201
 30
0.0
 10
51.862801
 20
-225.057518
 30
0.0
 10
52.083789
 20
-225.317502
 30
0.0
 10
52.319795
 20
-225.562724
 30
0.0
 10
52.531685
 20
-225.813592
 30
0.0
 10
52.729209
 20
-226.112691
 30
0.0
 10
52.916418
 20
-226.420680
 30
0.0
 10
53.108465
 20
-226.723307
 30
0.0
 10
53.320236
 20
-227.006545
 30
0.0
 10
53.459538
 20
-226.983121
 30
0.0
 10
53.404643
 20
-226.619760
 30
0.0
 10
53.211501
 20
-226.111082
 30
0.0
 10
52.936069
 20
-225.651794
 30
0.0
 10
52.915072
 20
-225.153333
 30
0.0
 10
53.174646
 20
-224.541757
 30
0.0
 10
53.304818
 20
-224.033616
 30
0.0
 10
52.895624
 20
-223.845543
 30
0.0
 10
52.475302
 20
-223.995883
 30
0.0
 10
52.074603
 20
-223.883672
 30
0.0
 10
51.720468
 20
-223.617621
 30
0.0
 10
51.439837
 20
-223.306358
 30
0.0
 10
51.360739
 20
-223.206790
 30
0.0
 10
51.254437
 20
-223.159207
 30
0.0
 10
51.200394
 20
-223.185172
 30
0.0
 10
51.278079
 20
-223.306330
 30
0.0
 10
51.278096
 20
-223.306414
 30
0.0
 10
51.278096
 20
-223.306414
 30
0.0
  0
LWPOLYLINE
  5
107
100
AcDbEntity
  8
0
 62
7
100
AcDbPolyline
 90
35
 70
0
 10
47.759945
 20
-214.814319
 30
0.0
 10
47.905588
 20
-215.143588
 30
0.0
 10
48.081647
 20
-215.449460
 30
0.0
 10
48.299048
 20
-215.727562
 30
0.0
 10
48.568717
 20
-215.973575
 30
0.0
 10
49.149965
 20
-216.109324
 30
0.0
 10
49.737061
 20
-216.112146
 30
0.0
 10
50.285907
 20
-215.967649
 30
0.0
 10
50.752398
 20
-215.664598
 30
0.0
 10
50.977374
 20
-215.314220
 30
0.0
 10
51.153560
 20
-214.935618
 30
0.0
 10
51.325038
 20
-214.555042
 30
0.0
 10
51.535892
 20
-214.198708
 30
0.0
 10
51.750654
 20
-213.975611
 30
0.0
 10
51.998855
 20
-213.778140
 30
0.0
 10
52.229501
 20
-213.571074
 30
0.0
 10
52.391612
 20
-213.319162
 30
0.0
 10
52.523557
 20
-212.819996
 30
0.0
 10
52.564696
 20
-212.276013
 30
0.0
 10
52.503767
 20
-211.773375
 30
0.0
 10
52.329501
 20
-211.398330
 30
0.0
 10
51.719700
 20
-211.134706
 30
0.0
 10
51.008492
 20
-211.125110
 30
0.0
 10
50.298765
 20
-211.281066
 30
0.0
 10
49.693412
 20
-211.514041
 30
0.0
 10
49.413832
 20
-211.698360
 30
0.0
 10
49.121599
 20
-211.865238
 30
0.0
 10
48.844211
 20
-212.055061
 30
0.0
 10
48.609154
 20
-212.308214
 30
0.0
 10
48.182668
 20
-212.812037
 30
0.0
 10
47.849259
 20
-213.469615
 30
0.0
 10
47.683493
 20
-214.173308
 30
0.0
 10
47.759945
 20
-214.815392
 30
0.0
 10
47.759945
 20
-214.815392
 30
0.0
 10
47.759945
 20
-214.814319
 30
0.0
  0
LWPOLYLINE
  5
108
100
AcDbEntity
  8
0
 62
7
100
AcDbPolyline
 90
26
 70
0
 10
57.788703
 20
-228.773567
 30
0.0
 10
56.962751
 20
-229.071170
 30
0.0
 10
56.264725
 20
-229.339422
 30
0.0
 10
55.873757
 20
-229.759482
 30
0.0
 10
55.968971
 20
-230.512422
 30
0.0
 10
56.526272
 20
-230.421688
 30
0.0
 10
57.045823
 20
-230.255008
 30
0.0
 10
57.547595
 20
-230.055279
 30
0.0
 10
58.051553
 20
-229.865400
 30
0.0
 10
60.887616
 20
-228.591054
 30
0.0
 10
63.765323
 20
-227.086866
 30
0.0
 10
66.515745
 20
-225.396044
 30
0.0
 10
68.969963
 20
-223.561656
 30
0.0
 10
69.386388
 20
-223.220139
 30
0.0
 10
69.810238
 20
-222.885452
 30
0.0
 10
70.214357
 20
-222.518845
 30
0.0
 10
70.571589
 20
-222.081570
 30
0.0
 10
70.014996
 20
-221.597954
 30
0.0
 10
69.406547
 20
-221.732800
 30
0.0
 10
68.776681
 20
-222.218673
 30
0.0
 10
68.155828
 20
-222.788085
 30
0.0
 10
65.596773
 20
-224.581720
 30
0.0
 10
63.148123
 20
-226.084977
 30
0.0
 10
60.611543
 20
-227.436172
 30
0.0
 10
57.788703
 20
-228.773567
 30
0.0
 10
57.788703
 20
-228.773567
 30
0.0
  0
LWPOLYLINE
  5
109
100
AcDbEntity
  8
0
 62
7
100
AcDbPolyline
 90
43
 70
0
 10
60.002321
 20
-219.273910
 30
0.0
 10
59.755521
 20
-219.513602
 30
0.0
 10
59.468317
 20
-219.711806
 30
0.0
 10
59.153061
 20
-219.861440
 30
0.0
 10
58.822096
 20
-219.955336
 30
0.0
 10
57.237300
 20
-219.909192
 30
0.0
 10
55.693880
 20
-219.645004
 30
0.0
 10
54.146151
 20
-219.381691
 30
0.0
 10
52.548437
 20
-219.338229
 30
0.0
 10
52.039687
 20
-219.422811
 30
0.0
 10
51.565596
 20
-219.516650
 30
0.0
 10
51.454115
 20
-219.603461
 30
0.0
 10
52.033207
 20
-219.666961
 30
0.0
 10
53.359648
 20
-219.634477
 30
0.0
 10
54.568491
 20
-219.851845
 30
0.0
 10
55.745744
 20
-220.182271
 30
0.0
 10
56.977404
 20
-220.488933
 30
0.0
 10
57.582336
 20
-220.693911
 30
0.0
 10
58.174647
 20
-220.887713
 30
0.0
 10
58.763783
 20
-221.010226
 30
0.0
 10
59.359193
 20
-221.001477
 30
0.0
 10
59.721135
 20
-220.907610
 30
0.0
 10
60.065906
 20
-220.746913
 30
0.0
 10
60.377451
 20
-220.528698
 30
0.0
 10
60.639717
 20
-220.262168
 30
0.0
 10
60.945059
 20
-219.750950
 30
0.0
 10
61.133505
 20
-219.179450
 30
0.0
 10
61.261825
 20
-218.569596
 30
0.0
 10
61.386791
 20
-217.943232
 30
0.0
 10
61.685015
 20
-216.657202
 30
0.0
 10
62.040558
 20
-215.513948
 30
0.0
 10
62.509279
 20
-214.412153
 30
0.0
 10
63.147025
 20
-213.250441
 30
0.0
 10
63.381591
 20
-212.717182
 30
0.0
 10
63.250668
 20
-212.770325
 30
0.0
 10
62.932350
 20
-213.133968
 30
0.0
 10
62.604735
 20
-213.532268
 30
0.0
 10
61.802332
 20
-214.930087
 30
0.0
 10
61.280147
 20
-216.395752
 30
0.0
 10
60.769655
 20
-217.865113
 30
0.0
 10
60.002321
 20
-219.273967
 30
0.0
 10
60.002321
 20
-219.273910
 30
0.0
 10
60.002321
 20
-219.273910
 30
0.0
  0
LWPOLYLINE
  5
10a
100
AcDbEntity
  8
0
 62
7
100
AcDbPolyline
 90
51
 70
0
 10
55.705462
 20
-196.619424
 30
0.0
 10
55.498977
 20
-197.451839
 30
0.0
 10
55.064824
 20
-198.362062
 30
0.0
 10
54.493617
 20
-199.193150
 30
0.0
 10
53.875977
 20
-199.788187
 30
0.0
 10
53.380936
 20
-200.160072
 30
0.0
 10
53.136185
 20
-200.480196
 30
0.0
 10
53.170314
 20
-200.829305
 30
0.0
 10
53.511916
 20
-201.288170
 30
0.0
 10
53.593647
 20
-201.700356
 30
0.0
 10
53.210234
 20
-202.088270
 30
0.0
 10
52.683946
 20
-202.482196
 30
0.0
 10
52.337058
 20
-202.912500
 30
0.0
 10
51.873841
 20
-203.137601
 30
0.0
 10
51.786358
 20
-203.461112
 30
0.0
 10
51.990487
 20
-203.812281
 30
0.0
 10
52.402094
 20
-204.120298
 30
0.0
 10
53.251264
 20
-203.541856
 30
0.0
 10
54.034715
 20
-202.847533
 30
0.0
 10
54.809842
 20
-202.150585
 30
0.0
 10
55.634029
 20
-201.564325
 30
0.0
 10
56.093967
 20
-201.156542
 30
0.0
 10
56.566449
 20
-200.769305
 30
0.0
 10
57.023361
 20
-200.370863
 30
0.0
 10
57.436585
 20
-199.929440
 30
0.0
 10
57.487882
 20
-199.860493
 30
0.0
 10
57.533822
 20
-199.787538
 30
0.0
 10
57.574022
 20
-199.711282
 30
0.0
 10
57.608092
 20
-199.632372
 30
0.0
 10
57.783764
 20
-199.053789
 30
0.0
 10
57.900384
 20
-198.458864
 30
0.0
 10
57.999497
 20
-197.856066
 30
0.0
 10
58.122665
 20
-197.253860
 30
0.0
 10
58.218290
 20
-196.246976
 30
0.0
 10
58.434300
 20
-195.227222
 30
0.0
 10
58.643890
 20
-194.201570
 30
0.0
 10
58.720256
 20
-193.176934
 30
0.0
 10
58.247701
 20
-192.974468
 30
0.0
 10
57.841521
 20
-192.974468
 30
0.0
 10
57.605078
 20
-193.212014
 30
0.0
 10
57.641733
 20
-193.725715
 30
0.0
 10
57.442535
 20
-194.241279
 30
0.0
 10
57.364526
 20
-194.894031
 30
0.0
 10
57.220302
 20
-195.420008
 30
0.0
 10
56.822464
 20
-195.555334
 30
0.0
 10
56.254275
 20
-195.488927
 30
0.0
 10
55.934861
 20
-195.633933
 30
0.0
 10
55.779997
 20
-196.005958
 30
0.0
 10
55.705462
 20
-196.620610
 30
0.0
 10
55.705462
 20
-196.620610
 30
0.0
 10
55.705462
 20
-196.619424
 30
0.0
  0
LWPOLYLINE
  5
10b
100
AcDbEntity
  8
0
 62
7
100
AcDbPolyline
 90
43
 70
0
 10
54.592045
 20
-210.194200
 30
0.0
 10
54.343393
 20
-210.472472
 30
0.0
 10
54.205782
 20
-210.596819
 30
0.0
 10
54.029283
 20
-210.653828
 30
0.0
 10
53.663971
 20
-210.730028
 30
0.0
 10
53.323010
 20
-210.847150
 30
0.0
 10
53.234621
 20
-211.016144
 30
0.0
 10
53.271451
 20
-211.307482
 30
0.0
 10
53.306156
 20
-211.791550
 30
0.0
 10
53.400209
 20
-212.354668
 30
0.0
 10
53.646141
 20
-212.856967
 30
0.0
 10
53.963178
 20
-213.329492
 30
0.0
 10
54.270552
 20
-213.803371
 30
0.0
 10
54.431813
 20
-214.121153
 30
0.0
 10
54.592813
 20
-214.444749
 30
0.0
 10
54.785395
 20
-214.737555
 30
0.0
 10
55.041411
 20
-214.962853
 30
0.0
 10
55.350190
 20
-215.093860
 30
0.0
 10
55.688653
 20
-215.150418
 30
0.0
 10
56.037203
 20
-215.146184
 30
0.0
 10
56.376260
 20
-215.094538
 30
0.0
 10
56.554404
 20
-215.040605
 30
0.0
 10
56.724183
 20
-214.958874
 30
0.0
 10
56.879843
 20
-214.852702
 30
0.0
 10
57.015637
 20
-214.725391
 30
0.0
 10
57.229875
 20
-214.457590
 30
0.0
 10
57.407886
 20
-214.157870
 30
0.0
 10
57.528127
 20
-213.836476
 30
0.0
 10
57.569063
 20
-213.503566
 30
0.0
 10
57.501959
 20
-213.169190
 30
0.0
 10
57.344680
 20
-212.856008
 30
0.0
 10
57.144909
 20
-212.554792
 30
0.0
 10
56.950336
 20
-212.256229
 30
0.0
 10
56.693644
 20
-211.753111
 30
0.0
 10
56.442937
 20
-211.242289
 30
0.0
 10
56.130910
 20
-210.778175
 30
0.0
 10
55.690251
 20
-210.415152
 30
0.0
 10
55.288386
 20
-210.143062
 30
0.0
 10
55.054514
 20
-209.965488
 30
0.0
 10
54.863958
 20
-209.957585
 30
0.0
 10
54.592045
 20
-210.194285
 30
0.0
 10
54.592045
 20
-210.194200
 30
0.0
 10
54.592045
 20
-210.194200
 30
0.0
  0
LWPOLYLINE
  5
10c
100
AcDbEntity
  8
0
 62
7
100
AcDbPolyline
 90
23
 70
0
 10
31.767216
 20
-156.015106
 30
0.0
 10
31.635034
 20
-155.518553
 30
0.0
 10
31.485936
 20
-154.918941
 30
0.0
 10
31.237374
 20
-154.489565
 30
0.0
 10
30.806802
 20
-154.503704
 30
0.0
 10
29.572684
 20
-155.058658
 30
0.0
 10
28.359659
 20
-155.675784
 30
0.0
 10
27.149464
 20
-156.297023
 30
0.0
 10
25.923848
 20
-156.864304
 30
0.0
 10
25.496512
 20
-156.981768
 30
0.0
 10
25.106950
 20
-157.177887
 30
0.0
 10
24.837712
 20
-157.459849
 30
0.0
 10
24.771350
 20
-157.834830
 30
0.0
 10
26.395366
 20
-158.080831
 30
0.0
 10
28.230353
 20
-158.270967
 30
0.0
 10
30.064586
 20
-158.268427
 30
0.0
 10
31.686339
 20
-157.936049
 30
0.0
 10
31.843672
 20
-157.531472
 30
0.0
 10
31.877040
 20
-157.006857
 30
0.0
 10
31.835276
 20
-156.466630
 30
0.0
 10
31.767216
 20
-156.015216
 30
0.0
 10
31.767216
 20
-156.015106
 30
0.0
 10
31.767216
 20
-156.015106
 30
0.0
  0
LWPOLYLINE
  5
10d
100
AcDbEntity
  8
0
 62
7
100
AcDbPolyline
 90
31
 70
0
 10
35.083177
 20
-159.695013
 30
0.0
 10
34.802549
 20
-159.387190
 30
0.0
 10
34.751501
 20
-159.043048
 30
0.0
 10
34.761830
 20
-158.660942
 30
0.0
 10
34.665322
 20
-158.239226
 30
0.0
 10
34.498478
 20
-157.943917
 30
0.0
 10
34.277489
 20
-157.683911
 30
0.0
 10
34.041484
 20
-157.438711
 30
0.0
 10
33.829591
 20
-157.187824
 30
0.0
 10
33.632069
 20
-156.888739
 30
0.0
 10
33.444857
 20
-156.580758
 30
0.0
 10
33.252811
 20
-156.278123
 30
0.0
 10
33.041040
 20
-155.994887
 30
0.0
 10
32.901738
 20
-156.018255
 30
0.0
 10
32.956635
 20
-156.381628
 30
0.0
 10
33.149774
 20
-156.890305
 30
0.0
 10
33.425206
 20
-157.349588
 30
0.0
 10
33.446204
 20
-157.848040
 30
0.0
 10
33.186630
 20
-158.459633
 30
0.0
 10
33.056457
 20
-158.967765
 30
0.0
 10
33.465651
 20
-159.155844
 30
0.0
 10
33.885973
 20
-159.005499
 30
0.0
 10
34.286673
 20
-159.117702
 30
0.0
 10
34.640808
 20
-159.383770
 30
0.0
 10
34.921441
 20
-159.695024
 30
0.0
 10
35.000537
 20
-159.794595
 30
0.0
 10
35.106839
 20
-159.842172
 30
0.0
 10
35.160879
 20
-159.816179
 30
0.0
 10
35.083194
 20
-159.695030
 30
0.0
 10
35.083177
 20
-159.695013
 30
0.0
 10
35.083177
 20
-159.695013
 30
0.0
  0
LWPOLYLINE
  5
10e
100
AcDbEntity
  8
0
 62
7
100
AcDbPolyline
 90
35
 70
0
 10
38.601328
 20
-168.187105
 30
0.0
 10
38.455687
 20
-167.857847
 30
0.0
 10
38.279629
 20
-167.551978
 30
0.0
 10
38.062227
 20
-167.273862
 30
0.0
 10
37.792558
 20
-167.027866
 30
0.0
 10
37.211310
 20
-166.892100
 30
0.0
 10
36.624212
 20
-166.890406
 30
0.0
 10
36.075369
 20
-167.034921
 30
0.0
 10
35.608878
 20
-167.337960
 30
0.0
 10
35.383902
 20
-167.688353
 30
0.0
 10
35.207713
 20
-168.066954
 30
0.0
 10
35.036235
 20
-168.447531
 30
0.0
 10
34.825381
 20
-168.803856
 30
0.0
 10
34.610619
 20
-169.026956
 30
0.0
 10
34.362418
 20
-169.224427
 30
0.0
 10
34.131772
 20
-169.431496
 30
0.0
 10
33.969666
 20
-169.683393
 30
0.0
 10
33.837719
 20
-170.182554
 30
0.0
 10
33.796580
 20
-170.726557
 30
0.0
 10
33.857511
 20
-171.229187
 30
0.0
 10
34.031775
 20
-171.604226
 30
0.0
 10
34.641578
 20
-171.867855
 30
0.0
 10
35.352787
 20
-171.877451
 30
0.0
 10
36.062514
 20
-171.721509
 30
0.0
 10
36.667863
 20
-171.488526
 30
0.0
 10
36.947444
 20
-171.304212
 30
0.0
 10
37.239677
 20
-171.137343
 30
0.0
 10
37.517067
 20
-170.947520
 30
0.0
 10
37.752122
 20
-170.694358
 30
0.0
 10
38.178607
 20
-170.190530
 30
0.0
 10
38.512019
 20
-169.532941
 30
0.0
 10
38.677782
 20
-168.829265
 30
0.0
 10
38.601328
 20
-168.187167
 30
0.0
 10
38.601328
 20
-168.187105
 30
0.0
 10
38.601328
 20
-168.187105
 30
0.0
  0
LWPOLYLINE
  5
10f
100
AcDbEntity
  8
0
 62
7
100
AcDbPolyline
 90
22
 70
0
 10
18.155908
 20
-163.873601
 30
0.0
 10
17.791972
 20
-163.510849
 30
0.0
 10
17.347241
 20
-163.081919
 30
0.0
 10
17.099670
 20
-162.651971
 30
0.0
 10
17.327213
 20
-162.286157
 30
0.0
 10
18.424875
 20
-161.494857
 30
0.0
 10
19.565838
 20
-160.752911
 30
0.0
 10
20.708943
 20
-160.015470
 30
0.0
 10
21.813028
 20
-159.237694
 30
0.0
 10
22.128422
 20
-158.926344
 30
0.0
 10
22.493049
 20
-158.687031
 30
0.0
 10
22.871852
 20
-158.594846
 30
0.0
 10
23.229776
 20
-158.724862
 30
0.0
 10
22.630816
 20
-160.254304
 30
0.0
 10
21.877984
 20
-161.938516
 30
0.0
 10
20.958562
 20
-163.525677
 30
0.0
 10
19.859834
 20
-164.763969
 30
0.0
 10
19.430797
 20
-164.697938
 30
0.0
 10
18.959785
 20
-164.464529
 30
0.0
 10
18.512816
 20
-164.158247
 30
0.0
 10
18.155908
 20
-163.873601
 30
0.0
 10
18.155908
 20
-163.873601
 30
0.0
  0
LWPOLYLINE
  5
110
100
AcDbEntity
  8
0
 62
7
100
AcDbPolyline
 90
30
 70
0
 10
19.684819
 20
-168.585258
 30
0.0
 10
19.558551
 20
-168.188315
 30
0.0
 10
19.286040
 20
-167.972032
 30
0.0
 10
18.949965
 20
-167.789916
 30
0.0
 10
18.633006
 20
-167.495480
 30
0.0
 10
18.460683
 20
-167.203334
 30
0.0
 10
18.346005
 20
-166.881951
 30
0.0
 10
18.251658
 20
-166.554966
 30
0.0
 10
18.140331
 20
-166.246017
 30
0.0
 10
17.980077
 20
-165.925415
 30
0.0
 10
17.806965
 20
-165.609295
 30
0.0
 10
17.640897
 20
-165.291663
 30
0.0
 10
17.501491
 20
-164.966642
 30
0.0
 10
17.591372
 20
-164.857681
 30
0.0
 10
17.878613
 20
-165.086908
 30
0.0
 10
18.222572
 20
-165.508514
 30
0.0
 10
18.482607
 20
-165.976687
 30
0.0
 10
18.903784
 20
-166.244089
 30
0.0
 10
19.563224
 20
-166.325087
 30
0.0
 10
20.068366
 20
-166.466421
 30
0.0
 10
20.026647
 20
-166.914833
 30
0.0
 10
19.686287
 20
-167.203673
 30
0.0
 10
19.583108
 20
-167.606791
 30
0.0
 10
19.636462
 20
-168.046513
 30
0.0
 10
19.765697
 20
-168.445172
 30
0.0
 10
19.812382
 20
-168.563459
 30
0.0
 10
19.800433
 20
-168.679309
 30
0.0
 10
19.750897
 20
-168.713110
 30
0.0
 10
19.684819
 20
-168.585258
 30
0.0
 10
19.684819
 20
-168.585258
 30
0.0
  0
LWPOLYLINE
  5
111
100
AcDbEntity
  8
0
 62
7
100
AcDbPolyline
 90
34
 70
0
 10
25.280115
 20
-175.878115
 30
0.0
 10
25.067791
 20
-175.587355
 30
0.0
 10
24.890930
 20
-175.281951
 30
0.0
 10
24.758775
 20
-174.954619
 30
0.0
 10
24.680569
 20
-174.598076
 30
0.0
 10
24.853615
 20
-174.026819
 30
0.0
 10
25.145643
 20
-173.517498
 30
0.0
 10
25.545217
 20
-173.114439
 30
0.0
 10
26.040902
 20
-172.861966
 30
0.0
 10
26.456840
 20
-172.842324
 30
0.0
 10
26.872812
 20
-172.879044
 30
0.0
 10
27.288141
 20
-172.920829
 30
0.0
 10
27.702153
 20
-172.916398
 30
0.0
 10
28.002746
 20
-172.841957
 30
0.0
 10
28.297861
 20
-172.725746
 30
0.0
 10
28.592509
 20
-172.629534
 30
0.0
 10
28.891713
 20
-172.615084
 30
0.0
 10
29.389973
 20
-172.750395
 30
0.0
 10
29.881666
 20
-172.986771
 30
0.0
 10
30.286489
 20
-173.290851
 30
0.0
 10
30.524148
 20
-173.629289
 30
0.0
 10
30.447556
 20
-174.289209
 30
0.0
 10
30.100262
 20
-174.909932
 30
0.0
 10
29.610352
 20
-175.446600
 30
0.0
 10
29.105908
 20
-175.854360
 30
0.0
 10
28.806498
 20
-176.004327
 30
0.0
 10
28.515866
 20
-176.173971
 30
0.0
 10
28.212780
 20
-176.319287
 30
0.0
 10
27.876006
 20
-176.396272
 30
0.0
 10
27.226438
 20
-176.513704
 30
0.0
 10
26.490245
 20
-176.473654
 30
0.0
 10
25.797960
 20
-176.265372
 30
0.0
 10
25.280115
 20
-175.878115
 30
0.0
 10
25.280115
 20
-175.878115
 30
0.0
  0
LWPOLYLINE
  5
112
100
AcDbEntity
  8
0
 62
7
100
AcDbPolyline
 90
26
 70
0
 10
18.205445
 20
-160.213339
 30
0.0
 10
17.534743
 20
-160.779838
 30
0.0
 10
16.953395
 20
-161.250207
 30
0.0
 10
16.394131
 20
-161.378767
 30
0.0
 10
15.789683
 20
-160.919846
 30
0.0
 10
16.146915
 20
-160.482576
 30
0.0
 10
16.551035
 20
-160.115970
 30
0.0
 10
16.974887
 20
-159.781285
 30
0.0
 10
17.391312
 20
-159.439785
 30
0.0
 10
19.912967
 20
-157.620860
 30
0.0
 10
22.654463
 20
-155.880779
 30
0.0
 10
25.493987
 20
-154.344263
 30
0.0
 10
28.309722
 20
-153.136038
 30
0.0
 10
28.813684
 20
-152.946156
 30
0.0
 10
29.315455
 20
-152.746433
 30
0.0
 10
29.835007
 20
-152.579756
 30
0.0
 10
30.392308
 20
-152.489021
 30
0.0
 10
30.532852
 20
-153.212862
 30
0.0
 10
30.111869
 20
-153.672388
 30
0.0
 10
29.376172
 20
-153.974941
 30
0.0
 10
28.572573
 20
-154.227880
 30
0.0
 10
25.739716
 20
-155.547272
 30
0.0
 10
23.213533
 20
-156.916236
 30
0.0
 10
20.775089
 20
-158.437388
 30
0.0
 10
18.205445
 20
-160.213339
 30
0.0
 10
18.205445
 20
-160.213339
 30
0.0
  0
LWPOLYLINE
  5
113
100
AcDbEntity
  8
0
 62
7
100
AcDbPolyline
 90
43
 70
0
 10
27.539178
 20
-163.046105
 30
0.0
 10
27.208214
 20
-163.140003
 30
0.0
 10
26.892957
 20
-163.289623
 30
0.0
 10
26.605754
 20
-163.487834
 30
0.0
 10
26.358950
 20
-163.727508
 30
0.0
 10
25.606497
 20
-165.123043
 30
0.0
 10
25.063590
 20
-166.591784
 30
0.0
 10
24.517761
 20
-168.063813
 30
0.0
 10
23.756541
 20
-169.469206
 30
0.0
 10
23.428926
 20
-169.867509
 30
0.0
 10
23.110608
 20
-170.231164
 30
0.0
 10
22.979682
 20
-170.284298
 30
0.0
 10
23.214248
 20
-169.751048
 30
0.0
 10
23.905601
 20
-168.618558
 30
0.0
 10
24.321758
 20
-167.462973
 30
0.0
 10
24.624219
 20
-166.278227
 30
0.0
 10
24.974481
 20
-165.058254
 30
0.0
 10
25.099447
 20
-164.431887
 30
0.0
 10
25.227769
 20
-163.822030
 30
0.0
 10
25.416216
 20
-163.250553
 30
0.0
 10
25.721558
 20
-162.739321
 30
0.0
 10
25.983822
 20
-162.472805
 30
0.0
 10
26.295366
 20
-162.254568
 30
0.0
 10
26.640138
 20
-162.093882
 30
0.0
 10
27.002081
 20
-162.000012
 30
0.0
 10
27.597491
 20
-161.991207
 30
0.0
 10
28.186628
 20
-162.113745
 30
0.0
 10
28.778939
 20
-162.307544
 30
0.0
 10
29.383871
 20
-162.512505
 30
0.0
 10
30.646717
 20
-162.897253
 30
0.0
 10
31.814570
 20
-163.160967
 30
0.0
 10
33.003123
 20
-163.305947
 30
0.0
 10
34.328069
 20
-163.334497
 30
0.0
 10
34.907158
 20
-163.397980
 30
0.0
 10
34.795677
 20
-163.484797
 30
0.0
 10
34.321586
 20
-163.578642
 30
0.0
 10
33.812836
 20
-163.663212
 30
0.0
 10
32.201101
 20
-163.659205
 30
0.0
 10
30.670695
 20
-163.378588
 30
0.0
 10
29.142944
 20
-163.086009
 30
0.0
 10
27.539178
 20
-163.046114
 30
0.0
 10
27.539178
 20
-163.046105
 30
0.0
 10
27.539178
 20
-163.046105
 30
0.0
  0
LWPOLYLINE
  5
114
100
AcDbEntity
  8
0
 62
7
100
AcDbPolyline
 90
43
 70
0
 10
32.697304
 20
-172.271399
 30
0.0
 10
32.331990
 20
-172.347605
 30
0.0
 10
32.155491
 20
-172.404608
 30
0.0
 10
32.017880
 20
-172.528961
 30
0.0
 10
31.769228
 20
-172.807224
 30
0.0
 10
31.497315
 20
-173.043940
 30
0.0
 10
31.306762
 20
-173.035982
 30
0.0
 10
31.072887
 20
-172.858427
 30
0.0
 10
30.671025
 20
-172.586340
 30
0.0
 10
30.230363
 20
-172.223320
 30
0.0
 10
29.918333
 20
-171.759194
 30
0.0
 10
29.667629
 20
-171.248366
 30
0.0
 10
29.410937
 20
-170.745240
 30
0.0
 10
29.216367
 20
-170.446694
 30
0.0
 10
29.016599
 20
-170.145453
 30
0.0
 10
28.859316
 20
-169.832268
 30
0.0
 10
28.792210
 20
-169.497906
 30
0.0
 10
28.833140
 20
-169.164991
 30
0.0
 10
28.953381
 20
-168.843590
 30
0.0
 10
29.131393
 20
-168.543890
 30
0.0
 10
29.345636
 20
-168.276075
 30
0.0
 10
29.481430
 20
-168.148770
 30
0.0
 10
29.637090
 20
-168.042598
 30
0.0
 10
29.806869
 20
-167.960881
 30
0.0
 10
29.985019
 20
-167.906934
 30
0.0
 10
30.324072
 20
-167.855305
 30
0.0
 10
30.672625
 20
-167.850987
 30
0.0
 10
31.011086
 20
-167.907552
 30
0.0
 10
31.319865
 20
-168.038560
 30
0.0
 10
31.575880
 20
-168.263858
 30
0.0
 10
31.768463
 20
-168.556661
 30
0.0
 10
31.929462
 20
-168.880288
 30
0.0
 10
32.090724
 20
-169.198061
 30
0.0
 10
32.398098
 20
-169.671927
 30
0.0
 10
32.715138
 20
-170.144454
 30
0.0
 10
32.961066
 20
-170.646742
 30
0.0
 10
33.055120
 20
-171.209874
 30
0.0
 10
33.089825
 20
-171.693944
 30
0.0
 10
33.126657
 20
-171.985263
 30
0.0
 10
33.038265
 20
-172.154266
 30
0.0
 10
32.697304
 20
-172.271388
 30
0.0
 10
32.697304
 20
-172.271399
 30
0.0
 10
32.697304
 20
-172.271399
 30
0.0
  0
LWPOLYLINE
  5
115
100
AcDbEntity
  8
0
 62
7
100
AcDbPolyline
 90
23
 70
0
 10
31.767216
 20
-226.986310
 30
0.0
 10
31.635034
 20
-227.482880
 30
0.0
 10
31.485936
 20
-228.082489
 30
0.0
 10
31.237374
 20
-228.511862
 30
0.0
 10
30.806802
 20
-228.497751
 30
0.0
 10
29.572684
 20
-227.942789
 30
0.0
 10
28.359659
 20
-227.325654
 30
0.0
 10
27.149464
 20
-226.704426
 30
0.0
 10
25.923848
 20
-226.137131
 30
0.0
 10
25.496512
 20
-226.019670
 30
0.0
 10
25.106950
 20
-225.823554
 30
0.0
 10
24.837712
 20
-225.541614
 30
0.0
 10
24.771350
 20
-225.166626
 30
0.0
 10
26.395366
 20
-224.920612
 30
0.0
 10
28.230353
 20
-224.730479
 30
0.0
 10
30.064586
 20
-224.733302
 30
0.0
 10
31.686339
 20
-225.065675
 30
0.0
 10
31.843672
 20
-225.470240
 30
0.0
 10
31.877040
 20
-225.994835
 30
0.0
 10
31.835276
 20
-226.535065
 30
0.0
 10
31.767216
 20
-226.986479
 30
0.0
 10
31.767216
 20
-226.986310
 30
0.0
 10
31.767216
 20
-226.986310
 30
0.0
  0
LWPOLYLINE
  5
116
100
AcDbEntity
  8
0
 62
7
100
AcDbPolyline
 90
31
 70
0
 10
35.083177
 20
-223.306414
 30
0.0
 10
34.802549
 20
-223.614234
 30
0.0
 10
34.751501
 20
-223.958376
 30
0.0
 10
34.761830
 20
-224.340476
 30
0.0
 10
34.665322
 20
-224.762201
 30
0.0
 10
34.498478
 20
-225.057518
 30
0.0
 10
34.277489
 20
-225.317530
 30
0.0
 10
34.041486
 20
-225.562724
 30
0.0
 10
33.829591
 20
-225.813620
 30
0.0
 10
33.632069
 20
-226.112691
 30
0.0
 10
33.444857
 20
-226.420680
 30
0.0
 10
33.252811
 20
-226.723307
 30
0.0
 10
33.041040
 20
-227.006545
 30
0.0
 10
32.901738
 20
-226.983121
 30
0.0
 10
32.956635
 20
-226.619760
 30
0.0
 10
33.149774
 20
-226.111082
 30
0.0
 10
33.425206
 20
-225.651794
 30
0.0
 10
33.446204
 20
-225.153333
 30
0.0
 10
33.186630
 20
-224.541757
 30
0.0
 10
33.056457
 20
-224.033616
 30
0.0
 10
33.465651
 20
-223.845543
 30
0.0
 10
33.885973
 20
-223.995883
 30
0.0
 10
34.286673
 20
-223.883672
 30
0.0
 10
34.640808
 20
-223.617621
 30
0.0
 10
34.921441
 20
-223.306358
 30
0.0
 10
35.000537
 20
-223.206790
 30
0.0
 10
35.106839
 20
-223.159207
 30
0.0
 10
35.160879
 20
-223.185172
 30
0.0
 10
35.083194
 20
-223.306330
 30
0.0
 10
35.083177
 20
-223.306414
 30
0.0
 10
35.083177
 20
-223.306414
 30
0.0
  0
LWPOLYLINE
  5
117
100
AcDbEntity
  8
0
 62
7
100
AcDbPolyline
 90
35
 70
0
 10
38.601328
 20
-214.814319
 30
0.0
 10
38.455687
 20
-215.143588
 30
0.0
 10
38.279629
 20
-215.449460
 30
0.0
 10
38.062227
 20
-215.727562
 30
0.0
 10
37.792558
 20
-215.973575
 30
0.0
 10
37.211310
 20
-216.109324
 30
0.0
 10
36.624212
 20
-216.112146
 30
0.0
 10
36.075369
 20
-215.967649
 30
0.0
 10
35.608878
 20
-215.664598
 30
0.0
 10
35.383902
 20
-215.314220
 30
0.0
 10
35.207713
 20
-214.935618
 30
0.0
 10
35.036235
 20
-214.555042
 30
0.0
 10
34.825381
 20
-214.198708
 30
0.0
 10
34.610619
 20
-213.975611
 30
0.0
 10
34.362421
 20
-213.778140
 30
0.0
 10
34.131775
 20
-213.571074
 30
0.0
 10
33.969666
 20
-213.319162
 30
0.0
 10
33.837722
 20
-212.819996
 30
0.0
 10
33.796580
 20
-212.276013
 30
0.0
 10
33.857511
 20
-211.773375
 30
0.0
 10
34.031775
 20
-211.398330
 30
0.0
 10
34.641578
 20
-211.134706
 30
0.0
 10
35.352787
 20
-211.125110
 30
0.0
 10
36.062514
 20
-211.281066
 30
0.0
 10
36.667863
 20
-211.514041
 30
0.0
 10
36.947444
 20
-211.698360
 30
0.0
 10
37.239677
 20
-211.865238
 30
0.0
 10
37.517067
 20
-212.055061
 30
0.0
 10
37.752122
 20
-212.308214
 30
0.0
 10
38.178607
 20
-212.812037
 30
0.0
 10
38.512019
 20
-213.469615
 30
0.0
 10
38.677782
 20
-214.173308
 30
0.0
 10
38.601328
 20
-214.815392
 30
0.0
 10
38.601328
 20
-214.815392
 30
0.0
 10
38.601328
 20
-214.814319
 30
0.0
  0
LWPOLYLINE
  5
118
100
AcDbEntity
  8
0
 62
7
100
AcDbPolyline
 90
22
 70
0
 10
18.155908
 20
-219.127832
 30
0.0
 10
17.791972
 20
-219.490600
 30
0.0
 10
17.347241
 20
-219.919522
 30
0.0
 10
17.099670
 20
-220.349459
 30
0.0
 10
17.327213
 20
-220.715276
 30
0.0
 10
18.424875
 20
-221.506570
 30
0.0
 10
19.565838
 20
-222.248532
 30
0.0
 10
20.708943
 20
-222.985951
 30
0.0
 10
21.813028
 20
-223.763727
 30
0.0
 10
22.128422
 20
-224.075075
 30
0.0
 10
22.493049
 20
-224.314399
 30
0.0
 10
22.871852
 20
-224.406573
 30
0.0
 10
23.229776
 20
-224.276553
 30
0.0
 10
22.630816
 20
-222.747106
 30
0.0
 10
21.877984
 20
-221.062917
 30
0.0
 10
20.958562
 20
-219.475756
 30
0.0
 10
19.859834
 20
-218.237449
 30
0.0
 10
19.430797
 20
-218.303489
 30
0.0
 10
18.959785
 20
-218.536887
 30
0.0
 10
18.512816
 20
-218.843183
 30
0.0
 10
18.155908
 20
-219.127832
 30
0.0
 10
18.155908
 20
-219.127832
 30
0.0
  0
LWPOLYLINE
  5
119
100
AcDbEntity
  8
0
 62
7
100
AcDbPolyline
 90
30
 70
0
 10
19.684819
 20
-214.416160
 30
0.0
 10
19.558551
 20
-214.813106
 30
0.0
 10
19.286040
 20
-215.029401
 30
0.0
 10
18.949965
 20
-215.211519
 30
0.0
 10
18.633006
 20
-215.505961
 30
0.0
 10
18.460684
 20
-215.798090
 30
0.0
 10
18.346006
 20
-216.119484
 30
0.0
 10
18.251659
 20
-216.446467
 30
0.0
 10
18.140331
 20
-216.755416
 30
0.0
 10
17.980078
 20
-217.076020
 30
0.0
 10
17.806965
 20
-217.392137
 30
0.0
 10
17.640897
 20
-217.709750
 30
0.0
 10
17.501491
 20
-218.034785
 30
0.0
 10
17.591372
 20
-218.143751
 30
0.0
 10
17.878613
 20
-217.914530
 30
0.0
 10
18.222572
 20
-217.492919
 30
0.0
 10
18.482607
 20
-217.024740
 30
0.0
 10
18.903784
 20
-216.757335
 30
0.0
 10
19.563224
 20
-216.676309
 30
0.0
 10
20.068366
 20
-216.534972
 30
0.0
 10
20.026647
 20
-216.086605
 30
0.0
 10
19.686287
 20
-215.797751
 30
0.0
 10
19.583108
 20
-215.394625
 30
0.0
 10
19.636462
 20
-214.954922
 30
0.0
 10
19.765697
 20
-214.556255
 30
0.0
 10
19.812382
 20
-214.437976
 30
0.0
 10
19.800433
 20
-214.322124
 30
0.0
 10
19.750897
 20
-214.288314
 30
0.0
 10
19.684819
 20
-214.416160
 30
0.0
 10
19.684819
 20
-214.416160
 30
0.0
  0
LWPOLYLINE
  5
11a
100
AcDbEntity
  8
0
 62
7
100
AcDbPolyline
 90
35
 70
0
 10
25.280115
 20
-207.123312
 30
0.0
 10
25.067791
 20
-207.414058
 30
0.0
 10
24.890930
 20
-207.719478
 30
0.0
 10
24.758775
 20
-208.046828
 30
0.0
 10
24.680569
 20
-208.403359
 30
0.0
 10
24.853615
 20
-208.974605
 30
0.0
 10
25.145643
 20
-209.483932
 30
0.0
 10
25.545217
 20
-209.886973
 30
0.0
 10
26.040902
 20
-210.139449
 30
0.0
 10
26.456840
 20
-210.159205
 30
0.0
 10
26.872812
 20
-210.122488
 30
0.0
 10
27.288141
 20
-210.080719
 30
0.0
 10
27.702153
 20
-210.085234
 30
0.0
 10
28.002746
 20
-210.159656
 30
0.0
 10
28.297861
 20
-210.275876
 30
0.0
 10
28.592509
 20
-210.372085
 30
0.0
 10
28.891713
 20
-210.386478
 30
0.0
 10
29.389973
 20
-210.251181
 30
0.0
 10
29.881666
 20
-210.014792
 30
0.0
 10
30.286489
 20
-209.710726
 30
0.0
 10
30.524148
 20
-209.372285
 30
0.0
 10
30.447556
 20
-208.712364
 30
0.0
 10
30.100262
 20
-208.091645
 30
0.0
 10
29.610352
 20
-207.554971
 30
0.0
 10
29.105908
 20
-207.147216
 30
0.0
 10
28.806498
 20
-206.997244
 30
0.0
 10
28.515866
 20
-206.827600
 30
0.0
 10
28.212780
 20
-206.682284
 30
0.0
 10
27.876006
 20
-206.605293
 30
0.0
 10
27.226438
 20
-206.487861
 30
0.0
 10
26.490245
 20
-206.527908
 30
0.0
 10
25.797960
 20
-206.736216
 30
0.0
 10
25.280115
 20
-207.123453
 30
0.0
 10
25.280115
 20
-207.123312
 30
0.0
 10
25.280115
 20
-207.123312
 30
0.0
  0
LWPOLYLINE
  5
11b
100
AcDbEntity
  8
0
 62
7
100
AcDbPolyline
 90
26
 70
0
 10
18.205445
 20
-222.788085
 30
0.0
 10
17.534743
 20
-222.221608
 30
0.0
 10
16.953395
 20
-221.751229
 30
0.0
 10
16.394131
 20
-221.622676
 30
0.0
 10
15.789683
 20
-222.081598
 30
0.0
 10
16.146915
 20
-222.518873
 30
0.0
 10
16.551035
 20
-222.885480
 30
0.0
 10
16.974887
 20
-223.220167
 30
0.0
 10
17.391312
 20
-223.561656
 30
0.0
 10
19.912967
 20
-225.380578
 30
0.0
 10
22.654463
 20
-227.120648
 30
0.0
 10
25.493987
 20
-228.657178
 30
0.0
 10
28.309722
 20
-229.865400
 30
0.0
 10
28.813684
 20
-230.055279
 30
0.0
 10
29.315455
 20
-230.255008
 30
0.0
 10
29.835007
 20
-230.421688
 30
0.0
 10
30.392308
 20
-230.512422
 30
0.0
 10
30.532852
 20
-229.788579
 30
0.0
 10
30.111869
 20
-229.329036
 30
0.0
 10
29.376172
 20
-229.026494
 30
0.0
 10
28.572573
 20
-228.773538
 30
0.0
 10
25.739716
 20
-227.454150
 30
0.0
 10
23.213533
 20
-226.085202
 30
0.0
 10
20.775089
 20
-224.564025
 30
0.0
 10
18.205445
 20
-222.788085
 30
0.0
 10
18.205445
 20
-222.788085
 30
0.0
  0
LWPOLYLINE
  5
11c
100
AcDbEntity
  8
0
 62
7
100
AcDbPolyline
 90
43
 70
0
 10
27.539178
 20
-219.955336
 30
0.0
 10
27.208214
 20
-219.861440
 30
0.0
 10
26.892957
 20
-219.711806
 30
0.0
 10
26.605754
 20
-219.513602
 30
0.0
 10
26.358950
 20
-219.273910
 30
0.0
 10
25.606497
 20
-217.878378
 30
0.0
 10
25.063590
 20
-216.409637
 30
0.0
 10
24.517761
 20
-214.937622
 30
0.0
 10
23.756541
 20
-213.532212
 30
0.0
 10
23.428926
 20
-213.133912
 30
0.0
 10
23.110608
 20
-212.770268
 30
0.0
 10
22.979682
 20
-212.717126
 30
0.0
 10
23.214248
 20
-213.250385
 30
0.0
 10
23.905599
 20
-214.382858
 30
0.0
 10
24.321757
 20
-215.538445
 30
0.0
 10
24.624218
 20
-216.723214
 30
0.0
 10
24.974481
 20
-217.943176
 30
0.0
 10
25.099447
 20
-218.569540
 30
0.0
 10
25.227769
 20
-219.179394
 30
0.0
 10
25.416216
 20
-219.750894
 30
0.0
 10
25.721558
 20
-220.262111
 30
0.0
 10
25.983823
 20
-220.528642
 30
0.0
 10
26.295366
 20
-220.746856
 30
0.0
 10
26.640138
 20
-220.907554
 30
0.0
 10
27.002081
 20
-221.001421
 30
0.0
 10
27.597491
 20
-221.010170
 30
0.0
 10
28.186628
 20
-220.887657
 30
0.0
 10
28.778939
 20
-220.693855
 30
0.0
 10
29.383871
 20
-220.488877
 30
0.0
 10
30.646717
 20
-220.104123
 30
0.0
 10
31.814570
 20
-219.840415
 30
0.0
 10
33.003123
 20
-219.695437
 30
0.0
 10
34.328069
 20
-219.666876
 30
0.0
 10
34.907158
 20
-219.603405
 30
0.0
 10
34.795677
 20
-219.516593
 30
0.0
 10
34.321586
 20
-219.422754
 30
0.0
 10
33.812836
 20
-219.338172
 30
0.0
 10
32.201101
 20
-219.342123
 30
0.0
 10
30.670695
 20
-219.622737
 30
0.0
 10
29.142944
 20
-219.915317
 30
0.0
 10
27.539178
 20
-219.955223
 30
0.0
 10
27.539178
 20
-219.955336
 30
0.0
 10
27.539178
 20
-219.955336
 30
0.0
  0
LWPOLYLINE
  5
11d
100
AcDbEntity
  8
0
 62
7
100
AcDbPolyline
 90
43
 70
0
 10
32.697304
 20
-210.730028
 30
0.0
 10
32.331993
 20
-210.653828
 30
0.0
 10
32.155494
 20
-210.596819
 30
0.0
 10
32.017883
 20
-210.472472
 30
0.0
 10
31.769228
 20
-210.194200
 30
0.0
 10
31.497318
 20
-209.957501
 30
0.0
 10
31.306762
 20
-209.965403
 30
0.0
 10
31.072890
 20
-210.142977
 30
0.0
 10
30.671025
 20
-210.415068
 30
0.0
 10
30.230363
 20
-210.778090
 30
0.0
 10
29.918333
 20
-211.242204
 30
0.0
 10
29.667626
 20
-211.753027
 30
0.0
 10
29.410937
 20
-212.256144
 30
0.0
 10
29.216367
 20
-212.554707
 30
0.0
 10
29.016599
 20
-212.855951
 30
0.0
 10
28.859316
 20
-213.169133
 30
0.0
 10
28.792210
 20
-213.503482
 30
0.0
 10
28.833140
 20
-213.836391
 30
0.0
 10
28.953381
 20
-214.157786
 30
0.0
 10
29.131393
 20
-214.457506
 30
0.0
 10
29.345636
 20
-214.725306
 30
0.0
 10
29.481430
 20
-214.852617
 30
0.0
 10
29.637090
 20
-214.958789
 30
0.0
 10
29.806872
 20
-215.040520
 30
0.0
 10
29.985019
 20
-215.094453
 30
0.0
 10
30.324075
 20
-215.146100
 30
0.0
 10
30.672625
 20
-215.150333
 30
0.0
 10
31.011086
 20
-215.093776
 30
0.0
 10
31.319865
 20
-214.962768
 30
0.0
 10
31.575883
 20
-214.737470
 30
0.0
 10
31.768463
 20
-214.444665
 30
0.0
 10
31.929462
 20
-214.121069
 30
0.0
 10
32.090724
 20
-213.803286
 30
0.0
 10
32.398101
 20
-213.329407
 30
0.0
 10
32.715138
 20
-212.856882
 30
0.0
 10
32.961066
 20
-212.354583
 30
0.0
 10
33.055120
 20
-211.791465
 30
0.0
 10
33.089825
 20
-211.307398
 30
0.0
 10
33.126657
 20
-211.016060
 30
0.0
 10
33.038265
 20
-210.847065
 30
0.0
 10
32.697304
 20
-210.729943
 30
0.0
 10
32.697304
 20
-210.730028
 30
0.0
 10
32.697304
 20
-210.730028
 30
0.0
  0
LWPOLYLINE
  5
11e
100
AcDbEntity
  8
0
 62
7
100
AcDbPolyline
 90
22
 70
0
 10
68.205364
 20
-163.873601
 30
0.0
 10
68.569301
 20
-163.510849
 30
0.0
 10
69.014032
 20
-163.081922
 30
0.0
 10
69.261603
 20
-162.651973
 30
0.0
 10
69.034059
 20
-162.286163
 30
0.0
 10
67.936398
 20
-161.494859
 30
0.0
 10
66.795436
 20
-160.752911
 30
0.0
 10
65.652334
 20
-160.015470
 30
0.0
 10
64.548244
 20
-159.237697
 30
0.0
 10
64.232852
 20
-158.926347
 30
0.0
 10
63.868224
 20
-158.687036
 30
0.0
 10
63.489422
 20
-158.594848
 30
0.0
 10
63.131497
 20
-158.724868
 30
0.0
 10
63.730460
 20
-160.254309
 30
0.0
 10
64.483290
 20
-161.938521
 30
0.0
 10
65.402711
 20
-163.525683
 30
0.0
 10
66.501439
 20
-164.763975
 30
0.0
 10
66.930479
 20
-164.697941
 30
0.0
 10
67.401491
 20
-164.464529
 30
0.0
 10
67.848457
 20
-164.158247
 30
0.0
 10
68.205364
 20
-163.873601
 30
0.0
 10
68.205364
 20
-163.873601
 30
0.0
  0
LWPOLYLINE
  5
11f
100
AcDbEntity
  8
0
 62
7
100
AcDbPolyline
 90
31
 70
0
 10
66.676453
 20
-168.585258
 30
0.0
 10
66.802722
 20
-168.188315
 30
0.0
 10
67.075233
 20
-167.972034
 30
0.0
 10
67.411309
 20
-167.789919
 30
0.0
 10
67.728270
 20
-167.495482
 30
0.0
 10
67.900592
 20
-167.203337
 30
0.0
 10
68.015271
 20
-166.881951
 30
0.0
 10
68.109617
 20
-166.554966
 30
0.0
 10
68.220946
 20
-166.246020
 30
0.0
 10
68.381200
 20
-165.925418
 30
0.0
 10
68.554312
 20
-165.609298
 30
0.0
 10
68.720377
 20
-165.291666
 30
0.0
 10
68.859781
 20
-164.966647
 30
0.0
 10
68.769902
 20
-164.857684
 30
0.0
 10
68.482662
 20
-165.086911
 30
0.0
 10
68.138703
 20
-165.508514
 30
0.0
 10
67.878669
 20
-165.976687
 30
0.0
 10
67.457492
 20
-166.244089
 30
0.0
 10
66.798052
 20
-166.325087
 30
0.0
 10
66.292908
 20
-166.466421
 30
0.0
 10
66.334626
 20
-166.914836
 30
0.0
 10
66.674986
 20
-167.203673
 30
0.0
 10
66.778166
 20
-167.606791
 30
0.0
 10
66.724812
 20
-168.046516
 30
0.0
 10
66.595574
 20
-168.445177
 30
0.0
 10
66.548892
 20
-168.563462
 30
0.0
 10
66.560830
 20
-168.679309
 30
0.0
 10
66.610365
 20
-168.713110
 30
0.0
 10
66.676439
 20
-168.585258
 30
0.0
 10
66.676453
 20
-168.585258
 30
0.0
 10
66.676453
 20
-168.585258
 30
0.0
  0
LWPOLYLINE
  5
120
100
AcDbEntity
  8
0
 62
7
100
AcDbPolyline
 90
34
 70
0
 10
61.081161
 20
-175.878115
 30
0.0
 10
61.293485
 20
-175.587355
 30
0.0
 10
61.470348
 20
-175.281951
 30
0.0
 10
61.602501
 20
-174.954619
 30
0.0
 10
61.680708
 20
-174.598079
 30
0.0
 10
61.507661
 20
-174.026822
 30
0.0
 10
61.215631
 20
-173.517501
 30
0.0
 10
60.816055
 20
-173.114445
 30
0.0
 10
60.320372
 20
-172.861972
 30
0.0
 10
59.904432
 20
-172.842329
 30
0.0
 10
59.488462
 20
-172.879046
 30
0.0
 10
59.073133
 20
-172.920832
 30
0.0
 10
58.659118
 20
-172.916401
 30
0.0
 10
58.358526
 20
-172.841960
 30
0.0
 10
58.063412
 20
-172.725749
 30
0.0
 10
57.768764
 20
-172.629539
 30
0.0
 10
57.469560
 20
-172.615090
 30
0.0
 10
56.971300
 20
-172.750401
 30
0.0
 10
56.479609
 20
-172.986773
 30
0.0
 10
56.074784
 20
-173.290857
 30
0.0
 10
55.837125
 20
-173.629295
 30
0.0
 10
55.913717
 20
-174.289212
 30
0.0
 10
56.261011
 20
-174.909932
 30
0.0
 10
56.750924
 20
-175.446603
 30
0.0
 10
57.255368
 20
-175.854360
 30
0.0
 10
57.554777
 20
-176.004330
 30
0.0
 10
57.845407
 20
-176.173974
 30
0.0
 10
58.148494
 20
-176.319290
 30
0.0
 10
58.485267
 20
-176.396272
 30
0.0
 10
59.134838
 20
-176.513707
 30
0.0
 10
59.871031
 20
-176.473654
 30
0.0
 10
60.563317
 20
-176.265372
 30
0.0
 10
61.081161
 20
-175.878115
 30
0.0
 10
61.081161
 20
-175.878115
 30
0.0
  0
LWPOLYLINE
  5
121
100
AcDbEntity
  8
0
 62
7
100
AcDbPolyline
 90
23
 70
0
 10
54.594057
 20
-156.015109
 30
0.0
 10
54.726242
 20
-155.518553
 30
0.0
 10
54.875340
 20
-154.918941
 30
0.0
 10
55.123898
 20
-154.489562
 30
0.0
 10
55.554474
 20
-154.503701
 30
0.0
 10
56.788589
 20
-155.058658
 30
0.0
 10
58.001617
 20
-155.675787
 30
0.0
 10
59.211811
 20
-156.297023
 30
0.0
 10
60.437429
 20
-156.864301
 30
0.0
 10
60.864764
 20
-156.981765
 30
0.0
 10
61.254327
 20
-157.177884
 30
0.0
 10
61.523564
 20
-157.459847
 30
0.0
 10
61.589928
 20
-157.834827
 30
0.0
 10
59.965915
 20
-158.080831
 30
0.0
 10
58.130925
 20
-158.270964
 30
0.0
 10
56.296693
 20
-158.268424
 30
0.0
 10
54.674937
 20
-157.936043
 30
0.0
 10
54.517603
 20
-157.531469
 30
0.0
 10
54.484236
 20
-157.006854
 30
0.0
 10
54.525999
 20
-156.466630
 30
0.0
 10
54.594057
 20
-156.015216
 30
0.0
 10
54.594057
 20
-156.015109
 30
0.0
 10
54.594057
 20
-156.015109
 30
0.0
  0
LWPOLYLINE
  5
122
100
AcDbEntity
  8
0
 62
7
100
AcDbPolyline
 90
31
 70
0
 10
51.278096
 20
-159.695015
 30
0.0
 10
51.558723
 20
-159.387190
 30
0.0
 10
51.609775
 20
-159.043048
 30
0.0
 10
51.599445
 20
-158.660939
 30
0.0
 10
51.695957
 20
-158.239223
 30
0.0
 10
51.862801
 20
-157.943917
 30
0.0
 10
52.083787
 20
-157.683908
 30
0.0
 10
52.319792
 20
-157.438711
 30
0.0
 10
52.531685
 20
-157.187824
 30
0.0
 10
52.729206
 20
-156.888739
 30
0.0
 10
52.916418
 20
-156.580758
 30
0.0
 10
53.108465
 20
-156.278123
 30
0.0
 10
53.320236
 20
-155.994885
 30
0.0
 10
53.459538
 20
-156.018253
 30
0.0
 10
53.404643
 20
-156.381625
 30
0.0
 10
53.211501
 20
-156.890305
 30
0.0
 10
52.936069
 20
-157.349588
 30
0.0
 10
52.915072
 20
-157.848040
 30
0.0
 10
53.174646
 20
-158.459630
 30
0.0
 10
53.304818
 20
-158.967763
 30
0.0
 10
52.895624
 20
-159.155841
 30
0.0
 10
52.475302
 20
-159.005499
 30
0.0
 10
52.074603
 20
-159.117702
 30
0.0
 10
51.720468
 20
-159.383770
 30
0.0
 10
51.439837
 20
-159.695018
 30
0.0
 10
51.360739
 20
-159.794592
 30
0.0
 10
51.254437
 20
-159.842172
 30
0.0
 10
51.200394
 20
-159.816179
 30
0.0
 10
51.278079
 20
-159.695030
 30
0.0
 10
51.278096
 20
-159.695015
 30
0.0
 10
51.278096
 20
-159.695015
 30
0.0
  0
LWPOLYLINE
  5
123
100
AcDbEntity
  8
0
 62
7
100
AcDbPolyline
 90
35
 70
0
 10
47.759945
 20
-168.187108
 30
0.0
 10
47.905588
 20
-167.857850
 30
0.0
 10
48.081647
 20
-167.551981
 30
0.0
 10
48.299048
 20
-167.273865
 30
0.0
 10
48.568717
 20
-167.027868
 30
0.0
 10
49.149965
 20
-166.892100
 30
0.0
 10
49.737061
 20
-166.890406
 30
0.0
 10
50.285907
 20
-167.034918
 30
0.0
 10
50.752398
 20
-167.337957
 30
0.0
 10
50.977374
 20
-167.688350
 30
0.0
 10
51.153560
 20
-168.066951
 30
0.0
 10
51.325038
 20
-168.447531
 30
0.0
 10
51.535892
 20
-168.803856
 30
0.0
 10
51.750657
 20
-169.026956
 30
0.0
 10
51.998855
 20
-169.224427
 30
0.0
 10
52.229504
 20
-169.431493
 30
0.0
 10
52.391612
 20
-169.683390
 30
0.0
 10
52.523559
 20
-170.182554
 30
0.0
 10
52.564696
 20
-170.726557
 30
0.0
 10
52.503767
 20
-171.229187
 30
0.0
 10
52.329501
 20
-171.604223
 30
0.0
 10
51.719700
 20
-171.867853
 30
0.0
 10
51.008492
 20
-171.877448
 30
0.0
 10
50.298765
 20
-171.721506
 30
0.0
 10
49.693412
 20
-171.488526
 30
0.0
 10
49.413832
 20
-171.304215
 30
0.0
 10
49.121599
 20
-171.137343
 30
0.0
 10
48.844211
 20
-170.947520
 30
0.0
 10
48.609154
 20
-170.694358
 30
0.0
 10
48.182668
 20
-170.190530
 30
0.0
 10
47.849259
 20
-169.532943
 30
0.0
 10
47.683493
 20
-168.829265
 30
0.0
 10
47.759945
 20
-168.187170
 30
0.0
 10
47.759945
 20
-168.187108
 30
0.0
 10
47.759945
 20
-168.187108
 30
0.0
  0
LWPOLYLINE
  5
124
100
AcDbEntity
  8
0
 62
7
100
AcDbPolyline
 90
26
 70
0
 10
57.788703
 20
-154.227877
 30
0.0
 10
56.962751
 20
-153.930279
 30
0.0
 10
56.264725
 20
-153.662002
 30
0.0
 10
55.873757
 20
-153.241945
 30
0.0
 10
55.968971
 20
-152.489019
 30
0.0
 10
56.526272
 20
-152.579756
 30
0.0
 10
57.045823
 20
-152.746431
 30
0.0
 10
57.547595
 20
-152.946156
 30
0.0
 10
58.051553
 20
-153.136038
 30
0.0
 10
60.887616
 20
-154.410396
 30
0.0
 10
63.765323
 20
-155.914561
 30
0.0
 10
66.515745
 20
-157.605403
 30
0.0
 10
68.969963
 20
-159.439788
 30
0.0
 10
69.386388
 20
-159.781291
 30
0.0
 10
69.810238
 20
-160.115972
 30
0.0
 10
70.214357
 20
-160.482579
 30
0.0
 10
70.571589
 20
-160.919851
 30
0.0
 10
70.014996
 20
-161.403487
 30
0.0
 10
69.406547
 20
-161.268667
 30
0.0
 10
68.776681
 20
-160.782810
 30
0.0
 10
68.155828
 20
-160.213342
 30
0.0
 10
65.596773
 20
-158.419713
 30
0.0
 10
63.148123
 20
-156.916459
 30
0.0
 10
60.611543
 20
-155.565280
 30
0.0
 10
57.788703
 20
-154.227877
 30
0.0
 10
57.788703
 20
-154.227877
 30
0.0
  0
LWPOLYLINE
  5
125
100
AcDbEntity
  8
0
 62
7
100
AcDbPolyline
 90
43
 70
0
 10
60.002321
 20
-163.727511
 30
0.0
 10
59.755521
 20
-163.487837
 30
0.0
 10
59.468317
 20
-163.289623
 30
0.0
 10
59.153061
 20
-163.140003
 30
0.0
 10
58.822096
 20
-163.046105
 30
0.0
 10
57.237300
 20
-163.092229
 30
0.0
 10
55.693880
 20
-163.356428
 30
0.0
 10
54.146151
 20
-163.619742
 30
0.0
 10
52.548437
 20
-163.663201
 30
0.0
 10
52.039687
 20
-163.578627
 30
0.0
 10
51.565596
 20
-163.484783
 30
0.0
 10
51.454115
 20
-163.397966
 30
0.0
 10
52.033207
 20
-163.334480
 30
0.0
 10
53.359648
 20
-163.366964
 30
0.0
 10
54.568491
 20
-163.149576
 30
0.0
 10
55.745744
 20
-162.819142
 30
0.0
 10
56.977404
 20
-162.512491
 30
0.0
 10
57.582336
 20
-162.307530
 30
0.0
 10
58.174647
 20
-162.113733
 30
0.0
 10
58.763783
 20
-161.991192
 30
0.0
 10
59.359193
 20
-161.999998
 30
0.0
 10
59.721138
 20
-162.093868
 30
0.0
 10
60.065909
 20
-162.254557
 30
0.0
 10
60.377451
 20
-162.472793
 30
0.0
 10
60.639717
 20
-162.739310
 30
0.0
 10
60.945059
 20
-163.250539
 30
0.0
 10
61.133505
 20
-163.822016
 30
0.0
 10
61.261825
 20
-164.431873
 30
0.0
 10
61.386791
 20
-165.058240
 30
0.0
 10
61.685015
 20
-166.344270
 30
0.0
 10
62.040558
 20
-167.487518
 30
0.0
 10
62.509279
 20
-168.589325
 30
0.0
 10
63.147025
 20
-169.751036
 30
0.0
 10
63.381591
 20
-170.284287
 30
0.0
 10
63.250668
 20
-170.231150
 30
0.0
 10
62.932350
 20
-169.867495
 30
0.0
 10
62.604735
 20
-169.469192
 30
0.0
 10
61.802332
 20
-168.071385
 30
0.0
 10
61.280147
 20
-166.605706
 30
0.0
 10
60.769655
 20
-165.136345
 30
0.0
 10
60.002321
 20
-163.727497
 30
0.0
 10
60.002321
 20
-163.727511
 30
0.0
 10
60.002321
 20
-163.727511
 30
0.0
  0
LWPOLYLINE
  5
126
100
AcDbEntity
  8
0
 62
7
100
AcDbPolyline
 90
43
 70
0
 10
54.592045
 20
-172.807224
 30
0.0
 10
54.343393
 20
-172.528958
 30
0.0
 10
54.205782
 20
-172.404605
 30
0.0
 10
54.029283
 20
-172.347608
 30
0.0
 10
53.663971
 20
-172.271399
 30
0.0
 10
53.323010
 20
-172.154274
 30
0.0
 10
53.234621
 20
-171.985271
 30
0.0
 10
53.271451
 20
-171.693956
 30
0.0
 10
53.306156
 20
-171.209888
 30
0.0
 10
53.400209
 20
-170.646753
 30
0.0
 10
53.646141
 20
-170.144465
 30
0.0
 10
53.963178
 20
-169.671935
 30
0.0
 10
54.270549
 20
-169.198070
 30
0.0
 10
54.431813
 20
-168.880296
 30
0.0
 10
54.592813
 20
-168.556669
 30
0.0
 10
54.785395
 20
-168.263869
 30
0.0
 10
55.041411
 20
-168.038571
 30
0.0
 10
55.350193
 20
-167.907564
 30
0.0
 10
55.688653
 20
-167.850995
 30
0.0
 10
56.037203
 20
-167.855313
 30
0.0
 10
56.376260
 20
-167.906946
 30
0.0
 10
56.554407
 20
-167.960892
 30
0.0
 10
56.724183
 20
-168.042613
 30
0.0
 10
56.879843
 20
-168.148787
 30
0.0
 10
57.015637
 20
-168.276095
 30
0.0
 10
57.229877
 20
-168.543910
 30
0.0
 10
57.407886
 20
-168.843607
 30
0.0
 10
57.528127
 20
-169.165008
 30
0.0
 10
57.569063
 20
-169.497923
 30
0.0
 10
57.501959
 20
-169.832288
 30
0.0
 10
57.344677
 20
-170.145470
 30
0.0
 10
57.144906
 20
-170.446714
 30
0.0
 10
56.950336
 20
-170.745257
 30
0.0
 10
56.693644
 20
-171.248383
 30
0.0
 10
56.442940
 20
-171.759211
 30
0.0
 10
56.130912
 20
-172.223334
 30
0.0
 10
55.690251
 20
-172.586354
 30
0.0
 10
55.288389
 20
-172.858441
 30
0.0
 10
55.054514
 20
-173.035999
 30
0.0
 10
54.863958
 20
-173.043957
 30
0.0
 10
54.592045
 20
-172.807238
 30
0.0
 10
54.592045
 20
-172.807224
 30
0.0
 10
54.592045
 20
-172.807224
 30
0.0
  0
LWPOLYLINE
  5
127
100
AcDbEntity
  8
0
 62
7
100
AcDbPolyline
 90
23
 70
0
 10
6.742490
 20
-199.359210
 30
0.0
 10
6.246371
 20
-199.493011
 30
0.0
 10
5.652543
 20
-199.663699
 30
0.0
 10
5.156411
 20
-199.663699
 30
0.0
 10
4.953380
 20
-199.283743
 30
0.0
 10
4.816925
 20
-197.937487
 30
0.0
 10
4.744859
 20
-196.578418
 30
0.0
 10
4.677768
 20
-195.219743
 30
0.0
 10
4.556242
 20
-193.874700
 30
0.0
 10
4.444300
 20
-193.445864
 30
0.0
 10
4.419365
 20
-193.010451
 30
0.0
 10
4.528931
 20
-192.636309
 30
0.0
 10
4.820492
 20
-192.391340
 30
0.0
 10
5.845544
 20
-193.674774
 30
0.0
 10
6.927699
 20
-195.168859
 30
0.0
 10
7.842512
 20
-196.758673
 30
0.0
 10
8.365541
 20
-198.329352
 30
0.0
 10
8.093834
 20
-198.667878
 30
0.0
 10
7.656188
 20
-198.959103
 30
0.0
 10
7.167456
 20
-199.193037
 30
0.0
 10
6.742492
 20
-199.359802
 30
0.0
 10
6.742490
 20
-199.359802
 30
0.0
 10
6.742490
 20
-199.359210
 30
0.0
  0
LWPOLYLINE
  5
128
100
AcDbEntity
  8
0
 62
7
100
AcDbPolyline
 90
31
 70
0
 10
11.587363
 20
-200.390958
 30
0.0
 10
11.180466
 20
-200.301832
 30
0.0
 10
10.856905
 20
-200.429707
 30
0.0
 10
10.531152
 20
-200.629689
 30
0.0
 10
10.117681
 20
-200.756972
 30
0.0
 10
9.778514
 20
-200.760076
 30
0.0
 10
9.442846
 20
-200.698693
 30
0.0
 10
9.112495
 20
-200.616905
 30
0.0
 10
8.789275
 20
-200.558852
 30
0.0
 10
8.431498
 20
-200.537403
 30
0.0
 10
8.071175
 20
-200.529218
 30
0.0
 10
7.713062
 20
-200.514260
 30
0.0
 10
7.361887
 20
-200.472463
 30
0.0
 10
7.312464
 20
-200.340158
 30
0.0
 10
7.654600
 20
-200.205989
 30
0.0
 10
8.191699
 20
-200.118924
 30
0.0
 10
8.727165
 20
-200.127955
 30
0.0
 10
9.169333
 20
-199.896899
 30
0.0
 10
9.569199
 20
-199.366322
 30
0.0
 10
9.944170
 20
-198.999546
 30
0.0
 10
10.311648
 20
-199.259867
 30
0.0
 10
10.391607
 20
-199.699033
 30
0.0
 10
10.689126
 20
-199.989948
 30
0.0
 10
11.096616
 20
-200.163599
 30
0.0
 10
11.506486
 20
-200.251004
 30
0.0
 10
11.632266
 20
-200.269630
 30
0.0
 10
11.726619
 20
-200.337900
 30
0.0
 10
11.731126
 20
-200.397703
 30
0.0
 10
11.587364
 20
-200.390929
 30
0.0
 10
11.587363
 20
-200.390958
 30
0.0
 10
11.587363
 20
-200.390958
 30
0.0
  0
LWPOLYLINE
  5
129
100
AcDbEntity
  8
0
 62
7
100
AcDbPolyline
 90
35
 70
0
 10
20.700806
 20
-199.191711
 30
0.0
 10
20.342841
 20
-199.230206
 30
0.0
 10
19.989921
 20
-199.230206
 30
0.0
 10
19.640365
 20
-199.180986
 30
0.0
 10
19.292490
 20
-199.070440
 30
0.0
 10
18.884289
 20
-198.634943
 30
0.0
 10
18.589220
 20
-198.127394
 30
0.0
 10
18.439950
 20
-197.579827
 30
0.0
 10
18.469145
 20
-197.024300
 30
0.0
 10
18.660105
 20
-196.654279
 30
0.0
 10
18.899890
 20
-196.312395
 30
0.0
 10
19.143740
 20
-195.973587
 30
0.0
 10
19.346900
 20
-195.612822
 30
0.0
 10
19.432730
 20
-195.315276
 30
0.0
 10
19.479646
 20
-195.001614
 30
0.0
 10
19.543650
 20
-194.698338
 30
0.0
 10
19.680744
 20
-194.432005
 30
0.0
 10
20.047059
 20
-194.068136
 30
0.0
 10
20.497607
 20
-193.760513
 30
0.0
 10
20.963362
 20
-193.561970
 30
0.0
 10
21.375289
 20
-193.525366
 30
0.0
 10
21.908499
 20
-193.921662
 30
0.0
 10
22.272412
 20
-194.532786
 30
0.0
 10
22.492225
 20
-195.225388
 30
0.0
 10
22.593132
 20
-195.866145
 30
0.0
 10
22.573303
 20
-196.200409
 30
0.0
 10
22.574912
 20
-196.536931
 30
0.0
 10
22.549218
 20
-196.872070
 30
0.0
 10
22.447499
 20
-197.202213
 30
0.0
 10
22.224414
 20
-197.823469
 30
0.0
 10
21.821631
 20
-198.441000
 30
0.0
 10
21.295111
 20
-198.936412
 30
0.0
 10
20.700813
 20
-199.191231
 30
0.0
 10
20.700806
 20
-199.191231
 30
0.0
 10
20.700806
 20
-199.191711
 30
0.0
  0
LWPOLYLINE
  5
12a
100
AcDbEntity
  8
0
 62
7
100
AcDbPolyline
 90
23
 70
0
 10
6.742490
 20
-183.642223
 30
0.0
 10
6.246370
 20
-183.508421
 30
0.0
 10
5.652541
 20
-183.337736
 30
0.0
 10
5.156408
 20
-183.338301
 30
0.0
 10
4.953376
 20
-183.718265
 30
0.0
 10
4.816922
 20
-185.064519
 30
0.0
 10
4.744859
 20
-186.423591
 30
0.0
 10
4.677770
 20
-187.782285
 30
0.0
 10
4.556238
 20
-189.127328
 30
0.0
 10
4.444296
 20
-189.556164
 30
0.0
 10
4.419362
 20
-189.991577
 30
0.0
 10
4.528927
 20
-190.365719
 30
0.0
 10
4.820488
 20
-190.610688
 30
0.0
 10
5.845542
 20
-189.327254
 30
0.0
 10
6.927697
 20
-187.833169
 30
0.0
 10
7.842509
 20
-186.243347
 30
0.0
 10
8.365537
 20
-184.672676
 30
0.0
 10
8.093833
 20
-184.334133
 30
0.0
 10
7.656188
 20
-184.042928
 30
0.0
 10
7.167456
 20
-183.808982
 30
0.0
 10
6.742492
 20
-183.642217
 30
0.0
 10
6.742490
 20
-183.642223
 30
0.0
 10
6.742490
 20
-183.642223
 30
0.0
  0
LWPOLYLINE
  5
12b
100
AcDbEntity
  8
0
 62
7
100
AcDbPolyline
 90
31
 70
0
 10
11.587363
 20
-182.610469
 30
0.0
 10
11.180465
 20
-182.699589
 30
0.0
 10
10.856902
 20
-182.571729
 30
0.0
 10
10.531148
 20
-182.371738
 30
0.0
 10
10.117677
 20
-182.244458
 30
0.0
 10
9.778512
 20
-182.241297
 30
0.0
 10
9.442846
 20
-182.302678
 30
0.0
 10
9.112494
 20
-182.384463
 30
0.0
 10
8.789275
 20
-182.442525
 30
0.0
 10
8.431497
 20
-182.464030
 30
0.0
 10
8.071174
 20
-182.472158
 30
0.0
 10
7.713061
 20
-182.487144
 30
0.0
 10
7.361884
 20
-182.528927
 30
0.0
 10
7.312461
 20
-182.661247
 30
0.0
 10
7.654598
 20
-182.795390
 30
0.0
 10
8.191698
 20
-182.882467
 30
0.0
 10
8.727165
 20
-182.873577
 30
0.0
 10
9.169332
 20
-183.104623
 30
0.0
 10
9.569197
 20
-183.635218
 30
0.0
 10
9.944167
 20
-184.002014
 30
0.0
 10
10.311644
 20
-183.741681
 30
0.0
 10
10.391607
 20
-183.302501
 30
0.0
 10
10.689127
 20
-183.011589
 30
0.0
 10
11.096615
 20
-182.837932
 30
0.0
 10
11.506482
 20
-182.750522
 30
0.0
 10
11.632264
 20
-182.731811
 30
0.0
 10
11.726618
 20
-182.663538
 30
0.0
 10
11.731125
 20
-182.603735
 30
0.0
 10
11.587364
 20
-182.610452
 30
0.0
 10
11.587363
 20
-182.610469
 30
0.0
 10
11.587363
 20
-182.610469
 30
0.0
  0
LWPOLYLINE
  5
12c
100
AcDbEntity
  8
0
 62
7
100
AcDbPolyline
 90
35
 70
0
 10
20.700806
 20
-183.809708
 30
0.0
 10
20.342841
 20
-183.771210
 30
0.0
 10
19.989921
 20
-183.770645
 30
0.0
 10
19.640365
 20
-183.819859
 30
0.0
 10
19.292490
 20
-183.930403
 30
0.0
 10
18.884288
 20
-184.365892
 30
0.0
 10
18.589218
 20
-184.873457
 30
0.0
 10
18.439947
 20
-185.421027
 30
0.0
 10
18.469141
 20
-185.976539
 30
0.0
 10
18.660102
 20
-186.346572
 30
0.0
 10
18.899888
 20
-186.688453
 30
0.0
 10
19.143740
 20
-187.027227
 30
0.0
 10
19.346900
 20
-187.387992
 30
0.0
 10
19.432730
 20
-187.685539
 30
0.0
 10
19.479644
 20
-187.999229
 30
0.0
 10
19.543647
 20
-188.302505
 30
0.0
 10
19.680740
 20
-188.568838
 30
0.0
 10
20.047056
 20
-188.932707
 30
0.0
 10
20.497605
 20
-189.240329
 30
0.0
 10
20.963359
 20
-189.438873
 30
0.0
 10
21.375285
 20
-189.475477
 30
0.0
 10
21.908496
 20
-189.079180
 30
0.0
 10
22.272410
 20
-188.468056
 30
0.0
 10
22.492224
 20
-187.775455
 30
0.0
 10
22.593132
 20
-187.134698
 30
0.0
 10
22.573303
 20
-186.800434
 30
0.0
 10
22.574912
 20
-186.463920
 30
0.0
 10
22.549218
 20
-186.128784
 30
0.0
 10
22.447501
 20
-185.798638
 30
0.0
 10
22.224416
 20
-185.177376
 30
0.0
 10
21.821633
 20
-184.559840
 30
0.0
 10
21.295112
 20
-184.064447
 30
0.0
 10
20.700815
 20
-183.809606
 30
0.0
 10
20.700806
 20
-183.809708
 30
0.0
 10
20.700806
 20
-183.809708
 30
0.0
  0
LWPOLYLINE
  5
12d
100
AcDbEntity
  8
0
 62
7
100
AcDbPolyline
 90
26
 70
0
 10
3.597379
 20
-185.515250
 30
0.0
 10
3.752630
 20
-184.651156
 30
0.0
 10
3.869308
 20
-183.912510
 30
0.0
 10
3.701014
 20
-183.363893
 30
0.0
 10
3.001351
 20
-183.069888
 30
0.0
 10
2.801281
 20
-183.597891
 30
0.0
 10
2.685850
 20
-184.131176
 30
0.0
 10
2.607931
 20
-184.665583
 30
0.0
 10
2.520396
 20
-185.196968
 30
0.0
 10
2.205989
 20
-188.290256
 30
0.0
 10
2.069781
 20
-191.534514
 30
0.0
 10
2.158880
 20
-194.761866
 30
0.0
 10
2.520396
 20
-197.804476
 30
0.0
 10
2.607935
 20
-198.335844
 30
0.0
 10
2.685854
 20
-198.870260
 30
0.0
 10
2.801284
 20
-199.403547
 30
0.0
 10
3.001355
 20
-199.931556
 30
0.0
 10
3.698493
 20
-199.691385
 30
0.0
 10
3.885961
 20
-199.097025
 30
0.0
 10
3.780132
 20
-198.308609
 30
0.0
 10
3.597383
 20
-197.486185
 30
0.0
 10
3.323581
 20
-194.373161
 30
0.0
 10
3.246049
 20
-191.500929
 30
0.0
 10
3.344183
 20
-188.628613
 30
0.0
 10
3.597379
 20
-185.515250
 30
0.0
 10
3.597379
 20
-185.515250
 30
0.0
  0
LWPOLYLINE
  5
12e
100
AcDbEntity
  8
0
 62
7
100
AcDbPolyline
 90
42
 70
0
 10
10.717494
 20
-192.182129
 30
0.0
 10
10.633332
 20
-191.848542
 30
0.0
 10
10.605276
 20
-191.500732
 30
0.0
 10
10.633329
 20
-191.152893
 30
0.0
 10
10.717491
 20
-190.819306
 30
0.0
 10
11.549834
 20
-189.469889
 30
0.0
 10
12.550347
 20
-188.265336
 30
0.0
 10
13.552245
 20
-187.056635
 30
0.0
 10
14.388740
 20
-185.694709
 30
0.0
 10
14.569874
 20
-185.211836
 30
0.0
 10
14.725648
 20
-184.754337
 30
0.0
 10
14.706203
 20
-184.614383
 30
0.0
 10
14.361676
 20
-185.084147
 30
0.0
 10
13.726589
 20
-186.249121
 30
0.0
 10
12.933903
 20
-187.187332
 30
0.0
 10
12.059113
 20
-188.041619
 30
0.0
 10
11.177715
 20
-188.954946
 30
0.0
 10
10.697748
 20
-189.376360
 30
0.0
 10
10.233756
 20
-189.792412
 30
0.0
 10
9.833066
 20
-190.241343
 30
0.0
 10
9.543000
 20
-190.761394
 30
0.0
 10
9.443321
 20
-191.121792
 30
0.0
 10
9.410097
 20
-191.500704
 30
0.0
 10
9.443323
 20
-191.879643
 30
0.0
 10
9.543000
 20
-192.240013
 30
0.0
 10
9.833068
 20
-192.760064
 30
0.0
 10
10.233757
 20
-193.209023
 30
0.0
 10
10.697748
 20
-193.625075
 30
0.0
 10
11.177715
 20
-194.046489
 30
0.0
 10
12.142340
 20
-194.947766
 30
0.0
 10
12.954648
 20
-195.827283
 30
0.0
 10
13.674481
 20
-196.784129
 30
0.0
 10
14.361680
 20
-197.917280
 30
0.0
 10
14.706205
 20
-198.387039
 30
0.0
 10
14.725650
 20
-198.247085
 30
0.0
 10
14.569875
 20
-197.789602
 30
0.0
 10
14.388743
 20
-197.306720
 30
0.0
 10
13.579408
 20
-195.912909
 30
0.0
 10
12.571184
 20
-194.727858
 30
0.0
 10
11.553926
 20
-193.551076
 30
0.0
 10
10.717494
 20
-192.182129
 30
0.0
 10
10.717494
 20
-192.182129
 30
0.0
  0
LWPOLYLINE
  5
12f
100
AcDbEntity
  8
0
 62
7
100
AcDbPolyline
 90
43
 70
0
 10
21.285895
 20
-192.036531
 30
0.0
 10
21.169235
 20
-191.682060
 30
0.0
 10
21.130348
 20
-191.500704
 30
0.0
 10
21.169235
 20
-191.319348
 30
0.0
 10
21.285895
 20
-190.964876
 30
0.0
 10
21.354942
 20
-190.611054
 30
0.0
 10
21.252778
 20
-190.449990
 30
0.0
 10
20.982074
 20
-190.336226
 30
0.0
 10
20.545506
 20
-190.124249
 30
0.0
 10
20.010793
 20
-189.924126
 30
0.0
 10
19.452833
 20
-189.885969
 30
0.0
 10
18.885090
 20
-189.924267
 30
0.0
 10
18.321023
 20
-189.953533
 30
0.0
 10
17.965191
 20
-189.934342
 30
0.0
 10
17.604422
 20
-189.912046
 30
0.0
 10
17.254556
 20
-189.932366
 30
0.0
 10
16.931437
 20
-190.041417
 30
0.0
 10
16.663589
 20
-190.243319
 30
0.0
 10
16.445370
 20
-190.508156
 30
0.0
 10
16.274827
 20
-190.812166
 30
0.0
 10
16.150015
 20
-191.131613
 30
0.0
 10
16.107661
 20
-191.312885
 30
0.0
 10
16.093545
 20
-191.500760
 30
0.0
 10
16.107664
 20
-191.688664
 30
0.0
 10
16.150018
 20
-191.869907
 30
0.0
 10
16.274834
 20
-192.189354
 30
0.0
 10
16.445376
 20
-192.493364
 30
0.0
 10
16.663596
 20
-192.758201
 30
0.0
 10
16.931440
 20
-192.960103
 30
0.0
 10
17.254562
 20
-193.069182
 30
0.0
 10
17.604426
 20
-193.089502
 30
0.0
 10
17.965195
 20
-193.067206
 30
0.0
 10
18.321025
 20
-193.048015
 30
0.0
 10
18.885092
 20
-193.077253
 30
0.0
 10
19.452835
 20
-193.115551
 30
0.0
 10
20.010793
 20
-193.077394
 30
0.0
 10
20.545505
 20
-192.877299
 30
0.0
 10
20.982073
 20
-192.665322
 30
0.0
 10
21.252776
 20
-192.551530
 30
0.0
 10
21.354942
 20
-192.390494
 30
0.0
 10
21.285894
 20
-192.036644
 30
0.0
 10
21.285895
 20
-192.036531
 30
0.0
 10
21.285895
 20
-192.036531
 30
0.0
  0
LWPOLYLINE
  5
130
100
AcDbEntity
  8
0
 62
7
100
AcDbPolyline
 90
23
 70
0
 10
79.618786
 20
-199.359210
 30
0.0
 10
80.114905
 20
-199.493011
 30
0.0
 10
80.708734
 20
-199.663699
 30
0.0
 10
81.204864
 20
-199.663699
 30
0.0
 10
81.407895
 20
-199.283743
 30
0.0
 10
81.544352
 20
-197.937487
 30
0.0
 10
81.616417
 20
-196.578418
 30
0.0
 10
81.683507
 20
-195.219743
 30
0.0
 10
81.805035
 20
-193.874700
 30
0.0
 10
81.916976
 20
-193.445864
 30
0.0
 10
81.941924
 20
-193.010451
 30
0.0
 10
81.832357
 20
-192.636309
 30
0.0
 10
81.540796
 20
-192.391340
 30
0.0
 10
80.515745
 20
-193.674774
 30
0.0
 10
79.433589
 20
-195.168859
 30
0.0
 10
78.518774
 20
-196.758673
 30
0.0
 10
77.995746
 20
-198.329352
 30
0.0
 10
78.267453
 20
-198.667878
 30
0.0
 10
78.705100
 20
-198.959103
 30
0.0
 10
79.193833
 20
-199.193037
 30
0.0
 10
79.618798
 20
-199.359802
 30
0.0
 10
79.618786
 20
-199.359802
 30
0.0
 10
79.618786
 20
-199.359210
 30
0.0
  0
LWPOLYLINE
  5
131
100
AcDbEntity
  8
0
 62
7
100
AcDbPolyline
 90
31
 70
0
 10
74.773911
 20
-200.390958
 30
0.0
 10
75.180811
 20
-200.301832
 30
0.0
 10
75.504370
 20
-200.429707
 30
0.0
 10
75.830125
 20
-200.629689
 30
0.0
 10
76.243595
 20
-200.756972
 30
0.0
 10
76.582761
 20
-200.760076
 30
0.0
 10
76.918431
 20
-200.698693
 30
0.0
 10
77.248780
 20
-200.616905
 30
0.0
 10
77.572001
 20
-200.558852
 30
0.0
 10
77.929777
 20
-200.537403
 30
0.0
 10
78.290101
 20
-200.529218
 30
0.0
 10
78.648213
 20
-200.514260
 30
0.0
 10
78.999388
 20
-200.472463
 30
0.0
 10
79.048810
 20
-200.340158
 30
0.0
 10
78.706675
 20
-200.205989
 30
0.0
 10
78.169575
 20
-200.118924
 30
0.0
 10
77.634109
 20
-200.127955
 30
0.0
 10
77.191943
 20
-199.896899
 30
0.0
 10
76.792077
 20
-199.366322
 30
0.0
 10
76.417105
 20
-198.999546
 30
0.0
 10
76.049626
 20
-199.259867
 30
0.0
 10
75.969667
 20
-199.699033
 30
0.0
 10
75.672148
 20
-199.989948
 30
0.0
 10
75.264659
 20
-200.163599
 30
0.0
 10
74.854791
 20
-200.251004
 30
0.0
 10
74.729010
 20
-200.269630
 30
0.0
 10
74.634657
 20
-200.337900
 30
0.0
 10
74.630142
 20
-200.397703
 30
0.0
 10
74.773903
 20
-200.390929
 30
0.0
 10
74.773911
 20
-200.390958
 30
0.0
 10
74.773911
 20
-200.390958
 30
0.0
  0
LWPOLYLINE
  5
132
100
AcDbEntity
  8
0
 62
7
100
AcDbPolyline
 90
35
 70
0
 10
65.660470
 20
-199.191711
 30
0.0
 10
66.018435
 20
-199.230206
 30
0.0
 10
66.371354
 20
-199.230206
 30
0.0
 10
66.720909
 20
-199.180986
 30
0.0
 10
67.068785
 20
-199.070440
 30
0.0
 10
67.476985
 20
-198.634943
 30
0.0
 10
67.772054
 20
-198.127394
 30
0.0
 10
67.921324
 20
-197.579827
 30
0.0
 10
67.892131
 20
-197.024300
 30
0.0
 10
67.701171
 20
-196.654279
 30
0.0
 10
67.461387
 20
-196.312395
 30
0.0
 10
67.217536
 20
-195.973587
 30
0.0
 10
67.014375
 20
-195.612822
 30
0.0
 10
66.928546
 20
-195.315276
 30
0.0
 10
66.881629
 20
-195.001614
 30
0.0
 10
66.817627
 20
-194.698338
 30
0.0
 10
66.680532
 20
-194.432005
 30
0.0
 10
66.314216
 20
-194.068136
 30
0.0
 10
65.863668
 20
-193.760513
 30
0.0
 10
65.397913
 20
-193.561970
 30
0.0
 10
64.985987
 20
-193.525366
 30
0.0
 10
64.452777
 20
-193.921662
 30
0.0
 10
64.088865
 20
-194.532786
 30
0.0
 10
63.869051
 20
-195.225388
 30
0.0
 10
63.768145
 20
-195.866145
 30
0.0
 10
63.787985
 20
-196.200409
 30
0.0
 10
63.786292
 20
-196.536931
 30
0.0
 10
63.811974
 20
-196.872070
 30
0.0
 10
63.913693
 20
-197.202213
 30
0.0
 10
64.136778
 20
-197.823469
 30
0.0
 10
64.539563
 20
-198.441000
 30
0.0
 10
65.066082
 20
-198.936412
 30
0.0
 10
65.660380
 20
-199.191231
 30
0.0
 10
65.660470
 20
-199.191231
 30
0.0
 10
65.660470
 20
-199.191711
 30
0.0
  0
LWPOLYLINE
  5
133
100
AcDbEntity
  8
0
 62
7
100
AcDbPolyline
 90
23
 70
0
 10
79.618786
 20
-183.642223
 30
0.0
 10
80.114905
 20
-183.508421
 30
0.0
 10
80.708734
 20
-183.337736
 30
0.0
 10
81.204867
 20
-183.338301
 30
0.0
 10
81.407900
 20
-183.718265
 30
0.0
 10
81.544352
 20
-185.064519
 30
0.0
 10
81.616417
 20
-186.423591
 30
0.0
 10
81.683504
 20
-187.782285
 30
0.0
 10
81.805038
 20
-189.127328
 30
0.0
 10
81.916978
 20
-189.556164
 30
0.0
 10
81.941927
 20
-189.991577
 30
0.0
 10
81.832363
 20
-190.365719
 30
0.0
 10
81.540799
 20
-190.610688
 30
0.0
 10
80.515745
 20
-189.327254
 30
0.0
 10
79.433592
 20
-187.833169
 30
0.0
 10
78.518780
 20
-186.243347
 30
0.0
 10
77.995752
 20
-184.672676
 30
0.0
 10
78.267456
 20
-184.334133
 30
0.0
 10
78.705100
 20
-184.042928
 30
0.0
 10
79.193833
 20
-183.808982
 30
0.0
 10
79.618798
 20
-183.642217
 30
0.0
 10
79.618786
 20
-183.642223
 30
0.0
 10
79.618786
 20
-183.642223
 30
0.0
  0
LWPOLYLINE
  5
134
100
AcDbEntity
  8
0
 62
7
100
AcDbPolyline
 90
31
 70
0
 10
74.773911
 20
-182.610469
 30
0.0
 10
75.180811
 20
-182.699589
 30
0.0
 10
75.504373
 20
-182.571729
 30
0.0
 10
75.830128
 20
-182.371738
 30
0.0
 10
76.243598
 20
-182.244458
 30
0.0
 10
76.582764
 20
-182.241297
 30
0.0
 10
76.918431
 20
-182.302678
 30
0.0
 10
77.248780
 20
-182.384463
 30
0.0
 10
77.572001
 20
-182.442525
 30
0.0
 10
77.929780
 20
-182.464030
 30
0.0
 10
78.290101
 20
-182.472158
 30
0.0
 10
78.648216
 20
-182.487144
 30
0.0
 10
78.999393
 20
-182.528927
 30
0.0
 10
79.048816
 20
-182.661247
 30
0.0
 10
78.706678
 20
-182.795390
 30
0.0
 10
78.169578
 20
-182.882467
 30
0.0
 10
77.634109
 20
-182.873577
 30
0.0
 10
77.191943
 20
-183.104623
 30
0.0
 10
76.792077
 20
-183.635218
 30
0.0
 10
76.417108
 20
-184.002014
 30
0.0
 10
76.049632
 20
-183.741681
 30
0.0
 10
75.969670
 20
-183.302501
 30
0.0
 10
75.672148
 20
-183.011589
 30
0.0
 10
75.264662
 20
-182.837932
 30
0.0
 10
74.854793
 20
-182.750522
 30
0.0
 10
74.729013
 20
-182.731811
 30
0.0
 10
74.634657
 20
-182.663538
 30
0.0
 10
74.630142
 20
-182.603735
 30
0.0
 10
74.773903
 20
-182.610452
 30
0.0
 10
74.773911
 20
-182.610469
 30
0.0
 10
74.773911
 20
-182.610469
 30
0.0
  0
LWPOLYLINE
  5
135
100
AcDbEntity
  8
0
 62
7
100
AcDbPolyline
 90
35
 70
0
 10
65.660470
 20
-183.809708
 30
0.0
 10
66.018435
 20
-183.771210
 30
0.0
 10
66.371354
 20
-183.770645
 30
0.0
 10
66.720909
 20
-183.819859
 30
0.0
 10
67.068785
 20
-183.930403
 30
0.0
 10
67.476988
 20
-184.365892
 30
0.0
 10
67.772057
 20
-184.873457
 30
0.0
 10
67.921330
 20
-185.421030
 30
0.0
 10
67.892134
 20
-185.976542
 30
0.0
 10
67.701174
 20
-186.346572
 30
0.0
 10
67.461387
 20
-186.688453
 30
0.0
 10
67.217536
 20
-187.027227
 30
0.0
 10
67.014375
 20
-187.387992
 30
0.0
 10
66.928546
 20
-187.685539
 30
0.0
 10
66.881632
 20
-187.999229
 30
0.0
 10
66.817627
 20
-188.302505
 30
0.0
 10
66.680534
 20
-188.568838
 30
0.0
 10
66.314221
 20
-188.932707
 30
0.0
 10
65.863670
 20
-189.240329
 30
0.0
 10
65.397916
 20
-189.438873
 30
0.0
 10
64.985990
 20
-189.475477
 30
0.0
 10
64.452779
 20
-189.079180
 30
0.0
 10
64.088865
 20
-188.468056
 30
0.0
 10
63.869054
 20
-187.775455
 30
0.0
 10
63.768145
 20
-187.134698
 30
0.0
 10
63.787985
 20
-186.800434
 30
0.0
 10
63.786292
 20
-186.463920
 30
0.0
 10
63.811974
 20
-186.128784
 30
0.0
 10
63.913690
 20
-185.798638
 30
0.0
 10
64.136775
 20
-185.177376
 30
0.0
 10
64.539560
 20
-184.559840
 30
0.0
 10
65.066079
 20
-184.064447
 30
0.0
 10
65.660377
 20
-183.809606
 30
0.0
 10
65.660470
 20
-183.809708
 30
0.0
 10
65.660470
 20
-183.809708
 30
0.0
  0
LWPOLYLINE
  5
136
100
AcDbEntity
  8
0
 62
7
100
AcDbPolyline
 90
26
 70
0
 10
82.763896
 20
-185.515250
 30
0.0
 10
82.608646
 20
-184.651156
 30
0.0
 10
82.491967
 20
-183.912510
 30
0.0
 10
82.660261
 20
-183.363893
 30
0.0
 10
83.359924
 20
-183.069888
 30
0.0
 10
83.559994
 20
-183.597891
 30
0.0
 10
83.675426
 20
-184.131176
 30
0.0
 10
83.753345
 20
-184.665583
 30
0.0
 10
83.840879
 20
-185.196968
 30
0.0
 10
84.155286
 20
-188.290256
 30
0.0
 10
84.291495
 20
-191.534514
 30
0.0
 10
84.202394
 20
-194.761866
 30
0.0
 10
83.840879
 20
-197.804476
 30
0.0
 10
83.753342
 20
-198.335844
 30
0.0
 10
83.675423
 20
-198.870260
 30
0.0
 10
83.559991
 20
-199.403547
 30
0.0
 10
83.359921
 20
-199.931556
 30
0.0
 10
82.662784
 20
-199.691385
 30
0.0
 10
82.475316
 20
-199.097025
 30
0.0
 10
82.581143
 20
-198.308609
 30
0.0
 10
82.763893
 20
-197.486185
 30
0.0
 10
83.037694
 20
-194.373161
 30
0.0
 10
83.115226
 20
-191.500929
 30
0.0
 10
83.017092
 20
-188.628613
 30
0.0
 10
82.763896
 20
-185.515250
 30
0.0
 10
82.763896
 20
-185.515250
 30
0.0
  0
LWPOLYLINE
  5
137
100
AcDbEntity
  8
0
 62
7
100
AcDbPolyline
 90
47
 70
0
 10
75.643782
 20
-192.182129
 30
0.0
 10
75.727947
 20
-191.848542
 30
0.0
 10
75.756000
 20
-191.500732
 30
0.0
 10
75.727947
 20
-191.152893
 30
0.0
 10
75.643782
 20
-190.819306
 30
0.0
 10
74.811441
 20
-189.469889
 30
0.0
 10
73.810927
 20
-188.265336
 30
0.0
 10
72.809029
 20
-187.056635
 30
0.0
 10
71.972534
 20
-185.694709
 30
0.0
 10
71.791401
 20
-185.211836
 30
0.0
 10
71.635626
 20
-184.754337
 30
0.0
 10
71.655071
 20
-184.614383
 30
0.0
 10
71.999599
 20
-185.084147
 30
0.0
 10
72.634687
 20
-186.249121
 30
0.0
 10
73.427373
 20
-187.187332
 30
0.0
 10
74.302163
 20
-188.041619
 30
0.0
 10
75.183560
 20
-188.954946
 30
0.0
 10
75.663527
 20
-189.376360
 30
0.0
 10
76.127520
 20
-189.792412
 30
0.0
 10
76.528210
 20
-190.241343
 30
0.0
 10
76.818276
 20
-190.761394
 30
0.0
 10
76.917954
 20
-191.121792
 30
0.0
 10
76.951177
 20
-191.500704
 30
0.0
 10
76.917951
 20
-191.879643
 30
0.0
 10
76.818276
 20
-192.240013
 30
0.0
 10
76.528208
 20
-192.760064
 30
0.0
 10
76.127517
 20
-193.209023
 30
0.0
 10
75.663527
 20
-193.625075
 30
0.0
 10
75.183560
 20
-194.046489
 30
0.0
 10
74.218935
 20
-194.947766
 30
0.0
 10
73.406627
 20
-195.827283
 30
0.0
 10
72.686793
 20
-196.784129
 30
0.0
 10
71.999594
 20
-197.917280
 30
0.0
 10
71.655068
 20
-198.387039
 30
0.0
 10
71.635623
 20
-198.247085
 30
0.0
 10
71.791395
 20
-197.789602
 30
0.0
 10
71.972526
 20
-197.306720
 30
0.0
 10
72.781860
 20
-195.912909
 30
0.0
 10
73.790082
 20
-194.727858
 30
0.0
 10
74.807341
 20
-193.551076
 30
0.0
 10
75.643774
 20
-192.182129
 30
0.0
 10
75.643774
 20
-192.182129
 30
0.0
 10
75.643777
 20
-192.182129
 30
0.0
 10
75.643780
 20
-192.182129
 30
0.0
 10
75.643780
 20
-192.182129
 30
0.0
 10
75.643782
 20
-192.182129
 30
0.0
 10
75.643782
 20
-192.182129
 30
0.0
  0
LWPOLYLINE
  5
138
100
AcDbEntity
  8
0
 62
7
100
AcDbPolyline
 90
43
 70
0
 10
65.075381
 20
-192.036531
 30
0.0
 10
65.192041
 20
-191.682060
 30
0.0
 10
65.230928
 20
-191.500704
 30
0.0
 10
65.192041
 20
-191.319348
 30
0.0
 10
65.075381
 20
-190.964876
 30
0.0
 10
65.006336
 20
-190.611054
 30
0.0
 10
65.108497
 20
-190.449990
 30
0.0
 10
65.379199
 20
-190.336226
 30
0.0
 10
65.815769
 20
-190.124249
 30
0.0
 10
66.350481
 20
-189.924126
 30
0.0
 10
66.908443
 20
-189.885969
 30
0.0
 10
67.476187
 20
-189.924267
 30
0.0
 10
68.040253
 20
-189.953533
 30
0.0
 10
68.396084
 20
-189.934342
 30
0.0
 10
68.756855
 20
-189.912046
 30
0.0
 10
69.106720
 20
-189.932366
 30
0.0
 10
69.429839
 20
-190.041417
 30
0.0
 10
69.697687
 20
-190.243319
 30
0.0
 10
69.915905
 20
-190.508156
 30
0.0
 10
70.086449
 20
-190.812166
 30
0.0
 10
70.211261
 20
-191.131613
 30
0.0
 10
70.253614
 20
-191.312885
 30
0.0
 10
70.267726
 20
-191.500760
 30
0.0
 10
70.253614
 20
-191.688664
 30
0.0
 10
70.211261
 20
-191.869907
 30
0.0
 10
70.086446
 20
-192.189354
 30
0.0
 10
69.915905
 20
-192.493364
 30
0.0
 10
69.697685
 20
-192.758201
 30
0.0
 10
69.429839
 20
-192.960103
 30
0.0
 10
69.106717
 20
-193.069182
 30
0.0
 10
68.756855
 20
-193.089502
 30
0.0
 10
68.396087
 20
-193.067206
 30
0.0
 10
68.040256
 20
-193.048015
 30
0.0
 10
67.476187
 20
-193.077253
 30
0.0
 10
66.908446
 20
-193.115551
 30
0.0
 10
66.350487
 20
-193.077394
 30
0.0
 10
65.815774
 20
-192.877299
 30
0.0
 10
65.379205
 20
-192.665322
 30
0.0
 10
65.108503
 20
-192.551530
 30
0.0
 10
65.006339
 20
-192.390494
 30
0.0
 10
65.075387
 20
-192.036644
 30
0.0
 10
65.075381
 20
-192.036531
 30
0.0
 10
65.075381
 20
-192.036531
 30
0.0
  0
LWPOLYLINE
  5
139
100
AcDbEntity
  8
0
 62
7
100
AcDbPolyline
 90
51
 70
0
 10
32.485299
 20
-199.788187
 30
0.0
 10
31.867658
 20
-199.193150
 30
0.0
 10
31.296452
 20
-198.362062
 30
0.0
 10
30.862298
 20
-197.451839
 30
0.0
 10
30.655813
 20
-196.619424
 30
0.0
 10
30.581278
 20
-196.004773
 30
0.0
 10
30.426414
 20
-195.632747
 30
0.0
 10
30.107001
 20
-195.487742
 30
0.0
 10
29.538811
 20
-195.554148
 30
0.0
 10
29.140974
 20
-195.418823
 30
0.0
 10
28.996750
 20
-194.892845
 30
0.0
 10
28.918741
 20
-194.240094
 30
0.0
 10
28.719543
 20
-193.724530
 30
0.0
 10
28.756198
 20
-193.210829
 30
0.0
 10
28.519755
 20
-192.973283
 30
0.0
 10
28.113576
 20
-192.973283
 30
0.0
 10
27.641018
 20
-193.175749
 30
0.0
 10
27.717385
 20
-194.200385
 30
0.0
 10
27.926979
 20
-195.226037
 30
0.0
 10
28.142991
 20
-196.245790
 30
0.0
 10
28.238611
 20
-197.252675
 30
0.0
 10
28.361778
 20
-197.854880
 30
0.0
 10
28.460895
 20
-198.457679
 30
0.0
 10
28.577512
 20
-199.052603
 30
0.0
 10
28.753184
 20
-199.631187
 30
0.0
 10
28.787254
 20
-199.710096
 30
0.0
 10
28.827451
 20
-199.786353
 30
0.0
 10
28.873391
 20
-199.859307
 30
0.0
 10
28.924687
 20
-199.928254
 30
0.0
 10
29.337912
 20
-200.369678
 30
0.0
 10
29.794824
 20
-200.768119
 30
0.0
 10
30.267306
 20
-201.155356
 30
0.0
 10
30.727246
 20
-201.563139
 30
0.0
 10
31.504348
 20
-202.232655
 30
0.0
 10
32.351816
 20
-202.843864
 30
0.0
 10
33.194983
 20
-203.453690
 30
0.0
 10
33.959179
 20
-204.119141
 30
0.0
 10
34.370789
 20
-203.811124
 30
0.0
 10
34.574915
 20
-203.459955
 30
0.0
 10
34.487431
 20
-203.136415
 30
0.0
 10
34.024217
 20
-202.911315
 30
0.0
 10
33.677329
 20
-202.481011
 30
0.0
 10
33.151039
 20
-202.087085
 30
0.0
 10
32.767626
 20
-201.699170
 30
0.0
 10
32.849357
 20
-201.286985
 30
0.0
 10
33.190959
 20
-200.828120
 30
0.0
 10
33.225088
 20
-200.479011
 30
0.0
 10
32.980336
 20
-200.158886
 30
0.0
 10
32.485299
 20
-199.787002
 30
0.0
 10
32.485299
 20
-199.787002
 30
0.0
 10
32.485299
 20
-199.788187
 30
0.0
  0
LWPOLYLINE
  5
13a
100
AcDbEntity
  8
0
 62
7
100
AcDbPolyline
 90
51
 70
0
 10
30.655813
 20
-186.382014
 30
0.0
 10
30.862298
 20
-185.549611
 30
0.0
 10
31.296452
 20
-184.639376
 30
0.0
 10
31.867658
 20
-183.808271
 30
0.0
 10
32.485299
 20
-183.213248
 30
0.0
 10
32.980336
 20
-182.841372
 30
0.0
 10
33.225088
 20
-182.521245
 30
0.0
 10
33.190959
 20
-182.172119
 30
0.0
 10
32.849357
 20
-181.713254
 30
0.0
 10
32.767626
 20
-181.301060
 30
0.0
 10
33.151039
 20
-180.913162
 30
0.0
 10
33.677329
 20
-180.519231
 30
0.0
 10
34.024217
 20
-180.088941
 30
0.0
 10
34.487431
 20
-179.863826
 30
0.0
 10
34.574915
 20
-179.540298
 30
0.0
 10
34.370789
 20
-179.189134
 30
0.0
 10
33.959179
 20
-178.881114
 30
0.0
 10
33.194983
 20
-179.546563
 30
0.0
 10
32.351816
 20
-180.156395
 30
0.0
 10
31.504348
 20
-180.767586
 30
0.0
 10
30.727244
 20
-181.437116
 30
0.0
 10
30.267306
 20
-181.844879
 30
0.0
 10
29.794824
 20
-182.232117
 30
0.0
 10
29.337912
 20
-182.630575
 30
0.0
 10
28.924687
 20
-183.072001
 30
0.0
 10
28.873391
 20
-183.140957
 30
0.0
 10
28.827451
 20
-183.213897
 30
0.0
 10
28.787254
 20
-183.290156
 30
0.0
 10
28.753184
 20
-183.369057
 30
0.0
 10
28.577512
 20
-183.947635
 30
0.0
 10
28.460892
 20
-184.542560
 30
0.0
 10
28.361775
 20
-185.145358
 30
0.0
 10
28.238611
 20
-185.747558
 30
0.0
 10
28.047332
 20
-186.755318
 30
0.0
 10
27.941758
 20
-187.794844
 30
0.0
 10
27.835211
 20
-188.829950
 30
0.0
 10
27.641014
 20
-189.824501
 30
0.0
 10
28.113571
 20
-190.026967
 30
0.0
 10
28.519749
 20
-190.026967
 30
0.0
 10
28.756195
 20
-189.789421
 30
0.0
 10
28.719543
 20
-189.275720
 30
0.0
 10
28.918741
 20
-188.760156
 30
0.0
 10
28.996750
 20
-188.107433
 30
0.0
 10
29.140971
 20
-187.581427
 30
0.0
 10
29.538806
 20
-187.446102
 30
0.0
 10
30.106995
 20
-187.512508
 30
0.0
 10
30.426412
 20
-187.367503
 30
0.0
 10
30.581278
 20
-186.995477
 30
0.0
 10
30.655813
 20
-186.380828
 30
0.0
 10
30.655813
 20
-186.381957
 30
0.0
 10
30.655813
 20
-186.382014
 30
0.0
  0
LWPOLYLINE
  5
13b
100
AcDbEntity
  8
0
 62
7
100
AcDbPolyline
 90
50
 70
0
 10
41.351149
 20
-178.094547
 30
0.0
 10
42.175275
 20
-177.857167
 30
0.0
 10
43.180638
 20
-177.778040
 30
0.0
 10
44.185998
 20
-177.857167
 30
0.0
 10
45.010124
 20
-178.094547
 30
0.0
 10
45.579699
 20
-178.337326
 30
0.0
 10
45.979314
 20
-178.389221
 30
0.0
 10
46.264599
 20
-178.185104
 30
0.0
 10
46.491186
 20
-177.659834
 30
0.0
 10
46.807289
 20
-177.382955
 30
0.0
 10
47.334926
 20
-177.521054
 30
0.0
 10
47.939226
 20
-177.779866
 30
0.0
 10
48.485312
 20
-177.865134
 30
0.0
 10
48.911877
 20
-178.153735
 30
0.0
 10
49.235800
 20
-178.067733
 30
0.0
 10
49.437854
 20
-177.715373
 30
0.0
 10
49.498803
 20
-177.204898
 30
0.0
 10
48.540410
 20
-176.875810
 30
0.0
 10
47.590696
 20
-176.450523
 30
0.0
 10
46.637654
 20
-176.022189
 30
0.0
 10
45.669273
 20
-175.683963
 30
0.0
 10
45.086171
 20
-175.489526
 30
0.0
 10
44.514572
 20
-175.273959
 30
0.0
 10
43.941043
 20
-175.077493
 30
0.0
 10
43.352144
 20
-174.940344
 30
0.0
 10
43.266778
 20
-174.930410
 30
0.0
 10
43.180638
 20
-174.927108
 30
0.0
 10
43.094498
 20
-174.930410
 30
0.0
 10
43.009131
 20
-174.940344
 30
0.0
 10
42.420232
 20
-175.077490
 30
0.0
 10
41.846703
 20
-175.273964
 30
0.0
 10
41.275104
 20
-175.489529
 30
0.0
 10
40.692002
 20
-175.683963
 30
0.0
 10
39.772195
 20
-176.104601
 30
0.0
 10
38.781056
 20
-176.427407
 30
0.0
 10
37.788009
 20
-176.758721
 30
0.0
 10
36.862472
 20
-177.204901
 30
0.0
 10
36.923427
 20
-177.715376
 30
0.0
 10
37.125481
 20
-178.067736
 30
0.0
 10
37.449402
 20
-178.153737
 30
0.0
 10
37.875964
 20
-177.865134
 30
0.0
 10
38.422049
 20
-177.779866
 30
0.0
 10
39.026346
 20
-177.521054
 30
0.0
 10
39.553986
 20
-177.382955
 30
0.0
 10
39.870089
 20
-177.659834
 30
0.0
 10
40.096677
 20
-178.185104
 30
0.0
 10
40.381961
 20
-178.389221
 30
0.0
 10
40.781577
 20
-178.337326
 30
0.0
 10
41.351149
 20
-178.094547
 30
0.0
 10
41.351149
 20
-178.094547
 30
0.0
  0
LWPOLYLINE
  5
13c
100
AcDbEntity
  8
0
 62
7
100
AcDbPolyline
 90
51
 70
0
 10
53.875977
 20
-183.213248
 30
0.0
 10
54.493617
 20
-183.808271
 30
0.0
 10
55.064824
 20
-184.639376
 30
0.0
 10
55.498977
 20
-185.549611
 30
0.0
 10
55.705462
 20
-186.382014
 30
0.0
 10
55.779997
 20
-186.996663
 30
0.0
 10
55.934864
 20
-187.368688
 30
0.0
 10
56.254280
 20
-187.513694
 30
0.0
 10
56.822470
 20
-187.447287
 30
0.0
 10
57.220304
 20
-187.582612
 30
0.0
 10
57.364526
 20
-188.108618
 30
0.0
 10
57.442535
 20
-188.761342
 30
0.0
 10
57.641733
 20
-189.276905
 30
0.0
 10
57.605081
 20
-189.790606
 30
0.0
 10
57.841526
 20
-190.028153
 30
0.0
 10
58.247706
 20
-190.028153
 30
0.0
 10
58.720262
 20
-189.825686
 30
0.0
 10
58.526065
 20
-188.831135
 30
0.0
 10
58.419517
 20
-187.796029
 30
0.0
 10
58.313944
 20
-186.756503
 30
0.0
 10
58.122665
 20
-185.748744
 30
0.0
 10
57.999500
 20
-185.146544
 30
0.0
 10
57.900387
 20
-184.543745
 30
0.0
 10
57.783767
 20
-183.948818
 30
0.0
 10
57.608092
 20
-183.370243
 30
0.0
 10
57.574022
 20
-183.291342
 30
0.0
 10
57.533822
 20
-183.215085
 30
0.0
 10
57.487882
 20
-183.142142
 30
0.0
 10
57.436585
 20
-183.073187
 30
0.0
 10
57.023361
 20
-182.631760
 30
0.0
 10
56.566449
 20
-182.233305
 30
0.0
 10
56.093967
 20
-181.846068
 30
0.0
 10
55.634029
 20
-181.438304
 30
0.0
 10
54.809842
 20
-180.852047
 30
0.0
 10
54.034715
 20
-180.155099
 30
0.0
 10
53.251264
 20
-179.460754
 30
0.0
 10
52.402094
 20
-178.882302
 30
0.0
 10
51.990487
 20
-179.190323
 30
0.0
 10
51.786358
 20
-179.541486
 30
0.0
 10
51.873841
 20
-179.865014
 30
0.0
 10
52.337058
 20
-180.090129
 30
0.0
 10
52.683946
 20
-180.520419
 30
0.0
 10
53.210234
 20
-180.914350
 30
0.0
 10
53.593647
 20
-181.302248
 30
0.0
 10
53.511916
 20
-181.714442
 30
0.0
 10
53.170314
 20
-182.173307
 30
0.0
 10
53.136185
 20
-182.522430
 30
0.0
 10
53.380936
 20
-182.842558
 30
0.0
 10
53.875977
 20
-183.214433
 30
0.0
 10
53.875977
 20
-183.213304
 30
0.0
 10
53.875977
 20
-183.213248
 30
0.0
  0
LWPOLYLINE
  5
13d
100
AcDbEntity
  8
0
 62
7
100
AcDbPolyline
 90
50
 70
0
 10
45.010126
 20
-204.906880
 30
0.0
 10
44.186001
 20
-205.144257
 30
0.0
 10
43.180638
 20
-205.223392
 30
0.0
 10
42.175275
 20
-205.144257
 30
0.0
 10
41.351149
 20
-204.906880
 30
0.0
 10
40.781577
 20
-204.664112
 30
0.0
 10
40.381961
 20
-204.612212
 30
0.0
 10
40.096677
 20
-204.816343
 30
0.0
 10
39.870089
 20
-205.341587
 30
0.0
 10
39.553986
 20
-205.618475
 30
0.0
 10
39.026346
 20
-205.480384
 30
0.0
 10
38.422049
 20
-205.221558
 30
0.0
 10
37.875964
 20
-205.136298
 30
0.0
 10
37.449399
 20
-204.847698
 30
0.0
 10
37.125475
 20
-204.933691
 30
0.0
 10
36.923421
 20
-205.286046
 30
0.0
 10
36.862472
 20
-205.796529
 30
0.0
 10
37.788009
 20
-206.242694
 30
0.0
 10
38.781056
 20
-206.574023
 30
0.0
 10
39.772195
 20
-206.896829
 30
0.0
 10
40.692002
 20
-207.317481
 30
0.0
 10
41.275107
 20
-207.511904
 30
0.0
 10
41.846706
 20
-207.727437
 30
0.0
 10
42.420235
 20
-207.923920
 30
0.0
 10
43.009131
 20
-208.061080
 30
0.0
 10
43.094498
 20
-208.070958
 30
0.0
 10
43.180632
 20
-208.074345
 30
0.0
 10
43.266772
 20
-208.070958
 30
0.0
 10
43.352144
 20
-208.061080
 30
0.0
 10
43.941038
 20
-207.923892
 30
0.0
 10
44.514572
 20
-207.727465
 30
0.0
 10
45.086168
 20
-207.511904
 30
0.0
 10
45.669273
 20
-207.317481
 30
0.0
 10
46.637654
 20
-206.979238
 30
0.0
 10
47.590696
 20
-206.550909
 30
0.0
 10
48.540410
 20
-206.125628
 30
0.0
 10
49.498803
 20
-205.796529
 30
0.0
 10
49.437860
 20
-205.286046
 30
0.0
 10
49.235806
 20
-204.933691
 30
0.0
 10
48.911877
 20
-204.847698
 30
0.0
 10
48.485312
 20
-205.136298
 30
0.0
 10
47.939226
 20
-205.221558
 30
0.0
 10
47.334929
 20
-205.480384
 30
0.0
 10
46.807289
 20
-205.618475
 30
0.0
 10
46.491186
 20
-205.341587
 30
0.0
 10
46.264599
 20
-204.816343
 30
0.0
 10
45.979314
 20
-204.612212
 30
0.0
 10
45.579699
 20
-204.664112
 30
0.0
 10
45.010126
 20
-204.906880
 30
0.0
 10
45.010126
 20
-204.906880
 30
0.0
  0
LWPOLYLINE
  5
13e
100
AcDbEntity
  8
0
 62
7
100
AcDbPolyline
 90
247
 70
0
 10
43.170887
 20
-196.293458
 30
0.0
 10
43.175769
 20
-196.293373
 30
0.0
 10
43.180652
 20
-196.293204
 30
0.0
 10
43.185534
 20
-196.293176
 30
0.0
 10
43.190389
 20
-196.293176
 30
0.0
 10
43.657099
 20
-196.210851
 30
0.0
 10
44.164295
 20
-196.058875
 30
0.0
 10
44.578829
 20
-196.114755
 30
0.0
 10
44.767492
 20
-196.657101
 30
0.0
 10
44.925629
 20
-197.294613
 30
0.0
 10
45.119191
 20
-197.908587
 30
0.0
 10
45.322809
 20
-198.516522
 30
0.0
 10
45.511113
 20
-199.136000
 30
0.0
 10
45.700355
 20
-199.675073
 30
0.0
 10
45.821481
 20
-200.288624
 30
0.0
 10
45.992003
 20
-200.876352
 30
0.0
 10
46.329433
 20
-201.337870
 30
0.0
 10
46.720311
 20
-201.545331
 30
0.0
 10
47.169967
 20
-201.632764
 30
0.0
 10
47.641569
 20
-201.629095
 30
0.0
 10
48.098292
 20
-201.562801
 30
0.0
 10
48.472386
 20
-201.453609
 30
0.0
 10
48.828788
 20
-201.283429
 30
0.0
 10
49.154362
 20
-201.059881
 30
0.0
 10
49.435978
 20
-200.790500
 30
0.0
 10
49.721756
 20
-200.428098
 30
0.0
 10
49.960857
 20
-200.021585
 30
0.0
 10
50.109961
 20
-199.588459
 30
0.0
 10
50.125737
 20
-199.146216
 30
0.0
 10
49.894752
 20
-198.623230
 30
0.0
 10
49.471038
 20
-198.181694
 30
0.0
 10
49.000243
 20
-197.770016
 30
0.0
 10
48.628015
 20
-197.336579
 30
0.0
 10
48.185677
 20
-196.863772
 30
0.0
 10
47.760994
 20
-196.383458
 30
0.0
 10
47.326082
 20
-195.908874
 30
0.0
 10
46.853049
 20
-195.453169
 30
0.0
 10
46.477685
 20
-195.018604
 30
0.0
 10
46.636542
 20
-194.631649
 30
0.0
 10
47.021993
 20
-194.268513
 30
0.0
 10
47.326412
 20
-193.905378
 30
0.0
 10
47.328387
 20
-193.900862
 30
0.0
 10
47.330645
 20
-193.896629
 30
0.0
 10
47.333185
 20
-193.892396
 30
0.0
 10
47.336007
 20
-193.888445
 30
0.0
 10
47.498260
 20
-193.443239
 30
0.0
 10
47.620044
 20
-192.927873
 30
0.0
 10
47.875723
 20
-192.596826
 30
0.0
 10
48.439747
 20
-192.704607
 30
0.0
 10
49.070915
 20
-192.886415
 30
0.0
 10
49.699390
 20
-193.025776
 30
0.0
 10
50.327690
 20
-193.153397
 30
0.0
 10
50.958332
 20
-193.300068
 30
0.0
 10
51.519799
 20
-193.405760
 30
0.0
 10
52.111724
 20
-193.607634
 30
0.0
 10
52.705962
 20
-193.753768
 30
0.0
 10
53.274375
 20
-193.692300
 30
0.0
 10
53.649479
 20
-193.457520
 30
0.0
 10
53.950032
 20
-193.111826
 30
0.0
 10
54.182532
 20
-192.701503
 30
0.0
 10
54.353480
 20
-192.272835
 30
0.0
 10
54.445958
 20
-191.894262
 30
0.0
 10
54.476785
 20
-191.500506
 30
0.0
 10
54.445958
 20
-191.106778
 30
0.0
 10
54.353480
 20
-190.728205
 30
0.0
 10
54.182532
 20
-190.299509
 30
0.0
 10
53.950035
 20
-189.889186
 30
0.0
 10
53.649482
 20
-189.543492
 30
0.0
 10
53.274378
 20
-189.308712
 30
0.0
 10
52.705965
 20
-189.247244
 30
0.0
 10
52.111724
 20
-189.393435
 30
0.0
 10
51.519802
 20
-189.595337
 30
0.0
 10
50.958332
 20
-189.700972
 30
0.0
 10
50.327693
 20
-189.847643
 30
0.0
 10
49.699393
 20
-189.975264
 30
0.0
 10
49.070918
 20
-190.114626
 30
0.0
 10
48.439747
 20
-190.296433
 30
0.0
 10
47.875723
 20
-190.404214
 30
0.0
 10
47.620050
 20
-190.073167
 30
0.0
 10
47.498291
 20
-189.557801
 30
0.0
 10
47.336010
 20
-189.112596
 30
0.0
 10
47.333188
 20
-189.108644
 30
0.0
 10
47.330648
 20
-189.104411
 30
0.0
 10
47.328390
 20
-189.100178
 30
0.0
 10
47.326415
 20
-189.095662
 30
0.0
 10
47.021964
 20
-188.732555
 30
0.0
 10
46.636522
 20
-188.369392
 30
0.0
 10
46.477679
 20
-187.982437
 30
0.0
 10
46.853052
 20
-187.547871
 30
0.0
 10
47.326084
 20
-187.092167
 30
0.0
 10
47.760997
 20
-186.617570
 30
0.0
 10
48.185680
 20
-186.137262
 30
0.0
 10
48.628018
 20
-185.664444
 30
0.0
 10
49.000246
 20
-185.231021
 30
0.0
 10
49.471041
 20
-184.819344
 30
0.0
 10
49.894755
 20
-184.377810
 30
0.0
 10
50.125740
 20
-183.854821
 30
0.0
 10
50.109964
 20
-183.412582
 30
0.0
 10
49.960860
 20
-182.979449
 30
0.0
 10
49.721759
 20
-182.572934
 30
0.0
 10
49.435980
 20
-182.210546
 30
0.0
 10
49.154362
 20
-181.941171
 30
0.0
 10
48.828791
 20
-181.717606
 30
0.0
 10
48.472389
 20
-181.547434
 30
0.0
 10
48.098295
 20
-181.438234
 30
0.0
 10
47.641572
 20
-181.371937
 30
0.0
 10
47.169970
 20
-181.368127
 30
0.0
 10
46.720314
 20
-181.455565
 30
0.0
 10
46.329436
 20
-181.663024
 30
0.0
 10
45.992006
 20
-182.124556
 30
0.0
 10
45.821484
 20
-182.712273
 30
0.0
 10
45.700357
 20
-183.325835
 30
0.0
 10
45.511116
 20
-183.864905
 30
0.0
 10
45.322812
 20
-184.484388
 30
0.0
 10
45.119194
 20
-185.092329
 30
0.0
 10
44.925632
 20
-185.706275
 30
0.0
 10
44.767494
 20
-186.343787
 30
0.0
 10
44.578832
 20
-186.886133
 30
0.0
 10
44.164295
 20
-186.942010
 30
0.0
 10
43.657085
 20
-186.789763
 30
0.0
 10
43.190394
 20
-186.707732
 30
0.0
 10
43.185540
 20
-186.708296
 30
0.0
 10
43.180658
 20
-186.708452
 30
0.0
 10
43.175775
 20
-186.708291
 30
0.0
 10
43.170893
 20
-186.707726
 30
0.0
 10
42.704199
 20
-186.789777
 30
0.0
 10
42.196983
 20
-186.942055
 30
0.0
 10
41.782450
 20
-186.886144
 30
0.0
 10
41.593787
 20
-186.343778
 30
0.0
 10
41.435652
 20
-185.706269
 30
0.0
 10
41.242090
 20
-185.092320
 30
0.0
 10
41.038472
 20
-184.484380
 30
0.0
 10
40.850168
 20
-183.864896
 30
0.0
 10
40.660927
 20
-183.325826
 30
0.0
 10
40.539800
 20
-182.712264
 30
0.0
 10
40.369278
 20
-182.124550
 30
0.0
 10
40.031848
 20
-181.663018
 30
0.0
 10
39.640970
 20
-181.455560
 30
0.0
 10
39.191317
 20
-181.368119
 30
0.0
 10
38.719712
 20
-181.371929
 30
0.0
 10
38.262986
 20
-181.438225
 30
0.0
 10
37.888892
 20
-181.547426
 30
0.0
 10
37.532491
 20
-181.717597
 30
0.0
 10
37.206919
 20
-181.941162
 30
0.0
 10
36.925301
 20
-182.210538
 30
0.0
 10
36.639525
 20
-182.572925
 30
0.0
 10
36.400421
 20
-182.979438
 30
0.0
 10
36.251320
 20
-183.412570
 30
0.0
 10
36.235544
 20
-183.854810
 30
0.0
 10
36.466529
 20
-184.377798
 30
0.0
 10
36.890243
 20
-184.819335
 30
0.0
 10
37.361041
 20
-185.231013
 30
0.0
 10
37.733269
 20
-185.664435
 30
0.0
 10
38.175605
 20
-186.137254
 30
0.0
 10
38.600287
 20
-186.617559
 30
0.0
 10
39.035200
 20
-187.092167
 30
0.0
 10
39.508232
 20
-187.547871
 30
0.0
 10
39.883591
 20
-187.982437
 30
0.0
 10
39.724725
 20
-188.369392
 30
0.0
 10
39.339272
 20
-188.732527
 30
0.0
 10
39.034867
 20
-189.095662
 30
0.0
 10
39.032891
 20
-189.100178
 30
0.0
 10
39.030633
 20
-189.104411
 30
0.0
 10
39.028093
 20
-189.108644
 30
0.0
 10
39.025271
 20
-189.112596
 30
0.0
 10
38.863030
 20
-189.557829
 30
0.0
 10
38.741246
 20
-190.073167
 30
0.0
 10
38.485564
 20
-190.404214
 30
0.0
 10
37.921534
 20
-190.296433
 30
0.0
 10
37.290364
 20
-190.114626
 30
0.0
 10
36.661889
 20
-189.975264
 30
0.0
 10
36.033589
 20
-189.847643
 30
0.0
 10
35.402949
 20
-189.700972
 30
0.0
 10
34.841479
 20
-189.595280
 30
0.0
 10
34.249555
 20
-189.393378
 30
0.0
 10
33.655316
 20
-189.247244
 30
0.0
 10
33.086904
 20
-189.308712
 30
0.0
 10
32.711799
 20
-189.543492
 30
0.0
 10
32.411249
 20
-189.889186
 30
0.0
 10
32.178749
 20
-190.299509
 30
0.0
 10
32.007802
 20
-190.728205
 30
0.0
 10
31.915323
 20
-191.106778
 30
0.0
 10
31.884496
 20
-191.500534
 30
0.0
 10
31.915323
 20
-191.894262
 30
0.0
 10
32.007802
 20
-192.272835
 30
0.0
 10
32.178749
 20
-192.701503
 30
0.0
 10
32.411249
 20
-193.111826
 30
0.0
 10
32.711802
 20
-193.457520
 30
0.0
 10
33.086906
 20
-193.692300
 30
0.0
 10
33.655319
 20
-193.753768
 30
0.0
 10
34.249558
 20
-193.607577
 30
0.0
 10
34.841482
 20
-193.405704
 30
0.0
 10
35.402949
 20
-193.300068
 30
0.0
 10
36.033589
 20
-193.153397
 30
0.0
 10
36.661889
 20
-193.025776
 30
0.0
 10
37.290367
 20
-192.886415
 30
0.0
 10
37.921534
 20
-192.704607
 30
0.0
 10
38.485561
 20
-192.596826
 30
0.0
 10
38.741237
 20
-192.927873
 30
0.0
 10
38.862999
 20
-193.443239
 30
0.0
 10
39.025274
 20
-193.888445
 30
0.0
 10
39.028096
 20
-193.892396
 30
0.0
 10
39.030636
 20
-193.896629
 30
0.0
 10
39.032894
 20
-193.900862
 30
0.0
 10
39.034870
 20
-193.905378
 30
0.0
 10
39.339274
 20
-194.268513
 30
0.0
 10
39.724728
 20
-194.631649
 30
0.0
 10
39.883591
 20
-195.018604
 30
0.0
 10
39.508232
 20
-195.453169
 30
0.0
 10
39.035200
 20
-195.908874
 30
0.0
 10
38.600287
 20
-196.383458
 30
0.0
 10
38.175605
 20
-196.863772
 30
0.0
 10
37.733269
 20
-197.336579
 30
0.0
 10
37.361041
 20
-197.770016
 30
0.0
 10
36.890243
 20
-198.181694
 30
0.0
 10
36.466529
 20
-198.623230
 30
0.0
 10
36.235544
 20
-199.146216
 30
0.0
 10
36.251320
 20
-199.588459
 30
0.0
 10
36.400424
 20
-200.021585
 30
0.0
 10
36.639525
 20
-200.428098
 30
0.0
 10
36.925304
 20
-200.790500
 30
0.0
 10
37.206919
 20
-201.059881
 30
0.0
 10
37.532493
 20
-201.283429
 30
0.0
 10
37.888892
 20
-201.453609
 30
0.0
 10
38.262989
 20
-201.562801
 30
0.0
 10
38.719715
 20
-201.629095
 30
0.0
 10
39.191319
 20
-201.632764
 30
0.0
 10
39.640973
 20
-201.545331
 30
0.0
 10
40.031851
 20
-201.337870
 30
0.0
 10
40.369281
 20
-200.876352
 30
0.0
 10
40.539803
 20
-200.288624
 30
0.0
 10
40.660930
 20
-199.675073
 30
0.0
 10
40.850171
 20
-199.136000
 30
0.0
 10
41.038475
 20
-198.516522
 30
0.0
 10
41.242093
 20
-197.908587
 30
0.0
 10
41.435655
 20
-197.294613
 30
0.0
 10
41.593790
 20
-196.657101
 30
0.0
 10
41.782452
 20
-196.114755
 30
0.0
 10
42.196986
 20
-196.058846
 30
0.0
 10
42.704199
 20
-196.211077
 30
0.0
 10
43.170896
 20
-196.293147
 30
0.0
 10
43.170893
 20
-196.293147
 30
0.0
 10
43.170893
 20
-196.293147
 30
0.0
 10
43.170890
 20
-196.293147
 30
0.0
 10
43.170890
 20
-196.293147
 30
0.0
 10
43.170887
 20
-196.293147
 30
0.0
 10
43.170887
 20
-196.293458
 30
0.0
  0
ENDSEC
  0
SECTION
  2
OBJECTS
  0
DICTIONARY
  5
C
330
0
100
AcDbDictionary
  3
ACAD_GROUP
350
D
  3
ACAD_MLINESTYLE
350
17
  0
DICTIONARY
  5
D
330
C
100
AcDbDictionary
  0
DICTIONARY
  5
1A
330
C
100
AcDbDictionary
  0
DICTIONARY
  5
17
330
C
100
AcDbDictionary
  3
STANDARD
350
18
  0
DICTIONARY
  5
19
330
C
100
AcDbDictionary
  0
ENDSEC
  0
EOF
